<?xml version="1.0" encoding="utf-8"?>
<!-- Generator: Adobe Illustrator 26.0.1, SVG Export Plug-In . SVG Version: 6.00 Build 0)  -->
<svg version="1.1" xmlns="http://www.w3.org/2000/svg" xmlns:xlink="http://www.w3.org/1999/xlink" x="0px" y="0px"
	 viewBox="0 0 3000 2000" style="enable-background:new 0 0 3000 2000;" xml:space="preserve">
<style type="text/css">
	.st0{fill:#FFFFFF;}
	.st1{opacity:0.23;}
	.st2{fill:#2D6CA9;}
	.st3{fill:#007BFF;}
	.st4{fill:#1F417B;}
	.st5{fill:#2688BF;}
	.st6{fill:#1F5493;}
	.st7{fill:#001F40;}
	.st8{fill:#2C74AF;}
	.st9{opacity:0.1;fill:#003E80;}
	.st10{opacity:0.3;fill:#4A191B;}
	.st11{fill:#95BEFF;}
	.st12{fill:#FFBA9A;}
	.st13{fill:#2A7EB7;}
	.st14{fill:#974245;}
</style>
<g id="BACKGROUND">
	<rect class="st0" width="3000" height="2000"/>
</g>
<g id="OBJECTS">
	<g class="st1">
		<path class="st2" d="M2499.43,1428.56c-45.59-134.31-167.81-244.46-309.02-257.87c-133.29-12.65-261.99,56.62-395.87,57.86
			c-216.51,2-396.21-169.76-608.31-213.26c-246.5-50.56-518.54,102.6-603.17,339.57c-54.65,153.03-26.66,328.5,60,465.14h1817.41
			C2522.32,1699.97,2542.75,1556.17,2499.43,1428.56z"/>
	</g>
	<g class="st1">
		<path class="st2" d="M1847.77,941.52c-25.95,0.78-51.96-0.29-82.12-11.22c-64.22-23.26-144.22,14.86-144.75,88.96
			c-0.41,57.51,52.47,95.57,101.46,113.11c92.41,33.08,283.82,15.74,274.81-121.56c-2.88-43.93-26.24-64.38-68.26-69.23
			C1899.25,938.16,1873.54,940.75,1847.77,941.52z"/>
	</g>
	<g>
		<g>
			<path class="st2" d="M2193.51,562.76c-25.19-8.72-42.4-23.85-61.81-46.01l8.21-17.49c20.37,26.98,27.05,41.58,52.51,39.47
				L2193.51,562.76z"/>
		</g>
	</g>
	<g>
		<g>
			<path class="st3" d="M2482.67,950.26c-18.74-24.37-27.1-49.39-34.05-82.25l15.97-10.6c5.5,37.88,4.5,55.55,28.74,70.22
				L2482.67,950.26z"/>
		</g>
	</g>
	<g>
		<g>
			<path class="st2" d="M1855.1,628.58c-26.52,6.59-48.57,2.81-75.61-6.09l-0.05-20.55c29.98,12.69,42.27,22.07,64.4,5.53
				L1855.1,628.58z"/>
		</g>
	</g>
	<g>
		<g>
			<path class="st4" d="M1173.33,544.98c-12.54,17.83-26.62,27.36-45.57,36.61l-8.14-11.7c22.12-8.65,32.84-9.81,38.94-30.99
				L1173.33,544.98z"/>
		</g>
	</g>
	<g>
		<g>
			<path class="st3" d="M737.12,1063.78c-29.79,1.5-52.09-6.74-78.31-21.2l5.4-21.04c28.32,18.92,38.82,30.95,66.61,18.4
				L737.12,1063.78z"/>
		</g>
	</g>
	<g>
		<g>
			<path class="st5" d="M791.44,553.16c-22.73-16.52-34.63-36.77-46.01-64.6l15.47-14.49c10.49,32.84,11.63,49.23,38.94,55.25
				L791.44,553.16z"/>
		</g>
	</g>
	<g>
		<g>
			<path class="st3" d="M927.43,735.4c-25.75,17.98-50.05,23.21-81.16,25.16l-6.43-21.52c35.37,0.8,51.16,5.5,69.23-21.08
				L927.43,735.4z"/>
		</g>
	</g>
	<g>
		<g>
			<path class="st5" d="M1296.22,239.57c-25.83,15.19-49.48,18.25-79.49,17.61l-4.89-21.2c33.93,3.63,48.83,9.43,67.79-14.65
				L1296.22,239.57z"/>
		</g>
	</g>
	<g>
		<path class="st4" d="M1662.27,291.95c-21.53-10.62-35.45-25.99-50.71-47.84l8.77-14.52c15.7,26.21,20.35,39.9,43.04,40.98
			L1662.27,291.95z"/>
	</g>
	<g>
		<g>
			<path class="st5" d="M1997.41,375.98c23.56-13.88,36.63-31.99,49.67-57.23l-14.41-14.63c-12.47,29.99-14.64,45.24-42.07,48.98
				L1997.41,375.98z"/>
		</g>
	</g>
	<g>
		<g>
			<path class="st3" d="M1221.78,1121.49c-23.75-14.15-38.52-32.97-54.33-59.29l11.01-15.69c16.01,31.34,20.33,47.37,46.09,50.76
				L1221.78,1121.49z"/>
		</g>
	</g>
	<g>
		<g>
			<path class="st6" d="M2007.39,908.62c-9.45,29.44-24.05,48.95-45.04,70.58l-14.96-10.99c25.33-22.46,38.74-29.43,38.6-59.93
				L2007.39,908.62z"/>
		</g>
	</g>
	<circle class="st4" cx="1032" cy="421.33" r="10"/>
	<circle class="st5" cx="1826.67" cy="421.33" r="10"/>
	<circle class="st4" cx="2088" cy="726" r="10"/>
	<circle class="st4" cx="1048" cy="827.33" r="10"/>
	
		<rect x="577.95" y="725.52" transform="matrix(0.7071 -0.7071 0.7071 0.7071 -349.6032 635.3159)" class="st4" width="28.28" height="28.28"/>
	
		<rect x="2314.71" y="692.76" transform="matrix(0.7071 -0.7071 0.7071 0.7071 182.2478 1853.7926)" class="st4" width="28.28" height="28.28"/>
	<g>
		<path class="st2" d="M1639.51,1419.41l-168.48,0.21l-0.05-39.35c-0.02-13.89,11.23-25.17,25.13-25.19l118.16-0.14
			c13.9-0.02,25.17,11.23,25.19,25.13L1639.51,1419.41z"/>
		<rect x="1500.75" y="1184.49" class="st2" width="109" height="193"/>
		<polygon class="st4" points="1500.75,1267.9 1500.75,1184.49 1609.75,1184.49 1609.64,1225 		"/>
		<path class="st2" d="M1742.68,1035.65l-6.95-22.97c127.63-38.63,181.75-118.47,165.44-244.08c-0.18-0.18-1.53-0.97-3.19-0.52
			l-17.57,4.75c-7.03,1.9-11.76,7.17-11.76,13.1v27.22c0,16.52-13.94,29.72-31.73,30.07c-18.39,0.35-49.86,0.95-54.05,0.95v-24
			c2.87,0,22.9-0.35,53.59-0.94c4.44-0.08,8.2-2.87,8.2-6.07v-27.22c0-16.92,11.85-31.49,29.49-36.27l17.57-4.75
			c7.73-2.09,15.92-0.78,22.49,3.6c5.96,3.98,9.88,10.17,10.77,17c8.57,66.03-1.04,121.75-28.57,165.63
			C1866.59,978.63,1814.87,1013.8,1742.68,1035.65z"/>
		<path class="st2" d="M1367.6,1035.65c-72.19-21.85-123.91-57.01-153.71-104.51c-27.53-43.88-37.15-99.6-28.57-165.63
			c0.89-6.82,4.81-13.02,10.77-17c6.56-4.38,14.76-5.68,22.49-3.6l17.56,4.75c17.64,4.77,29.49,19.35,29.49,36.27v27.22
			c0,3.21,3.75,5.98,8.2,6.07c30.68,0.59,50.71,0.94,53.59,0.94v24c-4.19,0-35.66-0.59-54.05-0.95
			c-17.79-0.34-31.73-13.55-31.73-30.07v-27.22c0-5.93-4.73-11.2-11.76-13.1l-17.56-4.75c-1.67-0.46-3.02,0.33-3.25,0.71
			c-16.25,125.42,37.87,205.26,165.5,243.89L1367.6,1035.65z"/>
		<path class="st2" d="M1795.18,771.02l-26.08,325.68c-3.12,39.04-22.16,73.28-50.44,96.52c-24.12,19.84-55,31.68-88.48,31.68
			H1480.3c-72.64,0-133.08-55.8-138.88-128.2l-13.52-169l-12.56-156.68c-1.96-24.52,17.4-45.52,42.04-45.52h395.76
			C1777.74,725.5,1797.14,746.5,1795.18,771.02z"/>
		<path class="st4" d="M1718.66,1193.22c-24.12,19.84-55,31.68-88.48,31.68H1480.3c-72.64,0-133.08-55.8-138.88-128.2l-13.52-169
			C1422.82,1047.66,1574.18,1150.58,1718.66,1193.22z"/>
		<rect x="1480.3" y="1222.9" class="st7" width="156.17" height="4"/>
		<rect x="1496.11" y="1353.08" class="st7" width="29.03" height="4"/>
		<rect x="1586.11" y="1353.08" class="st7" width="29.03" height="4"/>
		<path class="st2" d="M1678.73,1514.68l-246.95,0.3l-0.08-65.23c-0.03-24.33,19.67-44.08,44-44.11l158.84-0.19
			c24.33-0.03,44.08,19.67,44.11,44L1678.73,1514.68z"/>
		<rect x="1471.14" y="1404" class="st5" width="168.25" height="4"/>
		<ellipse class="st5" cx="1683.64" cy="868.29" rx="22" ry="43"/>
	</g>
	<g>
		<rect x="949.93" y="1717.67" class="st8" width="1211.42" height="102.98"/>
		<rect x="1150.11" y="1614.7" class="st8" width="811.05" height="102.98"/>
		<rect x="1290.39" y="1511.72" class="st8" width="530.5" height="102.98"/>
		<rect x="1257.24" y="1717.68" class="st4" width="596.8" height="102.96"/>
		<rect x="1343.16" y="1614.68" class="st4" width="424.96" height="103"/>
		<rect x="1431.28" y="1511.72" class="st4" width="248.72" height="102.96"/>
		<rect x="1290.4" y="1590.64" class="st9" width="140.88" height="24"/>
		<rect x="1680" y="1590.64" class="st9" width="140.88" height="24"/>
		<rect x="1431.28" y="1590.64" class="st10" width="248.72" height="24"/>
		<rect x="1150.12" y="1693.52" class="st9" width="193.04" height="24"/>
		<rect x="1768.12" y="1693.52" class="st9" width="193.04" height="24"/>
		<rect x="1343.16" y="1693.52" class="st10" width="424.96" height="24"/>
		<rect x="949.92" y="1796.64" class="st9" width="307.32" height="24"/>
		<rect x="1854.04" y="1796.64" class="st9" width="307.32" height="24"/>
		<rect x="1257.24" y="1796.64" class="st10" width="596.8" height="24"/>
		<polygon class="st2" points="951.93,1820.65 947.93,1820.65 947.93,1715.67 1148.12,1715.52 1148.11,1612.7 1288.4,1612.64 
			1288.39,1509.72 1430.3,1509.72 1430.3,1513.72 1292.39,1513.72 1292.4,1616.64 1152.11,1616.7 1152.12,1719.52 951.93,1719.67 		
			"/>
		<polygon class="st11" points="2163.35,1820.65 2159.35,1820.65 2159.35,1719.67 1959.16,1719.52 1959.17,1616.7 1818.88,1616.64 
			1818.89,1513.72 1678.69,1513.72 1678.69,1509.72 1822.89,1509.72 1822.88,1612.64 1963.17,1612.7 1963.16,1715.52 
			2163.35,1715.67 		"/>
	</g>
	<g>
		<g>
			<polygon class="st4" points="1530.27,815.08 1515.35,864.49 1573.57,882.84 1554.13,850.32 1559.84,821.76 			"/>
			
				<rect x="1541.69" y="851.21" transform="matrix(0.8973 -0.4413 0.4413 0.8973 -217.6124 770.8893)" class="st2" width="13.11" height="4"/>
		</g>
		<path class="st4" d="M1519.97,660.66l40.95,3.93c8.42,0.81,16.66,3.57,23.35,8.75c13.01,10.08,18.14,25.77,15.33,41.78
			c-0.73,4.15-1.61,7.98-2.24,11.25l-33.51,118.86l-50.82-27.12l22.67-88.52l-51.6-1.6l-28.15-59.02l10.16-47.05L1519.97,660.66z"/>
	</g>
	<g>
		<g>
			<polygon class="st4" points="1512.9,868.29 1500.23,922.45 1564.11,938.21 1540.98,904.56 1545.16,873.46 			"/>
			
				<rect x="1527.78" y="906.08" transform="matrix(0.8672 -0.498 0.498 0.8672 -248.3592 885.0068)" class="st2" width="14.13" height="4"/>
		</g>
		<path class="st4" d="M1458.29,728.8l43.86,160.02l49.26-5.58l-28.81-169.58c-2.79-14.78-3.41-23.86-26.04-35.13l-24.23-13.44
			l-6.21-43.14l-36.75,23.93l-5.94,56.2c-1.44,13.61,8.7,25.63,22.11,26.2L1458.29,728.8"/>
	</g>
	<path class="st0" d="M1522.13,659.83l-73.07,8.3c-8.16,0.93-15.53-4.91-16.49-13.07l-12.75-108.2l60.92-14.86l64.63,9.66
		l-11.86,106.76C1532.84,654.41,1528.12,659.15,1522.13,659.83z"/>
	<g>
		<path class="st12" d="M1370.15,417.55c0,0,5.68-27.9,1.28-26.88c-4.4,1.02-8.93,11.73-8.93,11.73s-9.66-23.21-13.36-22.97
			c-3.71,0.23-2.59,6.12-2.59,6.12s-6.91-3.28-8.71,3.53c0,0-6.91-3.28-6.85,9.37c0.02,4.6,3.72,20.58,8.41,39.06l33.09-12.58
			L1370.15,417.55z"/>
		<path class="st13" d="M1395.64,489l-23.16-64.08l-33.09,12.58c5.8,22.83,13.12,49.47,16.93,63.16c1.68,6.03,4.71,11.57,8.89,16.23
			l66.44,79.11l28.67-40.67L1395.64,489z"/>
		<g>
			<path class="st14" d="M1358.08,415.14c-3.27-3.88-3-7.61,0.83-11.08l0.67,0.74c-3.39,3.09-3.63,6.26-0.73,9.7L1358.08,415.14z"/>
			
				<rect x="1347.49" y="385.02" transform="matrix(0.9448 -0.3277 0.3277 0.9448 -54.1048 463.3685)" class="st14" width="1" height="14.45"/>
			<polygon class="st14" points="1342.8,401.24 1338.62,388.79 1339.56,388.47 1343.75,400.93 			"/>
			<polygon class="st14" points="1338.32,404.75 1333.09,390.4 1334.03,390.05 1339.26,404.41 			"/>
		</g>
	</g>
	<g>
		<path class="st12" d="M1627.09,378.23c-0.74-12.63-9.28-10.07-9.28-10.07c-1.67-5.5-7.06-1.82-7.06-1.82s0.28-3.68-3.44-3.68
			c-3.71,0-11.42,21.51-11.42,21.51s-5.2-10.4-9.66-11.14c-4.46-0.74,2.97,26.74,2.97,26.74l-2.14,8.63l33.63,11.84
			C1624.44,400.46,1627.37,383.03,1627.09,378.23z"/>
		<path class="st13" d="M1587.06,408.41L1567.64,474l-56,74.67l32,33.33l56.78-83.4c3.87-4.92,6.55-10.63,7.84-16.76
			c2.83-13.41,8.16-39.03,12.43-61.59L1587.06,408.41z"/>
		<g>
			<path class="st14" d="M1601.41,396.72l-0.83-0.56c2.52-3.73,1.94-6.86-1.77-9.56l0.59-0.81
				C1603.58,388.83,1604.26,392.51,1601.41,396.72z"/>
			
				<rect x="1601.79" y="372.37" transform="matrix(0.2259 -0.9741 0.9741 0.2259 882.2466 1856.0276)" class="st14" width="14.45" height="1"/>
			
				<rect x="1609.49" y="374.25" transform="matrix(0.2149 -0.9766 0.9766 0.2149 902.7629 1872.5076)" class="st14" width="13.14" height="1"/>
			<polygon class="st14" points="1619.96,384.28 1618.99,384.04 1622.66,369.21 1623.62,369.45 			"/>
		</g>
	</g>
	<g>
		<path class="st12" d="M1479.86,549.95L1479.86,549.95c-7,0-12.67-5.67-12.67-12.67v-22.49h25.34v22.49
			C1492.53,544.28,1486.86,549.95,1479.86,549.95z"/>
		<path class="st7" d="M1492.25,518.03c-3.98,14.14-20.18,14.73-25.19,0H1492.25z"/>
		<ellipse class="st12" cx="1479.86" cy="501.83" rx="18.7" ry="21.8"/>
		<path class="st7" d="M1462.75,502.2c1.1-15.03,11.05-18.56,11.05-18.56l12.93-0.22c5.3,3.98,9.82,11.47,10.05,19.34l4.42-0.22
			c2.75-14.69,0.33-29.06-8.18-32.37l4.2-2.1c-35.07-7.76-43.75,6.3-39.55,30.94L1462.75,502.2z"/>
		<g>
			<path class="st12" d="M1465.08,500.79c1.4,2.94,0.45,6.31-2.12,7.54c-2.57,1.22-5.79-0.17-7.19-3.1s-0.45-6.31,2.12-7.54
				C1460.47,496.46,1463.69,497.85,1465.08,500.79z"/>
			<path class="st7" d="M1461.34,504.48c-0.6-1.7-1.72-2.81-3.41-3.41l0.3-0.84c1.97,0.7,3.26,1.99,3.95,3.95L1461.34,504.48z"/>
		</g>
		<g>
			<path class="st12" d="M1495.25,500.79c-1.4,2.94-0.45,6.31,2.12,7.54c2.57,1.22,5.79-0.17,7.19-3.1s0.45-6.31-2.12-7.54
				C1499.87,496.46,1496.65,497.85,1495.25,500.79z"/>
			<path class="st7" d="M1499,504.48l-0.84-0.3c0.69-1.96,1.99-3.26,3.95-3.95l0.3,0.84C1500.72,501.67,1499.6,502.79,1499,504.48z"
				/>
		</g>
	</g>
	<path class="st13" d="M1466.9,535.34c13.02,43.81,8.62,110.73-6.22,160.84l-52.74,8.17l11.89-157.49L1466.9,535.34z"/>
	<path class="st13" d="M1492.4,533.84c4,50.73,13.43,124.07,32.08,159.22l31.91-16.31l-11.02-135.09L1492.4,533.84z"/>
	<path class="st7" d="M1550.42,883.39c-0.28-1.7-27.81-170.33-32.23-184.6c-4.31-13.88-32.14-25.26-32.42-25.37l0.75-1.86
		c1.18,0.48,28.99,11.85,33.58,26.63c4.47,14.4,31.17,177.91,32.3,184.87L1550.42,883.39z"/>
	
		<rect x="1463.64" y="715.6" transform="matrix(0.9615 -0.2747 0.2747 0.9615 -150.2356 431.3016)" class="st7" width="2" height="72.8"/>
	<polygon class="st7" points="1550.3,731.99 1535.6,730.59 1535.79,728.6 1550.48,730 	"/>
	<rect x="456" y="1818" class="st7" width="2144" height="4"/>
</g>
</svg>
