<?xml version="1.0" encoding="utf-8"?>
<!-- Generator: Adobe Illustrator 23.0.5, SVG Export Plug-In . SVG Version: 6.00 Build 0)  -->
<svg version="1.1" id="Layer_1" xmlns="http://www.w3.org/2000/svg" xmlns:xlink="http://www.w3.org/1999/xlink" x="0px" y="0px"
	 viewBox="0 0 2200 2200" style="enable-background:new 0 0 2200 2200;" xml:space="preserve">
<style type="text/css">
	.st0{fill:#FFFFFF;}
	.st1{opacity:0.3;fill:url(#SVGID_1_);}
	.st2{opacity:0.3;fill:url(#SVGID_2_);}
	.st3{opacity:0.5;fill:url(#SVGID_3_);}
	.st4{fill:#1F417B;}
	.st5{fill:#1F5493;}
	.st6{fill:#2688BF;}
	.st7{fill:#173057;}
	.st8{fill:#F1A96A;}
	.st9{fill:#14274D;}
	.st10{opacity:0.3;fill:#14274D;}
	.st11{fill:#1E3565;}
	.st12{opacity:0.4;fill:#1E3565;}
	.st13{fill:#375682;}
	.st14{fill:#DFF2F8;}
	.st15{fill:#CDE0EB;}
	.st16{fill:#F6DA5C;}
	.st17{fill:#2D6CA9;}
	.st18{opacity:0.3;fill:#1E3565;}
	.st19{fill:#172F57;}
	.st20{fill:#3B4770;}
	.st21{opacity:0.5;}
	.st22{fill:#4F80FF;}
	.st23{fill:#214B87;}
	.st24{fill:#3B4771;}
	.st25{fill:#B4383D;}
	.st26{fill:#A32E3D;}
	.st27{opacity:0.5;fill:#A32E3D;}
	.st28{fill:#91C0DA;}
	.st29{fill:#F0D0B5;}
	.st30{opacity:0.5;fill:#838DC6;}
	.st31{opacity:0.2;fill:#1E3565;}
	.st32{opacity:0.5;fill:#F1A96A;}
	.st33{fill:#9AB4D3;}
	.st34{fill:#F8D2AB;}
	.st35{opacity:0.5;fill:#1E3565;}
	.st36{fill:#382848;}
	.st37{fill:#4A3649;}
	.st38{opacity:0.7;fill:#F8D2AB;}
	.st39{fill:#30102E;}
	.st40{fill:#D1DCEB;}
	.st41{fill:url(#SVGID_4_);}
	.st42{fill:#F1BAD1;}
	.st43{fill:url(#SVGID_5_);}
	.st44{fill:#F05673;}
	.st45{fill:url(#SVGID_6_);}
</style>
<path class="st0" d="M726.83,1264.5c-1.1-0.03-1.98-0.95-1.95-2.06l0,0c0.03-1.1,0.95-1.97,2.06-1.94l0,0
	c1.1,0.03,1.97,0.95,1.94,2.05l0,0c-0.03,1.09-0.92,1.95-2,1.95l0,0C726.87,1264.5,726.85,1264.5,726.83,1264.5z M739.9,1262.48
	c-0.05-1.1,0.81-2.04,1.92-2.08l0,0l0,0l0,0c1.1-0.04,2.03,0.82,2.07,1.92l0,0c0.05,1.1-0.81,2.03-1.91,2.08l0,0
	c-0.03,0-0.06,0-0.08,0l0,0C740.83,1264.4,739.94,1263.56,739.9,1262.48z M711.73,1263.58L711.73,1263.58
	c-1.1-0.11-1.9-1.08-1.8-2.18l0,0c0.1-1.1,1.08-1.91,2.18-1.8l0,0c1.1,0.1,1.9,1.07,1.8,2.17l0,0c-0.1,1.04-0.97,1.82-1.99,1.82l0,0
	C711.86,1263.59,711.79,1263.59,711.73,1263.58z M754.86,1261.51c-0.11-1.1,0.68-2.09,1.78-2.21l0,0c1.09-0.12,2.08,0.68,2.2,1.78
	l0,0c0.12,1.1-0.68,2.08-1.77,2.2l0,0c-0.08,0.01-0.15,0.01-0.22,0.01l0,0C755.84,1263.29,754.98,1262.53,754.86,1261.51z
	 M696.73,1261.65c-1.09-0.18-1.83-1.21-1.65-2.3l0,0c0.17-1.09,1.2-1.83,2.29-1.65l0,0l0,0l0,0c1.09,0.18,1.83,1.21,1.65,2.3l0,0
	c-0.16,0.98-1.01,1.67-1.97,1.67l0,0C696.94,1261.67,696.84,1261.67,696.73,1261.65z M769.73,1259.53
	c-0.19-1.09,0.53-2.13,1.62-2.32l0,0c1.09-0.19,2.12,0.53,2.32,1.62l0,0c0.19,1.09-0.54,2.12-1.62,2.32l0,0
	c-0.12,0.02-0.24,0.03-0.35,0.03l0,0C770.74,1261.18,769.9,1260.5,769.73,1259.53z M681.89,1258.71L681.89,1258.71
	c-1.08-0.25-1.75-1.33-1.49-2.4l0,0c0.25-1.08,1.32-1.75,2.4-1.5l0,0c1.07,0.25,1.74,1.33,1.49,2.41l0,0
	c-0.22,0.92-1.04,1.54-1.95,1.54l0,0C682.19,1258.76,682.04,1258.75,681.89,1258.71z M784.43,1256.55
	c-0.27-1.07,0.38-2.16,1.46-2.42l0,0c1.07-0.27,2.15,0.38,2.42,1.46l0,0c0.26,1.07-0.39,2.15-1.46,2.42l0,0
	c-0.16,0.04-0.32,0.06-0.48,0.06l0,0C785.47,1258.07,784.65,1257.46,784.43,1256.55z M667.28,1254.78c-1.06-0.32-1.65-1.44-1.33-2.5
	l0,0c0.32-1.06,1.44-1.65,2.5-1.33l0,0l0,0l0,0c1.05,0.32,1.65,1.44,1.33,2.5l0,0c-0.27,0.86-1.06,1.41-1.92,1.41l0,0
	C667.67,1254.86,667.47,1254.84,667.28,1254.78z M798.89,1252.58c-0.34-1.05,0.24-2.18,1.29-2.51l0,0c1.05-0.34,2.18,0.24,2.52,1.29
	l0,0c0.33,1.05-0.25,2.18-1.3,2.52l0,0c-0.2,0.06-0.4,0.09-0.61,0.09l0,0C799.95,1253.97,799.16,1253.43,798.89,1252.58z
	 M652.97,1249.87c-1.03-0.4-1.55-1.55-1.16-2.58l0,0c0.39-1.04,1.55-1.55,2.58-1.16l0,0c1.03,0.39,1.55,1.55,1.16,2.58l0,0
	c-0.31,0.8-1.06,1.29-1.87,1.29l0,0C653.44,1250,653.2,1249.96,652.97,1249.87z M813.05,1247.65c-0.41-1.03,0.1-2.19,1.12-2.6l0,0
	l0,0l0,0c1.03-0.4,2.19,0.1,2.6,1.12l0,0c0.41,1.03-0.1,2.19-1.12,2.6l0,0c-0.24,0.1-0.49,0.14-0.74,0.14l0,0
	C814.12,1248.91,813.36,1248.44,813.05,1247.65z M639.02,1244.01c-1.01-0.46-1.45-1.65-0.98-2.66l0,0c0.46-1,1.65-1.44,2.65-0.98
	l0,0c1.01,0.47,1.44,1.65,0.98,2.66l0,0c-0.34,0.73-1.06,1.16-1.82,1.16l0,0C639.57,1244.19,639.29,1244.13,639.02,1244.01z
	 M826.85,1241.77c-0.48-0.99-0.06-2.19,0.94-2.66l0,0l0,0l0,0c1-0.48,2.19-0.06,2.67,0.94l0,0c0.47,1,0.05,2.19-0.95,2.67h0.01
	c-0.28,0.13-0.58,0.19-0.87,0.19l0,0C827.91,1242.91,827.19,1242.49,826.85,1241.77z M625.5,1237.22h-0.01
	c-0.96-0.53-1.32-1.74-0.8-2.71l0,0c0.53-0.97,1.75-1.33,2.72-0.8l0,0c0.97,0.53,1.33,1.74,0.8,2.71l0,0
	c-0.36,0.67-1.05,1.04-1.76,1.04l0,0C626.13,1237.46,625.8,1237.39,625.5,1237.22z M840.22,1234.98c-0.54-0.96-0.2-2.18,0.76-2.72
	l0,0l0,0l0,0c0.96-0.54,2.18-0.2,2.72,0.76l0,0c0.55,0.96,0.2,2.18-0.76,2.73l0,0c-0.31,0.17-0.64,0.25-0.98,0.25l0,0
	C841.26,1236,840.59,1235.64,840.22,1234.98z M612.46,1229.54c-0.93-0.59-1.21-1.83-0.62-2.76l0,0c0.6-0.93,1.83-1.21,2.76-0.62l0,0
	c0.94,0.6,1.21,1.83,0.62,2.77l0,0c-0.38,0.59-1.03,0.92-1.69,0.92l0,0C613.16,1229.85,612.79,1229.75,612.46,1229.54z
	 M853.1,1227.31c-0.6-0.93-0.35-2.17,0.58-2.77l0,0c0.92-0.6,2.16-0.35,2.77,0.58l0,0c0.6,0.92,0.34,2.16-0.58,2.77l0,0
	c-0.34,0.22-0.72,0.32-1.09,0.32l0,0C854.13,1228.21,853.49,1227.9,853.1,1227.31z M599.97,1221c-0.89-0.65-1.08-1.91-0.43-2.8l0,0
	c0.65-0.89,1.91-1.08,2.8-0.42l0,0l0,0l0,0c0.89,0.65,1.08,1.9,0.42,2.79l0,0c-0.39,0.54-0.99,0.82-1.61,0.82l0,0
	C600.74,1221.39,600.33,1221.26,599.97,1221z M865.44,1218.78c-0.67-0.88-0.49-2.13,0.39-2.8l0,0c0.88-0.66,2.14-0.49,2.8,0.39l0,0
	c0.67,0.88,0.49,2.14-0.39,2.81l0,0c-0.36,0.27-0.78,0.4-1.2,0.4l0,0C866.43,1219.58,865.84,1219.3,865.44,1218.78z M588.08,1211.64
	L588.08,1211.64c-0.84-0.71-0.95-1.97-0.24-2.82l0,0c0.71-0.84,1.97-0.95,2.82-0.23l0,0c0,0,0,0,0-0.01l0,0
	c0.84,0.71,0.95,1.98,0.24,2.82l0,0c-0.4,0.47-0.96,0.71-1.53,0.71l0,0C588.91,1212.11,588.46,1211.96,588.08,1211.64z
	 M877.18,1209.45c-0.72-0.83-0.63-2.1,0.2-2.82l0,0c0.83-0.72,2.1-0.63,2.82,0.2l0,0c0.73,0.84,0.63,2.1-0.2,2.82l0,0
	c-0.38,0.33-0.84,0.49-1.31,0.49l0,0C878.13,1210.14,877.58,1209.91,877.18,1209.45z M576.85,1201.5c-0.8-0.76-0.82-2.03-0.05-2.82
	l0,0c0.77-0.8,2.03-0.82,2.83-0.05l0,0c0.79,0.76,0.81,2.03,0.05,2.82l0,0c-0.39,0.41-0.92,0.61-1.44,0.61l0,0
	C577.74,1202.06,577.24,1201.88,576.85,1201.5z M888.26,1199.35c-0.77-0.79-0.77-2.05,0.01-2.83l0,0c0.79-0.78,2.05-0.77,2.83,0.01
	l0,0c0.78,0.79,0.77,2.05-0.01,2.83l0,0c-0.39,0.39-0.9,0.58-1.41,0.58l0,0C889.17,1199.94,888.65,1199.74,888.26,1199.35z
	 M566.32,1190.63L566.32,1190.63c-0.74-0.82-0.67-2.08,0.15-2.82l0,0c0.81-0.75,2.08-0.68,2.82,0.14l0,0
	c0.74,0.82,0.68,2.08-0.14,2.82l0,0c-0.38,0.35-0.86,0.52-1.34,0.52l0,0C567.26,1191.29,566.72,1191.07,566.32,1190.63z
	 M898.64,1188.53c-0.83-0.73-0.91-2-0.18-2.82l0,0c0.73-0.83,2-0.91,2.83-0.19l0,0c0.83,0.73,0.9,2,0.18,2.83l0,0
	c-0.4,0.45-0.95,0.68-1.5,0.68l0,0C899.5,1189.03,899.02,1188.86,898.64,1188.53z M556.56,1179.08c-0.69-0.87-0.54-2.13,0.33-2.81
	l0,0c0.86-0.69,2.12-0.54,2.81,0.33l0,0c0.68,0.87,0.53,2.12-0.33,2.81l0,0c-0.37,0.29-0.81,0.43-1.24,0.43l0,0
	C557.54,1179.84,556.95,1179.58,556.56,1179.08z M908.27,1177.03c-0.88-0.67-1.04-1.93-0.37-2.8l0,0c0.68-0.88,1.93-1.05,2.81-0.37
	l0,0c0.87,0.67,1.04,1.93,0.37,2.8l0,0c-0.4,0.52-0.99,0.78-1.59,0.78l0,0C909.06,1177.44,908.63,1177.31,908.27,1177.03z
	 M547.59,1166.89c-0.62-0.91-0.39-2.16,0.52-2.78l0,0c0.91-0.63,2.16-0.39,2.78,0.52l0,0c0.62,0.91,0.39,2.15-0.52,2.78l0,0
	c-0.35,0.23-0.74,0.35-1.13,0.35l0,0C548.6,1167.76,547.98,1167.45,547.59,1166.89z M917.1,1164.91c-0.92-0.61-1.17-1.85-0.55-2.77
	l0,0c0.61-0.92,1.85-1.17,2.77-0.56l0,0c0.92,0.62,1.17,1.86,0.56,2.78l0,0c-0.39,0.58-1.02,0.89-1.67,0.89l0,0
	C917.83,1165.25,917.45,1165.14,917.1,1164.91z M539.47,1154.12c-0.57-0.95-0.25-2.18,0.7-2.74l0,0c0.95-0.56,2.18-0.24,2.74,0.71
	l0,0c0.56,0.95,0.25,2.18-0.71,2.74l0,0c-0.32,0.19-0.67,0.28-1.01,0.28l0,0C540.5,1155.11,539.84,1154.76,539.47,1154.12z
	 M925.1,1152.23c-0.95-0.55-1.29-1.77-0.74-2.73l0,0l0,0l0,0c0.55-0.96,1.78-1.29,2.73-0.74l0,0c0.96,0.55,1.29,1.77,0.74,2.73l0,0
	c-0.37,0.65-1.04,1.01-1.73,1.01l0,0C925.76,1152.5,925.42,1152.41,925.1,1152.23z M532.22,1140.84c-0.5-0.99-0.1-2.19,0.88-2.69
	l0,0c0.99-0.49,2.19-0.09,2.69,0.89l0,0c0.5,0.99,0.1,2.19-0.89,2.69l0,0c-0.29,0.14-0.59,0.21-0.89,0.21l0,0
	C533.27,1141.94,532.57,1141.54,532.22,1140.84z M932.32,1139.08c-0.97-0.53-1.32-1.75-0.79-2.72l0,0c0.53-0.97,1.75-1.32,2.72-0.79
	l0,0c0.97,0.54,1.32,1.75,0.79,2.72l0,0c-0.37,0.66-1.05,1.04-1.76,1.04l0,0C932.96,1139.33,932.63,1139.25,932.32,1139.08z
	 M525.85,1127.11L525.85,1127.11c-0.44-1.02,0.03-2.2,1.05-2.63l0,0c1.01-0.43,2.19,0.04,2.62,1.05l0,0l0,0l0,0
	c0.44,1.02-0.03,2.19-1.05,2.63l0,0c-0.25,0.11-0.52,0.16-0.78,0.16l0,0C526.91,1128.32,526.17,1127.87,525.85,1127.11z
	 M939.71,1126.01c-0.95-0.56-1.27-1.78-0.7-2.74l0,0c0,0,0,0,0,0.01l0,0c0.56-0.96,1.79-1.27,2.74-0.71l0,0
	c0.95,0.57,1.26,1.79,0.7,2.74l0,0c-0.38,0.63-1.04,0.98-1.72,0.98l0,0C940.38,1126.29,940.03,1126.2,939.71,1126.01z
	 M520.32,1113.03c-0.37-1.04,0.17-2.18,1.2-2.55l0,0c1.04-0.38,2.19,0.16,2.56,1.2l0,0c0.38,1.04-0.16,2.19-1.2,2.56l0,0
	c-0.23,0.08-0.45,0.12-0.68,0.12l0,0C521.38,1114.36,520.61,1113.85,520.32,1113.03z M947.51,1113.2c-0.93-0.6-1.2-1.83-0.61-2.76
	l0,0c0.6-0.94,1.83-1.21,2.77-0.61l0,0c0.93,0.59,1.2,1.83,0.61,2.76l0,0c-0.39,0.6-1.03,0.92-1.69,0.92l0,0
	C948.22,1113.51,947.85,1113.41,947.51,1113.2z M955.74,1100.65c-0.91-0.63-1.14-1.87-0.52-2.78l0,0l0,0l0,0
	c0.63-0.91,1.87-1.15,2.79-0.52l0,0c0.91,0.62,1.14,1.87,0.51,2.78l0,0c-0.39,0.57-1.01,0.87-1.65,0.87l0,0
	C956.48,1101,956.09,1100.89,955.74,1100.65z M515.63,1098.67L515.63,1098.67c-0.32-1.06,0.29-2.17,1.35-2.49l0,0
	c1.06-0.31,2.17,0.3,2.48,1.36l0,0c0.31,1.06-0.29,2.17-1.35,2.48l0,0c-0.19,0.06-0.38,0.08-0.57,0.08l0,0
	C516.68,1100.1,515.88,1099.54,515.63,1098.67z M964.39,1088.39c-0.89-0.66-1.08-1.91-0.42-2.8l0,0c0.66-0.89,1.91-1.08,2.8-0.42
	l0,0c0.88,0.66,1.07,1.91,0.42,2.8l0,0c-0.39,0.53-1,0.81-1.61,0.81l0,0C965.16,1088.78,964.75,1088.65,964.39,1088.39z
	 M511.77,1084.05c-0.25-1.07,0.42-2.15,1.5-2.4l0,0c1.07-0.25,2.15,0.42,2.4,1.5l0,0c0.25,1.07-0.42,2.15-1.5,2.4l0,0
	c-0.15,0.03-0.3,0.05-0.45,0.05l0,0C512.81,1085.6,511.99,1084.98,511.77,1084.05z M973.46,1076.44c-0.86-0.69-1.01-1.95-0.32-2.81
	l0,0c0.69-0.87,1.95-1.01,2.81-0.32l0,0c0.87,0.69,1.01,1.94,0.32,2.81l0,0c-0.39,0.49-0.98,0.75-1.56,0.75l0,0
	C974.27,1076.87,973.83,1076.73,973.46,1076.44z M508.78,1069.26c-0.2-1.09,0.52-2.13,1.61-2.33l0,0c1.09-0.19,2.13,0.53,2.32,1.61
	l0,0c0.2,1.09-0.52,2.13-1.61,2.33l0,0c-0.12,0.02-0.24,0.03-0.36,0.03l0,0C509.79,1070.9,508.95,1070.22,508.78,1069.26z
	 M982.96,1064.82c-0.84-0.71-0.93-1.98-0.21-2.81l0,0c0.71-0.84,1.98-0.94,2.82-0.22l0,0c0.84,0.72,0.93,1.98,0.21,2.82l0,0
	c-0.39,0.46-0.95,0.7-1.52,0.7l0,0C983.8,1065.31,983.34,1065.15,982.96,1064.82z M505.97,1054.57c-0.22-1.09,0.48-2.14,1.56-2.36
	l0,0c1.08-0.22,2.14,0.48,2.36,1.56l0,0c0.22,1.08-0.48,2.14-1.57,2.36l0,0c-0.13,0.03-0.26,0.04-0.4,0.04l0,0
	C506.99,1056.17,506.16,1055.52,505.97,1054.57z M992.89,1053.58c-0.81-0.75-0.86-2.02-0.11-2.83l0,0c0.75-0.81,2.01-0.86,2.83-0.11
	l0,0c0.81,0.75,0.85,2.02,0.1,2.83l0,0c-0.39,0.42-0.93,0.64-1.47,0.64l0,0C993.76,1054.11,993.27,1053.93,992.89,1053.58z
	 M1003.24,1042.72c-0.78-0.79-0.78-2.05,0-2.83l0,0c0.78-0.78,2.05-0.78,2.83,0l0,0c0.78,0.78,0.78,2.05-0.01,2.83l0,0
	c-0.39,0.39-0.9,0.58-1.41,0.58l0,0C1004.14,1043.3,1003.63,1043.11,1003.24,1042.72z M502.83,1039.95
	c-0.24-1.08,0.44-2.15,1.52-2.39l0,0c1.07-0.25,2.14,0.43,2.39,1.51l0,0c0.24,1.07-0.44,2.14-1.51,2.39l0,0
	c-0.15,0.03-0.3,0.05-0.45,0.05l0,0C503.87,1041.51,503.04,1040.88,502.83,1039.95z M1014.01,1032.28c-0.75-0.82-0.7-2.08,0.11-2.83
	l0,0c0.81-0.75,2.08-0.7,2.83,0.12l0,0c0.75,0.81,0.69,2.08-0.12,2.82l0,0c-0.38,0.36-0.87,0.53-1.35,0.53l0,0
	C1014.94,1032.92,1014.4,1032.71,1014.01,1032.28z M499.37,1025.41L499.37,1025.41c-0.26-1.08,0.39-2.16,1.46-2.43l0,0
	c1.07-0.27,2.16,0.38,2.42,1.46l0,0c0,0,0,0,0.01-0.01l0,0c0.26,1.08-0.39,2.16-1.46,2.43l0,0c-0.16,0.04-0.33,0.06-0.49,0.06l0,0
	C500.42,1026.92,499.6,1026.31,499.37,1025.41z M1025.19,1022.28c-0.71-0.84-0.61-2.1,0.23-2.81l0,0c0.84-0.72,2.11-0.61,2.82,0.23
	l0,0c0.72,0.84,0.61,2.1-0.23,2.82l0,0c-0.38,0.31-0.84,0.47-1.29,0.47l0,0C1026.15,1022.99,1025.59,1022.75,1025.19,1022.28z
	 M1036.78,1012.77c-0.68-0.88-0.52-2.13,0.35-2.81l0,0c0.87-0.68,2.13-0.52,2.81,0.35l0,0c0.68,0.87,0.52,2.13-0.35,2.81l0,0
	c-0.37,0.28-0.8,0.42-1.23,0.42l0,0C1037.76,1013.54,1037.17,1013.27,1036.78,1012.77z M495.57,1010.96
	c-0.29-1.07,0.33-2.17,1.4-2.46l0,0c1.06-0.3,2.16,0.33,2.46,1.39l0,0c0.29,1.07-0.33,2.17-1.4,2.46l0,0
	c-0.17,0.05-0.35,0.07-0.53,0.07l0,0C496.62,1012.42,495.82,1011.84,495.57,1010.96z M1048.76,1003.75
	c-0.64-0.9-0.43-2.15,0.47-2.79l0,0c0.9-0.64,2.15-0.43,2.79,0.47l0,0c0.64,0.9,0.43,2.15-0.47,2.79l0,0
	c-0.35,0.25-0.76,0.37-1.16,0.37l0,0C1049.77,1004.59,1049.15,1004.3,1048.76,1003.75z M491.42,996.61L491.42,996.61
	c-0.32-1.06,0.28-2.18,1.33-2.5l0,0c1.06-0.32,2.18,0.28,2.5,1.34l0,0l0,0l0,0c0.32,1.05-0.28,2.17-1.34,2.49l0,0
	c-0.19,0.06-0.39,0.09-0.58,0.09l0,0C492.47,998.03,491.68,997.47,491.42,996.61z M1061.12,995.26c-0.6-0.93-0.34-2.17,0.59-2.77
	l0,0c0.93-0.6,2.17-0.33,2.77,0.59l0,0c0.6,0.93,0.33,2.17-0.59,2.77l0,0c-0.34,0.22-0.72,0.32-1.09,0.32l0,0
	C1062.15,996.17,1061.5,995.85,1061.12,995.26z M1073.84,987.32c-0.56-0.96-0.24-2.18,0.71-2.74l0,0l0,0l0,0
	c0.95-0.56,2.18-0.24,2.74,0.71l0,0c0.56,0.96,0.24,2.18-0.71,2.74l0,0c-0.32,0.19-0.67,0.28-1.01,0.27l0,0
	C1074.88,988.3,1074.21,987.95,1073.84,987.32z M486.9,982.37c-0.35-1.05,0.22-2.18,1.27-2.53l0,0c1.05-0.34,2.18,0.22,2.53,1.27
	l0,0l0,0l0,0c0.34,1.05-0.22,2.18-1.27,2.53l0,0c-0.21,0.07-0.42,0.1-0.63,0.1l0,0C487.96,983.74,487.18,983.21,486.9,982.37z
	 M1086.89,979.95c-0.51-0.98-0.14-2.19,0.84-2.71l0,0c0.98-0.51,2.19-0.14,2.7,0.84l0,0c0.52,0.97,0.14,2.19-0.83,2.7l0,0
	c-0.3,0.16-0.62,0.23-0.93,0.23l0,0C1087.95,981.01,1087.25,980.62,1086.89,979.95z M1100.27,973.16c-0.48-1-0.05-2.19,0.95-2.66
	l0,0l0,0l0,0c1-0.47,2.19-0.04,2.66,0.95l0,0c0.47,1,0.05,2.19-0.95,2.67l0,0c-0.28,0.13-0.57,0.19-0.85,0.19l0,0
	C1101.33,974.31,1100.61,973.88,1100.27,973.16z M482.01,968.26c-0.38-1.04,0.16-2.18,1.2-2.56l0,0c1.03-0.38,2.18,0.16,2.56,1.2
	l0,0c0.37,1.04-0.16,2.18-1.2,2.56l0,0c-0.23,0.08-0.46,0.12-0.68,0.12l0,0C483.07,969.58,482.3,969.08,482.01,968.26z
	 M1113.92,966.98c-0.42-1.02,0.06-2.19,1.07-2.62l0,0c1.02-0.43,2.19,0.05,2.62,1.07l0,0c0.43,1.02-0.05,2.19-1.07,2.62l0,0
	c-0.25,0.11-0.51,0.16-0.77,0.16l0,0C1114.99,968.21,1114.24,967.75,1113.92,966.98z M1127.84,961.41
	c-0.38-1.04,0.15-2.19,1.18-2.57l0,0l0,0l0,0c1.04-0.38,2.19,0.15,2.57,1.18l0,0c0.38,1.04-0.15,2.19-1.18,2.57l0,0
	c-0.23,0.09-0.46,0.12-0.69,0.12l0,0C1128.9,962.71,1128.14,962.21,1127.84,961.41z M1141.99,956.45c-0.34-1.05,0.24-2.18,1.29-2.52
	l0,0c1.05-0.33,2.18,0.25,2.51,1.3l0,0c0.34,1.05-0.24,2.17-1.29,2.51l0,0c-0.2,0.07-0.41,0.1-0.61,0.1l0,0
	C1143.04,957.84,1142.26,957.3,1141.99,956.45z M476.72,954.3c-0.4-1.03,0.1-2.19,1.13-2.6l0,0c1.03-0.41,2.19,0.1,2.6,1.13l0,0l0,0
	l0,0c0.4,1.03-0.1,2.19-1.13,2.59l0,0c-0.24,0.1-0.49,0.14-0.73,0.14l0,0C477.79,955.56,477.04,955.08,476.72,954.3z M1411.07,954.9
	c-1.11-0.01-2-0.91-1.98-2.02l0,0c0.01-1.1,0.91-1.99,2.02-1.98l0,0c0,0,0,0-0.01,0l0,0c1.11,0.01,2,0.92,1.99,2.02l0,0
	c-0.02,1.1-0.91,1.98-2,1.98l0,0C1411.08,954.9,1411.07,954.9,1411.07,954.9z M1424.1,952.74c-0.05-1.11,0.8-2.04,1.91-2.09l0,0
	c1.1-0.05,2.03,0.81,2.08,1.92l0,0c0.05,1.1-0.8,2.03-1.91,2.08l0,0c-0.03,0-0.06,0-0.09,0l0,0
	C1425.03,954.65,1424.14,953.81,1424.1,952.74z M1395.97,954.36c-1.1-0.07-1.94-1.02-1.87-2.12l0,0c0.07-1.1,1.01-1.94,2.12-1.87
	l0,0c1.1,0.07,1.94,1.02,1.87,2.12l0,0c-0.07,1.06-0.95,1.87-1.99,1.87l0,0C1396.06,954.36,1396.01,954.36,1395.97,954.36z
	 M1439.07,951.78c-0.11-1.1,0.7-2.08,1.79-2.19l0,0c1.1-0.11,2.08,0.69,2.2,1.79l0,0c0.11,1.1-0.7,2.08-1.8,2.19l0,0
	c-0.06,0.01-0.13,0.01-0.2,0.01l0,0C1440.05,953.58,1439.18,952.81,1439.07,951.78z M1156.33,952.1c-0.29-1.07,0.34-2.16,1.4-2.46
	l0,0c1.07-0.29,2.17,0.34,2.46,1.41l0,0c0.29,1.06-0.34,2.16-1.4,2.45l0,0c-0.18,0.05-0.35,0.07-0.53,0.07l0,0
	C1157.38,953.57,1156.57,952.99,1156.33,952.1z M1380.92,953.03c-1.1-0.13-1.89-1.12-1.76-2.22l0,0c0.13-1.09,1.12-1.88,2.22-1.75
	l0,0c1.1,0.12,1.88,1.11,1.76,2.21l0,0c-0.12,1.02-0.99,1.77-1.99,1.77l0,0C1381.07,953.04,1381,953.04,1380.92,953.03z
	 M1453.97,949.95c-0.18-1.09,0.56-2.12,1.65-2.29l0,0c1.1-0.18,2.12,0.56,2.3,1.65l0,0c0.17,1.09-0.57,2.12-1.66,2.3h0.01
	c-0.11,0.02-0.22,0.02-0.33,0.02l0,0C1454.98,951.63,1454.13,950.94,1453.97,949.95z M1365.94,950.85c-1.08-0.2-1.8-1.24-1.61-2.32
	l0,0c0.2-1.09,1.24-1.81,2.32-1.62l0,0c1.09,0.2,1.81,1.24,1.62,2.32l0,0c-0.18,0.97-1.02,1.65-1.97,1.65l0,0
	C1366.18,950.88,1366.06,950.87,1365.94,950.85z M1170.85,948.36c-0.25-1.07,0.42-2.14,1.5-2.39l0,0c1.08-0.25,2.15,0.43,2.4,1.5
	l0,0c0.24,1.08-0.43,2.15-1.51,2.4l0,0c-0.15,0.03-0.3,0.05-0.44,0.05l0,0C1171.88,949.92,1171.06,949.29,1170.85,948.36z
	 M1468.72,947.21c-0.25-1.08,0.43-2.15,1.5-2.4l0,0c1.08-0.25,2.15,0.43,2.4,1.5l0,0c0.24,1.08-0.43,2.15-1.5,2.4l0,0
	c-0.15,0.03-0.3,0.05-0.45,0.05l0,0C1469.76,948.76,1468.93,948.13,1468.72,947.21z M1351.21,948.08L1351.21,948.08
	c-1.09-0.19-1.82-1.23-1.63-2.31l0,0c0.19-1.09,1.22-1.82,2.31-1.63l0,0c1.09,0.19,1.82,1.22,1.63,2.31l0,0
	c-0.17,0.98-1.01,1.66-1.97,1.66l0,0C1351.44,948.11,1351.32,948.1,1351.21,948.08z M1185.51,945.23c-0.21-1.09,0.51-2.13,1.59-2.33
	l0,0l0,0l0,0c1.09-0.21,2.13,0.51,2.34,1.6l0,0c0.2,1.08-0.51,2.13-1.6,2.33l0,0c-0.12,0.02-0.25,0.03-0.37,0.03l0,0
	C1186.52,946.86,1185.69,946.19,1185.51,945.23z M1336.45,945.71c-1.09-0.16-1.85-1.18-1.69-2.27l0,0c0.16-1.1,1.18-1.85,2.27-1.69
	l0,0c1.1,0.16,1.85,1.18,1.69,2.27l0,0c-0.15,1-1,1.71-1.98,1.71l0,0C1336.65,945.73,1336.55,945.72,1336.45,945.71z
	 M1483.25,943.48c-0.32-1.05,0.28-2.17,1.33-2.49l0,0c1.06-0.33,2.18,0.27,2.5,1.33l0,0c0.32,1.05-0.28,2.17-1.33,2.49l0,0
	c-0.2,0.06-0.39,0.09-0.58,0.09l0,0C1484.31,944.9,1483.52,944.34,1483.25,943.48z M1200.28,942.69c-0.16-1.09,0.59-2.11,1.69-2.27
	l0,0c1.09-0.16,2.11,0.6,2.27,1.69l0,0c0.16,1.09-0.6,2.11-1.69,2.27l0,0c-0.1,0.01-0.2,0.02-0.29,0.02l0,0
	C1201.28,944.4,1200.43,943.68,1200.28,942.69z M1321.64,943.72c-1.1-0.13-1.88-1.12-1.75-2.22l0,0c0.13-1.1,1.13-1.88,2.22-1.75
	l0,0c1.1,0.13,1.88,1.13,1.75,2.23l0,0c-0.12,1.01-0.98,1.76-1.98,1.76l0,0C1321.8,943.74,1321.72,943.73,1321.64,943.72z
	 M1215.14,940.72c-0.12-1.1,0.67-2.08,1.77-2.2l0,0c1.1-0.12,2.09,0.67,2.21,1.77l0,0c0.11,1.1-0.68,2.09-1.78,2.21l0,0
	c-0.07,0-0.14,0.01-0.21,0.01l0,0C1216.12,942.51,1215.25,941.75,1215.14,940.72z M1306.78,942.15c-1.1-0.1-1.91-1.07-1.81-2.17l0,0
	c0.1-1.1,1.07-1.92,2.17-1.81l0,0c1.1,0.1,1.91,1.07,1.81,2.17l0,0c-0.1,1.04-0.97,1.82-1.99,1.82l0,0
	C1306.9,942.16,1306.84,942.16,1306.78,942.15z M471.05,940.49c-0.44-1.02,0.03-2.19,1.05-2.63l0,0c1.01-0.43,2.19,0.04,2.62,1.05
	l0,0c0.44,1.02-0.03,2.19-1.05,2.63l0,0c-0.25,0.11-0.52,0.16-0.78,0.16l0,0C472.11,941.7,471.37,941.25,471.05,940.49z
	 M1230.06,939.31c-0.08-1.1,0.75-2.05,1.86-2.13l0,0c1.1-0.08,2.06,0.75,2.13,1.85l0,0c0.08,1.1-0.75,2.06-1.85,2.14l0,0
	c-0.05,0-0.1,0-0.15,0l0,0C1231.01,941.17,1230.14,940.37,1230.06,939.31z M1291.88,941.01c-1.1-0.07-1.94-1.02-1.87-2.12l0,0
	c0.07-1.1,1.01-1.94,2.12-1.88l0,0c1.1,0.07,1.94,1.02,1.87,2.12l0,0c-0.06,1.06-0.95,1.88-1.99,1.88l0,0
	C1291.96,941.01,1291.92,941.01,1291.88,941.01z M1247.1,940.37c-1.1,0.05-2.03-0.82-2.07-1.92l0,0c-0.04-1.11,0.82-2.03,1.93-2.07
	l0,0c1.1-0.04,2.03,0.82,2.07,1.92l0,0c0.04,1.11-0.83,2.04-1.93,2.08l0,0C1246,940.42,1247.1,940.38,1247.1,940.37z
	 M1276.96,940.32c-1.11-0.04-1.97-0.96-1.94-2.07l0,0c0.03-1.1,0.96-1.97,2.06-1.93l0,0l0,0l0,0c1.11,0.03,1.97,0.95,1.94,2.06l0,0
	c-0.03,1.08-0.92,1.94-2,1.94l0,0C1277,940.32,1276.98,940.32,1276.96,940.32z M1262.02,940.1c0.01,0,0.01,0,0.01,0l0,0l0,0l0,0
	C1262.03,940.1,1262.03,940.1,1262.02,940.1z M1260.02,938.1c0-1.1,0.89-2,2-2l0,0l0,0l0,0c1.11,0,2,0.89,2,1.99l0,0
	c0,1.11-0.89,2.01-1.99,2.01l0,0C1260.92,940.1,1260.03,939.21,1260.02,938.1z M1497.48,938.72c-0.4-1.03,0.1-2.19,1.13-2.59l0,0
	c1.03-0.4,2.19,0.11,2.59,1.14l0,0c0.4,1.03-0.11,2.19-1.13,2.59l0,0c-0.24,0.09-0.49,0.14-0.73,0.14l0,0
	C1498.54,940,1497.78,939.51,1497.48,938.72z M1511.29,932.87c-0.49-0.99-0.07-2.18,0.92-2.67l0,0c0.99-0.48,2.19-0.07,2.67,0.93
	l0,0c0.48,0.99,0.07,2.19-0.92,2.67l0,0c-0.28,0.14-0.58,0.2-0.87,0.2l0,0C1512.34,934,1511.63,933.59,1511.29,932.87z
	 M464.96,926.86c-0.46-1-0.03-2.19,0.98-2.66l0,0c1-0.46,2.18-0.03,2.65,0.97l0,0c0.47,1,0.03,2.2-0.97,2.66l0,0
	c-0.27,0.13-0.56,0.19-0.84,0.19l0,0C466.02,928.02,465.3,927.59,464.96,926.86z M1524.56,925.91c-0.56-0.95-0.25-2.17,0.7-2.74l0,0
	l0,0l0,0c0.95-0.56,2.17-0.25,2.74,0.69l0,0c0.56,0.95,0.25,2.18-0.7,2.75l0,0c-0.32,0.19-0.67,0.28-1.02,0.28l0,0
	C1525.6,926.89,1524.94,926.54,1524.56,925.91z M1537.18,917.83c-0.64-0.9-0.44-2.15,0.45-2.79l0,0c0.9-0.65,2.15-0.45,2.79,0.44
	l0,0c0.65,0.9,0.45,2.15-0.44,2.8l0,0c-0.36,0.25-0.77,0.38-1.17,0.38l0,0C1538.19,918.66,1537.57,918.37,1537.18,917.83z
	 M458.47,913.42c-0.5-0.98-0.1-2.19,0.88-2.68l0,0c0.99-0.5,2.19-0.1,2.69,0.89l0,0c0.49,0.98,0.1,2.19-0.89,2.68l0,0
	c-0.29,0.15-0.59,0.22-0.9,0.22l0,0C459.52,914.53,458.82,914.12,458.47,913.42z M1549.03,908.65c-0.73-0.83-0.64-2.1,0.19-2.82l0,0
	l0,0l0,0c0.83-0.73,2.1-0.64,2.82,0.19l0,0c0.73,0.83,0.64,2.1-0.19,2.82l0,0c-0.38,0.33-0.85,0.5-1.31,0.5l0,0
	C1549.98,909.34,1549.42,909.1,1549.03,908.65z M451.55,900.2c-0.53-0.97-0.17-2.18,0.79-2.71l0,0c0.98-0.53,2.19-0.17,2.72,0.8l0,0
	c0.53,0.97,0.17,2.19-0.8,2.71l0,0c-0.31,0.17-0.63,0.25-0.96,0.25l0,0C452.59,901.25,451.91,900.87,451.55,900.2z M1559.99,898.43
	c-0.8-0.76-0.83-2.02-0.07-2.82l0,0l0,0l0,0c0.77-0.8,2.03-0.83,2.83-0.07l0,0c0.8,0.77,0.83,2.03,0.07,2.83l0,0
	c-0.4,0.41-0.92,0.62-1.45,0.62l0,0C1560.87,898.99,1560.37,898.81,1559.99,898.43z M444.2,887.22c-0.56-0.95-0.24-2.18,0.71-2.74
	l0,0c0.95-0.56,2.17-0.24,2.74,0.71l0,0c0.56,0.95,0.24,2.18-0.71,2.74l0,0c-0.32,0.19-0.67,0.28-1.02,0.28l0,0
	C445.24,888.21,444.57,887.85,444.2,887.22z M1569.98,887.28c-0.86-0.7-1-1.95-0.31-2.82l0,0c0.69-0.86,1.94-1,2.81-0.31l0,0
	c0.86,0.69,1,1.95,0.31,2.81l0,0c-0.39,0.5-0.98,0.75-1.56,0.75l0,0C1570.79,887.71,1570.35,887.57,1569.98,887.28z M1578.96,875.28
	c-0.92-0.61-1.17-1.85-0.55-2.77l0,0c0.61-0.92,1.85-1.17,2.77-0.55l0,0c0.92,0.61,1.17,1.85,0.55,2.77l0,0
	c-0.38,0.58-1.02,0.89-1.66,0.89l0,0C1579.69,875.62,1579.3,875.51,1578.96,875.28z M436.42,874.49c-0.59-0.93-0.32-2.17,0.62-2.76
	l0,0c0.93-0.59,2.16-0.32,2.76,0.61l0,0l0,0l0,0c0.59,0.94,0.31,2.17-0.62,2.77l0,0c-0.33,0.21-0.7,0.31-1.07,0.31l0,0
	C437.45,875.42,436.8,875.09,436.42,874.49z M428.21,862.04c-0.63-0.92-0.39-2.16,0.52-2.78l0,0c0.91-0.63,2.15-0.4,2.78,0.51l0,0
	c0,0,0,0,0,0.01l0,0c0.62,0.91,0.39,2.15-0.52,2.78l0,0c-0.35,0.23-0.74,0.35-1.13,0.35l0,0
	C429.22,862.91,428.6,862.6,428.21,862.04z M1586.9,862.58c-0.96-0.53-1.31-1.75-0.77-2.71l0,0c0.54-0.97,1.75-1.32,2.72-0.78l0,0
	c0.96,0.54,1.31,1.76,0.77,2.72l0,0c-0.36,0.66-1.04,1.03-1.75,1.03l0,0C1587.54,862.84,1587.21,862.76,1586.9,862.58z
	 M419.56,849.88c-0.65-0.89-0.46-2.14,0.42-2.8l0,0c0.89-0.65,2.15-0.46,2.8,0.42l0,0c0.66,0.89,0.47,2.15-0.42,2.8l0,0
	c-0.36,0.27-0.77,0.39-1.19,0.39l0,0C420.56,850.69,419.96,850.41,419.56,849.88z M1593.83,849.3c-1.01-0.46-1.44-1.65-0.98-2.65
	l0,0l0,0l0,0c0.47-1,1.66-1.44,2.66-0.98l0,0c1,0.47,1.44,1.66,0.97,2.66l0,0c-0.34,0.73-1.06,1.16-1.81,1.16l0,0
	C1594.39,849.49,1594.1,849.43,1593.83,849.3z M410.49,838.05L410.49,838.05c-0.69-0.87-0.55-2.13,0.32-2.82l0,0
	c0.86-0.68,2.12-0.54,2.81,0.33l0,0c0,0,0,0,0-0.01l0,0c0.69,0.87,0.54,2.12-0.32,2.81l0,0c-0.37,0.3-0.81,0.44-1.24,0.44l0,0
	C411.47,838.8,410.89,838.54,410.49,838.05z M1599.77,835.55c-1.03-0.39-1.55-1.55-1.15-2.58l0,0c0.39-1.03,1.55-1.55,2.58-1.15l0,0
	c1.03,0.39,1.55,1.55,1.15,2.58l0,0c-0.3,0.8-1.06,1.29-1.86,1.29l0,0C1600.25,835.69,1600.01,835.64,1599.77,835.55z
	 M400.99,826.55c-0.72-0.84-0.62-2.1,0.22-2.82l0,0c0.83-0.72,2.1-0.62,2.82,0.21l0,0c0.72,0.84,0.62,2.11-0.22,2.83l0,0
	c-0.38,0.32-0.84,0.48-1.3,0.48l0,0C401.95,827.25,401.39,827.01,400.99,826.55z M1604.79,821.44c-1.06-0.33-1.64-1.45-1.31-2.51
	l0,0c0.33-1.05,1.45-1.64,2.5-1.31l0,0c1.06,0.33,1.64,1.45,1.32,2.51l0,0c-0.27,0.85-1.06,1.4-1.91,1.4l0,0
	C1605.19,821.53,1604.99,821.5,1604.79,821.44z M391.07,815.41L391.07,815.41c-0.75-0.81-0.7-2.07,0.11-2.82l0,0
	c0.81-0.75,2.08-0.7,2.83,0.11l0,0c0.75,0.81,0.7,2.07-0.11,2.82l0,0c-0.39,0.36-0.87,0.54-1.36,0.54l0,0
	C392,816.06,391.47,815.84,391.07,815.41z M1608.95,807.04c-1.07-0.27-1.72-1.35-1.45-2.42l0,0c0.26-1.08,1.35-1.73,2.42-1.46l0,0
	c1.07,0.27,1.72,1.36,1.46,2.43h-0.01c-0.22,0.91-1.04,1.51-1.93,1.51l0,0C1609.28,807.1,1609.11,807.08,1608.95,807.04z
	 M380.75,804.65c-0.79-0.78-0.78-2.04,0-2.82l0,0c0.78-0.78,2.05-0.78,2.83,0l0,0c0.78,0.78,0.78,2.05-0.01,2.83l0,0
	c-0.39,0.39-0.9,0.58-1.41,0.58l0,0C381.65,805.24,381.14,805.05,380.75,804.65z M370.02,794.29L370.02,794.29
	c-0.81-0.75-0.85-2.02-0.1-2.83l0,0c0.75-0.8,2.02-0.85,2.83-0.1l0,0l0,0l0,0c0.8,0.76,0.85,2.02,0.1,2.83l0,0
	c-0.4,0.42-0.93,0.64-1.47,0.64l0,0C370.89,794.83,370.41,794.65,370.02,794.29z M1612.29,792.42c-1.08-0.2-1.8-1.24-1.6-2.33l0,0
	l0,0l0,0c0.2-1.08,1.24-1.8,2.33-1.6l0,0c1.09,0.2,1.81,1.24,1.6,2.33l0,0c-0.18,0.96-1.02,1.64-1.96,1.64l0,0
	C1612.54,792.46,1612.41,792.44,1612.29,792.42z M358.91,784.34c-0.83-0.72-0.93-1.99-0.2-2.82l0,0c0.72-0.84,1.98-0.93,2.82-0.21
	l0,0c0.83,0.72,0.92,1.98,0.2,2.82l0,0c-0.39,0.46-0.95,0.69-1.51,0.69l0,0C359.76,784.82,359.29,784.66,358.91,784.34z
	 M1614.65,777.61c-1.1-0.13-1.88-1.12-1.76-2.22l0,0c0,0,0,0,0,0.01l0,0c0.13-1.1,1.12-1.89,2.22-1.76l0,0
	c1.09,0.12,1.88,1.11,1.75,2.21h0.01c-0.12,1.02-0.99,1.77-1.99,1.77l0,0C1614.8,777.62,1614.73,777.62,1614.65,777.61z
	 M347.44,774.81c-0.86-0.69-1-1.95-0.32-2.81l0,0c0.7-0.87,1.95-1.01,2.82-0.31l0,0c0.86,0.68,1,1.94,0.31,2.81l0,0
	c-0.39,0.49-0.98,0.75-1.56,0.75l0,0C348.25,775.25,347.81,775.1,347.44,774.81z M335.62,765.72c-0.89-0.66-1.08-1.91-0.42-2.8l0,0
	c0.65-0.89,1.91-1.08,2.8-0.42l0,0c0.88,0.66,1.07,1.91,0.41,2.8l0,0c-0.39,0.53-0.99,0.81-1.61,0.81l0,0
	C336.39,766.11,335.97,765.98,335.62,765.72z M1615.98,762.67c-1.1-0.05-1.96-0.98-1.91-2.09l0,0c0.05-1.1,0.99-1.95,2.09-1.9l0,0
	c1.1,0.04,1.96,0.98,1.91,2.08l0,0c-0.05,1.08-0.94,1.91-2,1.91l0,0C1616.04,762.67,1616.01,762.67,1615.98,762.67z M323.46,757.07
	c-0.91-0.63-1.15-1.87-0.52-2.78l0,0c0.62-0.92,1.87-1.15,2.78-0.52l0,0c0.91,0.62,1.14,1.86,0.52,2.78l0,0
	c-0.39,0.56-1.01,0.87-1.65,0.87l0,0C324.2,757.42,323.81,757.3,323.46,757.07z M311,748.87c-0.94-0.59-1.22-1.83-0.63-2.76l0,0
	c0.59-0.94,1.83-1.21,2.76-0.63l0,0c0.94,0.6,1.21,1.83,0.63,2.76l0,0c-0.39,0.61-1.04,0.94-1.7,0.94l0,0
	C311.7,749.18,311.33,749.08,311,748.87z M1614.22,745.73c-0.03-1.11,0.85-2.03,1.95-2.05l0,0c1.1-0.03,2.02,0.84,2.05,1.95l0,0
	c0.03,1.1-0.84,2.02-1.95,2.05l0,0c-0.02,0-0.03,0-0.05,0l0,0C1615.14,747.68,1614.25,746.81,1614.22,745.73z M298.24,741.12
	L298.24,741.12c-0.96-0.56-1.28-1.78-0.72-2.73l0,0c0.56-0.96,1.78-1.28,2.73-0.72l0,0c0.96,0.55,1.28,1.78,0.73,2.73l0,0
	c-0.38,0.64-1.05,1-1.74,1l0,0C298.9,741.4,298.56,741.31,298.24,741.12z M285.21,733.83c-0.97-0.52-1.33-1.73-0.81-2.7l0,0
	c0.52-0.98,1.73-1.34,2.71-0.82l0,0c0.97,0.52,1.33,1.74,0.81,2.71l0,0c-0.36,0.67-1.05,1.05-1.76,1.05l0,0
	C285.84,734.07,285.51,734,285.21,733.83z M1613.59,730.75c-0.03-1.1,0.84-2.03,1.94-2.06l0,0c1.11-0.03,2.03,0.83,2.07,1.94h-0.01
	c0.04,1.1-0.83,2.02-1.94,2.06l0,0c-0.02,0-0.04,0-0.06,0l0,0C1614.51,732.69,1613.63,731.83,1613.59,730.75z M271.94,727.01
	c-0.99-0.49-1.4-1.69-0.91-2.68l0,0c0.49-1,1.69-1.4,2.68-0.91l0,0c0.99,0.49,1.4,1.68,0.91,2.67l0,0c-0.35,0.71-1.06,1.12-1.8,1.12
	l0,0C272.53,727.21,272.22,727.14,271.94,727.01z M258.44,720.63L258.44,720.63c-1.01-0.46-1.46-1.64-1-2.65l0,0
	c0.45-1,1.64-1.45,2.65-1l0,0c1,0.46,1.45,1.64,0.99,2.65l0,0c-0.33,0.74-1.06,1.18-1.82,1.18l0,0
	C258.99,720.81,258.71,720.75,258.44,720.63z M1615.41,717.69c-1.1-0.01-1.99-0.91-1.98-2.02l0,0c0-1.1,0.9-1.99,2.01-1.98l0,0
	c1.1,0.01,1.99,0.91,1.99,2.01v0.01c-0.01,1.09-0.91,1.98-2,1.98l0,0C1615.42,717.69,1615.42,717.69,1615.41,717.69z M244.73,714.71
	c-1.02-0.43-1.51-1.6-1.08-2.62l0,0c0.42-1.02,1.59-1.5,2.61-1.08l0,0c1.02,0.42,1.5,1.59,1.08,2.61l0,0
	c-0.32,0.77-1.06,1.24-1.85,1.24l0,0C245.24,714.86,244.98,714.81,244.73,714.71z M230.83,709.23c-1.03-0.39-1.55-1.54-1.16-2.58
	l0,0c0.38-1.03,1.54-1.55,2.57-1.17l0,0c1.03,0.39,1.56,1.54,1.17,2.58l0,0c-0.3,0.8-1.06,1.3-1.87,1.3l0,0
	C231.3,709.36,231.06,709.31,230.83,709.23z M216.77,704.19L216.77,704.19c-1.05-0.36-1.61-1.49-1.25-2.54l0,0
	c0.36-1.04,1.49-1.6,2.54-1.25l0,0c1.04,0.36,1.6,1.5,1.25,2.54l0,0c-0.29,0.83-1.07,1.36-1.9,1.36l0,0
	C217.2,704.3,216.98,704.26,216.77,704.19z M1615.72,702.67c-1.11-0.05-1.96-0.98-1.92-2.08l0,0c0.05-1.11,0.98-1.96,2.09-1.92l0,0
	c1.1,0.05,1.96,0.98,1.91,2.09l0,0c-0.05,1.07-0.93,1.91-2,1.91l0,0C1615.77,702.67,1615.74,702.67,1615.72,702.67z M202.55,699.59
	c-1.05-0.33-1.65-1.45-1.32-2.5l0,0c0.32-1.06,1.44-1.65,2.5-1.33l0,0c1.05,0.33,1.64,1.45,1.32,2.5l0,0
	c-0.26,0.86-1.06,1.42-1.91,1.42l0,0C202.94,699.68,202.75,699.65,202.55,699.59z M188.2,695.41c-1.06-0.29-1.69-1.39-1.4-2.46l0,0
	c0.3-1.06,1.4-1.69,2.46-1.4l0,0c1.07,0.3,1.69,1.4,1.4,2.46l0,0c-0.24,0.89-1.05,1.47-1.93,1.47l0,0
	C188.56,695.48,188.38,695.46,188.2,695.41z M173.73,691.65c-1.07-0.26-1.73-1.35-1.46-2.42l0,0c0.26-1.07,1.34-1.73,2.41-1.46l0,0
	c1.08,0.26,1.73,1.34,1.47,2.41l0,0c-0.22,0.92-1.04,1.53-1.94,1.53l0,0C174.05,691.71,173.89,691.69,173.73,691.65z M159.16,688.3
	c-1.08-0.23-1.77-1.3-1.53-2.38l0,0c0.23-1.08,1.29-1.76,2.37-1.53l0,0c1.08,0.23,1.77,1.3,1.54,2.38l0,0
	c-0.21,0.93-1.03,1.58-1.96,1.58l0,0C159.44,688.35,159.3,688.33,159.16,688.3z M1616.53,687.68c-1.1-0.09-1.92-1.05-1.84-2.15l0,0
	c0.08-1.1,1.04-1.93,2.15-1.84l0,0c1.1,0.08,1.92,1.04,1.84,2.14l0,0c-0.08,1.05-0.96,1.85-1.99,1.85l0,0
	C1616.64,687.68,1616.59,687.68,1616.53,687.68z M144.5,685.35L144.5,685.35c-1.09-0.2-1.8-1.25-1.6-2.33l0,0
	c0.21-1.09,1.25-1.8,2.34-1.6l0,0c0,0,0,0-0.01,0l0,0c1.09,0.2,1.81,1.25,1.6,2.33l0,0c-0.18,0.96-1.02,1.64-1.96,1.64l0,0
	C144.75,685.39,144.62,685.37,144.5,685.35z M129.76,682.79c-1.09-0.17-1.83-1.2-1.66-2.29l0,0c0.18-1.09,1.2-1.83,2.29-1.66l0,0
	c1.1,0.18,1.84,1.2,1.66,2.29l0,0c-0.15,0.99-1.01,1.69-1.97,1.69l0,0C129.98,682.82,129.87,682.81,129.76,682.79z M114.96,680.62
	c-1.1-0.14-1.86-1.15-1.72-2.25l0,0c0.15-1.09,1.15-1.86,2.25-1.71l0,0c1.09,0.14,1.86,1.15,1.72,2.24l0,0
	c-0.14,1.01-1,1.74-1.98,1.74l0,0C115.14,680.64,115.05,680.63,114.96,680.62z M100.1,678.83L100.1,678.83
	c-1.09-0.12-1.89-1.11-1.77-2.21l0,0c0.12-1.09,1.11-1.89,2.2-1.77l0,0c1.1,0.12,1.9,1.11,1.78,2.2l0,0
	c-0.11,1.03-0.98,1.79-1.99,1.79l0,0C100.25,678.84,100.18,678.83,100.1,678.83z M85.21,677.4c-1.11-0.09-1.92-1.05-1.83-2.15l0,0
	c0.09-1.1,1.06-1.92,2.16-1.83l0,0c1.1,0.09,1.92,1.06,1.82,2.16l0,0c-0.08,1.04-0.96,1.83-1.98,1.83l0,0
	C85.32,677.41,85.26,677.41,85.21,677.4z M70.27,676.35c-1.1-0.06-1.94-1.01-1.88-2.11l0,0c0.07-1.11,1.01-1.95,2.12-1.88l0,0
	c1.1,0.06,1.94,1.01,1.88,2.11l0,0c-0.07,1.06-0.95,1.88-2,1.88l0,0C70.35,676.35,70.31,676.35,70.27,676.35z M1617.84,672.72
	c-1.09-0.12-1.89-1.11-1.77-2.2l0,0c0.12-1.1,1.11-1.9,2.2-1.78l0,0c1.1,0.12,1.9,1.11,1.78,2.21l0,0
	c-0.11,1.02-0.98,1.78-1.99,1.78l0,0C1617.99,672.73,1617.92,672.73,1617.84,672.72z M1619.63,657.81c-1.09-0.15-1.85-1.16-1.7-2.25
	l0,0c0.16-1.1,1.17-1.86,2.26-1.71l0,0c1.1,0.16,1.86,1.17,1.7,2.26l0,0c-0.14,1-0.99,1.72-1.98,1.72l0,0
	C1619.82,657.83,1619.73,657.83,1619.63,657.81z M1621.9,642.98c-1.09-0.19-1.82-1.23-1.63-2.32l0,0c0.18-1.09,1.22-1.81,2.31-1.63
	l0,0c1.09,0.19,1.82,1.23,1.63,2.32l0,0c-0.17,0.97-1.02,1.65-1.97,1.65l0,0C1622.13,643,1622.01,643,1621.9,642.98z
	 M1624.63,628.22c-1.09-0.23-1.78-1.28-1.56-2.36l0,0c0.22-1.09,1.28-1.78,2.36-1.56l0,0c1.08,0.22,1.78,1.28,1.56,2.36l0,0
	c-0.2,0.95-1.03,1.6-1.96,1.6l0,0C1624.9,628.26,1624.76,628.25,1624.63,628.22z M1627.82,613.56c-1.08-0.26-1.74-1.34-1.48-2.41
	l0,0c0.25-1.08,1.33-1.74,2.41-1.48l0,0c1.07,0.25,1.73,1.33,1.48,2.4l0,0c-0.22,0.92-1.04,1.54-1.95,1.54l0,0
	C1628.13,613.61,1627.97,613.59,1627.82,613.56z M1631.47,599c-1.06-0.29-1.69-1.39-1.4-2.45l0,0c0.29-1.07,1.39-1.7,2.46-1.41l0,0
	c1.06,0.29,1.69,1.39,1.4,2.46l0,0c-0.24,0.89-1.05,1.47-1.93,1.47l0,0C1631.83,599.07,1631.65,599.05,1631.47,599z M1635.59,584.57
	c-1.06-0.32-1.65-1.44-1.32-2.49l0,0c0,0,0,0-0.01,0l0,0c0.33-1.06,1.45-1.65,2.5-1.33l0,0c1.06,0.33,1.65,1.44,1.33,2.5l0,0
	c-0.27,0.86-1.06,1.41-1.91,1.41l0,0C1635.98,584.66,1635.78,584.63,1635.59,584.57z M1640.16,570.29c-1.04-0.36-1.6-1.5-1.24-2.54
	l0,0l0,0l0,0c0.36-1.05,1.49-1.61,2.54-1.25l0,0c1.04,0.36,1.6,1.5,1.24,2.54l0,0c-0.28,0.83-1.06,1.36-1.89,1.36l0,0
	C1640.59,570.4,1640.38,570.36,1640.16,570.29z M1645.19,556.15c-1.03-0.39-1.55-1.54-1.16-2.58l0,0c0.39-1.03,1.55-1.55,2.58-1.16
	l0,0c1.03,0.39,1.55,1.55,1.16,2.58l0,0c-0.3,0.8-1.07,1.29-1.87,1.29l0,0C1645.66,556.28,1645.42,556.24,1645.19,556.15z
	 M1650.67,542.19c-1.02-0.42-1.5-1.59-1.08-2.62l0,0c0.43-1.01,1.6-1.5,2.62-1.07l0,0c1.02,0.42,1.5,1.59,1.08,2.61l0,0
	c-0.32,0.77-1.07,1.23-1.85,1.23l0,0C1651.18,542.34,1650.92,542.29,1650.67,542.19z M1656.6,528.41c-1-0.45-1.45-1.64-0.99-2.65
	l0,0c0.46-1,1.64-1.45,2.65-0.99l0,0c1,0.46,1.45,1.65,0.99,2.65l0,0c-0.34,0.74-1.06,1.17-1.82,1.17l0,0
	C1657.15,528.59,1656.87,528.54,1656.6,528.41z M1662.97,514.84c-0.99-0.49-1.39-1.69-0.9-2.68l0,0l0,0l0,0
	c0.49-0.99,1.69-1.4,2.68-0.91l0,0c0.99,0.49,1.39,1.69,0.9,2.68l0,0c-0.34,0.71-1.05,1.11-1.79,1.11l0,0
	C1663.56,515.04,1663.26,514.98,1662.97,514.84z M1669.78,501.47c-0.97-0.52-1.34-1.73-0.81-2.7l0,0c0.52-0.98,1.73-1.34,2.7-0.82
	l0,0c0.98,0.52,1.34,1.73,0.82,2.71v-0.01c-0.36,0.68-1.05,1.06-1.76,1.06l0,0C1670.41,501.71,1670.08,501.64,1669.78,501.47z
	 M1677.02,488.34c-0.95-0.55-1.28-1.77-0.73-2.73l0,0c0.56-0.96,1.78-1.28,2.74-0.73l0,0c0.95,0.55,1.28,1.78,0.73,2.73l0,0
	c-0.37,0.64-1.05,1-1.74,1l0,0C1677.68,488.61,1677.34,488.53,1677.02,488.34z M1684.69,475.45c-0.94-0.58-1.23-1.82-0.64-2.75l0,0
	c0.58-0.94,1.81-1.23,2.75-0.64l0,0c0.94,0.58,1.22,1.81,0.64,2.75l0,0c-0.38,0.61-1.03,0.95-1.7,0.95l0,0
	C1685.38,475.76,1685.02,475.66,1684.69,475.45z M1692.76,462.82c-0.92-0.62-1.16-1.86-0.55-2.78l0,0c0.61-0.92,1.86-1.16,2.78-0.55
	l0,0c0.91,0.61,1.16,1.86,0.55,2.78l0,0c-0.39,0.57-1.02,0.89-1.67,0.88l0,0C1693.49,463.15,1693.1,463.05,1692.76,462.82z
	 M1701.24,450.45c-0.9-0.64-1.11-1.89-0.46-2.79l0,0c0.64-0.9,1.89-1.11,2.79-0.46l0,0c0.89,0.64,1.1,1.89,0.46,2.79l0,0
	c-0.39,0.54-1.01,0.83-1.63,0.83l0,0C1702,450.82,1701.59,450.7,1701.24,450.45z M1710.11,438.36c-0.88-0.67-1.05-1.93-0.38-2.8l0,0
	c0.67-0.88,1.93-1.05,2.81-0.38l0,0c0.87,0.67,1.04,1.93,0.37,2.8l0,0c-0.39,0.52-0.99,0.79-1.59,0.79l0,0
	C1710.9,438.77,1710.47,438.64,1710.11,438.36z M1719.35,426.55c-0.85-0.69-0.98-1.95-0.28-2.81l0,0l0,0l0,0
	c0.7-0.85,1.95-0.98,2.81-0.28l0,0c0.86,0.69,0.99,1.96,0.29,2.81l0,0c-0.4,0.48-0.97,0.74-1.55,0.74l0,0
	C1720.17,427.01,1719.72,426.86,1719.35,426.55z M1728.96,415.05c-0.83-0.73-0.92-1.99-0.19-2.82l0,0l0,0l0,0
	c0.72-0.84,1.98-0.93,2.82-0.2l0,0c0.83,0.72,0.92,1.99,0.2,2.82h-0.01c-0.39,0.46-0.95,0.69-1.51,0.69l0,0
	C1729.81,415.54,1729.34,415.38,1728.96,415.05z M1738.93,403.84c-0.82-0.75-0.87-2.01-0.12-2.82l0,0c0.75-0.81,2.02-0.86,2.83-0.11
	l0,0c0.81,0.75,0.86,2.01,0.11,2.82l0,0c-0.39,0.43-0.93,0.64-1.47,0.64l0,0C1739.8,404.37,1739.31,404.2,1738.93,403.84z
	 M1749.22,392.95c-0.79-0.78-0.8-2.04-0.02-2.83l0,0l0,0l0,0c0.77-0.79,2.04-0.8,2.82-0.03l0,0c0.79,0.78,0.8,2.04,0.03,2.83l0,0
	c-0.39,0.4-0.91,0.6-1.43,0.6l0,0C1750.12,393.52,1749.61,393.33,1749.22,392.95z M1759.84,382.36c-0.76-0.79-0.74-2.06,0.06-2.82
	l0,0c0.79-0.77,2.06-0.74,2.83,0.05l0,0c0.76,0.8,0.74,2.06-0.06,2.83l0,0c-0.39,0.37-0.89,0.56-1.39,0.56l0,0
	C1760.76,382.98,1760.23,382.77,1759.84,382.36z M1770.76,372.1c-0.74-0.82-0.68-2.09,0.14-2.83l0,0c0.82-0.74,2.09-0.68,2.83,0.14
	l0,0c0.74,0.82,0.68,2.08-0.14,2.82l0,0c-0.38,0.35-0.86,0.52-1.34,0.52l0,0C1771.7,372.75,1771.16,372.53,1770.76,372.1z
	 M1781.98,362.15c-0.72-0.84-0.62-2.1,0.22-2.82l0,0c0.84-0.72,2.1-0.62,2.82,0.22l0,0c0.72,0.84,0.62,2.1-0.22,2.82l0,0
	c-0.38,0.32-0.84,0.48-1.3,0.48l0,0C1782.94,362.85,1782.37,362.61,1781.98,362.15z M1793.47,352.52c-0.7-0.86-0.56-2.12,0.3-2.81
	l0,0c0.86-0.7,2.11-0.57,2.81,0.29l0,0c0.69,0.86,0.56,2.12-0.3,2.81l0,0c-0.37,0.3-0.81,0.45-1.26,0.45l0,0
	C1794.44,353.26,1793.86,353.01,1793.47,352.52z M1805.22,343.21c-0.67-0.88-0.51-2.14,0.37-2.81l0,0c0.88-0.67,2.14-0.5,2.81,0.38
	l0,0c0.67,0.87,0.5,2.13-0.38,2.8l0,0c-0.36,0.28-0.79,0.41-1.21,0.41l0,0C1806.21,343.99,1805.61,343.72,1805.22,343.21z
	 M1817.21,334.21c-0.65-0.89-0.44-2.14,0.45-2.79l0,0c0.9-0.65,2.15-0.45,2.79,0.45l0,0c0.65,0.89,0.45,2.14-0.44,2.79l0,0
	c-0.36,0.26-0.77,0.38-1.18,0.38l0,0C1818.21,335.04,1817.6,334.75,1817.21,334.21z M1829.44,325.54c-0.63-0.92-0.39-2.16,0.52-2.79
	l0,0c0.91-0.62,2.15-0.39,2.78,0.52l0,0c0.62,0.91,0.39,2.16-0.52,2.78l0,0c-0.35,0.24-0.74,0.35-1.13,0.35l0,0
	C1830.45,326.4,1829.82,326.1,1829.44,325.54z M1841.88,317.17c-0.6-0.93-0.34-2.17,0.59-2.77l0,0c0.92-0.6,2.16-0.34,2.76,0.59l0,0
	c0.6,0.92,0.34,2.16-0.58,2.76l0,0c-0.34,0.22-0.72,0.33-1.09,0.33l0,0C1842.9,318.08,1842.26,317.76,1841.88,317.17z
	 M1854.52,309.11c-0.58-0.94-0.29-2.17,0.66-2.75l0,0c0.94-0.58,2.17-0.29,2.75,0.65l0,0c0.58,0.95,0.28,2.18-0.66,2.76v-0.01
	c-0.32,0.21-0.69,0.3-1.04,0.3l0,0C1855.56,310.06,1854.9,309.72,1854.52,309.11z M1867.35,301.36c-0.56-0.95-0.23-2.18,0.72-2.74
	l0,0c0.95-0.56,2.18-0.23,2.74,0.72l0,0c0.55,0.95,0.23,2.18-0.72,2.74l0,0c-0.32,0.18-0.67,0.27-1.01,0.27l0,0
	C1868.39,302.35,1867.73,302,1867.35,301.36z M1880.36,293.91c-0.53-0.97-0.19-2.19,0.78-2.72l0,0c0.97-0.54,2.18-0.19,2.72,0.78
	l0,0c0.54,0.96,0.19,2.18-0.78,2.72l0,0c-0.31,0.17-0.64,0.25-0.97,0.25l0,0C1881.41,294.94,1880.73,294.56,1880.36,293.91z
	 M1893.54,286.74c-0.52-0.97-0.14-2.18,0.84-2.7l0,0c0.97-0.51,2.18-0.13,2.7,0.84l0,0c0.51,0.98,0.13,2.19-0.84,2.7l0,0
	c-0.3,0.16-0.62,0.23-0.93,0.23l0,0C1894.59,287.81,1893.9,287.42,1893.54,286.74z M1906.87,279.87c-0.5-0.99-0.1-2.19,0.89-2.68
	l0,0c0.99-0.49,2.19-0.09,2.68,0.9l0,0c0.5,0.99,0.1,2.19-0.89,2.68l0,0c-0.29,0.14-0.59,0.21-0.89,0.21l0,0
	C1907.92,280.98,1907.22,280.57,1906.87,279.87z M1920.31,273.22c-0.49-0.98-0.09-2.19,0.9-2.68l0,0c0.98-0.49,2.19-0.09,2.68,0.9
	l0,0c0.49,0.99,0.09,2.18-0.89,2.68l0,0c-0.29,0.14-0.6,0.21-0.9,0.21l0,0C1921.37,274.33,1920.66,273.93,1920.31,273.22z
	 M1933.73,266.52c-0.5-0.99-0.09-2.19,0.89-2.69l0,0c0.99-0.49,2.19-0.09,2.69,0.9l0,0c0.49,0.99,0.09,2.19-0.9,2.68l0,0
	c-0.29,0.15-0.59,0.21-0.89,0.21l0,0C1934.79,267.62,1934.08,267.22,1933.73,266.52z M1947.15,259.81c-0.5-0.99-0.1-2.19,0.89-2.69
	l0,0c0.99-0.49,2.19-0.09,2.68,0.9l0,0c0.5,0.99,0.1,2.19-0.89,2.68l0,0c-0.29,0.15-0.59,0.21-0.89,0.21l0,0
	C1948.2,260.91,1947.5,260.51,1947.15,259.81z M1960.56,253.1c-0.49-0.99-0.09-2.19,0.9-2.68l0,0c0.98-0.5,2.19-0.1,2.68,0.89l0,0
	c0.49,0.99,0.09,2.19-0.9,2.68l0,0c-0.28,0.15-0.59,0.22-0.89,0.22l0,0C1961.62,254.21,1960.91,253.8,1960.56,253.1z
	 M1973.98,246.39c-0.5-0.99-0.1-2.19,0.89-2.68l0,0c0.99-0.49,2.19-0.09,2.69,0.89l0,0c0.49,0.99,0.09,2.19-0.9,2.69l0,0
	c-0.29,0.14-0.59,0.21-0.89,0.21l0,0C1975.04,247.5,1974.33,247.09,1973.98,246.39z M1987.39,239.68c-0.49-0.98-0.09-2.18,0.9-2.68
	l0,0c0.99-0.49,2.19-0.09,2.68,0.9l0,0c0.49,0.98,0.1,2.18-0.89,2.68l0,0c-0.29,0.14-0.59,0.21-0.89,0.21l0,0
	C1988.45,240.79,1987.75,240.38,1987.39,239.68z"/>
<linearGradient id="SVGID_1_" gradientUnits="userSpaceOnUse" x1="2547.4314" y1="2020.8838" x2="3534.3323" y2="2020.8838" gradientTransform="matrix(1 0 0 1 -1584.812 0)">
	<stop  offset="0" style="stop-color:#838DC6"/>
	<stop  offset="0.257" style="stop-color:#8690C7"/>
	<stop  offset="0.4307" style="stop-color:#8F98CB"/>
	<stop  offset="0.5796" style="stop-color:#9EA6D2"/>
	<stop  offset="0.7147" style="stop-color:#B3B9DC"/>
	<stop  offset="0.8404" style="stop-color:#CFD3E9"/>
	<stop  offset="0.9575" style="stop-color:#F1F2F8"/>
	<stop  offset="1" style="stop-color:#FFFFFF"/>
</linearGradient>
<ellipse class="st1" cx="1456.07" cy="2020.88" rx="493.45" ry="9.13"/>
<linearGradient id="SVGID_2_" gradientUnits="userSpaceOnUse" x1="1886.7374" y1="2024.5239" x2="2586.0637" y2="2024.5239" gradientTransform="matrix(1 0 0 1 -1584.812 0)">
	<stop  offset="0" style="stop-color:#838DC6"/>
	<stop  offset="0.257" style="stop-color:#8690C7"/>
	<stop  offset="0.4307" style="stop-color:#8F98CB"/>
	<stop  offset="0.5796" style="stop-color:#9EA6D2"/>
	<stop  offset="0.7147" style="stop-color:#B3B9DC"/>
	<stop  offset="0.8404" style="stop-color:#CFD3E9"/>
	<stop  offset="0.9575" style="stop-color:#F1F2F8"/>
	<stop  offset="1" style="stop-color:#FFFFFF"/>
</linearGradient>
<ellipse class="st2" cx="651.59" cy="2024.52" rx="349.66" ry="9.13"/>
<linearGradient id="SVGID_3_" gradientUnits="userSpaceOnUse" x1="9405.5293" y1="1983.1606" x2="10467.6377" y2="1983.1606" gradientTransform="matrix(1 0 0 1 -8985.4365 0)">
	<stop  offset="0" style="stop-color:#FFFFFF"/>
	<stop  offset="1" style="stop-color:#838DC6"/>
</linearGradient>
<ellipse class="st3" cx="951.15" cy="1983.16" rx="531.05" ry="16.49"/>
<path class="st4" d="M793.95,810.99c-24.76,0-44.84,20.07-44.84,44.84v1040.03c0,55.46,27.23,76.26,50.57,83.89
	c3.26,1.08,6.44,1.88,9.47,2.5c6.64,1.35,12.48,1.73,16.67,1.77c4.16,0.07,6.67-0.21,6.67-0.21l-0.12-0.12
	c0.34,0.02,18.69,0.04,47.26,0.05h13.82c109.86,0.05,329.43,0.07,329.43,0.07c48.57,0,87.96-39.37,87.96-87.94V855.83
	c0-24.76-20.07-44.84-44.84-44.84H793.95z"/>
<path class="st5" d="M795.83,1895.86c0,48.58,39.38,87.96,87.96,87.96h385.84c48.58,0,87.95-39.38,87.95-87.96V855.82
	c0-24.77-20.08-44.84-44.84-44.84H840.67c-24.77,0-44.84,20.08-44.84,44.84V1895.86z"/>
<path class="st0" d="M1320.88,895.55v974.51H832.52V895.55c0-7.99,6.48-14.49,14.49-14.49h459.39
	C1314.41,881.06,1320.88,887.56,1320.88,895.55z"/>
<g>
	
		<ellipse transform="matrix(0.231 -0.973 0.973 0.231 -176.5981 1478.2286)" class="st6" cx="846.86" cy="850.83" rx="12.76" ry="12.76"/>
	
		<ellipse transform="matrix(0.231 -0.973 0.973 0.231 -149.004 1513.1417)" class="st6" cx="882.74" cy="850.83" rx="12.76" ry="12.76"/>
</g>
<path class="st6" d="M1039.28,1944.09c0,9.95,8.06,18.01,18.01,18.01h33.02c9.95,0,18.01-8.06,18.01-18.01v-33.02
	c0-9.95-8.06-18.01-18.01-18.01h-33.02c-9.95,0-18.01,8.06-18.01,18.01V1944.09z"/>
<g>
	<path class="st0" d="M1210.75,954.38c0,3.15-2.55,5.7-5.7,5.7h-22.8c-3.15,0-5.7-2.55-5.7-5.7v-22.8c0-3.15,2.55-5.7,5.7-5.7h22.8
		c3.15,0,5.7,2.55,5.7,5.7V954.38z"/>
	<path class="st0" d="M1257.49,954.38c0,3.15-2.55,5.7-5.7,5.7h-22.8c-3.15,0-5.7-2.55-5.7-5.7v-22.8c0-3.15,2.55-5.7,5.7-5.7h22.8
		c3.15,0,5.7,2.55,5.7,5.7V954.38z"/>
	<path class="st0" d="M1304.24,954.38c0,3.15-2.55,5.7-5.7,5.7h-22.8c-3.15,0-5.7-2.55-5.7-5.7v-22.8c0-3.15,2.55-5.7,5.7-5.7h22.8
		c3.15,0,5.7,2.55,5.7,5.7V954.38z"/>
</g>
<path class="st4" d="M1320.88,895.55c0-7.99-6.48-14.49-14.49-14.49H847.01c-8.01,0-14.49,6.5-14.49,14.49v14.02h198.62l2.81,2.59
	c6.63,6.12,15.31,9.51,24.33,9.51h36.85c9.02,0,17.7-3.4,24.33-9.51l2.81-2.59h198.62V895.55z"/>
<path class="st6" d="M1122.82,903.29c0,14.71-11.93,26.64-26.64,26.64h-39.65c-14.71,0-26.64-11.93-26.64-26.64v-17.97h92.93V903.29
	z"/>
<path class="st0" d="M993.01,1747.46c0,23.77-13.38,44.41-33.03,54.79c-8.64,4.58-18.48,7.17-28.92,7.17
	c-10.44,0-20.29-2.58-28.92-7.17c-19.65-10.37-33.03-31.01-33.03-54.79c0-34.22,27.74-61.96,61.96-61.96
	S993.01,1713.25,993.01,1747.46z"/>
<rect x="1026.64" y="1706.75" class="st0" width="261.99" height="10.62"/>
<rect x="1026.64" y="1731.53" class="st0" width="169.94" height="10.62"/>
<rect x="1026.64" y="1756.32" class="st0" width="120.37" height="10.62"/>
<rect x="1026.64" y="1781.1" class="st0" width="223.04" height="10.62"/>
<g>
	<path class="st7" d="M959.98,1787.58v14.67c-8.64,4.58-18.48,7.17-28.92,7.17c-10.44,0-20.29-2.58-28.92-7.17v-14.67
		c0-15.97,12.96-28.93,28.92-28.93C947.02,1758.65,959.98,1771.61,959.98,1787.58z"/>
	
		<ellipse transform="matrix(0.8391 -0.544 0.544 0.8391 -791.2516 784.8802)" class="st7" cx="931.05" cy="1729.89" rx="23.14" ry="23.14"/>
</g>
<path class="st8" d="M546.24,1929.74c0,0-44.51,47.39-40.38,58.55c2.87,7.74,8.24,17.89,8.24,17.89l-0.85,11.52l-8.6-5.64
	l-16.28-35.35l38.97-59.38L546.24,1929.74z"/>
<path class="st9" d="M642.47,1660.38l-19.49,186.17l-2.18,2.62l-26.53,31.95l-79.22,95.44l-22.71-16.5
	c8.25-13.36,18.42-29.37,28.18-44.51c25.45-39.47,51.19-78.84,67.64-93.08l0.13-154.98l1.09-0.14L642.47,1660.38z"/>
<path class="st10" d="M620.8,1849.17l-26.53,31.95c-9.35-2.89-40.59-8.21-73.76,34.42c25.45-39.47,51.19-78.84,67.64-93.08
	l0.13-154.98l1.09-0.14L620.8,1849.17z"/>
<path class="st11" d="M659.06,1584.87c-1.45-9.87-2.47-19.27-0.82-26.87c7-32.23,8.72-66.36-3.51-97.62
	c-4.67-12.04-14.19-21.95-25.55-27.22l-0.55,4.31l11.75,82.98l1.25,8.84l-1.15,20.22l-0.09,1.25l-1.79,31.05
	c-0.14,2.58-0.45,5.13-0.9,7.67l-6.25,33.59c-5.82,11.07-8.98,20.92-4.58,24.61l-0.4,2.12c0.14-0.75,0.32-1.41,0.51-2.04
	c1.97,1.57,5.39,1.96,10.67,0.75C670.01,1641.06,662.95,1611.3,659.06,1584.87z"/>
<path class="st12" d="M654.25,1501.02c0,0,0.63,19.18-7.57,31.15l11.45,75.23c0,0,2.18,23.76-14.86,24.68l-7.77-105.82
	L654.25,1501.02z"/>
<path class="st13" d="M506.81,1654.97c0,0,22.45-21.25,37.76-12.5c15.31,8.75,38.29,2.16,43.57-21.63l-15.8-53.78L506.81,1654.97z"
	/>
<path class="st8" d="M631.41,1923.7c0,0-4.53,56.13,1.96,71.1c3.05,7.04,18.5,11.43,18.5,11.43l3.76,9.17l-10.29-0.02l-32.95-20.7
	l0.18-71.03L631.41,1923.7z"/>
<path d="M612.83,1992.99c0,0-8.8,12.69-8.24,27.81l79.17,0.08c1.37,0,2.59-0.85,3.05-2.14c0.47-1.28,0.08-2.72-0.97-3.6
	c-2.58-2.16-6.91-3.79-14.07-2.36c-1.48,0.29-3.02,0.09-4.37-0.6l-15.1-7.65l-2.92,4.65L612.83,1992.99z"/>
<path d="M538.83,2017.26c-2.6-2.17-6.9-3.8-14.1-2.36c-1.45,0.29-3,0.07-4.34-0.62l-3.61-1.81l-2.67-6.29l-5.17,1.69l-17.43-35.95
	c0,0-14.93,4-24.27,15.89l19.54,16.57l21.89,18.27h12.72h15.33c1.37,0,2.6-0.52,3.07-1.82
	C540.27,2019.58,539.88,2018.13,538.83,2017.26z"/>
<path class="st11" d="M651.95,1603.33l-17.14,373.79l-28.3-0.07c-2.26-24.83-3.16-30.83-4.22-53.41
	c-1.7-37.07-2.96-73.86,2.64-102.23l-19.31-153.92c-25.43-24.75-9.1-67.05-9.1-67.05l13.9-2.78l26.68-5.34L651.95,1603.33z"/>
<path class="st9" d="M630.01,1818.63l-15.39,7.49c0,0-10.14,43.4-12.33,97.51c-1.7-37.07-2.96-73.86,2.64-102.23l-19.31-153.92
	c-25.43-24.75-9.1-67.05-9.1-67.05l13.9-2.78l26.49,18.81c0,0-25.92,12.87-7.49,53.77l5.23,148.36L630.01,1818.63z"/>
<polygon class="st8" points="652.65,1381.13 650.51,1390.03 647.61,1402.3 644.84,1413.84 644.79,1414.09 641.39,1428.25 
	640.99,1429.99 640.77,1430.82 640.14,1433.49 639.18,1437.56 617.58,1433.54 610.34,1407.03 614.65,1390.83 628.1,1380.9 "/>
<path class="st14" d="M615.63,1617.06c-12.6-1.95-24.43,3.55-36.95,4.08c-2.87,0.09-5.55-1.28-7.14-3.68
	c-1.62-2.34-1.86-5.37-0.66-7.95c4.82-10.58,2.04-20.33,2.04-20.33c-0.64-4.63-1.59-9.57-2.73-14.75
	c-2.04-9.31-4.73-19.33-7.44-29.44c-1.73-6.42-3.44-12.88-5.05-19.2c-1.3-5.2-2.52-10.26-3.48-15.18
	c-2.34-11.41-2.58-22.94-0.72-34.14c1.6-9.73,4.81-19.19,9.67-28.09c3.22-5.89,8-14.47,14.05-21.38
	c6.69-7.61,22.32-17.71,31.6-15.46c6.31,1.55,12.3,12.08,18.18,18.52c1.41,1.56,2.82,2.88,4.24,3.78c4.02,2.58,7.54,5.73,10.1,9.72
	c0.71,1.12,1.21,1.95,1.89,3.22c0.47,0.9,1.14,2.2,1.6,3.15c0.13,0.26,0.25,0.51,0.38,0.77c0.91,1.96,1.78,4.01,2.58,6.1
	c2.15,5.53,3.82,11.31,4.77,16.16c0.15,0.79,0.3,1.54,0.43,2.27c1.43,7.82,1.89,13.57,1.78,22.02c-0.09,7.4-2.07,15.01-5.58,21.49
	c-1.68,3.08-3.86,6.06-6.64,8.74c-0.33,4.94-0.03,10.03,1.1,15.34c0.94,4.38,3.87,25.97,4.86,30.38c2.05,9.35,2.59,21.84,4.64,32.43
	c0.58,3.02-1.16,6-4.08,6.96C640.76,1615.33,624.61,1619.83,615.63,1617.06z"/>
<path class="st15" d="M652.99,1475.24c-1.31-4.78-2.96-9.09-4.57-12.7c-2.78-6.23-6.72-12.01-11.47-16.9l-27.56-28.33l17.62,12.75
	c1.41,1.56,2.82,2.88,4.24,3.78c4.02,2.58,7.54,5.73,10.1,9.72c0.71,1.12,1.2,1.95,1.88,3.22c0.61,1.12,1.39,2.69,1.96,3.92l0.02,0
	c0.91,1.96,1.78,4.01,2.58,6.1c2.15,5.53,3.82,11.31,4.77,16.16C652.71,1473.75,652.86,1474.5,652.99,1475.24z"/>
<polygon class="st16" points="642.5,1431.11 648.35,1443.71 643.23,1446.79 "/>
<path class="st17" d="M646.81,1442.53c0,0,0.42,0.75,1.2,2.16c0.79,1.41,1.95,3.45,3.3,6.25c0.7,1.38,1.46,2.91,2.19,4.6
	c0.74,1.69,1.62,3.49,2.38,5.49c0.79,1.98,1.69,4.08,2.46,6.36c0.83,2.26,1.67,4.64,2.42,7.17c1.62,5.03,3.01,10.61,4.26,16.58
	c1.2,5.98,2.07,12.39,2.59,19.1c0.44,6.72,0.42,13.74-0.24,20.92c-0.21,1.79-0.37,3.6-0.63,5.41c-0.31,1.81-0.62,3.62-0.93,5.44
	l-1.21,5.29c-0.4,1.69-1.05,3.65-1.59,5.48c-2.26,7.14-5.01,13.68-7.53,19.93c-2.53,6.23-4.78,12.1-6.16,17.56
	c-1.41,5.46-1.91,10.46-1.63,15c0.13,1.12,0.26,2.23,0.39,3.32c0.13,1.08,0.49,2.14,0.69,3.17c0.12,0.52,0.23,1.03,0.34,1.54
	c0.18,0.5,0.36,1,0.54,1.5c0.28,0.83,0.56,1.64,0.84,2.43c1.03,2.37,2.02,4.63,2.97,6.79c0.94,1.68,1.82,3.26,2.66,4.76
	c0.2,0.37,0.41,0.74,0.6,1.1c0.25,0.38,0.49,0.75,0.73,1.12c0.47,0.73,0.93,1.44,1.37,2.12c0.89,1.35,1.64,2.61,2.41,3.71
	c3.25,4.34,5.1,6.82,5.1,6.82l-2.05,21.55l-21.81-4.8c0,0-1.9-3.28-5.23-9.02c-0.79-1.47-1.58-3.16-2.47-4.97
	c-0.44-0.91-0.9-1.85-1.38-2.83c-0.24-0.49-0.48-0.99-0.72-1.49c-0.23-0.56-0.46-1.12-0.7-1.7c-0.92-2.31-1.89-4.77-2.92-7.36
	c-0.69-2.25-1.41-4.62-2.16-7.09c0.03,0.08-0.32-0.93-0.18-0.54l-0.02-0.07l-0.03-0.15l-0.07-0.29l-0.13-0.58l-0.26-1.18
	c-0.17-0.79-0.34-1.58-0.52-2.38c-0.17-0.8-0.34-1.61-0.51-2.42c-0.1-0.84-0.19-1.69-0.29-2.55c-0.15-1.72-0.43-3.44-0.45-5.22
	c0.01-1.78,0.02-3.58,0.03-5.41c0.4-7.29,2.2-14.67,4.84-21.43c2.62-6.79,5.96-13.05,9.24-19.04c3.28-5.97,6.54-11.82,9.12-17.55
	c0.59-1.43,1.23-2.66,1.81-4.25l1.64-4.59c0.45-1.52,0.89-3.04,1.34-4.56c0.41-1.53,0.72-3.09,1.09-4.63
	c1.31-6.21,2.08-12.51,2.39-18.68c0.24-6.17,0.13-12.2-0.34-17.92c-0.51-5.71-1.2-11.13-2.19-16.07c-0.43-2.49-0.97-4.85-1.5-7.09
	c-0.48-2.26-1.11-4.35-1.64-6.34c-0.51-2-1.14-3.82-1.67-5.52c-0.52-1.72-1.07-3.25-1.58-4.62c-0.95-2.76-1.87-4.96-2.5-6.45
	c-0.61-1.49-0.94-2.29-0.94-2.29L646.81,1442.53z"/>
<polygon class="st14" points="608.14,1405.23 601.55,1411.75 643.23,1446.79 642.5,1431.11 "/>
<path class="st18" d="M615.28,1537.14c0,0-27.77,29.92-16.95,55.27c10.46,24.49,12.12,12.72,17.3,24.64
	c-1.06-0.16-2.17-0.24-3.23-0.38c-0.55-0.06-1.09-0.12-1.66-0.16c-0.18-0.01-0.34-0.04-0.53-0.03c-1.73-0.15-3.46-0.12-5.17,0.02
	c-2.73,0.21-5.43,0.81-8.06,1.71c-5.46,1.91-12.21,2.65-18.3,2.91c-2.87,0.09-5.55-1.28-7.14-3.68c-1.62-2.34-1.86-5.37-0.66-7.95
	c4.82-10.58,2.04-20.33,2.04-20.33c-0.64-4.63-1.59-9.57-2.73-14.75l57.94-104.25C628.13,1470.18,642.03,1504.42,615.28,1537.14z"/>
<path class="st11" d="M623.56,1510.38c-0.57,1.26-1.2,2.58-1.87,3.87c-1.39,2.67-2.96,5.34-4.73,8.03
	c-3.09,4.7-6.67,9.46-10.94,14.32c-1.46,1.69-3,3.4-4.62,5.11c-5.21,5.56-10.76,11.01-15.45,16.95
	c-22.07,27.94-15.94,48.18-65.28,88.56c-4.8,3.93-10.13,8.05-16.05,12.39c-5.37-14.42-6.03-29.64-1.82-44.38
	c1.79-6.18,5.27-11.95,8.96-17.33c0.02-0.02,0.02-0.04,0.02-0.04c0.57-0.82,1.14-1.62,1.71-2.44c2.8-3.94,5.83-7.02,8.95-10.17
	c1.5-1.55,2.98-3.08,4.48-4.75c0.23-0.27,0.48-0.53,0.73-0.84c0.14-0.18,0.3-0.36,0.46-0.52c2.14-2.44,7.08-7.89,12.22-13.52
	c7.58-8.28,15.61-17.01,15.61-17.01s-4.47-22.89-6.31-48.05c-0.23-3.48-0.44-7-0.58-10.53c0.87-21.15,7.37-37.15,15.28-48.93
	c2.32-3.46,4.76-6.55,7.23-9.31c1.71-1.91,3.41-3.65,5.08-5.25c5.33-5.06,10.36-8.55,14-10.75c3.07-1.85,6.38-3.15,9.89-3.84
	l0.98-0.19C626.71,1447.88,638.59,1477.83,623.56,1510.38z"/>
<path class="st13" d="M601.53,1411.75l-6.46,11.42l10.29,4.34l-4.88,4.33c0,0,42.02,36.24,20.14,84.36
	C620.62,1516.2,658.87,1471.91,601.53,1411.75z"/>
<path class="st18" d="M563.82,1550.66l10.9,5.06l-14.48-0.31c0,0-65.47,62.47-39.58,91.81c-4.8,3.93-10.13,8.05-16.05,12.39
	c-5.37-14.42-6.03-29.64-1.82-44.38c1.79-6.18,5.27-11.95,8.96-17.33c0.02-0.02,0.02-0.04,0.02-0.04c0.57-0.82,1.14-1.62,1.71-2.44
	c2.8-3.94,5.83-7.02,8.95-10.17c1.5-1.55,2.98-3.08,4.48-4.75c0.23-0.27,0.48-0.53,0.73-0.84c0.14-0.18,0.3-0.36,0.46-0.52
	c2.14-2.44,7.08-7.89,12.22-13.52c7.58-8.28,15.61-17.01,15.61-17.01s-4.47-22.89-6.31-48.05c-0.23-3.48-0.44-7-0.58-10.53
	c0.87-21.15,7.37-37.15,15.28-48.93l4.32-4.51l1.61,53.95c0.08,2.58-0.57,5.15-1.88,7.38
	C564.02,1505.36,554.78,1525.44,563.82,1550.66z"/>
<g>
	<g>
		<path class="st0" d="M674.78,1380.89c0.36,6.8-1.24,12.41-3.56,12.54c-2.32,0.12-4.5-5.29-4.85-12.1s1.24-12.41,3.56-12.54
			C672.25,1368.68,674.42,1374.09,674.78,1380.89z"/>
		<path class="st19" d="M682.07,1352.87c-0.02-0.08-0.05-0.17-0.07-0.25c-5.96-21.1-40.23-27.13-56.6-19.16
			c-15.66,7.63-19.4,41.19-9.43,53.35l38.99-11.28l14.56,2.61l3.32-3.43c0.22-0.23,0.47-0.47,0.7-0.69
			C675.34,1372.33,684.81,1362.84,682.07,1352.87z"/>
		<g>
			<g>
				<path class="st8" d="M670.33,1397.3c0,0-3.18,15.54-9.73,22.46c0,0-14.43,1.22-20.19-23.94c0,0-4.36-4.48-9.66-2.55
					c0,0-10.72-1.56-4.47-18c0.7-1.85,2.28-3.15,4.09-3.36c1.83-0.21,3.89,0.58,4.63,4.74l1.19-5.15l-9.41-14.75
					c0,0,11.58-10.75,34.37-0.82c0,0,15.19,7.02,9.79,26.83c0,0-0.53,2.29,1.15,5.76l2,3.26
					C674.09,1391.77,677.39,1397.79,670.33,1397.3z"/>
			</g>
			
				<ellipse transform="matrix(0.1502 -0.9886 0.9886 0.1502 -823.095 1749.5132)" class="st19" cx="606.19" cy="1353.57" rx="12.18" ry="12.12"/>
		</g>
		<path class="st0" d="M667.61,1380.12c0.36,6.89-1.25,12.57-3.61,12.69c-2.35,0.12-4.55-5.36-4.91-12.24
			c-0.36-6.89,1.25-12.57,3.61-12.69C665.05,1367.76,667.25,1373.24,667.61,1380.12z"/>
	</g>
</g>
<path class="st19" d="M646.42,1363.58l1.34,6.11c-7.63,5.58-6.96,18.18-6.96,18.18c-0.2,9.03,7.4,13.28,14.66,15.29l12.86-2.88
	c0.71-0.12,1.43,0.11,1.98,0.61c0.55,0.5,0.86,1.25,0.88,2.03c0.01,0.8-0.29,1.57-0.84,2.11c-0.03,0.03-0.06,0.06-0.1,0.09
	c-1.15,1.03-1.74,2.54-1.61,4.08l0.37,4.5c0.01,0.19,0.03,0.39,0.05,0.58c0.19,1.89,0.14,3.78-0.16,5.65
	c-0.82,5.14-3.49,11.5-11.69,11.46c0,0-0.24,0-0.66-0.02c-4.59-0.2-8.88-2.32-11.82-5.84c-2.95-3.52-4.28-8.11-3.67-12.67
	c0.35-2.66,0.04-5.39-0.93-7.93l-4.79-12.45c4.16-16.8-4.97-20.6-4.97-20.6l-2.68-5.97L646.42,1363.58z"/>
<path class="st20" d="M613.66,1378.27c-0.03,0.58-1.57,20.47-1.34,21.21c8.66-1.13,12.76-3.4,19.14-8.89l-3.91-2.57l3.44-10.26
	c1.58-4.7,5.51-8.01,10.05-8.45c1.93-0.19,4.19-0.13,6.74,0.38c0,0,6.44,1.62,6.78-4.28c0.28-4.78-0.18-5.2,3.73-7.81
	C658.28,1357.6,615.45,1338.37,613.66,1378.27z"/>
<path class="st8" d="M633.83,1392.4c0,0-11.12,1.17-9.06-16.86c0.23-2.03,1.48-3.73,3.24-4.4c1.61-0.62,3.61-0.46,5.31,2.53
	c0,0,2.66,3.54,2.59,9.89C635.92,1383.57,637.1,1389.7,633.83,1392.4z"/>
<path class="st0" d="M640.66,1384.96c-1.47-0.28-2.59-1.6-2.59-3.18c0-1.79,1.42-3.24,3.17-3.24l30.35-0.01
	c1.76,0,3.17,1.45,3.17,3.24c0,1.79-1.42,3.24-3.17,3.24l-30.35,0.01C641.04,1385.02,640.85,1385,640.66,1384.96z"/>
<path class="st6" d="M1078.58,767.14h-8.42v-5.6h-45.12v41.92c0,4.17,3.38,7.55,7.55,7.55h30.03c4.17,0,7.55-3.38,7.55-7.55v-2.96
	h8.42c5.09,0,9.22-4.13,9.22-9.22v-14.91C1087.8,771.27,1083.67,767.14,1078.58,767.14z M1082.77,791.28c0,2.31-1.88,4.19-4.19,4.19
	h-8.42v-23.29h8.42c2.31,0,4.19,1.88,4.19,4.19V791.28z"/>
<path class="st6" d="M1078.58,767.14h-8.42v-5.6h-45.12v41.92c0,4.17,3.38,7.55,7.55,7.55h30.03c4.17,0,7.55-3.38,7.55-7.55v-2.96
	h8.42c5.09,0,9.22-4.13,9.22-9.22v-14.91C1087.8,771.27,1083.67,767.14,1078.58,767.14z M1082.77,791.28c0,2.31-1.88,4.19-4.19,4.19
	h-8.42v-23.29h8.42c2.31,0,4.19,1.88,4.19,4.19V791.28z"/>
<path class="st4" d="M1035.51,777.21c1.52-1.52,3.54-2.35,5.69-2.35c2.15,0,4.17,0.83,5.69,2.35l0.52,0.52l0,0l0.52-0.52
	c3.14-3.14,8.25-3.14,11.38,0c1.52,1.52,2.36,3.54,2.36,5.69s-0.84,4.17-2.36,5.69l-0.54,0.54l0,0l-10.63,10.63l-0.74,0.74
	l-0.02,0.02l-0.7-0.74l-11.19-11.19c-1.52-1.52-2.36-3.54-2.36-5.69S1033.99,778.73,1035.51,777.21z"/>
<g class="st21">
	<path class="st0" d="M1059.58,729c0-7.76-6.29-14.05-14.05-14.05s-14.05,6.29-14.05,14.05c0,4.51,2.12,8.51,5.42,11.08
		c-1.47,1.36-2.39,3.3-2.39,5.46c0,4.12,3.34,7.46,7.46,7.46c0.39,0,0.78-0.04,1.16-0.1c-0.06,0.26-0.09,0.54-0.09,0.82
		c0,2.16,1.75,3.91,3.91,3.91c2.16,0,3.91-1.75,3.91-3.91c0-1.81-1.22-3.32-2.89-3.77c0.91-1.24,1.45-2.76,1.45-4.41
		c0-1.03-0.21-2.01-0.58-2.9C1055.01,741.16,1059.58,735.62,1059.58,729z"/>
	<path class="st0" d="M1054.26,714.77c1.86,0,3.37-1.51,3.37-3.37s-1.51-3.37-3.37-3.37s-3.37,1.51-3.37,3.37
		S1052.4,714.77,1054.26,714.77z"/>
</g>
<path class="st18" d="M1347.39,827.35c-8.23-10-20.69-16.37-34.64-16.37h-9.4c2.67,28.77,14,66.59,24.71,103.71
	c0,0.04,0.02,0.07,0.02,0.09c4.64,16.11,9.15,32.06,12.8,47.11l4.57-0.76l1.19,4.96c0,0,0,0-0.02,0c0,0-3.35,0.97-7.72,3.35
	c-4.37,2.34-9.79,6.07-13.97,11.56l32.66,26.84V906.99L1347.39,827.35z M1220.89,911.5v0.02c-0.35,2.3-0.73,4.62-1.12,6.92
	c-2.44,15.08-4.92,29.97-7.7,43.79l4.25,0.99l-1.65,7.19c0,0-2.57-0.44-6.5-0.44c-5.13,0-12.57,0.76-19.54,4.25l28.54,62.95
	c0.62,1.36,2.11,2.12,3.63,1.86c1.5-0.28,2.66-1.52,2.8-3.03c0.23-2.66-0.51-6.05-3.42-10.14c-0.9-1.27-1.35-2.8-1.27-4.35
	l0.74-14.76h0.02c0,0,0.12-3.03,1.26-8.44c0.34-1.59,1.31-5.01,1.91-6.74l7.58-25.01l4.02,0.96l52.22-156.52h-43.25
	C1233.14,835.37,1227.01,873.6,1220.89,911.5z M1108.5,811.15l1.89-0.18h-8C1104.43,811.27,1106.46,811.33,1108.5,811.15z"/>
<rect x="871.31" y="1086.37" class="st22" width="417.76" height="37.17"/>
<rect x="871.31" y="1084.01" class="st23" width="417.76" height="9.15"/>
<rect x="1130.64" y="1598.83" class="st4" width="430.15" height="182.92"/>
<path d="M1103.4,1812.11c-6.82,0-12.35-5.53-12.35-12.35v-19.5c0-6.82,5.53-12.35,12.35-12.35V1812.11z"/>
<rect x="1102.32" y="1782.05" width="32.75" height="15.93"/>
<g>
	<path d="M1585.4,1812.11c6.82,0,12.35-5.53,12.35-12.35v-19.5c0-6.82-5.53-12.35-12.35-12.35V1812.11z"/>
	<rect x="1553.74" y="1782.05" width="32.75" height="15.93"/>
</g>
<rect x="1559.53" y="1782.05" width="32.75" height="15.93"/>
<path d="M1628.81,1839.84h-8.95c-7.08,0-12.84-5.76-12.84-12.84v-30.35c0-1.07-0.87-1.95-1.95-1.95h-10.45
	c-3.01,0-5.45-2.44-5.45-5.45c0-3.01,2.44-5.45,5.45-5.45h10.45c7.08,0,12.84,5.76,12.84,12.84v30.35c0,1.07,0.87,1.95,1.95,1.95
	h8.95c3.01,0,5.45,2.44,5.45,5.45S1631.82,1839.84,1628.81,1839.84z"/>
<g class="st21">
	<rect x="1135.95" y="1673.77" class="st24" width="418.94" height="21.24"/>
	<path class="st24" d="M1555.78,1695.9h-420.71v-23.01h420.71V1695.9z M1136.84,1694.13h417.17v-19.47h-417.17V1694.13z"/>
</g>
<path class="st4" d="M1560.23,1847.33H1131.6c1.01,31.03-1.31,68.9-11.58,109.97h211.54h28.72h211.54
	C1561.54,1916.23,1559.22,1878.36,1560.23,1847.33z"/>
<g class="st21">
	<g>
		
			<ellipse transform="matrix(0.1602 -0.9871 0.9871 0.1602 -877.7045 2787.3845)" class="st25" cx="1199.24" cy="1909.5" rx="11.06" ry="11.06"/>
		
			<ellipse transform="matrix(0.7071 -0.7071 0.7071 0.7071 -989.5397 1430.042)" class="st25" cx="1231.44" cy="1909.5" rx="11.06" ry="11.06"/>
		
			<ellipse transform="matrix(0.2298 -0.9732 0.9732 0.2298 -885.0957 2700.6367)" class="st25" cx="1263.65" cy="1909.5" rx="11.06" ry="11.06"/>
		
			<ellipse transform="matrix(0.7071 -0.7071 0.7071 0.7071 -970.673 1475.5902)" class="st25" cx="1295.86" cy="1909.5" rx="11.06" ry="11.06"/>
		
			<ellipse transform="matrix(0.2298 -0.9732 0.9732 0.2298 -835.4803 2763.3284)" class="st25" cx="1328.07" cy="1909.5" rx="11.06" ry="11.06"/>
		
			<ellipse transform="matrix(0.1602 -0.9871 0.9871 0.1602 -742.4624 2946.3423)" class="st25" cx="1360.27" cy="1909.5" rx="11.06" ry="11.06"/>
		
			<ellipse transform="matrix(0.2298 -0.9732 0.9732 0.2298 -785.8648 2826.02)" class="st25" cx="1392.48" cy="1909.5" rx="11.06" ry="11.06"/>
		
			<ellipse transform="matrix(0.1602 -0.9871 0.9871 0.1602 -688.3656 3009.9255)" class="st25" cx="1424.69" cy="1909.5" rx="11.06" ry="11.06"/>
		
			<ellipse transform="matrix(0.2298 -0.9732 0.9732 0.2298 -736.2494 2888.7119)" class="st25" cx="1456.9" cy="1909.5" rx="11.06" ry="11.06"/>
		
			<ellipse transform="matrix(0.1602 -0.9871 0.9871 0.1602 -634.2688 3073.5088)" class="st25" cx="1489.1" cy="1909.5" rx="11.06" ry="11.06"/>
	</g>
	<g>
		<circle class="st25" cx="1215.17" cy="1879.85" r="11.06"/>
		<circle class="st25" cx="1247.38" cy="1879.85" r="11.06"/>
		<circle class="st25" cx="1279.58" cy="1879.85" r="11.06"/>
		<circle class="st25" cx="1311.79" cy="1879.85" r="11.06"/>
		<circle class="st25" cx="1344" cy="1879.85" r="11.06"/>
		<circle class="st25" cx="1376.2" cy="1879.85" r="11.06"/>
		<circle class="st25" cx="1408.41" cy="1879.85" r="11.06"/>
		<circle class="st25" cx="1440.62" cy="1879.85" r="11.06"/>
		<circle class="st25" cx="1472.83" cy="1879.85" r="11.06"/>
	</g>
	<g>
		
			<ellipse transform="matrix(0.7071 -0.7071 0.7071 0.7071 -1015.8987 1427.4769)" class="st25" cx="1215.17" cy="1940.04" rx="11.06" ry="11.06"/>
		
			<ellipse transform="matrix(0.9239 -0.3827 0.3827 0.9239 -647.4698 625.0274)" class="st25" cx="1247.38" cy="1940.04" rx="11.06" ry="11.06"/>
		
			<ellipse transform="matrix(0.7071 -0.7071 0.7071 0.7071 -997.032 1473.0251)" class="st25" cx="1279.58" cy="1940.04" rx="11.06" ry="11.06"/>
		
			<ellipse transform="matrix(0.9239 -0.3827 0.3827 0.9239 -642.5665 649.6779)" class="st25" cx="1311.79" cy="1940.04" rx="11.06" ry="11.06"/>
		
			<ellipse transform="matrix(0.2298 -0.9732 0.9732 0.2298 -852.9293 2802.3499)" class="st25" cx="1344" cy="1940.04" rx="11.06" ry="11.06"/>
		
			<ellipse transform="matrix(0.9239 -0.3827 0.3827 0.9239 -637.6633 674.3285)" class="st25" cx="1376.2" cy="1940.04" rx="11.06" ry="11.06"/>
		
			<ellipse transform="matrix(0.2298 -0.9732 0.9732 0.2298 -803.314 2865.0415)" class="st25" cx="1408.41" cy="1940.04" rx="11.06" ry="11.06"/>
		
			<ellipse transform="matrix(0.9239 -0.3827 0.3827 0.9239 -632.7599 698.9791)" class="st25" cx="1440.62" cy="1940.04" rx="11.06" ry="11.06"/>
		
			<ellipse transform="matrix(0.2298 -0.9732 0.9732 0.2298 -753.6987 2927.7334)" class="st25" cx="1472.83" cy="1940.04" rx="11.06" ry="11.06"/>
	</g>
</g>
<path class="st4" d="M1588.23,1988.27h-485.91v-19.25c0-9.65,7.83-17.48,17.48-17.48h450.95c9.65,0,17.48,7.83,17.48,17.48V1988.27z
	"/>
<path class="st5" d="M1624.52,2000.67c0,12.38-10.04,22.42-22.42,22.42h-512.17c-12.38,0-22.42-10.04-22.42-22.42
	c0-12.38,10.04-22.42,22.42-22.42h512.17C1614.48,1978.24,1624.52,1988.28,1624.52,2000.67z"/>
<path class="st26" d="M1086.62,1987.98h518.8c4.56,0,8.7,1.78,11.8,4.67c-2.88-5.4-8.57-9.09-15.11-9.09h-512.17
	c-6.54,0-12.23,3.69-15.11,9.09C1077.92,1989.76,1082.06,1987.98,1086.62,1987.98z"/>
<g>
	<g>
		
			<ellipse transform="matrix(0.1602 -0.9871 0.9871 0.1602 -873.7729 2784.0396)" class="st0" cx="1199.24" cy="1905.52" rx="11.06" ry="11.06"/>
		
			<ellipse transform="matrix(0.7071 -0.7071 0.7071 0.7071 -986.7233 1428.8755)" class="st0" cx="1231.44" cy="1905.52" rx="11.06" ry="11.06"/>
		
			<ellipse transform="matrix(0.2298 -0.9732 0.9732 0.2298 -881.2194 2697.5688)" class="st0" cx="1263.65" cy="1905.52" rx="11.06" ry="11.06"/>
		
			<ellipse transform="matrix(0.7071 -0.7071 0.7071 0.7071 -967.8566 1474.4237)" class="st0" cx="1295.86" cy="1905.52" rx="11.06" ry="11.06"/>
		
			<ellipse transform="matrix(0.2298 -0.9732 0.9732 0.2298 -831.6039 2760.2605)" class="st0" cx="1328.07" cy="1905.52" rx="11.06" ry="11.06"/>
		
			<ellipse transform="matrix(0.1602 -0.9871 0.9871 0.1602 -738.5309 2942.9976)" class="st0" cx="1360.27" cy="1905.52" rx="11.06" ry="11.06"/>
		
			<ellipse transform="matrix(0.2298 -0.9732 0.9732 0.2298 -781.9885 2822.9524)" class="st0" cx="1392.48" cy="1905.52" rx="11.06" ry="11.06"/>
		
			<ellipse transform="matrix(0.1602 -0.9871 0.9871 0.1602 -684.4341 3006.5806)" class="st0" cx="1424.69" cy="1905.52" rx="11.06" ry="11.06"/>
		
			<ellipse transform="matrix(0.2298 -0.9732 0.9732 0.2298 -732.373 2885.644)" class="st0" cx="1456.9" cy="1905.52" rx="11.06" ry="11.06"/>
		
			<ellipse transform="matrix(0.1602 -0.9871 0.9871 0.1602 -630.3373 3070.1638)" class="st0" cx="1489.1" cy="1905.52" rx="11.06" ry="11.06"/>
	</g>
	<g>
		<circle class="st0" cx="1215.17" cy="1875.87" r="11.06"/>
		<circle class="st0" cx="1247.38" cy="1875.87" r="11.06"/>
		<circle class="st0" cx="1279.58" cy="1875.87" r="11.06"/>
		<circle class="st0" cx="1311.79" cy="1875.87" r="11.06"/>
		<circle class="st0" cx="1344" cy="1875.87" r="11.06"/>
		<circle class="st0" cx="1376.2" cy="1875.87" r="11.06"/>
		<circle class="st0" cx="1408.41" cy="1875.87" r="11.06"/>
		<circle class="st0" cx="1440.62" cy="1875.87" r="11.06"/>
		<circle class="st0" cx="1472.83" cy="1875.87" r="11.06"/>
	</g>
	<g>
		
			<ellipse transform="matrix(0.2298 -0.9732 0.9732 0.2298 -948.2823 2673.9023)" class="st0" cx="1215.17" cy="1936.05" rx="11.06" ry="11.06"/>
		
			<ellipse transform="matrix(0.1602 -0.9871 0.9871 0.1602 -863.4862 2857.2014)" class="st0" cx="1247.38" cy="1936.05" rx="11.06" ry="11.06"/>
		
			<ellipse transform="matrix(0.2298 -0.9732 0.9732 0.2298 -898.6668 2736.5942)" class="st0" cx="1279.58" cy="1936.05" rx="11.06" ry="11.06"/>
		
			<ellipse transform="matrix(0.1602 -0.9871 0.9871 0.1602 -809.3894 2920.7847)" class="st0" cx="1311.79" cy="1936.05" rx="11.06" ry="11.06"/>
		
			<ellipse transform="matrix(0.7071 -0.7071 0.7071 0.7071 -975.3489 1517.4069)" class="st0" cx="1344" cy="1936.05" rx="11.06" ry="11.06"/>
		
			<ellipse transform="matrix(0.1602 -0.9871 0.9871 0.1602 -755.2926 2984.3677)" class="st0" cx="1376.2" cy="1936.05" rx="11.06" ry="11.06"/>
		
			<ellipse transform="matrix(0.7071 -0.7071 0.7071 0.7071 -956.4822 1562.9551)" class="st0" cx="1408.41" cy="1936.05" rx="11.06" ry="11.06"/>
		
			<ellipse transform="matrix(0.1602 -0.9871 0.9871 0.1602 -701.1958 3047.9509)" class="st0" cx="1440.62" cy="1936.05" rx="11.06" ry="11.06"/>
		
			<ellipse transform="matrix(0.7071 -0.7071 0.7071 0.7071 -937.6155 1608.5032)" class="st0" cx="1472.83" cy="1936.05" rx="11.06" ry="11.06"/>
	</g>
</g>
<path class="st27" d="M1434.23,1983.41h-179.67v-2.36c0-12.38,10.04-22.42,22.42-22.42h134.83c12.38,0,22.42,10.04,22.42,22.42
	V1983.41z"/>
<path class="st0" d="M1434.23,1980.31h-179.67v-2.36c0-12.38,10.04-22.42,22.42-22.42h134.83c12.38,0,22.42,10.04,22.42,22.42
	V1980.31z"/>
<g>
	<path class="st14" d="M1284.68,1519.81v-34.76v-75.72v-204.53v-38c0-32.59-26.42-59.02-59.02-59.02H895.55v0.06
		c31.47,1.27,56.59,27.17,56.59,58.95v318.25h0v34.76c0,32.59,26.42,59.02,59.02,59.02h330.11v-0.06
		C1309.8,1577.49,1284.68,1551.59,1284.68,1519.81z"/>
	<path class="st28" d="M1398.93,1519.81c0,32.59-26.42,59.02-59.02,59.02h-330.11v-0.06c31.47-1.27,56.59-27.17,56.59-58.95v-110.49
		c0-32.59,26.42-59.02,59.02-59.02h273.52V1519.81z"/>
	<path class="st14" d="M1512.12,1409.32c0-32.59-26.42-59.02-59.02-59.02h-330.11v0.06c31.47,1.27,56.59,27.17,56.59,58.95v318.25
		h332.54V1409.32z"/>
</g>
<path class="st18" d="M605.7,1440.21c0,0,6.49,10.33,3.25,33.34l-2.66,15.93l-7.38-5.61L605.7,1440.21z"/>
<g>
	<polygon class="st9" points="1028.28,1895.86 1028.47,1898.99 1023.4,1898.04 1026.91,1909.43 1018.34,1907.75 1021.58,1917.43 
		1063.08,1938.67 1068.52,1932.53 1038.83,1888.57 1039.02,1897.09 	"/>
	<polygon class="st29" points="967.08,1889.54 1021.58,1917.43 1018.34,1907.75 1026.91,1909.43 1023.4,1898.04 1028.47,1898.99 
		1028.28,1895.86 1039.02,1897.09 1038.83,1888.57 1008.16,1843.16 	"/>
</g>
<path class="st17" d="M976.36,1896.39l-381.31-337.77l-7.58-6.71l-167.65-148.5l41.09-46.38l138.62,122.8l10.75,9.52l407.16,360.66
	C1021.86,1853.93,980.79,1900.31,976.36,1896.39z"/>
<rect x="393.48" y="1323.66" transform="matrix(0.6631 -0.7486 0.7486 0.6631 -879.6293 778.0401)" class="st6" width="61.96" height="84.97"/>
<path class="st4" d="M376.76,1282.51c-12.81-11.34-32.39-10.16-43.73,2.65c-11.34,12.81-10.16,32.39,2.65,43.73l36.44,32.28
	l41.08-46.38L376.76,1282.51z"/>
<path class="st8" d="M684.92,1638c3.78,1.42,7.79,2.31,11-0.45c0.41-0.36,0.64-0.94,0.51-1.48c-0.08-0.58-0.48-0.99-1.03-1.17
	c-6.51-2.11-17.36-7.63-17.36-7.63c-7.94-6.06-12.9-4.82-12.9-4.82l-4.96-3.81l-6.64,7.07l6.35,4.48l3.58,2.85
	c2.11,2.53,6.41,7.24,10.87,10.65c1.86,1.42,3.93,2.48,6.17,3.16l21.38,6.51l-14.16-12.61L684.92,1638z"/>
<polygon class="st30" points="634.61,1591.27 595.05,1558.63 587.4,1552.32 587.47,1551.92 599.53,1479.83 610.27,1489.36 
	600.68,1550.84 "/>
<path class="st0" d="M657.04,1613.39l5.61,4.13l-8.56,11.28l-5.72-4.34L657.04,1613.39z"/>
<path class="st11" d="M591.46,1551.81l4.97-32.52v-0.02l10.52-68.95c0.92-6.07-0.85-12.25-4.85-16.92
	c-1.12-1.29-2.35-2.43-3.72-3.42c-3.58-2.51-7.84-3.93-12.29-3.93c-1.91,0-3.77,0.25-5.59,0.74c-3.61,0.96-6.96,2.87-9.65,5.58
	c-4.02,4.02-6.14,9.52-6.14,15.22v97.24v7.06c0,6.42,2.98,12.47,8.06,16.4c21.25,16.41,77.18,59.55,77.18,59.55l10.33-13.57
	L591.46,1551.81z"/>
<path class="st31" d="M585.76,1514.23c-1.16,3.07,0.4,6.48,3.49,7.64c2.73,1.04,5.75-0.12,7.19-2.57v-0.02l10.52-68.94
	c0.92-6.08-0.85-12.26-4.86-16.93c-0.36-0.42-0.74-0.83-1.13-1.22c-2.61-2.59-6.38-3.67-9.96-2.84c-0.13,0.03-0.26,0.06-0.39,0.1
	c-4.79,1.27-8.28,5.35-8.79,10.28c-0.42,4.01,0.57,9.29,4.1,16.17c0,0,12.45,27.56,4.79,50.22
	C590.71,1506.12,587.38,1509.82,585.76,1514.23z"/>
<path class="st32" d="M641.05,1412.88c0.35-2.66,0.04-5.39-0.93-7.93l-3.93-10.23l-0.01-0.03l1.31,14.16l-1.1,5.54
	c0,0-1.75,8.55,5.01,13.86l1.36-5.67C641.22,1419.62,640.61,1416.24,641.05,1412.88z"/>
<path class="st24" d="M1112.35,1740.82c0,4.81-3.9,8.7-8.7,8.7s-8.7-3.9-8.7-8.7v-23.6c0-4.81,3.9-8.7,8.7-8.7s8.7,3.9,8.7,8.7
	V1740.82z"/>
<path class="st24" d="M1596.94,1740.82c0,4.81-3.9,8.7-8.7,8.7c-4.81,0-8.7-3.9-8.7-8.7v-23.6c0-4.81,3.9-8.7,8.7-8.7
	c4.81,0,8.7,3.9,8.7,8.7V1740.82z"/>
<rect x="1099.07" y="1725.19" class="st24" width="488.57" height="5.87"/>
<path class="st33" d="M1413.28,1746.64c0,15.15-12.28,27.44-27.44,27.44h-69.63c-15.15,0-27.44-12.28-27.44-27.44v-18h124.5V1746.64
	z"/>
<g>
	<path d="M1226.23,1728.35c0,5.05-4.09,9.15-9.15,9.15h-37.76c-5.05,0-9.15-4.09-9.15-9.15s4.09-9.15,9.15-9.15h37.76
		C1222.14,1719.21,1226.23,1723.3,1226.23,1728.35z"/>
	<path d="M1175.06,1723.34h46.29c0.55,0,1.09,0.05,1.62,0.13c-1.59-1.35-3.63-2.2-5.88-2.2h-37.76c-2.25,0-4.29,0.85-5.88,2.2
		C1173.97,1723.39,1174.51,1723.34,1175.06,1723.34z"/>
</g>
<g>
	<path d="M1520.67,1728.35c0,5.05-4.09,9.15-9.15,9.15h-37.76c-5.05,0-9.15-4.09-9.15-9.15s4.09-9.15,9.15-9.15h37.76
		C1516.58,1719.21,1520.67,1723.3,1520.67,1728.35z"/>
	<path d="M1469.5,1723.34h46.29c0.55,0,1.09,0.05,1.62,0.13c-1.59-1.35-3.63-2.2-5.88-2.2h-37.76c-2.25,0-4.29,0.85-5.88,2.2
		C1468.41,1723.39,1468.95,1723.34,1469.5,1723.34z"/>
</g>
<path class="st17" d="M1556.76,1679.38c-8.31,0-15.05,6.74-15.05,15.05v71.69h-127.4c-6.23,9.08-16.66,15.05-28.48,15.05h-69.63
	c-11.81,0-22.25-5.97-28.48-15.05h-137.63v-71.69c0-8.31-6.74-15.05-15.05-15.05c-8.31,0-15.05,6.74-15.05,15.05v66.9
	c0,3.03,0.4,6.03,1.17,8.96c2.69,10.16,9.15,38.25,10.41,77.04h428.63c1.26-38.79,7.72-66.88,10.41-77.04
	c0.78-2.93,1.17-5.93,1.17-8.97v-66.89C1571.81,1686.11,1565.07,1679.38,1556.76,1679.38z"/>
<g class="st21">
	<rect x="1219.88" y="1411.98" class="st6" width="97.04" height="7.97"/>
	<rect x="1219.88" y="1440.38" class="st6" width="255.46" height="7.97"/>
	<rect x="1219.88" y="1468.77" class="st6" width="202.64" height="7.97"/>
	<rect x="1219.88" y="1497.17" class="st6" width="224.78" height="7.97"/>
	<rect x="1219.88" y="1525.56" class="st6" width="255.46" height="7.97"/>
	<rect x="1219.88" y="1553.95" class="st6" width="165.17" height="7.97"/>
	<rect x="1219.88" y="1582.35" class="st6" width="255.46" height="7.97"/>
</g>
<g>
	<rect x="1099.44" y="1157.55" class="st6" width="153.99" height="7.97"/>
	<rect x="1099.44" y="1185.94" class="st6" width="153.99" height="7.97"/>
	<rect x="1099.44" y="1214.34" class="st6" width="95.51" height="7.97"/>
	<rect x="1099.44" y="1242.73" class="st6" width="153.99" height="7.97"/>
	<rect x="987.92" y="1271.12" class="st6" width="199.07" height="7.97"/>
	<rect x="987.92" y="1299.52" class="st6" width="222.97" height="7.97"/>
	<rect x="987.92" y="1327.91" class="st6" width="265.51" height="7.97"/>
	<g>
		<path class="st6" d="M1053.56,1235.58h-33l-5.16,15.12h-27.49l36.57-93.1h25.07l37.37,93.1h-28.24L1053.56,1235.58z
			 M1037.01,1186.65l-10.2,28.85h20.49L1037.01,1186.65z"/>
	</g>
</g>
<path class="st34" d="M1246.55,970.42c-24.17,3.43-5,34.49-5,34.49l3.78,8.33l6.21-6.51c0,0,0.12-3.03,1.26-8.44
	c0.34-1.61,1.31-5.01,1.92-6.75l12.68-41.93l-15.42-2.95L1246.55,970.42z"/>
<path class="st6" d="M1246.54,970.42c0,0-13.71-2.36-26.04,3.8l28.53,62.94c0.62,1.37,2.11,2.13,3.62,1.86
	c1.51-0.27,2.66-1.51,2.8-3.02c0.24-2.66-0.5-6.05-3.41-10.15c-0.9-1.26-1.35-2.79-1.27-4.35l0.75-14.76l-4.93-0.61L1246.54,970.42z
	"/>
<path class="st34" d="M1378.48,966.07c-20.17,13.74,10.74,33.16,10.74,33.16l7.07,5.81l2.7-8.58c0,0-1.23-2.78-2.6-8.13
	c-0.41-1.59-1.04-5.07-1.25-6.9l-7.13-43.22l-15.14,4.16L1378.48,966.07z"/>
<path class="st6" d="M1378.48,966.07c0,0-13.35,3.94-21.69,14.9l53.39,43.88c1.16,0.95,2.84,0.98,4.07,0.07
	c1.24-0.91,1.72-2.54,1.18-3.94c-0.96-2.49-3.12-5.21-7.55-7.6c-1.36-0.74-2.44-1.91-3.06-3.34l-5.84-13.58l-4.69,1.63
	L1378.48,966.07z"/>
<g>
	<path class="st9" d="M1205.38,648.14l1.21,2.84l14.27,33.55l5.73,13.46c1.38,3.24,4.01,5.82,7.29,7.13l3.87,1.58
		c2.26-11.24,6.56-15.57,9.64-17.21l-2.88-1.61l-18.69-96.41L1205.38,648.14z"/>
	<path class="st34" d="M1237.75,706.7c2.26-11.24,6.56-15.56,9.64-17.21l61.76,36.14l15.86,2.56c1.25,0.2,2.42,0.72,3.41,1.5
		l8.08,6.4c0.6,0.47,1.02,1.14,1.18,1.88l1.81,8c0.1,0.43-0.05,0.88-0.38,1.17c-0.33,0.29-0.8,0.37-1.21,0.22
		c-0.87-0.33-1.78-0.86-2.15-1.69l-1.83-6.21l-3.94-2.85c0,0,1.46,2.41-1.31,3.43c0,0,0.73,2.92-2.48,2.92c0,0-0.73,3.07-3.21,1.75
		c0,0-5.4,2.78-11.39-2.78l-6.25-8L1237.75,706.7z"/>
</g>
<path class="st35" d="M1220.85,684.53l-4.08-29.38l2.33-7.01c7.61-4.96,12.13-18.3,12.13-18.3l-22.65,13.92l-2,7.22L1220.85,684.53z
	"/>
<path class="st9" d="M1226.89,626.24c0,0-3.35,5.54-7.42,12.35c-2.15,3.61-4.51,7.56-6.67,11.25c-0.32,0.53-0.62,1.06-0.93,1.58
	l-18.35,87.5c0,0,3.29,65.46-49.66,40.82l49.08-124.16l5.58-14.13l7.71-0.79L1226.89,626.24z"/>
<path class="st4" d="M1098.07,776.25c5.68,19.32,24.54,36.48,42.28,34.9l141.75-13.22c-14.6,21.89-21.98,67.96-29.35,113.56v0.02
	c-0.37,2.31-0.74,4.63-1.12,6.92c-2.44,15.09-4.93,29.98-7.7,43.79l22.35,5.26l59.11-177.14c3.1-9.34,1.98-19.84-2.98-28.07
	c-4.96-8.22-13.13-13.13-21.86-13.13h-122.64l-41.56-17.39l-32.85-13.74c0,0-6.43,15.39-7.7,33.69
	C1095.27,759.68,1095.71,768.2,1098.07,776.25z"/>
<path class="st4" d="M1284.44,749.15l24.4,45.12l16.78-2.65l9.48-1.49c-3.3,29.43,11.27,77.55,24.82,124.55
	c0,0.04,0.02,0.07,0.02,0.09c4.65,16.11,9.15,32.06,12.8,47.1l23.24-3.86l-24.09-188.22c-1.53-11.85-10.66-20.65-21.44-20.65
	H1284.44z"/>
<path class="st18" d="M1098.07,776.25c5.68,19.32,24.54,36.48,42.28,34.9l141.75-13.22c-14.6,21.89-21.98,67.96-29.35,113.56
	c8.77-48.1,38.95-116.52,38.95-116.52l14.9-8.94l-20.16,2.63l-128.41,6.31c-36.81,1.91-36.81-30.62-36.81-30.62
	c8.33-4.15,24.58-23.58,24.58-23.58l-9.45-9.01l-20.39,3.44l-20.16,16.51C1095.27,759.68,1095.71,768.2,1098.07,776.25z"/>
<path class="st36" d="M1219.57,519.8l22.64,6.3c0,0-9.07,24.01-12.22,47.88c-0.42,3.21-0.25,6.5,0.53,9.64
	c1.27,5.12,3.17,10.62,5.13,15.66c3.28,8.44,0.27,18.03-7.26,23.07c-6.6,4.42-15.11,4.3-21.53-0.02
	C1189.78,611.59,1179.7,556.7,1219.57,519.8z"/>
<path class="st9" d="M1204.87,555.45c0,0,30.53,10,19.41,68.83l-6.04-10.57L1204.87,555.45z"/>
<polygon class="st34" points="1202.67,557.02 1179.75,538.3 1206.33,505.55 1229.26,524.27 "/>
<path class="st37" d="M1171.97,506.25c0.01,0.99,0.05,1.57,0.05,1.57c3.37,1.37,6.47,2.44,9.31,3.28c15.05,4.45,22.71,2.3,22.71,2.3
	l4.03,0.82l6.06,1.23l31.92,10.61c0.76,1.22,1.9,2.21,3.34,2.76c3.48,1.32,7.38-0.44,8.69-3.93c0.58-1.56,0.56-3.19,0.05-4.65
	c1.81-0.21,3.46-1.24,4.43-2.84c4.53-5.95-2.25-24.08-8.2-32.84c-0.29-0.42-0.58-0.84-0.87-1.25c-21-29.5-48.46-17.74-48.46-17.74
	c-0.27-0.06-0.53-0.09-0.79-0.14c-0.55-0.3-1.1-0.58-1.7-0.81c-6.6-2.5-13.96,0.84-16.46,7.45c-0.95,2.52-1.06,5.15-0.46,7.59
	C1172.73,483.59,1171.91,500.92,1171.97,506.25z"/>
<path class="st38" d="M1210.63,533.45l6,6.43l-7.91,9.74l3.22-8.63C1209.71,536.48,1210.63,533.45,1210.63,533.45z"/>
<path class="st34" d="M1242.02,489.86c1.05-0.14,2.06,0.42,2.5,1.39l3.63,8.1c1.4,3.68,1.21,7.88-0.52,11.53l-0.12,0.25
	c-0.53,1.12-0.54,2.41-0.04,3.5l5.52,11.83c0.27,0.58,0.27,1.28-0.01,1.89c-0.28,0.61-0.8,1.05-1.42,1.21l-4.57,1.16l-1.37,1.63
	c0.33,0.15,0.63,0.36,0.85,0.69c0.63,0.97,0.37,2.33-0.58,3.03c-0.55,0.41-1.2,0.49-1.78,0.32c0.31,0.9,0.01,1.97-0.79,2.57
	c-0.94,0.7-2.21,0.48-2.84-0.48l-2.15,2.56c0,0-0.36,1.34-0.98,3.3c-0.54,1.7-1.7,3.12-3.2,3.96c0,0-5.32,3.99-14.08-5.03
	l-8.46-7.69c0,0-5.99-5.85-2.94-14.87c0.41-1.21,0.33-2.52-0.2-3.67c-1.83-3.91-5.13-13.07,1.64-17.44c1.75-1.13,3.94-1.35,5.88-0.6
	c1.94,0.76,3.41,2.4,3.94,4.42c0.36,1.35,0.39,3.04-0.13,5.13l3.2,1.21C1222.98,509.76,1227.41,491.82,1242.02,489.86z"/>
<path class="st39" d="M1236.69,516.86c0,0,5.33,1.32,5.35,1.32c1.69-0.03,2.1-1.41,1.56-2.18c-0.17-0.24-0.46-0.36-0.74-0.3
	L1236.69,516.86z"/>
<path class="st14" d="M1103.51,718.02c9.51,8.76,23.54,17.64,42.3,22.76c9.49,2.61,13.99,13.72,32.11,8.37
	c6.92-31.47,2.04-35.41,20.18-64.42c7.21-11.53,10.52-24.86,12.44-38.26c1.99-0.72,4.3-1.59,5.13-2.05c0.1-0.06,0.23-0.12,0.32-0.18
	c6.97-3.95,13.36-9.49,15.23-14.39c3.99-10.4-3.97-24.59-6.95-31.67c-4.3-10.23-6.53-15.62-8.34-24.32
	c-2.61-12.47-10.82-20.81-20.68-27.18c-7.72-4.98-15.12-10.08-16.61-9.86c-0.2,0.03-63.63,9.51-60.63,99.57
	c2.73,11.8,2.04,29.86,1.71,41.28c-0.22,7.98-2.24,14.27-3.69,22.13c-0.65,3.58-4.57,10.92-5.94,11.9
	C1108,714.61,1105.63,717.07,1103.51,718.02z"/>
<path class="st11" d="M1066.69,733.27l0.04,0.03c0.68-4.64,2.42-8.32,4.86-11.35c3.92-4.86,9.64-8.04,15.73-10.86
	c13.04-6.04,27.75-10.4,29.83-25.93c2-14.94,1.24-26.57,0.21-41.33c-0.23-3.28-0.38-6.5-0.45-9.65
	c-1.35-56.41,21.56-92.83,61.73-97.36c-3.42,0.39-8.35,9.61-9.32,12.2c-4.58,12.16,11.52,19.36,19.38,25.28
	c3.43,2.59,5.79,6.34,6.63,10.57c11.77,58.72-18.34,110.29-58.28,151.58c-1.57,1.63-3.18,3.18-4.82,4.65
	c-11.14,8.45-24.44,10.65-37.3,10.16l-29.7-2.82L1066.69,733.27z"/>
<path class="st40" d="M1103.51,718.02c9.51,8.76,23.54,17.64,42.3,22.76l4.55-5.64c11.74-13.9,21.32-30.97,28.4-47.57
	c2.43-5.67,4.34-11.5,6.01-17.42c0.27-0.98,0.73-5.47,1.69-6.15c-1.07,0.72-57.1,35.68-76.37,47.7
	C1108,714.61,1105.63,717.07,1103.51,718.02z"/>
<path class="st35" d="M1117.15,685.16c2-14.94,1.24-26.57,0.21-41.33c-0.23-3.28-0.38-6.49-0.45-9.65l54.22-64.67
	c0,0,18.5,17.79-15.37,56.27l-22.09,29.36c0,0,1.8,13.59-2.63,27.16l9.15,2.92l-10.77,1.36c-2.14,4.91-5.23,9.63-9.67,13.48
	c-13.69,11.88-26.97,11.74-32.41,11.03C1100.37,705.05,1115.07,700.7,1117.15,685.16z"/>
<path class="st34" d="M1125.66,664.7l75.91,47.14h0l16.21,2.62c1.25,0.2,2.42,0.72,3.41,1.5l8.08,6.4c0.6,0.47,1.02,1.14,1.18,1.88
	l1.81,8c0.1,0.43-0.05,0.88-0.38,1.17c-0.33,0.29-0.8,0.37-1.21,0.22c-0.87-0.33-1.78-0.86-2.15-1.69l-1.83-6.21l-3.94-2.85
	c0,0,1.46,2.41-1.31,3.43c0,0,0.73,2.92-2.48,2.92c0,0-0.73,3.07-3.21,1.75c0,0-5.41,2.78-11.39-2.78l-6.28-8.03l-1.91-0.86
	l-79.77-31.7C1112.26,675.16,1120.49,667.89,1125.66,664.7z"/>
<path class="st11" d="M1092.76,651.93l40-86.91c5.32-9.93,17.03-14.57,27.7-10.97c7.46,2.51,10.63,5.84,12.73,13.42
	c2.1,7.58,0.3,15.71-4.81,21.7l-48.9,71.84l6.18,3.7c-5.17,3.19-13.4,10.46-9.26,22.91l-11.38-4.64
	c-5.84-2.38-10.45-7.04-12.76-12.9C1089.94,664.21,1090.12,657.66,1092.76,651.93z"/>
<path d="M1179.33,745.75c0-1.75,1.41-3.16,3.16-3.16h68v6.32h-68C1180.75,748.92,1179.33,747.5,1179.33,745.75z"/>
<path class="st0" d="M1224.87,741.03l14.46-76.26c0.78-4.03,4.68-7.29,8.71-7.29h109.1c1.71,0,3.15,0.62,4.2,1.61l0-0.02l3.34,2.95
	l-1.7,2.96l-14.42,76.06c-0.78,4.03-4.68,7.88-8.71,7.88h-109.1C1226.72,748.92,1224.09,745.06,1224.87,741.03z"/>
<path class="st17" d="M1228.08,741.62c-0.78,4.03,1.85,7.29,5.88,7.29h109.1c4.03,0,7.93-3.27,8.71-7.29l14.39-74.07
	c0.78-4.03-1.85-7.29-5.88-7.29h-110.57c-4.03,0-6.05,1.61-6.83,5.64L1228.08,741.62z"/>
<ellipse transform="matrix(0.7405 -0.6721 0.6721 0.7405 -136.9126 1054.6051)" class="st4" cx="1297.12" cy="704.59" rx="11.54" ry="9.51"/>
<path class="st34" d="M1178.64,536.82c0,0,27.52,36.52,26.9,80.27c0,0,11.52-20.03-0.67-61.63L1178.64,536.82z"/>
<path class="st37" d="M1134.6,612.86c2.69,1.02,5.45,1.65,8.19,1.9c3.36,0.31,6.71,0.07,9.92-0.67c2.5,3.68,6.71,5.94,11.26,5.84
	c5.42-0.12,10.23-3.53,12.15-8.61l7.14-18.89c17-16.33,31.78-40.07,24.81-78.2c-0.66-3.66-1.53-7.45-2.62-11.38l-20.27-1.35
	l-12.91-0.85c0,0,0.04,2.17-0.31,5.61c-1.13,11.32-6.38,36.39-30.43,42.97c-8.37,2.28-14.37,6.31-18.49,11.32
	c-2.68,2.41-4.85,5.47-6.21,9.08c-0.67,1.79-1.11,3.6-1.33,5.41C1111.18,590.54,1119.3,607.06,1134.6,612.86z"/>
<linearGradient id="SVGID_4_" gradientUnits="userSpaceOnUse" x1="-12198.8086" y1="-415.1169" x2="-12105.1641" y2="-276.1355" gradientTransform="matrix(-0.9953 -0.0964 -0.0964 0.9953 -10952.29 -297.0538)">
	<stop  offset="0" style="stop-color:#FFFFFF"/>
	<stop  offset="0.1259" style="stop-color:#EBF0F3"/>
	<stop  offset="0.3684" style="stop-color:#CAD7E0"/>
	<stop  offset="0.6009" style="stop-color:#B2C5D1"/>
	<stop  offset="0.8169" style="stop-color:#A4BAC9"/>
	<stop  offset="1" style="stop-color:#9FB6C6"/>
</linearGradient>
<path class="st41" d="M1134.6,612.86c2.69,1.02,5.45,1.65,8.19,1.9c-24.82-27.24,7.98-49.38,7.98-49.38
	c36.5-22.52,22.32-28.86,30.57-54.28c0.95-2.92,2.2-6.11,3.86-9.6c0.86-1.81,1.83-3.7,2.92-5.68c21.72-39.28,54.65-20.24,65.38-12.5
	c-21-29.5-48.46-17.74-48.46-17.74c-0.27-0.06-0.53-0.09-0.79-0.14c-0.55-0.3-1.1-0.58-1.7-0.81c-6.6-2.5-13.96,0.84-16.46,7.45
	c-0.95,2.52-1.06,5.15-0.46,7.59c-12.89,3.91-13.72,21.24-13.66,26.57c-1.13,11.32-6.38,36.39-30.43,42.97
	c-8.37,2.28-14.37,6.31-18.49,11.32c-2.68,2.41-4.85,5.47-6.21,9.08c-0.67,1.79-1.11,3.6-1.33,5.41
	C1111.18,590.54,1119.3,607.06,1134.6,612.86z"/>
<path class="st18" d="M1325.53,789.89c2.92-9.23,1.78-19.52-3.1-27.61c-1.83-3.04-4.11-5.62-6.68-7.67
	c5.14,2.66,15.56,9.79,16.92,24.41l6.82-0.41l16.65-3.07l-12.27,10.08c0,0,7.2,87.83,16.06,129.07
	c-13.55-47-28.12-95.12-24.82-124.55l-9.48,1.49L1325.53,789.89z"/>
<g>
	<polygon class="st42" points="1944.93,231.97 1941.79,210.81 2004.84,198.54 	"/>
	
		<linearGradient id="SVGID_5_" gradientUnits="userSpaceOnUse" x1="2779.3391" y1="-10290.6279" x2="2779.3391" y2="-10297.0938" gradientTransform="matrix(0.9891 -0.1471 0.1471 0.9891 702.9942 10810.5176)">
		<stop  offset="0" style="stop-color:#FCE2E9"/>
		<stop  offset="1" style="stop-color:#FFFFFF"/>
	</linearGradient>
	<polygon class="st43" points="1941.79,210.81 1933.23,225.16 1943.15,219.98 	"/>
	<polygon class="st44" points="1953.09,218.31 1944.93,231.97 1962.15,226.01 	"/>
	
		<linearGradient id="SVGID_6_" gradientUnits="userSpaceOnUse" x1="2821.7505" y1="-10267.2617" x2="2821.7505" y2="-10288.1484" gradientTransform="matrix(0.9891 -0.1471 0.1471 0.9891 702.9942 10810.5176)">
		<stop  offset="0" style="stop-color:#FCE2E9"/>
		<stop  offset="1" style="stop-color:#FFFFFF"/>
	</linearGradient>
	<polygon class="st45" points="1953.09,218.31 1962.27,247.12 2004.84,198.54 	"/>
</g>
</svg>
