<?xml version="1.0" encoding="utf-8"?>
<!-- Generator: Adobe Illustrator 23.0.5, SVG Export Plug-In . SVG Version: 6.00 Build 0)  -->
<svg version="1.1" xmlns="http://www.w3.org/2000/svg" xmlns:xlink="http://www.w3.org/1999/xlink" x="0px" y="0px"
	 viewBox="0 0 750 500" style="enable-background:new 0 0 750 500;" xml:space="preserve">
<style type="text/css">
	.st0{fill:#2788BF;}
	.st1{fill:#E0E0E0;}
	.st2{display:none;}
	.st3{display:inline;fill:#E0E0E0;}
	.st4{fill:#263238;}
	.st5{fill:#1D5493;}
	.st6{fill:#20417B;}
	.st7{fill:#EBEBEB;}
	.st8{fill:#455A64;}
	.st9{fill:#2C74AF;}
	.st10{opacity:0.8;}
	.st11{fill:#224B87;}
	.st12{fill:#FAFAFA;}
	.st13{fill:#E8505B;}
	.st14{fill:#F5F6F7;}
	.st15{fill:#FFBE9D;}
	.st16{fill:#131414;}
	.st17{fill:#090A0A;}
	.st18{fill:#0C0C0C;}
	.st19{fill:#2A7EB7;}
	.st20{opacity:0.3;}
	.st21{opacity:0.2;}
	.st22{fill:#EB996E;}
</style>
<g id="Background_Complete">
	<g>
		
			<rect x="588.73" y="245.73" transform="matrix(0.3659 -0.9306 0.9306 0.3659 111.5426 786.5593)" class="st0" width="88.56" height="131.38"/>
	</g>
	<g>
		<g>
			<g>
				<path class="st1" d="M710.35,295.4c0.01,0.04-0.53,0.26-1.57,0.65c-1.15,0.41-2.68,0.96-4.58,1.64
					c-4.12,1.42-9.86,3.41-16.92,5.84c-14.44,4.87-34.2,11.52-56.1,18.9l-0.46,0.16l-0.24-0.42c-0.19-0.32-0.39-0.67-0.59-1.02
					c-11.6-20.29-22.1-38.65-29.78-52.08c-3.71-6.61-6.74-11.99-8.91-15.85c-0.98-1.8-1.77-3.25-2.37-4.34
					c-0.53-1-0.79-1.53-0.76-1.55c0.04-0.02,0.37,0.47,0.96,1.43c0.65,1.07,1.5,2.47,2.56,4.23c2.25,3.81,5.39,9.13,9.24,15.66
					c7.76,13.38,18.36,31.68,30.08,51.91c0.2,0.35,0.4,0.7,0.59,1.02l-0.71-0.27c21.94-7.24,41.74-13.79,56.21-18.56
					c7.11-2.29,12.89-4.15,17.04-5.49c1.93-0.6,3.48-1.07,4.65-1.43C709.77,295.51,710.33,295.36,710.35,295.4z"/>
			</g>
		</g>
	</g>
	<g>
		<g>
			<path class="st1" d="M555.67,329.73c-0.16-0.29,13.48-7.97,30.45-17.16c16.98-9.19,30.87-16.4,31.03-16.11
				c0.16,0.29-13.48,7.97-30.46,17.16C569.72,322.81,555.82,330.02,555.67,329.73z"/>
		</g>
	</g>
	<g>
		<g>
			<path class="st1" d="M658.2,311.42c0.32-0.09,4.99,14.69,10.44,33.02c5.45,18.34,9.62,33.27,9.3,33.37
				c-0.32,0.09-4.99-14.69-10.44-33.03C662.05,326.46,657.88,311.52,658.2,311.42z"/>
		</g>
	</g>
	<g>
		
			<rect x="59.43" y="219.69" transform="matrix(0.9168 -0.3993 0.3993 0.9168 -90.0865 59.8968)" class="st0" width="78.59" height="52.97"/>
	</g>
	<g>
		<g>
			<g>
				<path class="st1" d="M124.66,206.68c0.02,0.01-0.11,0.33-0.39,0.94c-0.31,0.66-0.73,1.54-1.24,2.63
					c-1.14,2.34-2.73,5.61-4.68,9.63c-4.05,8.17-9.59,19.34-15.73,31.72l-0.13,0.26l-0.28-0.08c-0.22-0.06-0.45-0.12-0.68-0.18
					c-13.49-3.67-25.7-7-34.63-9.43c-4.37-1.22-7.92-2.22-10.47-2.94c-1.18-0.35-2.12-0.62-2.84-0.83c-0.65-0.2-0.98-0.31-0.98-0.34
					c0.01-0.02,0.36,0.05,1.01,0.2c0.72,0.18,1.68,0.41,2.87,0.7c2.56,0.66,6.14,1.58,10.53,2.72c8.94,2.38,21.17,5.63,34.68,9.23
					c0.23,0.06,0.47,0.13,0.68,0.18l-0.41,0.18c6.21-12.34,11.82-23.49,15.92-31.63c2.04-3.97,3.7-7.21,4.89-9.53
					c0.56-1.07,1.02-1.92,1.36-2.57C124.46,206.98,124.64,206.67,124.66,206.68z"/>
			</g>
		</g>
	</g>
	<g>
		<g>
			<path class="st1" d="M72.45,287.85c-0.19-0.06,2.33-9.07,5.63-20.14c3.3-11.07,6.12-19.99,6.31-19.94
				c0.19,0.06-2.33,9.07-5.63,20.14C75.47,278.98,72.64,287.91,72.45,287.85z"/>
		</g>
	</g>
	<g>
		<g>
			<path class="st1" d="M109.38,235.52c0.09-0.17,8.33,4.1,18.39,9.55c10.06,5.45,18.14,10.01,18.05,10.18
				c-0.09,0.17-8.32-4.1-18.39-9.55C117.36,240.25,109.28,235.69,109.38,235.52z"/>
		</g>
	</g>
	<g>
		
			<rect x="181.65" y="237.78" transform="matrix(0.6372 -0.7707 0.7707 0.6372 -132.7447 252.065)" class="st0" width="39.44" height="58.51"/>
	</g>
</g>
<g id="Background_Simple" class="st2">
	<path class="st3" d="M666.82,223.52c-14.92-20.3-39.43-33.7-64.63-33.55c-41.47,0.24-74.79,34.02-114.62,45.57
		c-25.55,7.41-53.79,5.17-77.85-6.18c-66.79-31.51-89.8-122.02-156.91-152.84c-46.88-21.53-106.44-5.4-140.5,33.34
		c-34.06,38.75-43.2,96.01-28.63,145.5c14.57,49.49,40.1,98.06,84.08,125.03l4.05,3.72c92.47,62.96,220.26,69.41,346.91,51.72
		c37.54-5.24,73.53-21.48,105.53-41.79c32-20.31,53.41-61.3,59.18-98.76C687.25,270.38,681.74,243.83,666.82,223.52z"/>
</g>
<g id="Floor">
	<g>
		<g>
			<g>
				<path class="st4" d="M697.88,450.43c0,0.14-144.57,0.26-322.87,0.26c-178.36,0-322.9-0.12-322.9-0.26s144.54-0.26,322.9-0.26
					C553.31,450.17,697.88,450.28,697.88,450.43z"/>
			</g>
		</g>
	</g>
</g>
<g id="Device">
	<g>
		<g>
			<g>
				<path class="st5" d="M581.77,446.46H168.32c-8.05,0-14.57-6.52-14.57-14.57V168.35c0-8.05,6.52-14.57,14.57-14.57h413.45
					c8.05,0,14.57,6.52,14.57,14.57V431.9C596.34,439.94,589.82,446.46,581.77,446.46z"/>
			</g>
		</g>
	</g>
	<g>
		<g>
			<g>
				<path class="st6" d="M596.96,450.43H153.04c-9.83,0-17.8-7.97-17.8-17.8v-7.81h479.51v7.81
					C614.75,442.46,606.79,450.43,596.96,450.43z"/>
			</g>
		</g>
	</g>
	<g>
		<g>
			<g>
				<rect x="165.63" y="165.41" class="st6" width="417.59" height="247.16"/>
			</g>
		</g>
	</g>
	<g>
		<g>
			<g>
				<polygon class="st4" points="331.42,424.82 337.37,434.28 421.1,434.28 426.62,424.82 				"/>
			</g>
		</g>
	</g>
	<g>
		<g>
			<g>
				<g>
					<g>
						<g>
							<g>
								<path class="st7" d="M572.21,411.79h-394.7c-1.81,0-3.27-1.47-3.27-3.27V177.05c0-1.81,1.47-3.27,3.27-3.27h394.7
									c1.81,0,3.27,1.47,3.27,3.27v231.46C575.48,410.32,574.02,411.79,572.21,411.79z"/>
							</g>
						</g>
					</g>
				</g>
				<g>
					<g>
						<g>
							<g>
								<rect x="174.23" y="191.22" class="st7" width="401.25" height="220.57"/>
							</g>
						</g>
					</g>
				</g>
				<g>
					<g>
						<g>
							<g>
								<path class="st8" d="M207.14,182.97c0,1.77-1.43,3.2-3.2,3.2c-1.77,0-3.2-1.43-3.2-3.2c0-1.77,1.43-3.2,3.2-3.2
									C205.71,179.77,207.14,181.2,207.14,182.97z"/>
							</g>
						</g>
					</g>
				</g>
				<g>
					<g>
						<g>
							<g>
								<path class="st8" d="M187.72,182.97c0,1.77-1.43,3.2-3.2,3.2c-1.77,0-3.2-1.43-3.2-3.2c0-1.77,1.44-3.2,3.2-3.2
									C186.29,179.77,187.72,181.2,187.72,182.97z"/>
							</g>
						</g>
					</g>
				</g>
				<g>
					<g>
						<g>
							<g>
								<path class="st8" d="M197.04,182.97c0,1.77-1.43,3.2-3.2,3.2c-1.77,0-3.2-1.43-3.2-3.2c0-1.77,1.43-3.2,3.2-3.2
									C195.61,179.77,197.04,181.2,197.04,182.97z"/>
							</g>
						</g>
					</g>
				</g>
			</g>
		</g>
	</g>
	<g>
		<g>
			<g>
				<path class="st8" d="M592.54,424.82c0,0.16-98.23,0.29-219.38,0.29c-121.19,0-219.4-0.13-219.4-0.29
					c0-0.16,98.21-0.29,219.4-0.29C494.3,424.53,592.54,424.66,592.54,424.82z"/>
			</g>
		</g>
	</g>
	<g>
		<g>
			<path class="st9" d="M209.45,287.73c-1.45,3.4-1.1,7.4,0.39,10.79c1.49,3.39,4.02,6.22,6.85,8.61
				c5.48,4.61,13.35,7.03,20.42,8.16c0.75-7.91-4.53-15.48-7.45-19.15C225.05,290.34,213.2,282.66,209.45,287.73"/>
		</g>
		<g>
			<path class="st9" d="M240.28,329.47c-1.81-3.72-5.9-6.07-10.03-6.24c-4.13-0.17-8.2,1.66-11.19,4.52
				c-1.38,1.32-2.62,3.06-2.47,4.96c0.14,1.78,1.53,3.29,3.17,3.99c1.64,0.7,3.5,0.71,5.27,0.48
				C231.12,336.42,236.86,334.55,240.28,329.47"/>
		</g>
		<g>
			<g>
				<path class="st9" d="M260.46,339.27c0.03-0.05-0.38-0.39-1.16-0.96c-0.78-0.57-1.91-1.39-3.35-2.34
					c-2.87-1.89-6.97-4.48-12.04-6.15c-5.08-1.67-10.08-1.68-13.46-0.82c-1.7,0.41-3.01,0.95-3.87,1.41
					c-0.86,0.46-1.29,0.78-1.27,0.82c0.07,0.15,1.91-1.02,5.26-1.68c3.32-0.69,8.15-0.59,13.1,1.03c4.95,1.63,9.04,4.1,11.98,5.86
					C258.58,338.23,260.4,339.36,260.46,339.27z"/>
			</g>
		</g>
		<g>
			<g>
				<path class="st9" d="M217.82,294.62c-0.04,0.04,0.5,0.73,1.53,1.95c1.02,1.23,2.53,2.97,4.41,5.11
					c3.77,4.28,9.08,10.11,15.09,16.4c6.02,6.29,11.61,11.85,15.72,15.8c2.05,1.98,3.73,3.56,4.91,4.64
					c1.18,1.08,1.85,1.65,1.89,1.61c0.04-0.04-0.56-0.69-1.67-1.84c-1.22-1.24-2.81-2.86-4.73-4.81c-4-4.06-9.52-9.67-15.54-15.95
					c-6.01-6.28-11.38-12.04-15.25-16.22c-1.87-2.01-3.42-3.67-4.6-4.94C218.48,295.2,217.86,294.58,217.82,294.62z"/>
			</g>
		</g>
		<g>
			<path class="st9" d="M250.93,324.62c-5.09-7.07-6.44-16.68-3.5-24.89c0.75-2.09,2.16-4.37,4.38-4.47c2.22-0.1,3.84,2.06,4.73,4.1
				c3.68,8.48,1.56,19.15-5.09,25.58"/>
		</g>
		<g>
			<g>
				<path class="st9" d="M251.61,304.98c-0.05-0.02-0.26,0.45-0.6,1.31c-0.18,0.43-0.37,0.96-0.54,1.6
					c-0.17,0.64-0.41,1.35-0.54,2.18c-0.35,1.63-0.55,3.61-0.56,5.81c0.03,2.2,0.28,4.63,0.86,7.11c0.61,2.47,1.5,4.74,2.47,6.72
					c1.02,1.96,2.09,3.63,3.15,4.92c0.49,0.67,1.03,1.21,1.47,1.69c0.44,0.5,0.85,0.88,1.21,1.18c0.7,0.61,1.1,0.93,1.13,0.89
					c0.11-0.11-1.43-1.48-3.36-4.11c-0.98-1.31-1.98-2.98-2.94-4.9c-0.91-1.95-1.76-4.17-2.35-6.58c-0.57-2.42-0.83-4.78-0.9-6.93
					c-0.03-2.15,0.11-4.09,0.38-5.7C251.01,306.95,251.76,305.04,251.61,304.98z"/>
			</g>
		</g>
	</g>
</g>
<g id="Paper_Plane">
	<g>
		<g>
			<g>
				<path class="st4" d="M153.66,428.04c0,0.01-0.12-0.06-0.34-0.2c-0.23-0.15-0.55-0.37-0.98-0.65c-0.43-0.29-0.97-0.66-1.6-1.09
					c-0.63-0.44-1.39-0.92-2.17-1.57c-0.8-0.63-1.69-1.33-2.67-2.11c-0.97-0.79-1.95-1.74-3.06-2.73c-2.18-2.01-4.53-4.51-6.97-7.49
					c-4.83-5.99-9.76-14.22-13.17-24.66c-3.34-10.42-5.19-23-4.15-36.77c0.53-6.87,1.64-14.05,3.73-21.29
					c2.06-7.24,4.98-14.6,9.24-21.54c1.05-1.74,2.23-3.42,3.46-5.09c1.3-1.61,2.6-3.23,3.92-4.86c1.39-1.57,2.84-3.1,4.28-4.68
					c1.47-1.54,3.06-2.98,4.6-4.5c6.34-5.87,13.48-11.23,21.13-16.17c15.32-9.91,32.63-18.11,50.45-26.65
					c17.77-8.7,36.49-17.05,55.69-25.49c76.89-33.68,147.27-62.36,198.53-82.28c25.62-10,46.52-17.63,60.99-22.86
					c7.24-2.58,12.9-4.5,16.72-5.82c1.91-0.65,3.37-1.15,4.36-1.48c0.49-0.16,0.86-0.28,1.12-0.37c0.25-0.08,0.38-0.11,0.38-0.11
					c0,0.01-0.12,0.06-0.36,0.16c-0.25,0.1-0.62,0.23-1.1,0.42c-0.98,0.36-2.43,0.89-4.33,1.58c-3.81,1.38-9.43,3.4-16.65,6.01
					c-14.42,5.34-35.28,13.07-60.86,23.16c-51.18,20.09-121.5,48.88-198.38,82.55c-19.2,8.44-37.9,16.77-55.67,25.46
					c-17.83,8.53-35.12,16.69-50.37,26.53c-7.62,4.91-14.72,10.22-21.03,16.04c-1.53,1.5-3.12,2.93-4.58,4.45
					c-1.43,1.56-2.87,3.08-4.25,4.63c-1.31,1.62-2.61,3.22-3.89,4.81c-1.21,1.64-2.38,3.29-3.42,5.01
					c-4.22,6.84-7.13,14.13-9.2,21.3c-2.1,7.18-3.22,14.31-3.77,21.13c-1.08,13.67,0.7,26.17,3.97,36.54
					c3.33,10.38,8.18,18.59,12.93,24.58c2.4,2.99,4.72,5.5,6.86,7.52c1.09,0.99,2.06,1.96,3.02,2.75c0.97,0.79,1.84,1.5,2.63,2.14
					c0.77,0.66,1.51,1.16,2.13,1.6c0.62,0.45,1.15,0.82,1.57,1.13c0.41,0.3,0.73,0.53,0.95,0.69
					C153.56,427.95,153.67,428.03,153.66,428.04z"/>
			</g>
		</g>
	</g>
	<polygon class="st0" points="540.35,74.66 558.87,90.01 557.16,107.59 572.33,99.16 588.49,110.64 648.71,71.96 	"/>
	<g>
		<polygon points="558.87,90.01 647.08,72 567.85,95.98 557.16,107.59 557.16,107.59 		"/>
	</g>
	<g class="st10">
		<g>
			<polygon class="st11" points="567.85,95.98 572.33,99.16 557.16,107.59 			"/>
		</g>
	</g>
</g>
<g id="Letters">
</g>
<g id="Plant">
	<g>
		<g>
			<path class="st9" d="M551.87,291.38c-3.36-1.54-7.36-1.31-10.79,0.08c-3.43,1.39-6.34,3.84-8.8,6.61
				c-4.76,5.35-7.41,13.15-8.74,20.18c7.89,0.97,15.6-4.09,19.35-6.9C548.83,306.9,556.84,295.27,551.87,291.38"/>
		</g>
		<g>
			<path class="st9" d="M509.28,321.01c3.77-1.7,6.23-5.72,6.52-9.85c0.29-4.12-1.43-8.25-4.2-11.31c-1.28-1.42-2.98-2.71-4.89-2.61
				c-1.78,0.09-3.33,1.43-4.08,3.06c-0.75,1.62-0.81,3.48-0.63,5.26C502.59,311.66,504.29,317.45,509.28,321.01"/>
		</g>
		<g>
			<g>
				<path class="st9" d="M498.91,340.91c0.04,0.03,0.4-0.37,0.99-1.13c0.6-0.76,1.44-1.87,2.44-3.28c1.97-2.82,4.67-6.84,6.48-11.86
					c1.81-5.03,1.97-10.03,1.2-13.44c-0.36-1.71-0.87-3.04-1.3-3.91c-0.43-0.87-0.74-1.31-0.78-1.29c-0.15,0.07,0.97,1.94,1.53,5.3
					c0.6,3.34,0.36,8.16-1.4,13.06c-1.77,4.9-4.35,8.92-6.2,11.81C500,339.06,498.82,340.84,498.91,340.91z"/>
			</g>
		</g>
		<g>
			<g>
				<path class="st9" d="M544.76,299.55c-0.04-0.04-0.74,0.48-2,1.47c-1.25,0.99-3.04,2.44-5.24,4.27
					c-4.38,3.65-10.36,8.79-16.82,14.62c-6.46,5.84-12.17,11.27-16.24,15.26c-2.04,2-3.67,3.63-4.77,4.78
					c-1.11,1.15-1.7,1.8-1.66,1.84c0.04,0.04,0.71-0.54,1.88-1.61c1.27-1.18,2.94-2.73,4.95-4.59c4.17-3.89,9.94-9.24,16.39-15.08
					c6.45-5.83,12.36-11.03,16.65-14.78c2.06-1.81,3.77-3.31,5.07-4.46C544.15,300.2,544.79,299.59,544.76,299.55z"/>
			</g>
		</g>
		<g>
			<path class="st9" d="M513.82,331.79c7.22-4.88,16.86-5.96,24.98-2.79c2.07,0.81,4.31,2.29,4.35,4.51
				c0.04,2.22-2.17,3.78-4.23,4.61c-8.59,3.44-19.18,1.01-25.42-5.82"/>
		</g>
		<g>
			<g>
				<path class="st9" d="M533.43,333.04c0.02-0.05-0.44-0.28-1.29-0.64c-0.42-0.19-0.95-0.4-1.59-0.58
					c-0.63-0.19-1.34-0.45-2.16-0.6c-1.62-0.4-3.59-0.65-5.79-0.73c-2.2-0.03-4.63,0.15-7.13,0.66c-2.49,0.54-4.78,1.36-6.79,2.28
					c-1.98,0.96-3.69,1.99-5.01,3.01c-0.69,0.47-1.23,0.99-1.74,1.42c-0.51,0.42-0.9,0.83-1.22,1.17c-0.63,0.68-0.96,1.07-0.92,1.11
					c0.11,0.11,1.52-1.38,4.2-3.24c1.33-0.94,3.03-1.9,4.98-2.8c1.97-0.86,4.22-1.64,6.64-2.17c2.43-0.5,4.8-0.69,6.95-0.7
					c2.15,0.03,4.09,0.22,5.69,0.54C531.49,332.38,533.38,333.18,533.43,333.04z"/>
			</g>
		</g>
	</g>
</g>
<g id="Newletter">
	<g>
		<g>
			<g>
				<rect x="254.43" y="114.05" class="st12" width="252.74" height="277.13"/>
			</g>
		</g>
		<g>
			<g>
				<g>
					<path class="st4" d="M507.17,391.18c0-1.97-0.09-111.52-0.23-277.13l0.23,0.23c-74.11,0.01-160.67,0.02-252.71,0.03h-0.03
						l0.26-0.26c-0.01,101.97-0.03,197.21-0.04,277.13l-0.22-0.22C406.42,391.09,505.29,391.18,507.17,391.18
						c-1.87,0-100.75,0.09-252.74,0.22l-0.22,0l0-0.22c-0.01-79.92-0.02-175.15-0.04-277.13v-0.26h0.26h0.03
						c92.04,0.01,178.6,0.02,252.71,0.03h0.23l0,0.23C507.26,279.67,507.17,389.21,507.17,391.18z"/>
				</g>
			</g>
		</g>
	</g>
	<g>
		<g>
			<path class="st11" d="M438.83,365.82h-96.59c-8.01,0-14.51-6.49-14.51-14.51v-2.95c0-8.01,6.49-14.51,14.51-14.51h96.59
				c8.01,0,14.51,6.49,14.51,14.51v2.95C453.33,359.33,446.84,365.82,438.83,365.82z"/>
		</g>
	</g>
	<g>
		<path class="st9" d="M428.28,365.82h-96.59c-8.01,0-14.51-6.49-14.51-14.51v-2.95c0-8.01,6.49-14.51,14.51-14.51h96.59
			c8.01,0,14.51,6.49,14.51,14.51v2.95C442.79,359.33,436.29,365.82,428.28,365.82z"/>
	</g>
	<g>
		<g>
			<path class="st13" d="M428.34,239.37"/>
		</g>
	</g>
	<g>
		<g>
			<g>
				<path class="st4" d="M454.35,312.55c0,0.14-32.14,0.26-71.78,0.26c-39.65,0-71.79-0.12-71.79-0.26c0-0.14,32.13-0.26,71.79-0.26
					C422.21,312.29,454.35,312.4,454.35,312.55z"/>
			</g>
		</g>
	</g>
	<g>
		<g>
			<g>
				<path class="st4" d="M476.81,321.23c0,0.14-42.2,0.26-94.24,0.26c-52.06,0-94.25-0.12-94.25-0.26c0-0.14,42.19-0.26,94.25-0.26
					C434.61,320.97,476.81,321.09,476.81,321.23z"/>
			</g>
		</g>
	</g>
	<g>
		<path class="st1" d="M266.31,124.83c0,1.18-0.96,2.14-2.14,2.14c-1.18,0-2.14-0.96-2.14-2.14c0-1.18,0.96-2.14,2.14-2.14
			C265.36,122.69,266.31,123.65,266.31,124.83z"/>
	</g>
	<g>
		<circle class="st1" cx="271.31" cy="124.83" r="2.14"/>
	</g>
	<g>
		<path class="st1" d="M280.58,124.83c0,1.18-0.96,2.14-2.14,2.14c-1.18,0-2.14-0.96-2.14-2.14c0-1.18,0.96-2.14,2.14-2.14
			C279.62,122.69,280.58,123.65,280.58,124.83z"/>
	</g>
	<g>
		<g>
			<path class="st14" d="M373.66,345.18h2.12v8.52h-1.46v-6.62l0.06,0.38l-1.63,5.29h-1.42l-1.63-5.17l0.06-0.49v6.62h-1.46v-8.52
				h2.12l1.62,5.74L373.66,345.18z"/>
			<path class="st14" d="M380.09,345.18h1.02l3.26,8.52h-1.73l-2.04-5.82l-2.04,5.82h-1.73L380.09,345.18z M378.39,350.79h4.48v1.55
				h-4.48V350.79z"/>
			<path class="st14" d="M386.97,353.7h-1.66v-8.52h1.66V353.7z"/>
			<path class="st14" d="M388.72,345.18h1.61v8.52h-1.61V345.18z M389.44,352.15h4.99v1.55h-4.99V352.15z"/>
		</g>
	</g>
</g>
<g id="Character">
	<g>
		<path class="st15" d="M488.36,169.65l4.16-14.99c0,0,1.5-6.09,1.86-7.51c0.47-1.88-0.85-2.47-1.63-1.19
			c-0.3,0.49-3.58,6.69-3.58,6.69s2.62-10.15,2.72-10.52c0.85-3.31-1.2-2.97-1.8-1.79c-0.62,1.22-4.33,11.21-4.33,11.21
			c3.49-13.05,2.4-14.2,1.42-14.41c-0.98-0.21-4.05,11.73-4.05,11.73s-1.11-2.04-3.15-3.45c-3.15-2.17-8.41,0-8.66,1.48
			c-0.25,1.48,1.62,1.9,1.62,1.9c3.95-2.54,8,0.54,7.58,4.31c-0.41,3.77-5.19,3.25-5.78,0.56c-1.3-5.89-3.33-3.97-3.33-3.97
			l2.03,12.98l-2.15,6.53"/>
	</g>
	<g>
		<g>
			<g>
				<polygon class="st5" points="338.66,230.74 428.51,230.14 430.98,291.23 337.95,290.31 				"/>
			</g>
		</g>
		<g>
			<g>
				<polyline class="st5" points="338.66,230.74 384.3,193.86 428.51,230.14 				"/>
			</g>
		</g>
		<g>
			<g>
				<g>
					<path class="st5" d="M337.95,290.31c-0.11-0.11,7.09-7.95,16.07-17.53c8.99-9.58,16.37-17.26,16.48-17.15
						c0.11,0.11-7.08,7.95-16.08,17.53C345.44,282.74,338.06,290.42,337.95,290.31z"/>
				</g>
			</g>
		</g>
		<g>
			<g>
				<g>
					<path class="st5" d="M430.98,291.23c-0.12,0.1-7.12-7.6-15.63-17.19c-8.52-9.6-15.33-17.46-15.22-17.57
						c0.11-0.1,7.11,7.6,15.64,17.2C424.28,283.26,431.1,291.13,430.98,291.23z"/>
				</g>
			</g>
		</g>
		<g>
			<g>
				<polyline class="st5" points="428.51,230.14 383.37,266.16 338.66,230.74 				"/>
			</g>
		</g>
	</g>
	<g>
		<g>
			<path class="st15" d="M278.62,161.9l0.3-0.01l-1.2-4.02l-3.85-15.36c-0.37-1.39,0.41-2.83,1.81-3.35l2.77-0.09l9.49-4.44
				c1.79-0.66,3.77,0.46,4,2.29c0.35,2.82,2.27,10.41,4.31,7.75c0.05-0.06,0.1-0.11,0.15-0.17c2.87-3.95,6.45-6.09,7.92-6.03
				c1.44,0.06,1.97,1.8,1.01,2.84c-0.14,0.18-0.31,0.34-0.54,0.47c-0.1,0.05-0.21,0.14-0.31,0.21c-1.11,0.9-2.44,2.49-3.41,3.75
				c-0.93,1.2-1.64,2.57-2.09,4c-0.51,1.59-0.88,2.99-1.17,4.17l0.74,7.84"/>
		</g>
	</g>
	<g>
		<path class="st9" d="M303.94,92.31c0,0-11.09-2.12-27.02-16.6c-15.93-14.47-23.78-34.06-25.67-33.91
			c-1.9,0.15-10.29-3.46-25.08,31.27c-14.79,34.73-8.35,42.52-5.22,42.37c3.13-0.15,24.26-6.69,37.61-5.56
			c13.34,1.14,30.64,7.58,30.64,7.58L303.94,92.31z"/>
	</g>
	<g>
		<g>
			<path class="st5" d="M327.88,110.34l-3.56,7.25l-1.59,3.25c-2.18,4.46-7.48,6.42-12.04,4.48l-23.85-7.56l12.86-31.79l23.95,11.91
				C328.25,100.16,330.14,105.73,327.88,110.34z"/>
		</g>
	</g>
	<g>
		<g>
			<path class="st11" d="M314.58,122.17l-7.11,14.96l-3.79-0.94l-24.01,20.69l-7.25-13.25c0,0,14.35-6.67,16.89-11.92
				c2.54-5.26-0.6-6.34-0.6-6.34l6.62-7.96L314.58,122.17z"/>
		</g>
	</g>
	<g>
		<g>
			<path class="st4" d="M227.46,73.66c-7.86,18.81-10.88,35.46-6.75,37.19c4.13,1.73,13.86-12.12,21.72-30.93
				c7.86-18.81,10.88-35.46,6.75-37.19C245.05,41,235.32,54.85,227.46,73.66z"/>
		</g>
	</g>
	<g>
		<g>
			<polygon class="st16" points="330.2,120.61 323.74,118.78 327.49,111.13 332.37,113.98 			"/>
		</g>
	</g>
	<g>
		<g>
			<polygon class="st17" points="293.06,120.13 310.57,130.61 312.6,126.35 			"/>
		</g>
	</g>
	<g>
		<g>
			<polygon class="st18" points="327.49,111.13 323.74,118.78 325.07,119.15 328.07,111.47 			"/>
		</g>
	</g>
	<g>
		<g>
			<path class="st8" d="M323.12,113c-0.09,0.21-3.32-0.94-7.21-2.57c-3.9-1.63-6.99-3.12-6.9-3.33c0.09-0.21,3.32,0.94,7.21,2.57
				C320.12,111.3,323.21,112.79,323.12,113z"/>
		</g>
	</g>
	<g>
		<g>
			<path class="st8" d="M324.97,108.45c-0.1,0.21-3.02-0.93-6.53-2.54c-3.52-1.61-6.29-3.08-6.19-3.29
				c0.09-0.21,3.02,0.93,6.53,2.54C322.29,106.78,325.06,108.25,324.97,108.45z"/>
		</g>
	</g>
	<g>
		<g>
			<path class="st8" d="M320.77,117.77c-0.03,0.11-0.8-0.04-2.02-0.38c-0.61-0.17-1.34-0.39-2.14-0.64
				c-0.8-0.26-1.63-0.65-2.52-1.03c-3.55-1.53-6.27-3.04-6.19-3.23c0.1-0.23,2.99,0.96,6.51,2.48c0.88,0.37,1.7,0.78,2.47,1.08
				c0.77,0.29,1.47,0.56,2.05,0.79C320.1,117.31,320.8,117.66,320.77,117.77z"/>
		</g>
	</g>
	<g>
		<g>
			<path class="st6" d="M244.45,69.05c0,0-9.75-5.67-14.62,7.42c-4.87,13.09,5.26,14.93,5.26,14.93
				C239.03,84.89,242.18,77.46,244.45,69.05z"/>
		</g>
	</g>
	<g>
		<g>
			<path class="st4" d="M254.19,53.34c0.06,0.01-0.05,0.89-0.31,2.48c-0.26,1.59-0.62,3.9-1.16,6.73c-0.37,1.4-0.77,2.93-1.19,4.57
				c-0.22,0.82-0.44,1.67-0.67,2.54c-0.12,0.44-0.23,0.88-0.35,1.33c-0.13,0.45-0.3,0.88-0.46,1.34c-0.64,1.8-1.31,3.69-2,5.64
				c-0.17,0.49-0.35,0.98-0.53,1.48c-0.17,0.5-0.42,0.97-0.63,1.47c-0.44,0.98-0.89,1.97-1.34,2.98c-0.45,1-0.9,2-1.34,2.97
				c-0.23,0.48-0.42,0.98-0.68,1.44c-0.26,0.46-0.51,0.92-0.76,1.38c-1.01,1.82-1.98,3.57-2.91,5.24c-0.24,0.41-0.45,0.83-0.7,1.23
				c-0.26,0.39-0.51,0.77-0.76,1.15c-0.5,0.75-0.99,1.48-1.46,2.19c-0.95,1.41-1.83,2.72-2.64,3.92c-1.77,2.27-3.25,4.06-4.27,5.31
				c-1.03,1.24-1.62,1.91-1.66,1.87c-0.04-0.03,0.46-0.77,1.41-2.07c0.99-1.32,2.37-3.18,4.07-5.47c0.78-1.21,1.62-2.53,2.53-3.95
				c0.46-0.71,0.93-1.44,1.42-2.19c0.24-0.38,0.49-0.76,0.74-1.15c0.24-0.39,0.45-0.81,0.68-1.23c0.91-1.67,1.86-3.42,2.84-5.23
				c0.25-0.45,0.5-0.91,0.75-1.37c0.26-0.46,0.44-0.96,0.67-1.44c0.44-0.97,0.88-1.96,1.33-2.96c0.45-1,0.9-1.98,1.33-2.95
				c0.21-0.49,0.46-0.96,0.63-1.45c0.18-0.49,0.36-0.98,0.53-1.47c0.71-1.94,1.39-3.81,2.04-5.59c0.16-0.45,0.34-0.88,0.47-1.32
				c0.12-0.44,0.25-0.88,0.37-1.32c0.24-0.86,0.48-1.7,0.71-2.52c0.46-1.62,0.89-3.13,1.28-4.52c0.59-2.78,1.07-5.04,1.41-6.65
				C253.92,54.2,254.14,53.33,254.19,53.34z"/>
		</g>
	</g>
	<g>
		<path class="st13" d="M422.62,220.26"/>
	</g>
	<g>
		<g>
			<path class="st13" d="M347.59,207.81"/>
		</g>
	</g>
	<path class="st19" d="M311.78,196.27l-9.91-37.67l-24.78,0.66l7.71,52.57c0.99,11.44,7.72,18.93,19.05,20.75
		c6.8,1.09,14.16-5.39,19.62-9.58c3.56-2.74,4.2-2.2,7.88-5.54l0,0l15.96-11.54l0.39,1.89l-0.1,0l2.71,32.12l33.06,25.96
		l39.43-31.59l-0.9-13.66c0.1-0.01,0.19-0.2-0.01-0.2l-1.02-15.49l20.2,23.17c4.65,6.79,12.56,10.59,20.77,9.96
		c8.87-0.67,16.56-6.39,19.77-14.69L492,170.44l-22.84-4.91l-10.7,38.16l-25.52-29.33c-14.71-19.17-31.9-17.55-31.9-17.55
		l-31.68-0.56c-0.02,0-0.05,0-0.07,0c-0.94,0.05-18.64,0.59-30.64,13.41L311.78,196.27z"/>
	<g>
		<g>
			<g>
				<path class="st12" d="M434.23,176.45c-0.01,0.03-0.34-0.16-1.02-0.37c-0.67-0.22-1.71-0.42-3.06-0.32
					c-1.34,0.11-2.95,0.54-4.69,1.34c-1.75,0.78-3.56,2.02-5.67,3.23c-2.09,1.18-4.61,2.47-7.57,2.4c-1.46-0.05-2.93-0.45-4.36-1.01
					c-1.43-0.56-2.83-1.25-4.31-1.84c-2.93-1.2-6.36-1.6-9.74-0.92c-3.4,0.65-6.52,2.56-9.71,4.41c-1.61,0.92-3.23,1.81-4.93,2.47
					c-1.7,0.66-3.47,1.09-5.22,1.27c-3.51,0.38-6.99-0.14-9.98-1.39c-3.01-1.23-5.54-3.01-7.85-4.68c-2.31-1.67-4.44-3.27-6.52-4.47
					c-2.09-1.2-4.13-2.01-5.99-2.47c-1.86-0.44-3.52-0.54-4.86-0.4c-2.7,0.29-3.98,1.23-4.01,1.14c0-0.01,0.08-0.06,0.24-0.15
					c0.16-0.09,0.4-0.22,0.72-0.38c0.66-0.27,1.66-0.66,3.03-0.82c1.36-0.17,3.05-0.1,4.95,0.32c1.89,0.44,3.98,1.23,6.1,2.43
					c2.13,1.2,4.28,2.79,6.59,4.44c2.32,1.64,4.83,3.4,7.78,4.58c2.93,1.2,6.32,1.7,9.75,1.32c1.71-0.18,3.43-0.6,5.09-1.25
					c1.66-0.65,3.26-1.52,4.86-2.44c3.18-1.84,6.35-3.79,9.87-4.46c3.48-0.69,7.01-0.26,10.01,0.98c2.97,1.21,5.67,2.78,8.5,2.87
					c2.82,0.09,5.29-1.14,7.37-2.29c2.1-1.18,3.95-2.41,5.74-3.17c1.77-0.79,3.42-1.2,4.79-1.28c1.37-0.08,2.43,0.17,3.1,0.42
					C433.92,176.22,434.23,176.45,434.23,176.45z"/>
			</g>
		</g>
	</g>
	<g>
		<g>
			<g>
				<path class="st12" d="M452.6,195.21c0,0-0.09,0.51-0.54,1.39c-0.45,0.87-1.32,2.09-2.87,3.17c-1.52,1.08-3.71,2-6.37,2.26
					c-2.65,0.3-5.68-0.02-8.97-0.39c-3.27-0.33-6.99-0.74-10.68,0.48c-1.83,0.62-3.56,1.66-5.29,2.78
					c-1.74,1.12-3.52,2.36-5.57,3.24c-4.06,1.79-8.87,2.46-13.63,1.59c-2.38-0.4-4.73-1.25-6.92-2.43c-2.2-1.18-4.24-2.64-6.36-4.01
					c-2.12-1.36-4.28-2.64-6.62-3.32c-2.33-0.7-4.77-0.78-7.11-0.44c-4.7,0.68-8.96,2.57-13.22,3.72c-2.12,0.6-4.26,1.02-6.37,1.07
					c-2.1,0.04-4.18-0.26-6.01-1.02c-3.69-1.52-6.41-4.11-8.82-6.36c-2.41-2.28-4.63-4.32-6.88-5.67c-2.23-1.38-4.46-2-6.29-2.15
					c-1.84-0.15-3.27,0.18-4.18,0.5c-0.91,0.34-1.34,0.63-1.36,0.6c0,0,0.41-0.32,1.32-0.7c0.91-0.36,2.36-0.73,4.23-0.61
					c1.86,0.12,4.15,0.72,6.43,2.1c2.3,1.35,4.56,3.38,6.98,5.65c2.43,2.23,5.14,4.77,8.73,6.23c1.79,0.73,3.79,1,5.84,0.96
					c2.05-0.05,4.15-0.47,6.25-1.07c2.1-0.59,4.23-1.34,6.42-2.04c2.19-0.7,4.46-1.39,6.86-1.72c2.39-0.35,4.92-0.27,7.33,0.45
					c2.42,0.71,4.62,2.02,6.75,3.38c2.13,1.38,4.17,2.83,6.33,3.99c2.15,1.16,4.44,1.98,6.77,2.38c4.66,0.85,9.37,0.2,13.35-1.53
					c3.98-1.74,7.1-4.75,10.92-5.99c1.89-0.63,3.81-0.81,5.64-0.81c1.83,0,3.57,0.18,5.22,0.37c3.29,0.4,6.29,0.74,8.9,0.47
					c2.62-0.22,4.77-1.09,6.28-2.13c1.54-1.03,2.42-2.21,2.89-3.05C452.44,195.71,452.57,195.2,452.6,195.21z"/>
			</g>
		</g>
	</g>
	<g>
		<g>
			<g>
				<path class="st12" d="M481.5,220.67c-0.04,0.04-0.39-0.54-1.38-1.13c-0.97-0.59-2.67-1.06-4.7-0.7
					c-2.03,0.35-4.18,1.67-6.33,3.38c-1.09,0.84-2.22,1.77-3.49,2.6c-1.27,0.82-2.72,1.57-4.34,1.87c-1.62,0.32-3.24,0.17-4.72-0.13
					c-1.49-0.31-2.88-0.77-4.19-1.22c-1.31-0.45-2.54-0.89-3.72-1.2c-1.18-0.31-2.3-0.49-3.33-0.56c-2.06-0.15-3.74,0.24-4.76,0.76
					c-1.04,0.51-1.5,0.99-1.53,0.94c-0.01-0.01,0.1-0.13,0.33-0.34c0.11-0.11,0.26-0.23,0.45-0.36c0.18-0.14,0.4-0.28,0.67-0.42
					c1.03-0.6,2.75-1.05,4.87-0.95c1.06,0.05,2.21,0.22,3.41,0.51c1.21,0.3,2.46,0.73,3.76,1.17c2.59,0.84,5.57,1.87,8.66,1.29
					c1.53-0.28,2.91-0.99,4.16-1.79c1.25-0.8,2.38-1.71,3.48-2.55c2.18-1.69,4.42-3.04,6.56-3.36c2.13-0.33,3.89,0.23,4.87,0.89
					c0.5,0.32,0.81,0.68,1.02,0.91C481.42,220.52,481.51,220.66,481.5,220.67z"/>
			</g>
		</g>
	</g>
	<g>
		<g>
			<g>
				<path class="st12" d="M486.52,191.93c0.01,0.02-0.27,0.26-0.86,0.54c-0.59,0.28-1.51,0.58-2.69,0.68
					c-1.17,0.1-2.58-0.01-4.09-0.37c-1.51-0.36-3.09-0.96-4.74-1.58c-1.65-0.61-3.23-1.16-4.71-1.41c-1.48-0.25-2.85-0.23-3.96-0.01
					c-2.26,0.42-3.3,1.55-3.35,1.45c-0.02-0.02,0.21-0.31,0.74-0.7c0.53-0.39,1.39-0.84,2.54-1.11c1.15-0.27,2.57-0.33,4.11-0.1
					c1.54,0.23,3.16,0.77,4.81,1.39c1.65,0.62,3.21,1.23,4.67,1.6c1.46,0.37,2.82,0.52,3.95,0.47
					C485.24,192.69,486.48,191.83,486.52,191.93z"/>
			</g>
		</g>
	</g>
	<g>
		<g>
			<g>
				<path class="st12" d="M420.21,229.73c-0.03,0.06-0.88-0.56-2.62-1.2c-1.73-0.62-4.42-1.15-7.72-0.8
					c-3.3,0.29-7.08,1.59-11.03,3.5c-3.97,1.87-8.17,4.37-13.06,5.95c-2.44,0.78-4.93,1.27-7.36,1.27c-2.43-0.01-4.75-0.5-6.86-1.18
					c-2.11-0.68-4.04-1.53-5.83-2.32c-1.79-0.79-3.45-1.55-4.99-2.16c-3.07-1.26-5.72-1.83-7.56-1.97
					c-0.46-0.03-0.87-0.07-1.23-0.07c-0.34,0.01-0.64,0.02-0.9,0.03c-0.49,0.01-0.75,0.01-0.75-0.01c0-0.02,0.25-0.05,0.74-0.1
					c0.26-0.02,0.56-0.05,0.91-0.08c0.36-0.01,0.78,0.02,1.24,0.03c1.87,0.08,4.57,0.61,7.68,1.83c1.57,0.59,3.23,1.33,5.03,2.11
					c1.8,0.78,3.72,1.6,5.8,2.26c2.08,0.66,4.34,1.13,6.71,1.13c2.37-0.01,4.81-0.48,7.2-1.26c4.81-1.56,9.01-4.03,13.01-5.89
					c3.98-1.9,7.83-3.19,11.2-3.43c3.36-0.31,6.09,0.29,7.83,0.97C419.41,229.05,420.21,229.73,420.21,229.73z"/>
			</g>
		</g>
	</g>
	<g>
		<g>
			<g>
				<path class="st12" d="M283.64,204.17c0,0,0.14-0.13,0.48-0.23c0.33-0.1,0.87-0.14,1.51,0.06c0.63,0.2,1.36,0.63,1.97,1.37
					c0.61,0.73,1.07,1.7,1.59,2.72c0.5,1.03,1.21,2.06,2.21,2.94c0.99,0.89,2.28,1.56,3.7,2.04c2.87,0.96,6.27,1.02,9.74,0.47
					c3.48-0.51,6.81-1.21,9.91-1.19c3.11-0.05,5.88,0.89,7.84,2.17c2,1.27,3.12,2.93,3.57,4.15c0.46,1.23,0.42,1.98,0.42,1.98
					c-0.07,0.01-0.1-0.72-0.61-1.9c-0.5-1.16-1.63-2.73-3.59-3.92c-1.93-1.21-4.61-2.08-7.64-2.01c-3.04,0-6.33,0.71-9.84,1.23
					c-3.49,0.56-7.01,0.49-9.96-0.53c-1.47-0.51-2.8-1.23-3.83-2.18c-1.04-0.93-1.77-2.05-2.26-3.1c-0.5-1.05-0.93-2-1.48-2.71
					c-0.55-0.7-1.22-1.14-1.81-1.36C284.34,203.76,283.64,204.25,283.64,204.17z"/>
			</g>
		</g>
	</g>
	<g>
		<g>
			<g>
				<path class="st12" d="M305.33,173.62c-0.06,0.1-1.11-1.16-3.49-1.81c-1.17-0.32-2.64-0.46-4.24-0.28
					c-1.6,0.18-3.31,0.72-5.03,1.45c-1.72,0.74-3.31,1.58-4.79,2.31c-1.47,0.73-2.83,1.33-4.01,1.74c-1.18,0.41-2.17,0.63-2.86,0.73
					c-0.69,0.1-1.08,0.1-1.08,0.07c-0.01-0.09,1.53-0.24,3.82-1.15c1.15-0.45,2.47-1.08,3.93-1.83c1.45-0.75,3.05-1.61,4.8-2.36
					c1.75-0.75,3.52-1.29,5.19-1.45c1.66-0.17,3.19,0.02,4.39,0.4c1.21,0.38,2.09,0.93,2.63,1.38
					C305.12,173.29,305.35,173.61,305.33,173.62z"/>
			</g>
		</g>
	</g>
	<g class="st20">
		<g>
			<g>
				<path d="M377.74,261.47c12.84-7.44,27.7-16.17,35.11-29.03c4.74-8.22,7.09-18.05,8.01-27.5l1.93,29.35l-39.43,31.59
					L377.74,261.47z"/>
			</g>
		</g>
	</g>
	<g class="st21">
		<g>
			<g>
				<path d="M344.46,164.38c-3.03,11.26-8.83,20.96-17.63,28.62c-2.12,1.85-4.43,3.57-7.09,4.48c-2.66,0.91-5.75,0.92-8.16-0.54
					l0.19-0.67l19.98-19.79L344.46,164.38z"/>
			</g>
		</g>
	</g>
	<g>
		<g>
			<g>
				<path class="st4" d="M314.32,212.01c-0.08-0.03,0.24-0.91,0.51-2.37c0.27-1.46,0.41-3.53,0.05-5.77
					c-0.37-2.24-1.17-4.15-1.9-5.45c-0.73-1.3-1.32-2.03-1.25-2.08c0.04-0.04,0.74,0.61,1.56,1.9c0.83,1.28,1.71,3.24,2.1,5.55
					c0.38,2.31,0.17,4.46-0.2,5.93C314.82,211.2,314.37,212.03,314.32,212.01z"/>
			</g>
		</g>
	</g>
	<g>
		<g>
			<g>
				<path class="st4" d="M308.59,206.97c-0.13-0.1,1.61-1.92,2.38-4.82c0.82-2.88,0.27-5.34,0.43-5.36c0.06-0.01,0.28,0.57,0.4,1.58
					c0.12,1,0.08,2.42-0.33,3.92c-0.42,1.49-1.11,2.73-1.73,3.53C309.13,206.63,308.64,207.01,308.59,206.97z"/>
			</g>
		</g>
	</g>
	<g>
		<g>
			<g>
				<path class="st4" d="M345.8,186.3c0.14-0.01,0.96,7.96,1.83,17.8c0.87,9.85,1.46,17.84,1.31,17.85
					c-0.14,0.01-0.96-7.96-1.83-17.8C346.24,194.3,345.65,186.31,345.8,186.3z"/>
			</g>
		</g>
	</g>
	<g>
		<g>
			<g>
				<path class="st4" d="M399.18,155.66c0.02-0.01,0.09,0.18,0.21,0.54c0.14,0.36,0.28,0.9,0.44,1.61c0.29,1.41,0.44,3.55-0.1,6.11
					c-0.56,2.52-1.86,5.49-4.36,7.91c-2.46,2.44-6.2,4.01-10.19,4.11c-3.99,0.08-7.8-1.33-10.37-3.66c-2.6-2.31-4.03-5.21-4.7-7.71
					c-0.65-2.53-0.59-4.67-0.36-6.1c0.12-0.71,0.24-1.26,0.37-1.62c0.11-0.36,0.17-0.55,0.19-0.55c0.06,0.02-0.19,0.78-0.35,2.2
					c-0.16,1.41-0.16,3.52,0.52,5.97c0.7,2.43,2.13,5.24,4.66,7.44c2.49,2.23,6.17,3.57,10.04,3.5c3.86-0.1,7.48-1.6,9.87-3.93
					c2.43-2.32,3.74-5.19,4.33-7.64c0.57-2.49,0.48-4.59,0.25-5.99C399.41,156.43,399.12,155.68,399.18,155.66z"/>
			</g>
		</g>
	</g>
	<g>
		<g>
			<g>
				<path class="st4" d="M457.28,215.9c-0.14,0.01-0.37-2.81-0.16-6.28c0.19-3.47,0.74-6.24,0.87-6.22c0.15,0.02-0.16,2.8-0.35,6.25
					C457.43,213.1,457.43,215.9,457.28,215.9z"/>
			</g>
		</g>
	</g>
	<g>
		<g>
			<g>
				<path class="st4" d="M461.29,217.72c-0.06,0.02-0.41-0.75-0.85-2.04c-0.44-1.29-0.97-3.11-1.39-5.15
					c-0.42-2.04-0.66-3.92-0.76-5.28c-0.11-1.36-0.09-2.21-0.02-2.21c0.16-0.01,0.45,3.34,1.3,7.39
					C460.39,214.48,461.44,217.67,461.29,217.72z"/>
			</g>
		</g>
	</g>
	<g>
		<g>
			<g>
				<path class="st4" d="M420.86,218.3c-0.14,0.01-0.47-5.63-0.73-12.58c-0.26-6.96-0.36-12.6-0.21-12.6
					c0.14-0.01,0.47,5.63,0.73,12.58C420.9,212.65,421,218.29,420.86,218.3z"/>
			</g>
		</g>
	</g>
	<g>
		<g>
			<g>
				<g>
					<g>
						<g>
							<g>
								<g>
									<g>
										<g>
											<path class="st15" d="M385.01,174.36L385.01,174.36c-7.5-0.14-13.59-6.09-13.9-13.58c-0.23-5.48-0.42-10.51-0.42-10.51
												s-11.47-1.22-12.16-12.59c-0.69-11.38,0.01-37.61,0.01-37.61l0,0c12.9-6.3,28.2-5.13,39.99,3.07l1.75,1.22l-0.83,56.05
												C399.34,168.24,392.86,174.5,385.01,174.36z"/>
										</g>
									</g>
								</g>
							</g>
						</g>
						<g>
							<g>
								<g>
									<g>
										<g>
											<path class="st22" d="M370.67,150.1c0,0,7.22,0.24,14.63-4.94c0,0-3.11,8.36-14.52,7.89L370.67,150.1z"/>
										</g>
									</g>
								</g>
							</g>
						</g>
					</g>
				</g>
			</g>
			<g>
				<g>
					<g>
						<g>
							<g>
								<g>
									<path class="st15" d="M399.45,116.2c0.19-0.09,7.71-2.69,7.84,5.1c0.13,7.79-7.72,6.32-7.74,6.09
										C399.54,127.17,399.45,116.2,399.45,116.2z"/>
								</g>
							</g>
						</g>
					</g>
				</g>
				<g>
					<g>
						<g>
							<g>
								<g>
									<g>
										<path class="st22" d="M401.88,124.41c0.03-0.03,0.14,0.09,0.37,0.19c0.23,0.1,0.61,0.16,1.02,0
											c0.82-0.32,1.49-1.63,1.5-3.04c0.01-0.71-0.15-1.38-0.41-1.94c-0.25-0.57-0.62-0.96-1.04-1.03
											c-0.41-0.09-0.7,0.16-0.8,0.39c-0.1,0.22-0.05,0.37-0.09,0.39c-0.02,0.02-0.17-0.13-0.11-0.45
											c0.03-0.16,0.12-0.34,0.3-0.49c0.18-0.16,0.46-0.24,0.75-0.21c0.6,0.03,1.15,0.58,1.44,1.18
											c0.32,0.61,0.52,1.37,0.51,2.16c-0.02,1.57-0.8,3.05-1.92,3.4c-0.55,0.15-1.01-0.01-1.25-0.19
											C401.9,124.59,401.86,124.42,401.88,124.41z"/>
									</g>
								</g>
							</g>
						</g>
					</g>
				</g>
			</g>
			<g>
				<g>
					<g>
						<g>
							<g>
								<g>
									<g>
										<g>
											<g>
												<g>
													<g>
														<path class="st4" d="M363.99,117.27c-0.03,0.86,0.67,1.59,1.57,1.64c0.9,0.05,1.65-0.61,1.68-1.47
															c0.03-0.86-0.67-1.59-1.57-1.64C364.77,115.76,364.02,116.41,363.99,117.27z"/>
													</g>
												</g>
											</g>
										</g>
									</g>
									<g>
										<g>
											<g>
												<g>
													<g>
														<g>
															<path class="st4" d="M362.01,115.64c0.2,0.21,1.43-0.7,3.19-0.7c1.75-0.02,3.03,0.88,3.22,0.67
																c0.09-0.09-0.11-0.48-0.67-0.89c-0.55-0.41-1.49-0.8-2.58-0.8c-1.09,0.01-2.01,0.41-2.54,0.82
																C362.09,115.16,361.91,115.55,362.01,115.64z"/>
														</g>
													</g>
												</g>
											</g>
										</g>
									</g>
								</g>
								<g>
									<g>
										<g>
											<g>
												<g>
													<g>
														<path class="st4" d="M380.8,117.47c-0.03,0.86,0.67,1.59,1.57,1.64c0.9,0.05,1.65-0.61,1.68-1.47
															c0.03-0.86-0.67-1.59-1.57-1.64C381.58,115.96,380.83,116.61,380.8,117.47z"/>
													</g>
												</g>
											</g>
										</g>
									</g>
									<g>
										<g>
											<g>
												<g>
													<g>
														<g>
															<path class="st4" d="M379.22,115.97c0.2,0.21,1.44-0.7,3.19-0.7c1.75-0.02,3.03,0.88,3.22,0.67
																c0.09-0.09-0.11-0.48-0.67-0.89c-0.55-0.41-1.49-0.8-2.58-0.8c-1.09,0.01-2.01,0.41-2.54,0.82
																C379.31,115.49,379.12,115.87,379.22,115.97z"/>
														</g>
													</g>
												</g>
											</g>
										</g>
									</g>
								</g>
								<g>
									<g>
										<g>
											<g>
												<g>
													<g>
														<path class="st4" d="M372.87,128.96c0.01-0.1-1.08-0.29-2.84-0.51c-0.45-0.05-0.87-0.14-0.95-0.44
															c-0.11-0.32,0.08-0.81,0.3-1.33c0.42-1.08,0.86-2.22,1.32-3.41c1.84-4.85,3.17-8.83,2.97-8.91
															c-0.2-0.07-1.84,3.8-3.68,8.65c-0.44,1.2-0.86,2.33-1.27,3.43c-0.17,0.51-0.46,1.08-0.23,1.75
															c0.12,0.33,0.45,0.58,0.74,0.65c0.29,0.09,0.54,0.09,0.76,0.11C371.76,129.05,372.86,129.06,372.87,128.96z"/>
													</g>
												</g>
											</g>
										</g>
									</g>
								</g>
								<g>
									<g>
										<g>
											<g>
												<g>
													<g>
														<path class="st4" d="M378.02,130.17c-0.28-0.02-0.29,1.88-1.92,3.23c-1.62,1.35-3.65,1.14-3.67,1.41
															c-0.03,0.12,0.45,0.37,1.31,0.39c0.84,0.03,2.06-0.24,3.06-1.07c0.99-0.83,1.42-1.93,1.48-2.71
															C378.36,130.63,378.15,130.16,378.02,130.17z"/>
													</g>
												</g>
											</g>
										</g>
									</g>
								</g>
							</g>
						</g>
					</g>
					<g>
						<g>
							<g>
								<g>
									<g>
										<path class="st4" d="M378.77,109.11c0.17,0.48,1.92,0.25,3.98,0.5c2.06,0.21,3.72,0.81,3.99,0.38
											c0.12-0.2-0.17-0.65-0.84-1.11c-0.66-0.46-1.72-0.9-2.96-1.04c-1.23-0.13-2.36,0.06-3.11,0.37
											C379.08,108.51,378.7,108.88,378.77,109.11z"/>
									</g>
								</g>
							</g>
						</g>
					</g>
					<g>
						<g>
							<g>
								<g>
									<g>
										<path class="st4" d="M362.65,110.57c0.31,0.4,1.51-0.02,2.97-0.03c1.45-0.07,2.68,0.27,2.96-0.15
											c0.12-0.2-0.07-0.6-0.61-0.98c-0.53-0.38-1.41-0.68-2.41-0.65c-1,0.03-1.86,0.39-2.37,0.8
											C362.68,109.97,362.52,110.38,362.65,110.57z"/>
									</g>
								</g>
							</g>
						</g>
					</g>
				</g>
			</g>
		</g>
		<g>
			<g>
				<g>
					<path class="st4" d="M352.73,92.54c-0.12-1.41,0.4-2.93,1.55-3.76c1.15-0.83,2.93-0.78,3.87,0.29c-0.54-1.9,1.02-4.1,2.99-4.22
						c1.86-0.12,3.44,1.29,5.24,1.78c1.75,0.48,3.63,0.06,5.32-0.61c1.69-0.68,3.26-1.62,4.97-2.24c3.56-1.3,7.63-1.14,11.08,0.44
						c3.45,1.58,6.22,4.56,7.56,8.11c2.49-0.78,5.32,0.49,6.86,2.6c1.54,2.11,1.93,4.88,1.63,7.48c-0.21,1.75-0.71,3.45-1.3,5.11
						c0,0.15,0.01,0.29,0.01,0.44c-0.12,6.27-0.83,13.62-3.5,13.67c-4.66,0.07-3.55-8.71-3.55-8.71
						c-5.72-2.21-3.59-10.78-5.02-12.08c-1.43-1.3-4.42-4.32-16.39,1.8c-4.65,2.38-10.83,2.3-14.2,1.54c-0.1-0.02-0.2-0.04-0.3-0.06
						c-0.02-0.01-0.05-0.01-0.07-0.01c-0.04-0.01-0.06-0.03-0.1-0.04c-1.08-0.28-2.11-0.7-3.07-1.3c-1.08-0.69-2.07-1.61-2.53-2.81
						c-0.46-1.2-0.29-2.69,0.65-3.57C353.55,95.27,352.85,93.96,352.73,92.54z"/>
				</g>
			</g>
		</g>
	</g>
</g>
</svg>
