<?xml version="1.0" encoding="utf-8"?>
<!-- Generator: Adobe Illustrator 23.0.5, SVG Export Plug-In . SVG Version: 6.00 Build 0)  -->
<svg version="1.1" xmlns="http://www.w3.org/2000/svg" xmlns:xlink="http://www.w3.org/1999/xlink" x="0px" y="0px"
	 viewBox="0 0 750 500" style="enable-background:new 0 0 750 500;" xml:space="preserve">
<style type="text/css">
	.st0{opacity:0.33;fill:#2688BF;}
	.st1{fill:#1F417B;}
	.st2{fill:#1F5493;}
	.st3{fill:#FFFFFF;}
	.st4{fill:#E9EBFE;}
	.st5{fill:#D7DCF9;}
	.st6{fill:#2C74AF;}
	.st7{fill:#B7C6F9;}
	.st8{fill:#2688BF;}
	.st9{fill:#2A7EB7;}
	.st10{fill:#214B87;}
	.st11{fill:#2D6CA9;}
</style>
<g id="BACKGROUND">
</g>
<g id="OBJECTS">
	<path class="st0" d="M460.99,380.95v-9.12h-4.93c-0.71-4.33-2.41-8.32-4.87-11.74l3.49-3.49l-6.45-6.44l-3.49,3.49
		c-3.42-2.45-7.41-4.16-11.74-4.87v-4.93h-9.11v4.93c-4.33,0.71-8.32,2.41-11.74,4.87l-3.49-3.49l-6.45,6.44l3.49,3.49
		c-2.45,3.42-4.16,7.41-4.86,11.74h-4.94v9.12h4.94c0.71,4.33,2.41,8.32,4.86,11.74l-3.49,3.49l6.45,6.45l3.49-3.49
		c3.42,2.45,7.41,4.16,11.74,4.87v4.93H433V404c4.33-0.71,8.32-2.41,11.74-4.87l3.49,3.49l6.45-6.45l-3.49-3.49
		c2.46-3.42,4.16-7.41,4.87-11.74H460.99z M428.45,397.58c-11.7,0-21.19-9.48-21.19-21.19c0-11.7,9.49-21.19,21.19-21.19
		c11.71,0,21.19,9.49,21.19,21.19C449.63,388.09,440.15,397.58,428.45,397.58z"/>
	<path class="st0" d="M351.19,161.33v-12.37h-6.69c-0.96-5.87-3.27-11.29-6.6-15.93l4.74-4.74l-8.75-8.75l-4.74,4.74
		c-4.64-3.33-10.05-5.64-15.93-6.6v-6.69h-12.37v6.69c-5.87,0.96-11.29,3.27-15.93,6.6l-4.73-4.74l-8.75,8.75l4.73,4.74
		c-3.33,4.64-5.64,10.05-6.6,15.93h-6.7v12.37h6.7c0.96,5.87,3.27,11.29,6.6,15.93l-4.73,4.74l8.75,8.75l4.73-4.74
		c4.64,3.33,10.05,5.64,15.93,6.6v6.69h12.37v-6.69c5.88-0.96,11.29-3.27,15.93-6.6l4.74,4.74l8.75-8.75l-4.74-4.74
		c3.33-4.64,5.64-10.05,6.6-15.93H351.19z M307.04,187.35c-17.79,0-32.21-14.42-32.21-32.21c0-17.79,14.42-32.21,32.21-32.21
		c17.79,0,32.21,14.42,32.21,32.21C339.25,172.93,324.83,187.35,307.04,187.35z"/>
	<g>
		<g>
			<g>
				<path class="st1" d="M441.14,372.17c0,7.82-6.4,14.21-14.21,14.21H322.02c-7.82,0-14.21-6.4-14.21-14.21V147.51
					c0-7.82,6.4-14.21,14.21-14.21h104.91c7.82,0,14.21,6.4,14.21,14.21V372.17z"/>
				<path class="st2" d="M438.14,372.17c0,7.82-6.4,14.21-14.21,14.21H319.02c-7.82,0-14.21-6.4-14.21-14.21V147.51
					c0-7.82,6.4-14.21,14.21-14.21h104.91c7.82,0,14.21,6.4,14.21,14.21V372.17z"/>
				<path class="st3" d="M380.95,370.59c0,5.23-4.24,9.48-9.47,9.48c-5.23,0-9.48-4.24-9.48-9.48c0-5.23,4.24-9.47,9.48-9.47
					C376.71,361.12,380.95,365.36,380.95,370.59z"/>
				<g>
					<path class="st3" d="M390.13,149.39c0,1.14-0.93,2.07-2.07,2.07h-33.17c-1.14,0-2.07-0.93-2.07-2.07l0,0
						c0-1.15,0.93-2.07,2.07-2.07h33.17C389.2,147.32,390.13,148.24,390.13,149.39L390.13,149.39z"/>
					<path class="st3" d="M373.35,141.42c0,1.04-0.84,1.88-1.88,1.88c-1.04,0-1.88-0.84-1.88-1.88c0-1.04,0.84-1.88,1.88-1.88
						C372.51,139.55,373.35,140.39,373.35,141.42z"/>
				</g>
				<g>
					<rect x="311.18" y="156.58" class="st4" width="120.6" height="199.5"/>
					<polygon class="st5" points="311.18,356.08 431.77,156.58 431.77,356.08 					"/>
				</g>
			</g>
		</g>
		<g>
			<g>
				<path class="st6" d="M409.49,212.82h-76.02c-7.06,0-12.81-5.75-12.81-12.81v-18.94c0-7.06,5.75-12.81,12.81-12.81h76.02
					c7.06,0,12.81,5.75,12.81,12.81v18.94C422.29,207.07,416.55,212.82,409.49,212.82z M333.46,171.27c-5.41,0-9.81,4.4-9.81,9.81
					v18.94c0,5.41,4.4,9.81,9.81,9.81h76.02c5.41,0,9.81-4.4,9.81-9.81v-18.94c0-5.41-4.4-9.81-9.81-9.81H333.46z"/>
			</g>
			<g>
				<g>
					<path class="st6" d="M365.88,252.39c0,6.42-5.25,11.66-11.66,11.66h-20.4c-6.41,0-11.66-5.25-11.66-11.66v-22.1
						c0-6.41,5.25-11.66,11.66-11.66h20.4c6.42,0,11.66,5.25,11.66,11.66V252.39z"/>
					<path class="st6" d="M420.54,252.39c0,6.42-5.25,11.66-11.66,11.66h-20.4c-6.42,0-11.66-5.25-11.66-11.66v-22.1
						c0-6.41,5.25-11.66,11.66-11.66h20.4c6.41,0,11.66,5.25,11.66,11.66V252.39z"/>
				</g>
				<g>
					<g>
						<path class="st6" d="M354.22,318.33h-20.4c-7.26,0-13.16-5.91-13.16-13.16v-22.1c0-7.26,5.91-13.16,13.16-13.16h20.4
							c7.26,0,13.16,5.91,13.16,13.16v22.1C367.38,312.43,361.47,318.33,354.22,318.33z M333.82,272.9
							c-5.6,0-10.16,4.56-10.16,10.16v22.1c0,5.6,4.56,10.16,10.16,10.16h20.4c5.6,0,10.16-4.56,10.16-10.16v-22.1
							c0-5.6-4.56-10.16-10.16-10.16H333.82z"/>
					</g>
					<g>
						<path class="st6" d="M408.88,318.33h-20.4c-7.26,0-13.16-5.91-13.16-13.16v-22.1c0-7.26,5.91-13.16,13.16-13.16h20.4
							c7.26,0,13.16,5.91,13.16,13.16v22.1C422.04,312.43,416.13,318.33,408.88,318.33z M388.48,272.9
							c-5.6,0-10.16,4.56-10.16,10.16v22.1c0,5.6,4.56,10.16,10.16,10.16h20.4c5.6,0,10.16-4.56,10.16-10.16v-22.1
							c0-5.6-4.56-10.16-10.16-10.16H388.48z"/>
					</g>
				</g>
			</g>
			<path class="st7" d="M420.59,333.96c0,5.71-5.09,10.37-11.31,10.37h-75.81c-6.22,0-11.31-4.67-11.31-10.37
				c0-5.71,5.09-10.37,11.31-10.37h75.81C415.5,323.59,420.59,328.25,420.59,333.96z"/>
		</g>
	</g>
	<g>
		<polygon class="st3" points="339.29,232.37 347.92,243.77 352.66,237.52 359.93,247.12 350.46,247.12 345.38,247.12 
			328.11,247.12 		"/>
		<path class="st3" d="M346.69,234.94c0,0.98,0.79,1.77,1.77,1.77c0.98,0,1.77-0.79,1.77-1.77c0-0.98-0.79-1.77-1.77-1.77
			C347.48,233.16,346.69,233.96,346.69,234.94z"/>
	</g>
	<g>
		<polygon class="st3" points="393.95,232.37 402.58,243.77 407.32,237.52 414.59,247.12 405.12,247.12 400.04,247.12 
			382.77,247.12 		"/>
		<path class="st3" d="M401.35,234.94c0,0.98,0.79,1.77,1.77,1.77c0.98,0,1.77-0.79,1.77-1.77c0-0.98-0.79-1.77-1.77-1.77
			C402.14,233.16,401.35,233.96,401.35,234.94z"/>
	</g>
	<g>
		<path class="st8" d="M388.84,161.51c-5.17,0-9.37,4.2-9.37,9.37v18.09c0,5.17,4.2,9.37,9.37,9.37h72.62c5.17,0,9.37-4.2,9.37-9.37
			v-18.09c0-5.17-4.2-9.37-9.37-9.37H388.84z"/>
		<g>
			<path class="st3" d="M391.41,164.81c-4.25,0-7.71,3.46-7.71,7.71v14.89c0,4.25,3.46,7.71,7.71,7.71h14.39
				c4.25,0,7.71-3.46,7.71-7.71v-14.89c0-4.25-3.46-7.71-7.71-7.71H391.41z"/>
			<polygon class="st1" points="394.4,173.3 394.4,186.63 402.81,179.87 			"/>
		</g>
	</g>
	<g>
		<g>
			<g>
				<rect x="419.3" y="166.56" class="st3" width="10.38" height="1.09"/>
				<rect x="433.96" y="166.56" class="st3" width="26.72" height="1.09"/>
			</g>
			<g>
				<rect x="419.3" y="170.22" class="st3" width="8.05" height="1.09"/>
				<rect x="430.66" y="170.22" class="st3" width="20.7" height="1.09"/>
			</g>
			<g>
				<rect x="419.3" y="173.89" class="st3" width="9.31" height="1.09"/>
				<rect x="432.44" y="173.89" class="st3" width="23.95" height="1.09"/>
			</g>
			<g>
				<rect x="419.3" y="177.55" class="st3" width="7.21" height="1.09"/>
				<rect x="429.49" y="177.55" class="st3" width="18.56" height="1.09"/>
			</g>
		</g>
		<g>
			<g>
				<rect x="419.3" y="181.21" class="st3" width="11.15" height="1.09"/>
				<rect x="435.04" y="181.21" class="st3" width="28.69" height="1.09"/>
			</g>
			<g>
				<rect x="419.3" y="184.88" class="st3" width="8.64" height="1.09"/>
				<rect x="431.5" y="184.88" class="st3" width="22.23" height="1.09"/>
			</g>
			<g>
				<rect x="419.3" y="188.54" class="st3" width="9.99" height="1.09"/>
				<rect x="433.41" y="188.54" class="st3" width="25.72" height="1.09"/>
			</g>
			<g>
				<rect x="419.3" y="192.21" class="st3" width="7.75" height="1.09"/>
				<rect x="430.24" y="192.21" class="st3" width="19.93" height="1.09"/>
			</g>
		</g>
	</g>
	<g>
		<path class="st8" d="M326.41,266.16c0,5.71-4.67,10.38-10.38,10.38h-18.15c-5.71,0-10.38-4.67-10.38-10.38V246.5
			c0-5.71,4.67-10.38,10.38-10.38h18.15c5.71,0,10.38,4.67,10.38,10.38V266.16z"/>
		<g>
			<path class="st3" d="M302.81,253.74l-5.37,1.96l5.37,1.95v2.01l-7.67-2.92v-2.09l7.67-2.92V253.74z"/>
			<path class="st3" d="M308.58,247.78h2.24l-5.32,15.18h-2.24L308.58,247.78z"/>
			<path class="st3" d="M318.78,254.66v2.09l-7.67,2.92v-2.01l5.37-1.95l-5.37-1.96v-2L318.78,254.66z"/>
		</g>
	</g>
	<path class="st0" d="M487.36,253.34v-4.77h-2.58c-0.37-2.26-1.26-4.35-2.55-6.14l1.83-1.83l-3.37-3.37l-1.83,1.83
		c-1.79-1.28-3.88-2.17-6.14-2.55v-2.58h-4.77v2.58c-2.26,0.37-4.35,1.26-6.14,2.55l-1.82-1.83l-3.37,3.37l1.83,1.83
		c-1.28,1.79-2.18,3.88-2.54,6.14h-2.58v4.77h2.58c0.37,2.26,1.26,4.35,2.54,6.14l-1.83,1.83l3.37,3.37l1.83-1.83
		c1.79,1.28,3.88,2.17,6.14,2.55v2.58h4.77v-2.58c2.27-0.37,4.35-1.26,6.14-2.55l1.83,1.83l3.37-3.37l-1.83-1.83
		c1.29-1.79,2.17-3.88,2.55-6.14H487.36z M470.34,262.04c-6.12,0-11.08-4.96-11.08-11.08c0-6.12,4.96-11.08,11.08-11.08
		c6.13,0,11.09,4.96,11.09,11.08C481.42,257.08,476.46,262.04,470.34,262.04z"/>
	<path class="st0" d="M466.76,293.07v-2.9h-1.57c-0.22-1.38-0.77-2.65-1.55-3.74l1.11-1.11l-2.05-2.05l-1.11,1.11
		c-1.09-0.78-2.36-1.32-3.74-1.55v-1.57h-2.9v1.57c-1.38,0.23-2.65,0.77-3.74,1.55l-1.11-1.11l-2.05,2.05l1.11,1.11
		c-0.78,1.09-1.32,2.36-1.55,3.74h-1.57v2.9h1.57c0.23,1.38,0.77,2.65,1.55,3.74l-1.11,1.11l2.05,2.05l1.11-1.11
		c1.09,0.78,2.36,1.32,3.74,1.55v1.57h2.9v-1.57c1.38-0.23,2.65-0.77,3.74-1.55l1.11,1.11l2.05-2.05l-1.11-1.11
		c0.78-1.09,1.32-2.36,1.55-3.74H466.76z M456.4,297.61c-3.31,0-6-2.68-6-5.99c0-3.31,2.69-5.99,6-5.99c3.31,0,6,2.68,6,5.99
		C462.39,294.93,459.71,297.61,456.4,297.61z"/>
	<g>
		<path class="st8" d="M465.79,331.33c0,7.55-6.17,13.72-13.72,13.72h-23.99c-7.54,0-13.72-6.17-13.72-13.72v-25.99
			c0-7.54,6.17-13.72,13.72-13.72h23.99c7.54,0,13.72,6.17,13.72,13.72V331.33z"/>
		<g>
			<g>
				<path class="st3" d="M430.17,313.36h3.21c1.77,0,3.09,1.06,3.09,3.18c0,2.06-1.2,3.16-3.24,3.16h-1.15v4.35h-1.92V313.36z
					 M432.09,318.16h0.94c1.06,0,1.53-0.53,1.53-1.65c0-1.07-0.55-1.6-1.43-1.6h-1.04V318.16z"/>
				<path class="st3" d="M437.76,313.36h1.92v4.22h2.57v-4.22h1.92v10.69h-1.92v-4.8h-2.57v4.8h-1.92V313.36z"/>
				<path class="st3" d="M446.03,313.36h3.21c1.77,0,3.09,1.06,3.09,3.18c0,2.06-1.2,3.16-3.24,3.16h-1.15v4.35h-1.92V313.36z
					 M447.95,318.16h0.94c1.06,0,1.53-0.53,1.53-1.65c0-1.07-0.55-1.6-1.43-1.6h-1.04V318.16z"/>
			</g>
		</g>
	</g>
	<g>
		<path class="st9" d="M322.9,394.45c0,5.32-4.35,9.67-9.67,9.67h-16.92c-5.32,0-9.67-4.35-9.67-9.67v-18.33
			c0-5.32,4.35-9.67,9.67-9.67h16.92c5.32,0,9.67,4.35,9.67,9.67V394.45z"/>
		<g>
			<g>
				<path class="st3" d="M294.05,381.19h1.46v3.21h1.96v-3.21h1.46v8.11h-1.46v-3.65h-1.96v3.65h-1.46V381.19z"/>
				<path class="st3" d="M301.43,382.47h-1.73v-1.27h4.92v1.27h-1.73v6.84h-1.46V382.47z"/>
				<path class="st3" d="M310.38,386.29c0-1.39,0.02-2.97,0.05-3.89h-0.03c-0.28,1.54-0.73,4.28-1.26,6.91h-1.31
					c-0.39-2.45-0.86-5.36-1.12-6.93h-0.04c0.05,0.95,0.08,2.65,0.08,4.05v2.88h-1.33v-8.11h2.17c0.42,2.24,0.8,4.51,0.96,5.69h0.01
					c0.17-1.1,0.67-3.55,1.1-5.69h2.12v8.11h-1.39V386.29z"/>
				<path class="st3" d="M313.18,381.19h1.46v6.87h2.78l-0.14,1.24h-4.09V381.19z"/>
			</g>
		</g>
	</g>
	<path class="st0" d="M293.57,299.57v-2.9H292c-0.22-1.38-0.77-2.65-1.55-3.74l1.11-1.11l-2.05-2.05l-1.11,1.11
		c-1.09-0.78-2.36-1.32-3.74-1.55v-1.57h-2.9v1.57c-1.38,0.23-2.65,0.77-3.74,1.55l-1.11-1.11l-2.05,2.05l1.11,1.11
		c-0.78,1.09-1.32,2.36-1.55,3.74h-1.57v2.9h1.57c0.23,1.38,0.77,2.65,1.55,3.74l-1.11,1.11l2.05,2.05l1.11-1.11
		c1.09,0.78,2.36,1.32,3.74,1.55v1.57h2.9v-1.57c1.38-0.23,2.65-0.77,3.74-1.55l1.11,1.11l2.05-2.05l-1.11-1.11
		c0.78-1.09,1.32-2.36,1.55-3.74H293.57z M283.21,304.11c-3.31,0-6-2.68-6-5.99c0-3.31,2.69-5.99,6-5.99c3.31,0,6,2.68,6,5.99
		C289.2,301.43,286.52,304.11,283.21,304.11z"/>
	<path class="st10" d="M487.38,141.04c0,5.66-4.63,10.29-10.29,10.29H459.1c-5.66,0-10.29-4.63-10.29-10.29v-19.49
		c0-5.66,4.63-10.29,10.29-10.29h17.99c5.66,0,10.29,4.63,10.29,10.29V141.04z"/>
	<g>
		<g>
			<path class="st3" d="M465.35,133.07c-0.22,1.35-1.12,2.63-3.17,2.63c-2.52,0-3.42-1.83-3.42-4.11c0-2.25,1.16-4.1,3.49-4.1
				c2.16,0,2.98,1.38,3.06,2.62h-1.59c-0.16-0.66-0.43-1.31-1.52-1.31c-1.33,0-1.76,1.35-1.76,2.78c0,1.52,0.42,2.82,1.78,2.82
				c1.07,0,1.39-0.74,1.54-1.33H465.35z"/>
			<path class="st3" d="M467.78,133.23c0.11,0.73,0.59,1.2,1.44,1.2c0.91,0,1.23-0.4,1.23-0.96c0-0.73-0.44-1.02-1.59-1.35
				c-1.85-0.51-2.48-1.18-2.48-2.33c0-1.48,1.19-2.29,2.71-2.29c1.92,0,2.73,1,2.82,2.28h-1.6c-0.1-0.59-0.39-1.04-1.24-1.04
				c-0.72,0-1.07,0.33-1.07,0.89c0,0.6,0.4,0.76,1.53,1.09c2.04,0.6,2.57,1.41,2.57,2.56c0,1.3-0.86,2.41-2.96,2.41
				c-1.74,0-2.88-0.88-2.97-2.46H467.78z"/>
			<path class="st3" d="M474.51,133.23c0.11,0.73,0.59,1.2,1.44,1.2c0.91,0,1.23-0.4,1.23-0.96c0-0.73-0.44-1.02-1.59-1.35
				c-1.85-0.51-2.48-1.18-2.48-2.33c0-1.48,1.19-2.29,2.71-2.29c1.92,0,2.73,1,2.82,2.28h-1.6c-0.1-0.59-0.39-1.04-1.24-1.04
				c-0.72,0-1.07,0.33-1.07,0.89c0,0.6,0.4,0.76,1.53,1.09c2.04,0.6,2.57,1.41,2.57,2.56c0,1.3-0.87,2.41-2.96,2.41
				c-1.74,0-2.88-0.88-2.97-2.46H474.51z"/>
		</g>
	</g>
	<g>
		<path class="st1" d="M293.5,201.52c0,6.34-5.19,11.53-11.53,11.53h-20.16c-6.34,0-11.53-5.19-11.53-11.53v-21.85
			c0-6.34,5.19-11.53,11.53-11.53h20.16c6.34,0,11.53,5.19,11.53,11.53V201.52z"/>
		<g>
			<g>
				<path class="st3" d="M270.32,193.44c0,1.88-0.44,3.14-2.71,3.14c-0.45,0-0.84-0.05-1.1-0.1v-1.69c0.19,0.02,0.44,0.05,0.72,0.05
					c0.91,0,1.04-0.42,1.04-1.3v-8.48h2.04V193.44z"/>
				<path class="st3" d="M273.59,193.24c0.1,0.94,0.48,1.77,1.52,1.77c1,0,1.37-0.63,1.37-1.47c0-0.93-0.46-1.48-1.9-2.16
					c-1.95-0.92-2.71-1.74-2.71-3.43c0-1.82,1.17-3.07,3.23-3.07c2.56,0,3.19,1.73,3.22,3.21h-1.99c-0.07-0.65-0.23-1.61-1.26-1.61
					c-0.81,0-1.17,0.52-1.17,1.29c0,0.82,0.36,1.2,1.7,1.82c2.04,0.94,2.95,1.86,2.95,3.76c0,1.78-1.11,3.26-3.51,3.26
					c-2.61,0-3.41-1.67-3.48-3.38H273.59z"/>
			</g>
		</g>
	</g>
	<g>
		<path class="st6" d="M517.76,363.69c0,5.94-4.86,10.8-10.8,10.8h-18.89c-5.94,0-10.8-4.86-10.8-10.8v-20.47
			c0-5.94,4.86-10.8,10.8-10.8h18.89c5.94,0,10.8,4.86,10.8,10.8V363.69z"/>
		<g>
			<g>
				<path class="st3" d="M493.07,355.81c-0.05,0.54-0.25,3.28-3.2,3.28c-3.03,0-3.37-2.66-3.37-5.52c0-3.45,1.01-5.48,3.49-5.48
					c2.82,0,3.04,2.42,3.08,3.27h-1.89c-0.03-0.36-0.05-1.66-1.23-1.66c-1.2,0-1.49,1.46-1.49,3.9c0,2.01,0.2,3.89,1.43,3.89
					c1.14,0,1.23-1.29,1.27-1.69H493.07z"/>
				<path class="st3" d="M498.46,351.4v2.85h2.73v1.42h-2.73v2.88h-1.43v-2.88h-2.75v-1.42h2.75v-2.85H498.46z"/>
				<path class="st3" d="M507.01,351.4v2.85h2.73v1.42h-2.73v2.88h-1.43v-2.88h-2.75v-1.42h2.75v-2.85H507.01z"/>
			</g>
		</g>
	</g>
	<g>
		<g>
			<path class="st1" d="M336.04,339.29h-75.8c-6.51,0-11.81-4.88-11.81-10.87c0-6,5.3-10.87,11.81-10.87h75.8
				c6.52,0,11.82,4.88,11.82,10.87C347.86,334.41,342.56,339.29,336.04,339.29z M260.24,318.54c-5.96,0-10.81,4.43-10.81,9.87
				c0,5.44,4.85,9.87,10.81,9.87h75.8c5.96,0,10.82-4.43,10.82-9.87c0-5.44-4.85-9.87-10.82-9.87H260.24z"/>
		</g>
		<path class="st1" d="M269.58,333.44l-2.67-2.67c-0.25-0.25-0.61-0.31-0.92-0.2l-1.17-1.17c1.52-1.79,1.44-4.49-0.25-6.18
			c-1.78-1.78-4.68-1.78-6.46,0c-1.78,1.78-1.78,4.68,0,6.46c1.69,1.69,4.39,1.77,6.18,0.25l1.17,1.17
			c-0.11,0.31-0.05,0.67,0.2,0.92l2.67,2.67c0.35,0.34,0.9,0.34,1.25,0C269.93,334.34,269.93,333.78,269.58,333.44z M263.64,328.75
			c-1.27,1.26-3.33,1.26-4.59,0c-1.27-1.27-1.27-3.33,0-4.59c1.27-1.27,3.33-1.27,4.59,0C264.91,325.42,264.91,327.48,263.64,328.75
			z"/>
	</g>
	<g>
		<path class="st11" d="M502.08,242.95c0,5-4.09,9.1-9.1,9.1h-15.91c-5,0-9.1-4.09-9.1-9.1v-17.23c0-5,4.09-9.1,9.1-9.1h15.91
			c5,0,9.1,4.09,9.1,9.1V242.95z"/>
		<path class="st3" d="M496.14,228.88c-6.7-1.36-11.1-6.13-11.1-6.13s-4.4,4.77-11.1,6.13c0,0-1.92,9.67,11.1,17.03
			C498.06,238.56,496.14,228.88,496.14,228.88z M482.96,237.01l1.03-3.68c-0.24-0.26-0.4-0.6-0.4-0.99c0-0.79,0.64-1.44,1.44-1.44
			c0.79,0,1.44,0.64,1.44,1.44c0,0.38-0.15,0.73-0.4,0.99l1.03,3.68H482.96z"/>
	</g>
	<g>
		<path class="st11" d="M371.42,116.91c-1.9,0-3.44,1.54-3.44,3.44c0,1.9,1.54,3.44,3.44,3.44c1.9,0,3.44-1.54,3.44-3.44
			C374.86,118.46,373.31,116.91,371.42,116.91z"/>
		<path class="st11" d="M362.53,115.09c-0.77,0.67,0.35,1.79,1.12,1.12c4.65-4.04,10.97-3.37,15.69,0.12
			c0.82,0.61,1.61-0.77,0.8-1.37C374.81,111.02,367.72,110.59,362.53,115.09z"/>
		<path class="st11" d="M357.4,110.98c-0.77,0.67,0.35,1.78,1.12,1.12c7.68-6.66,18.14-5.66,25.96,0.12
			c0.82,0.61,1.61-0.77,0.8-1.37C376.84,104.62,365.64,103.84,357.4,110.98z"/>
		<path class="st11" d="M389,106.49c-10.65-7.92-24.9-8.93-35.33,0.12c-0.77,0.67,0.35,1.79,1.12,1.12
			c9.86-8.56,23.37-7.35,33.41,0.12C389.02,108.47,389.81,107.09,389,106.49z"/>
	</g>
	<g>
		<polygon class="st1" points="498.99,192.33 495.24,192.33 495.24,188.58 493.24,188.58 493.24,192.33 489.49,192.33 
			489.49,194.33 493.24,194.33 493.24,198.08 495.24,198.08 495.24,194.33 498.99,194.33 		"/>
		<polygon class="st1" points="255.03,261.96 251.28,261.96 251.28,258.21 249.28,258.21 249.28,261.96 245.53,261.96 
			245.53,263.96 249.28,263.96 249.28,267.71 251.28,267.71 251.28,263.96 255.03,263.96 		"/>
		<polygon class="st1" points="255.03,104.9 251.28,104.9 251.28,101.15 249.28,101.15 249.28,104.9 245.53,104.9 245.53,106.9 
			249.28,106.9 249.28,110.65 251.28,110.65 251.28,106.9 255.03,106.9 		"/>
		<polygon class="st1" points="524.74,254.71 520.99,254.71 520.99,250.96 518.99,250.96 518.99,254.71 515.24,254.71 
			515.24,256.71 518.99,256.71 518.99,260.46 520.99,260.46 520.99,256.71 524.74,256.71 		"/>
	</g>
</g>
</svg>
