<?xml version="1.0" encoding="utf-8"?>
<!-- Generator: Adobe Illustrator 26.0.1, SVG Export Plug-In . SVG Version: 6.00 Build 0)  -->
<svg version="1.1" xmlns="http://www.w3.org/2000/svg" xmlns:xlink="http://www.w3.org/1999/xlink" x="0px" y="0px"
	 viewBox="0 0 750 500" style="enable-background:new 0 0 750 500;" xml:space="preserve">
<style type="text/css">
	.st0{display:none;}
	.st1{display:inline;fill:#F5F5F5;}
	.st2{opacity:0.5;}
	.st3{fill:#1F5493;}
	.st4{fill:#263238;}
	.st5{fill:#2688BF;}
	.st6{fill:#AE7461;}
	.st7{fill:#FFBE9D;}
	.st8{fill:#EB996E;}
	.st9{fill:#6F4439;}
	.st10{fill:#1F417B;}
	.st11{fill:#455A64;}
	.st12{fill:#2D6CA9;}
	.st13{opacity:0.3;}
	.st14{fill:#2A7EB7;}
	.st15{fill:#EBEBEB;}
	.st16{fill:#FFFFFF;}
	.st17{opacity:0.2;}
	.st18{fill:#E0E0E0;}
	.st19{opacity:0.36;}
	.st20{opacity:0.45;fill:#2A7EB7;}
</style>
<g id="Background_Complete">
</g>
<g id="Background_Simple" class="st0">
	<path class="st1" d="M550.4,60l-1.69,1.51c-14.22,12.73-20.61,32.13-15.97,50.47c0.6,2.36,1.36,4.67,2.3,6.92
		c6.76,16.2,22.26,28.5,39.73,31.53c10.28,1.79,21.53,0.72,30.42,6.09c11.58,6.99,14.69,21.93,16.74,35.2
		c2.05,13.27,5.2,28.22,16.81,35.15c7.27,4.34,16.47,4.44,24.75,2.43c21.91-5.31,38.82-24.42,45-45.87
		c6.18-21.45,2.75-44.7-5.58-65.36c-11.67-28.94-33.65-54.42-62.57-66.81C611.42,38.88,575.58,41.07,550.4,60z"/>
	<circle class="st1" cx="151.9" cy="119.16" r="64.73"/>
</g>
<g id="Puzzle">
	<g class="st2">
		<g>
			<path class="st3" d="M358.79,297.56c5.57-0.39,10.38,1.12,15.04,3.29c2.08,0.97,4.53,1.67,6.82,1.67l6.09-0.14l0.07-67.71
				c0-6.39-5.22-11.58-11.65-11.58l-64.36,0.24v-1.39c0-2.72,0.7-5.38,1.89-7.82c3.12-6.42,4.4-13.88,3.06-21.75
				c-2.67-15.62-15.71-27.8-31.56-29.53c-21.8-2.37-40.25,14.54-40.25,35.73c0,5.15,1.1,10.04,3.07,14.47
				c1.02,2.29,1.61,4.75,1.61,7.25l0.38,3.04h-3.9h-73.67c-6.43,0-11.65,5.18-11.65,11.58v66.2h-5.53c-2.57,0-5.09-0.66-7.4-1.79
				c-6.07-2.95-13.51-4.17-20.96-2.89c-14.78,2.53-26.31,14.87-27.94,29.86c-2.24,20.63,13.75,38.09,33.81,38.09
				c4.87,0,9.5-1.04,13.69-2.91c2.17-0.96,4.49-1.52,6.86-1.52h7.1l0.14,80.98c0,5.21,4.25,9.43,9.49,9.43h207.61
				c5.24,0,9.34-6.58,9.34-11.78v-73.6h-8.4c-1.94,0-3.86,0.38-5.66,1.11c-3.62,1.45-7.57,2.27-11.71,2.27
				c-17.8,0-32.14-14.69-31.43-32.54C329.4,320.09,342.99,298.66,358.79,297.56z"/>
			<g>
				<path class="st4" d="M358.79,297.56c0,0-0.18,0.03-0.55,0.07c-0.36,0.05-0.91,0.09-1.63,0.25c-1.43,0.27-3.55,0.85-6.09,2.17
					c-5.07,2.58-11.71,8.49-16.72,18.35c-2.43,4.91-4.63,10.81-4.92,17.57c-0.09,3.37,0.35,6.9,1.43,10.41
					c1.09,3.5,2.86,6.95,5.33,10.05c2.47,3.1,5.63,5.84,9.36,7.89c3.72,2.05,8,3.39,12.51,3.76c4.51,0.44,9.25-0.2,13.74-1.89
					c2.21-0.97,4.71-1.47,7.2-1.36c2.48,0,4.99,0,7.53,0l0.16,0v0.16c0.01,11.64,0.01,24.02,0.02,37.08c0,6.53,0.01,13.23,0.01,20.1
					c0,3.43,0,6.91,0,10.42c0,1.76,0,3.52,0,5.3c0.02,0.88-0.04,1.81-0.18,2.7c-0.18,0.89-0.4,1.77-0.74,2.62
					c-0.65,1.7-1.61,3.3-2.89,4.63c-1.25,1.34-2.93,2.39-4.81,2.68c-0.96,0.11-1.86,0.06-2.79,0.07c-0.92,0-1.85,0-2.77,0
					c-1.85,0-3.72,0-5.59,0c-7.49,0-15.14,0.01-22.93,0.01c-15.58,0-31.74,0.01-48.42,0.01c-33.36,0.01-68.81,0.01-105.93,0.02
					c-4.64,0-9.31,0-14,0c-2.36-0.02-4.67,0.05-7.08-0.05c-2.41-0.24-4.72-1.41-6.33-3.24c-1.63-1.81-2.49-4.28-2.43-6.71
					c0-2.38-0.01-4.77-0.01-7.17c-0.01-4.79-0.02-9.6-0.03-14.44c-0.04-19.34-0.07-39.04-0.11-59.06l0.26,0.26
					c-1.47,0-2.95,0-4.43,0c-1.48,0.02-2.97-0.07-4.42,0.1c-1.46,0.17-2.89,0.55-4.27,1.09c-1.36,0.58-2.77,1.19-4.22,1.63
					c-5.79,1.87-12.15,2.1-18.18,0.67c-6-1.49-11.74-4.51-16.15-9.01c-2.3-2.16-4.12-4.77-5.75-7.47c-0.7-1.41-1.52-2.78-2.02-4.29
					c-0.27-0.74-0.61-1.47-0.83-2.23l-0.63-2.3c-1.82-7.55-1.14-15.68,2.11-22.68c3.19-7.02,8.81-12.83,15.59-16.31
					c3.39-1.75,7.07-2.87,10.82-3.42c3.75-0.51,7.58-0.42,11.28,0.26c1.85,0.34,3.67,0.84,5.44,1.47c0.88,0.32,1.75,0.67,2.6,1.07
					c0.86,0.4,1.66,0.79,2.54,1.09c3.45,1.36,7.22,0.86,10.91,0.96l-0.26,0.26c0-14.32,0-28.46,0-42.41c0-6.97,0-13.9,0-20.77
					c0.03-1.71-0.11-3.44,0.21-5.18c0.3-1.72,1.02-3.36,2.05-4.77c2.04-2.83,5.35-4.68,8.81-4.88c27.06-0.01,53.25-0.02,78.4-0.03
					l-0.23,0.26c-0.13-1.04-0.26-2.04-0.38-3.04l0-0.01l0-0.01c0-1.86-0.33-3.71-0.93-5.47c-0.29-0.88-0.68-1.72-1.05-2.59
					c-0.36-0.87-0.68-1.75-0.97-2.65c-1.16-3.57-1.73-7.3-1.73-11l0.15-2.77c0.03-0.46,0.03-0.92,0.1-1.38l0.22-1.36
					c0.17-0.9,0.25-1.82,0.49-2.71l0.73-2.65c0.11-0.45,0.27-0.87,0.44-1.29l0.5-1.27c0.33-0.85,0.65-1.7,1.1-2.49l1.26-2.4
					l1.49-2.26c2.09-2.92,4.5-5.63,7.34-7.76l1.03-0.84l1.11-0.73c0.74-0.48,1.47-0.98,2.23-1.43c1.58-0.78,3.09-1.69,4.76-2.25
					c3.23-1.36,6.67-2.04,10.08-2.42c1.72-0.07,3.43-0.26,5.14-0.08c0.85,0.06,1.71,0.07,2.55,0.16c0.84,0.13,1.68,0.25,2.52,0.38
					c6.65,1.3,12.83,4.4,17.66,8.83c4.83,4.42,8.45,10.02,10.25,16.09c1.89,6.04,2.05,12.45,0.74,18.39
					c-0.66,2.97-1.73,5.82-3.04,8.48c-0.6,1.34-1.05,2.74-1.31,4.17c-0.28,1.43-0.29,2.87-0.27,4.33l-0.19-0.19
					c17.46-0.06,33.81-0.11,48.96-0.16c3.79-0.01,7.5-0.02,11.14-0.03c0.91,0,1.81-0.01,2.71-0.01c0.9-0.01,1.79-0.01,2.7,0.05
					c1.8,0.17,3.52,0.77,5.03,1.69c3.04,1.82,5.05,5.02,5.49,8.36c0.21,1.68,0.09,3.32,0.12,4.94c0,1.62-0.01,3.22-0.01,4.81
					c-0.05,25.31-0.09,45.43-0.12,59.58l0,0.08l-0.07,0c-2.45,0.03-4.74,0.15-6.87,0.1c-2.14-0.15-4.05-0.77-5.7-1.49
					c-3.26-1.55-6.1-2.51-8.41-2.98c-2.32-0.48-4.08-0.56-5.23-0.56c-0.58-0.01-1.01,0.01-1.3,0.02
					C358.93,297.56,358.79,297.56,358.79,297.56s0.57-0.07,1.73-0.08c1.16-0.01,2.93,0.06,5.25,0.53c2.32,0.46,5.17,1.42,8.45,2.95
					c1.65,0.72,3.55,1.32,5.66,1.46c2.12,0.04,4.41-0.08,6.86-0.12l-0.07,0.08c0-14.15,0-34.27,0-59.58c0-1.58,0-3.18,0-4.81
					c-0.03-1.62,0.08-3.28-0.12-4.9c-0.44-3.25-2.4-6.37-5.36-8.14c-1.47-0.89-3.15-1.48-4.9-1.64c-0.87-0.06-1.77-0.06-2.67-0.05
					c-0.9,0-1.8,0.01-2.71,0.01c-3.64,0.02-7.35,0.03-11.14,0.05c-15.15,0.06-31.51,0.13-48.96,0.21l-0.18,0l0-0.19
					c-0.01-1.44-0.01-2.94,0.28-4.4c0.27-1.46,0.72-2.89,1.33-4.26c1.31-2.66,2.35-5.46,3.01-8.41c1.3-5.87,1.14-12.22-0.74-18.19
					c-1.79-6-5.37-11.54-10.15-15.9c-4.78-4.38-10.89-7.43-17.46-8.72c-0.83-0.12-1.66-0.25-2.49-0.38
					c-0.83-0.09-1.68-0.1-2.52-0.16c-1.69-0.17-3.38,0.01-5.08,0.08c-3.37,0.38-6.77,1.04-9.96,2.39c-1.64,0.55-3.14,1.45-4.7,2.22
					c-0.75,0.44-1.46,0.94-2.2,1.41l-1.09,0.72l-1.02,0.83c-2.81,2.11-5.18,4.79-7.25,7.67l-1.47,2.23l-1.24,2.38
					c-0.45,0.78-0.76,1.62-1.09,2.46l-0.5,1.25c-0.17,0.42-0.33,0.84-0.44,1.28l-0.72,2.61c-0.24,0.87-0.32,1.78-0.49,2.67
					l-0.22,1.35c-0.07,0.45-0.06,0.91-0.09,1.36l-0.15,2.73c0,3.66,0.57,7.34,1.71,10.86c0.29,0.88,0.61,1.75,0.96,2.61
					c0.36,0.85,0.76,1.72,1.06,2.62c0.61,1.8,0.96,3.7,0.96,5.62l0-0.03c0.13,1,0.25,2,0.38,3.04l0.03,0.26l-0.27,0
					c-25.14,0.02-51.32,0.04-78.37,0.05c-3.31,0.19-6.49,1.96-8.44,4.67c-0.99,1.34-1.67,2.91-1.96,4.56
					c-0.3,1.64-0.16,3.37-0.2,5.09c0,6.87,0,13.79,0,20.77c0,13.94,0,28.09,0,42.41v0.26l-0.26,0c-1.84,0-3.69,0-5.54,0
					c-1.88,0-3.76-0.36-5.54-0.99c-0.89-0.3-1.75-0.73-2.58-1.11c-0.84-0.39-1.69-0.73-2.56-1.05c-1.74-0.63-3.53-1.11-5.36-1.45
					c-3.65-0.67-7.42-0.76-11.11-0.26c-3.69,0.55-7.31,1.65-10.65,3.37c-6.68,3.42-12.21,9.15-15.36,16.06
					c-3.2,6.89-3.86,14.91-2.07,22.34l0.62,2.26c0.22,0.75,0.55,1.46,0.82,2.19c0.5,1.48,1.3,2.83,1.99,4.22
					c1.61,2.66,3.4,5.23,5.66,7.36c4.34,4.43,9.99,7.41,15.9,8.87c5.94,1.41,12.21,1.19,17.9-0.65c1.44-0.44,2.79-1.03,4.19-1.62
					c1.41-0.56,2.89-0.95,4.4-1.12c1.52-0.17,3.01-0.08,4.48-0.11c1.48,0,2.96,0,4.43,0h0.26l0,0.26
					c0.03,20.01,0.07,39.72,0.1,59.06c0.01,4.83,0.02,9.65,0.02,14.44c0,2.39,0.01,4.78,0.01,7.17c-0.06,2.34,0.76,4.65,2.31,6.38
					c1.52,1.74,3.71,2.85,6,3.08c2.31,0.09,4.7,0.03,7.03,0.05c4.69,0,9.36,0,14,0c37.12,0.01,72.57,0.01,105.93,0.02
					c16.68,0,32.84,0.01,48.42,0.01c7.79,0,15.44,0.01,22.93,0.01c1.87,0,3.74,0,5.59,0c0.93,0,1.85,0,2.77,0
					c0.92-0.01,1.86,0.03,2.73-0.07c1.76-0.27,3.36-1.26,4.58-2.56c1.24-1.29,2.18-2.84,2.81-4.5c0.34-0.82,0.55-1.68,0.73-2.54
					c0.14-0.87,0.2-1.73,0.18-2.63c0-1.78,0-3.54,0-5.3c0-3.51,0-6.99,0-10.42c0-6.86,0.01-13.57,0.01-20.1
					c0.01-13.06,0.01-25.44,0.02-37.08l0.16,0.16c-2.54,0-5.06,0-7.53,0c-2.48-0.1-4.88,0.37-7.09,1.33
					c-4.53,1.7-9.32,2.34-13.87,1.89c-4.55-0.38-8.87-1.74-12.62-3.81c-3.75-2.07-6.94-4.84-9.42-7.97
					c-2.49-3.13-4.27-6.61-5.35-10.14c-1.09-3.53-1.52-7.09-1.42-10.48c0.31-6.81,2.53-12.73,4.98-17.64
					c5.04-9.88,11.73-15.78,16.83-18.35c2.56-1.31,4.69-1.88,6.12-2.13c0.72-0.15,1.27-0.18,1.63-0.22
					C358.6,297.57,358.79,297.56,358.79,297.56z"/>
			</g>
		</g>
		<g>
			<path class="st5" d="M630.76,300.33c-5.03,0-9.81,1.08-14.13,3c-1.52,0.67-3.1,1.15-4.73,1.39v-71.17c0-5.24-4.25-9.49-9.49-9.49
				h-74.06v8.4c0,1.94,0.39,3.86,1.11,5.66c1.46,3.62,2.28,7.57,2.28,11.71c0,17.8-14.78,32.14-32.74,31.43
				c-15.82-0.63-28.99-13.42-30.09-29.21c-0.39-5.57,0.7-10.83,2.88-15.48c0.98-2.08,1.54-4.32,1.54-6.62v-5.89l-75.03-0.24
				c-6.43,0-11.65,5.22-11.65,11.65l-0.07,66.01h-5.12c-0.58,0-1.17-0.02-1.76-0.06c-6.33-4.62-14.13-7.36-22.57-7.36
				c-21.17,0-38.33,17.16-38.33,38.33c0,21.17,17.16,38.33,38.33,38.33c6.92,0,13.41-1.85,19.02-5.06c1.02-0.22,2.06-0.34,3.11-0.34
				h6.56v73.67c0,6.43,5.22,11.65,11.65,11.65h204.92c5.24,0,9.49-4.25,9.49-9.49v-75.01c1.26,0.32,2.49,0.77,3.67,1.35
				c6.27,3.05,13.56,4.3,21.25,2.99c15.26-2.61,27.17-15.35,28.85-30.83C667.98,318.36,651.46,300.33,630.76,300.33z"/>
			<g>
				<path class="st4" d="M630.76,300.33c0,0,0.75,0.03,2.23,0.1c0.74,0.04,1.66,0.04,2.74,0.26c0.54,0.09,1.13,0.18,1.76,0.28
					c0.64,0.07,1.29,0.25,1.99,0.45c0.7,0.19,1.44,0.4,2.22,0.61c0.77,0.26,1.56,0.6,2.4,0.92c0.42,0.17,0.85,0.32,1.28,0.51
					c0.42,0.22,0.84,0.44,1.28,0.67c0.86,0.47,1.81,0.88,2.68,1.51c3.62,2.24,7.44,5.57,10.56,10.21
					c3.08,4.62,5.61,10.58,5.97,17.46c0.04,0.86,0.11,1.72,0.12,2.6c-0.05,0.87-0.1,1.76-0.14,2.65c-0.03,0.45-0.03,0.9-0.1,1.35
					c-0.07,0.45-0.13,0.9-0.2,1.35c-0.07,0.45-0.14,0.91-0.21,1.36c-0.11,0.45-0.21,0.9-0.32,1.36c-0.86,3.63-2.34,7.27-4.49,10.68
					c-2.15,3.4-4.95,6.6-8.38,9.24c-3.43,2.63-7.47,4.71-11.91,5.97c-1.1,0.34-2.26,0.51-3.39,0.78c-1.16,0.18-2.32,0.35-3.51,0.42
					c-2.37,0.18-4.79,0.12-7.21-0.21c-2.42-0.31-4.84-0.92-7.21-1.76c-2.39-0.81-4.56-2.21-7.05-2.77l0.2-0.16
					c0.01,11.52,0.01,23.75,0.02,36.64c0,6.44,0.01,13.05,0.01,19.82c0,3.38,0,6.81,0,10.27c0,1.73,0,3.47,0,5.22
					c0,0.88,0,1.75,0,2.63c0.01,0.44-0.03,0.89-0.05,1.34c-0.07,0.44-0.1,0.9-0.23,1.33c-0.79,3.54-3.79,6.52-7.44,7.24
					c-0.9,0.17-1.85,0.22-2.75,0.2c-0.91,0-1.82,0-2.73,0c-1.83,0-3.66,0-5.5,0c-7.38,0-14.9,0-22.56,0.01
					c-15.32,0-31.2,0.01-47.59,0.01c-32.77,0.01-67.57,0.01-104,0.02c-4.55,0-9.13,0-13.73,0c-2.3,0-4.61,0-6.92,0
					c-1.15,0.01-2.35-0.02-3.51-0.24c-1.16-0.26-2.28-0.67-3.33-1.23c-2.07-1.16-3.82-2.92-4.89-5.06
					c-0.56-1.06-0.91-2.22-1.11-3.39c-0.23-1.18-0.17-2.39-0.18-3.55c0-4.7,0-9.42,0-14.16c0-18.97,0-38.3,0-57.93l0.26,0.26
					c-1.52,0-3.11,0-4.73,0c-0.81,0.01-1.65-0.01-2.45,0.01c-0.81,0.04-1.63,0.15-2.43,0.32l0.07-0.03
					c-4.7,2.69-10.05,4.43-15.59,4.93c-5.54,0.47-11.25-0.2-16.59-2.14c-5.33-1.92-10.3-5.03-14.36-9.11
					c-4.03-4.11-7.17-9.14-9.07-14.63c-1.32-3.94-2.07-8.07-2.11-12.21c0.01-4.14,0.63-8.26,1.86-12.19
					c1.24-3.93,3.21-7.6,5.61-10.91c1.17-1.69,2.58-3.17,3.98-4.66l2.27-2.06c0.76-0.67,1.62-1.24,2.42-1.86
					c3.32-2.35,6.98-4.21,10.83-5.46c3.88-1.18,7.91-1.74,11.93-1.78c8.05,0.03,16,2.7,22.4,7.4l-0.13-0.05
					c2.27,0.11,4.58,0.03,6.85,0.06l-0.26,0.26c0.02-14.1,0.03-28.03,0.05-41.75c0.01-6.86,0.02-13.67,0.02-20.44l0-2.53
					c-0.01-0.84,0-1.69,0.07-2.55c0.18-1.71,0.75-3.37,1.63-4.84c1.75-2.95,4.81-5.07,8.17-5.61c1.69-0.29,3.36-0.15,5.01-0.17
					c1.66,0.01,3.31,0.01,4.96,0.02c3.3,0.01,6.58,0.02,9.85,0.03c6.54,0.02,13.02,0.04,19.44,0.07
					c12.84,0.04,25.45,0.09,37.79,0.13l0.23,0v0.23c0,1.77,0,3.53,0,5.28c0.05,1.77-0.2,3.57-0.74,5.25
					c-0.26,0.84-0.62,1.66-0.98,2.45c-0.36,0.78-0.68,1.59-0.97,2.4c-0.57,1.62-1.03,3.28-1.32,4.97
					c-1.23,6.74-0.06,13.76,3.02,19.65c1.54,2.95,3.5,5.66,5.86,7.96c2.35,2.3,5.03,4.21,7.91,5.68c5.75,3.02,12.37,3.91,18.58,3.02
					c6.22-0.92,12.01-3.75,16.48-7.87c2.2-2.09,4.22-4.38,5.69-6.99c1.52-2.57,2.74-5.31,3.42-8.17c1.53-5.68,1.33-11.68-0.37-17.09
					c-0.39-1.36-1.02-2.63-1.41-4.02c-0.39-1.38-0.58-2.8-0.57-4.21c0-2.8,0-5.57,0-8.31v-0.19l0.19,0
					c19.47,0.01,37.58,0.02,54.2,0.03c4.15,0,8.21,0,12.18,0.01c1.98,0,3.94,0,5.88,0c0.97,0.01,1.93-0.02,2.9,0.07
					c0.97,0.11,1.9,0.38,2.78,0.75c1.75,0.78,3.24,2.07,4.24,3.64c1.01,1.57,1.5,3.42,1.51,5.23c0,3.58-0.01,7.06-0.01,10.43
					c-0.03,27.02-0.05,47.57-0.07,60.68l-0.07-0.06c3.33-0.43,5.85-2.06,8.22-2.71c2.34-0.75,4.34-1.12,5.93-1.33
					c1.59-0.21,2.78-0.27,3.56-0.28C630.38,300.32,630.76,300.33,630.76,300.33s-0.38,0.01-1.17,0.04c-0.78,0.03-1.97,0.1-3.55,0.32
					c-1.58,0.23-3.57,0.6-5.91,1.36c-2.36,0.65-4.87,2.29-8.23,2.74l-0.07,0.01l0-0.07c-0.01-13.1-0.04-33.66-0.07-60.68
					c0-3.38-0.01-6.86-0.01-10.43c-0.01-1.76-0.49-3.55-1.47-5.08c-0.97-1.53-2.42-2.78-4.11-3.53c-0.85-0.36-1.76-0.62-2.7-0.73
					c-0.93-0.09-1.9-0.06-2.87-0.06c-1.93,0-3.89,0-5.88,0c-3.97,0-8.03,0-12.18,0.01c-16.62,0.01-34.72,0.02-54.2,0.03l0.19-0.19
					c0,2.74,0,5.51,0,8.31c-0.01,1.38,0.18,2.77,0.56,4.11c0.37,1.33,1.01,2.63,1.41,4.01c1.72,5.47,1.93,11.55,0.39,17.3
					c-0.69,2.9-1.92,5.68-3.46,8.28c-1.5,2.64-3.54,4.96-5.76,7.08c-4.53,4.18-10.4,7.05-16.7,7.99c-6.29,0.91-13,0.01-18.84-3.05
					c-2.92-1.49-5.64-3.43-8.02-5.76c-2.39-2.32-4.38-5.07-5.94-8.07c-3.13-5.98-4.32-13.1-3.07-19.94c0.3-1.71,0.76-3.4,1.34-5.04
					c0.3-0.82,0.62-1.64,0.99-2.43c0.37-0.79,0.7-1.57,0.96-2.4c0.53-1.64,0.77-3.36,0.72-5.1c0-1.76,0-3.52,0-5.28l0.23,0.23
					c-12.34-0.04-24.94-0.07-37.79-0.11c-6.42-0.02-12.9-0.04-19.44-0.06c-3.27-0.01-6.55-0.02-9.85-0.03
					c-1.65,0-3.3-0.01-4.96-0.01c-1.66,0.02-3.33-0.11-4.93,0.17c-3.22,0.52-6.16,2.55-7.83,5.38c-0.85,1.41-1.38,3-1.56,4.64
					c-0.06,0.82-0.08,1.65-0.07,2.5l0,2.53c-0.01,6.76-0.01,13.57-0.02,20.44c-0.01,13.72-0.03,27.65-0.04,41.75l0,0.26l-0.26,0
					c-2.29-0.02-4.55,0.06-6.89-0.06l-0.07,0l-0.06-0.05c-6.32-4.64-14.16-7.27-22.11-7.3c-3.97,0.04-7.94,0.59-11.77,1.76
					c-3.81,1.22-7.41,3.06-10.69,5.38c-0.79,0.62-1.64,1.17-2.39,1.84l-2.24,2.03c-1.38,1.47-2.77,2.93-3.92,4.6
					c-2.36,3.27-4.3,6.88-5.53,10.76c-1.22,3.88-1.82,7.94-1.83,12.03c0.03,4.09,0.78,8.16,2.08,12.05
					c1.87,5.42,4.97,10.37,8.95,14.43c4.01,4.03,8.91,7.1,14.17,8.99c5.26,1.91,10.9,2.57,16.36,2.11
					c5.47-0.49,10.74-2.21,15.38-4.86l0.04-0.02l0.04-0.01c0.83-0.18,1.67-0.29,2.51-0.33c0.85-0.03,1.66-0.01,2.48-0.01
					c1.63,0,3.22,0,4.73,0l0.26,0v0.26c0,19.63,0,38.96,0,57.93c0,4.74,0,9.46,0,14.16c0.01,1.18-0.05,2.34,0.17,3.47
					c0.2,1.13,0.53,2.24,1.06,3.25c1.02,2.05,2.69,3.74,4.68,4.85c1,0.54,2.08,0.93,3.19,1.18c1.12,0.21,2.24,0.25,3.41,0.23
					c2.31,0,4.62,0,6.92,0c4.6,0,9.18,0,13.73,0c36.42,0.01,71.22,0.01,104,0.02c16.39,0,32.27,0.01,47.59,0.01
					c7.66,0,15.18,0.01,22.56,0.01c1.84,0,3.68,0,5.5,0c0.91,0,1.82,0,2.73,0c0.92,0.02,1.79-0.03,2.66-0.19
					c3.49-0.69,6.37-3.54,7.14-6.94c0.21-0.85,0.27-1.7,0.26-2.58c0-0.88,0-1.76,0-2.63c0-1.75,0-3.49,0-5.22c0-3.46,0-6.89,0-10.27
					c0-6.77,0.01-13.38,0.01-19.82c0.01-12.89,0.01-25.12,0.02-36.64l0-0.2l0.2,0.05c2.55,0.59,4.73,2,7.08,2.79
					c2.34,0.84,4.74,1.44,7.14,1.76c2.4,0.33,4.8,0.39,7.15,0.22c1.18-0.07,2.33-0.24,3.48-0.41c1.13-0.26,2.27-0.44,3.37-0.77
					c4.4-1.24,8.41-3.3,11.82-5.91c3.41-2.61,6.19-5.78,8.33-9.16c2.14-3.38,3.62-7,4.48-10.6c0.11-0.45,0.21-0.9,0.32-1.35
					c0.07-0.45,0.14-0.9,0.21-1.35c0.07-0.45,0.14-0.9,0.2-1.34c0.07-0.44,0.06-0.89,0.1-1.34c0.05-0.89,0.1-1.77,0.15-2.64
					c0-0.87-0.08-1.73-0.11-2.58c-0.34-6.83-2.84-12.77-5.9-17.37c-3.09-4.63-6.88-7.95-10.48-10.2c-0.86-0.63-1.81-1.04-2.67-1.51
					c-0.43-0.23-0.86-0.45-1.27-0.67c-0.43-0.19-0.86-0.35-1.27-0.52c-0.84-0.32-1.62-0.66-2.38-0.93
					c-0.78-0.22-1.52-0.42-2.22-0.62c-0.69-0.2-1.35-0.38-1.98-0.46c-0.63-0.1-1.21-0.2-1.75-0.29c-1.08-0.22-2-0.24-2.73-0.28
					C631.51,300.39,630.76,300.33,630.76,300.33z"/>
			</g>
		</g>
	</g>
</g>
<g id="Characters">
	<g>
		<path class="st6" d="M381.04,313.46c0,0,3.36-1.73,6.33-1.08c2.97,0.65,13.75,7.68,13.75,7.68l8.69-1.62l5.12,24.53l-33.9,14.09
			V313.46z"/>
		<path class="st7" d="M355.97,322.02c0,0,7.77-0.98,10.58-2.39c2.81-1.41,9.52-7.36,10.93-7.25c1.41,0.11,6.49,1.08,6.49,1.08
			l-2.06,6.17c0,0,10.17,6.17,13.2,8.44c3.03,2.27,12.55,12.44,12.98,14.93c0.43,2.49-0.32,5.41-1.51,6.38
			c-1.19,0.97-5.52-0.97-5.52-0.97s0.65,2.27-0.97,4.44c-1.62,2.16-5.41,1.41-5.41,1.41s-0.32,3.57-2.06,4.22
			c-1.73,0.65-5.63-1.3-5.63-1.3s-1.18,3.03-2.59,3.35c-1.41,0.32-5.42-2.06-5.42-2.06s-17.31-12.44-21.2-14.28
			s-5.08-1.95-5.08-1.95L355.97,322.02z"/>
		<g>
			<path class="st8" d="M386.99,357.17c-0.08,0-0.13-0.31-0.31-0.76c-0.18-0.46-0.49-1.07-0.87-1.73c-0.77-1.32-1.46-2.38-1.34-2.47
				c0.11-0.08,0.99,0.84,1.79,2.21c0.4,0.68,0.67,1.36,0.77,1.89C387.14,356.84,387.06,357.18,386.99,357.17z"/>
		</g>
		<g>
			<path class="st8" d="M394.19,355.07c-0.14,0.07-0.99-1.48-2.18-3.27c-1.18-1.8-2.45-3-2.36-3.12c0.08-0.12,1.57,0.97,2.79,2.82
				C393.66,353.34,394.3,355.01,394.19,355.07z"/>
		</g>
		<g>
			<path class="st8" d="M401.13,348.82c-0.15,0.04-0.64-1.83-1.83-3.85c-1.18-2.03-2.57-3.37-2.47-3.48
				c0.07-0.11,1.69,1.1,2.91,3.22C400.99,346.81,401.26,348.81,401.13,348.82z"/>
		</g>
		<g>
			<path class="st8" d="M396.06,335.32c0.14-0.03,0.51,1.26,0.58,2.9c0.08,1.64-0.18,2.96-0.32,2.94c-0.15-0.01-0.13-1.32-0.2-2.92
				C396.05,336.65,395.92,335.35,396.06,335.32z"/>
		</g>
		<path class="st6" d="M370.88,325.58c0,0,2.7-8.65,3.68-9.74c0.97-1.08,10.02-3.46,10.02-3.46l2.8,7.25l-2.01,2.12l-4.33-0.28
			C381.04,321.47,378.34,328.61,370.88,325.58z"/>
		<path class="st6" d="M354.28,342.7c0,0-1.24,0.95,0,3.22c1.24,2.27,4.59,0.65,5.67,0c0,0-1.62,3.79,0.43,4.98
			c2.06,1.19,4.54,0.87,4.54,0.87s-0.11,2.27,2.81,3.79c2.92,1.51,3.68,0,3.68,0s0.32,3.79,3.68,4.11c3.35,0.32,4.53-0.83,4.53-0.83
			l-1.51-2.24c0,0,1.95-3.97,0.43-5.7c-1.51-1.73-4-1.51-4-1.51s0.66-3.52-1.27-4.49c-3.58-1.82-5.12,1.57-5.12,1.57
			s-0.22-3.85-3.03-3.77c-2.81,0.09-4.33,1.82-4.33,1.82L354.28,342.7z"/>
		<g>
			<path class="st9" d="M368.17,346.46c0.13,0.06-0.4,1.38-1.29,2.88c-0.88,1.51-1.78,2.61-1.9,2.53c-0.12-0.08,0.57-1.3,1.45-2.79
				C367.31,347.59,368.04,346.39,368.17,346.46z"/>
		</g>
		<g>
			<path class="st9" d="M374.62,349.87c0.13,0.06-0.43,1.47-1.47,2.99c-1.04,1.53-2.15,2.56-2.25,2.46
				c-0.11-0.1,0.81-1.26,1.83-2.75C373.74,351.08,374.49,349.8,374.62,349.87z"/>
		</g>
	</g>
	<g>
		<g>
			<g>
				<path class="st10" d="M307.61,390.69H291.2l-4.2,59.67h16.45c2.8-9.09,9.8-56.45,9.8-56.45L307.61,390.69z"/>
			</g>
			<path class="st10" d="M214.68,390.69c0,0-10.5,24.63-9.45,34.6c1.05,9.97,6.95,25.08,6.95,25.08h81.27c0,0,2.27-8.33,4.02-20.64
				c1.75-12.31,6.48-39.04,6.48-39.04H214.68z"/>
		</g>
		<g>
			<g>
				<g>
					<path class="st4" d="M322.08,153.03c-2.74-3.46-6.14-6.8-6.84-11.16c-0.65-4.01,1.11-8.4-0.69-12.05
						c-2.21-4.48-8.57-5.36-11.33-9.53c-1.34-2.02-1.65-4.58-2.97-6.61c-2.25-3.46-6.86-4.57-10.98-4.34
						c-4.12,0.24-8.14,1.52-12.26,1.6c-5.66,0.12-11.39-2-16.88-0.65c-6.06,1.5-9.97,6.6-14.11,11.53l-5.36,5.69
						c-1.1,0.96-2.25,1.85-3.51,2.57c-2.2,1.28-4.68,2.11-6.6,3.78c-4.1,3.57-4.13,10.82-0.04,14.41c-4.41,1.17-7.75,5.56-7.7,10.12
						c0.02,2.51,0.95,4.91,1.58,7.34c0.63,2.43,0.96,5.12-0.16,7.37c-1.11,2.25-4.13,3.69-6.25,2.35c0.61,3.28,2.8,6.23,5.76,7.78
						c-1.24,1.15-2.92,1.81-4.61,1.79c4.06,10.96,16.23,17.21,27.9,17.83c11.67,0.62,23.06-3.28,34.1-7.12l31.83-6.68
						c2.79-0.5,4.1-3.8,4.19-6.64c0.09-2.83-0.48-5.81,0.65-8.41c1.56-3.56,5.87-5.29,7.49-8.82
						C327.12,161.18,324.82,156.49,322.08,153.03z"/>
				</g>
			</g>
			<g>
				<g>
					<g>
						<g>
							<g>
								<g>
									<g>
										<g>
											<g>
												<g>
													<path class="st4" d="M246.34,178.17c-1.94-7.21-3.85-14.48-4.52-21.91c-0.67-7.44-0.05-15.12,2.91-21.98
														c0.45-1.04,4.17-7.98,5.29-7.81c0.8,0.12-1.61,6.65-1.24,7.37c3.54,6.86,4.18,14.93,3.16,22.59
														C250.93,164.08,248.97,170.92,246.34,178.17"/>
												</g>
											</g>
										</g>
									</g>
								</g>
							</g>
							<g>
								<path class="st7" d="M247.07,149.68c0.36-18.73,11.55-34.13,30.26-33.26l1.72,0.18c17.35,1.83,30.4,16.67,29.97,34.12
									c-0.4,16.23-1.05,34.16-2.06,42.78c-2.1,17.85-20.27,18.74-20.27,18.74c-0.04,0-0.49,29.49-0.49,29.49l-42.54-29.48
									L247.07,149.68z"/>
							</g>
							<g>
								<g>
									<g>
										<g>
											<g>
												<g>
													<g>
														<g>
															<path class="st8" d="M286.68,212.25c0,0-11.34-0.53-22.55-9.33c0,0,4.19,15.11,22.19,15.38L286.68,212.25z"/>
														</g>
													</g>
												</g>
											</g>
										</g>
									</g>
								</g>
							</g>
							<g>
								<g>
									<g>
										<g>
											<g>
												<g>
													<g>
														<g>
															<g>
																<g>
																	<g>
																		<g>
																			<g>
																				<g>
																					<path class="st4" d="M302.83,164.58c-0.09,1.35-1.32,2.39-2.73,2.32c-1.41-0.07-2.48-1.23-2.39-2.58
																						c0.09-1.35,1.32-2.39,2.73-2.32C301.85,162.07,302.92,163.22,302.83,164.58z"/>
																				</g>
																			</g>
																		</g>
																	</g>
																</g>
															</g>
														</g>
													</g>
												</g>
											</g>
										</g>
									</g>
								</g>
							</g>
							<g>
								<g>
									<g>
										<g>
											<g>
												<g>
													<g>
														<g>
															<g>
																<g>
																	<g>
																		<g>
																			<g>
																				<g>
																					<g>
																						<path class="st4" d="M304.42,157.74c-0.35,0.3-2.13-1.34-4.88-1.62c-2.74-0.32-4.9,0.88-5.17,0.51
																							c-0.13-0.16,0.26-0.73,1.2-1.28c0.93-0.54,2.47-1.01,4.18-0.82c1.71,0.19,3.08,0.97,3.84,1.7
																							C304.37,156.97,304.59,157.61,304.42,157.74z"/>
																					</g>
																				</g>
																			</g>
																		</g>
																	</g>
																</g>
															</g>
														</g>
													</g>
												</g>
											</g>
										</g>
									</g>
								</g>
							</g>
							<g>
								<g>
									<g>
										<g>
											<g>
												<g>
													<g>
														<g>
															<g>
																<g>
																	<g>
																		<g>
																			<g>
																				<g>
																					<path class="st4" d="M277.97,164.58c-0.09,1.35-1.32,2.39-2.73,2.32c-1.41-0.07-2.48-1.23-2.39-2.58
																						c0.09-1.35,1.32-2.39,2.73-2.32C276.99,162.07,278.06,163.22,277.97,164.58z"/>
																				</g>
																			</g>
																		</g>
																	</g>
																</g>
															</g>
														</g>
													</g>
												</g>
											</g>
										</g>
									</g>
								</g>
							</g>
							<g>
								<g>
									<g>
										<g>
											<g>
												<g>
													<g>
														<g>
															<g>
																<g>
																	<g>
																		<g>
																			<g>
																				<g>
																					<g>
																						<path class="st4" d="M277.4,156.01c-0.35,0.3-2.14-1.34-4.88-1.62c-2.74-0.32-4.9,0.88-5.17,0.51
																							c-0.13-0.16,0.25-0.73,1.2-1.28c0.93-0.55,2.47-1.01,4.18-0.82c1.71,0.19,3.08,0.97,3.84,1.7
																							C277.34,155.25,277.57,155.88,277.4,156.01z"/>
																					</g>
																				</g>
																			</g>
																		</g>
																	</g>
																</g>
															</g>
														</g>
													</g>
												</g>
											</g>
										</g>
									</g>
								</g>
							</g>
							<g>
								<g>
									<g>
										<g>
											<g>
												<g>
													<g>
														<g>
															<g>
																<g>
																	<g>
																		<g>
																			<g>
																				<g>
																					<path class="st4" d="M285.03,178.16c0-0.16,1.74-0.27,4.55-0.33c0.71,0,1.39-0.07,1.56-0.53
																						c0.22-0.49,0-1.28-0.25-2.13c-0.48-1.77-0.98-3.62-1.51-5.56c-2.08-7.91-3.51-14.38-3.19-14.46
																						c0.32-0.08,2.26,6.26,4.34,14.17c0.5,1.95,0.97,3.81,1.42,5.58c0.18,0.82,0.54,1.78,0.07,2.79
																						c-0.24,0.5-0.8,0.83-1.26,0.9c-0.46,0.09-0.86,0.06-1.21,0.04C286.75,178.49,285.02,178.32,285.03,178.16z"/>
																				</g>
																			</g>
																		</g>
																	</g>
																</g>
															</g>
														</g>
													</g>
												</g>
											</g>
										</g>
									</g>
								</g>
							</g>
							<g>
								<g>
									<g>
										<g>
											<g>
												<g>
													<g>
														<g>
															<g>
																<g>
																	<g>
																		<g>
																			<g>
																				<g>
																					<path class="st4" d="M276.74,179.21c0.45,0.02,0.14,3,2.47,5.39c2.32,2.39,5.54,2.39,5.52,2.81
																						c0.02,0.19-0.77,0.5-2.11,0.4c-1.32-0.09-3.2-0.72-4.62-2.18c-1.42-1.46-1.91-3.26-1.88-4.5
																						C276.13,179.87,276.54,179.17,276.74,179.21z"/>
																				</g>
																			</g>
																		</g>
																	</g>
																</g>
															</g>
														</g>
													</g>
												</g>
											</g>
										</g>
									</g>
								</g>
							</g>
							<g>
								<g>
									<g>
										<g>
											<g>
												<g>
													<g>
														<g>
															<g>
																<g>
																	<path class="st4" d="M278.42,144.85c-0.35,0.72-3.05,0.08-6.32,0.12c-3.26-0.02-5.96,0.65-6.32-0.06
																		c-0.16-0.34,0.37-1,1.5-1.61c1.12-0.61,2.85-1.12,4.81-1.13c1.96-0.01,3.7,0.49,4.82,1.09
																		C278.04,143.86,278.58,144.51,278.42,144.85z"/>
																</g>
															</g>
														</g>
													</g>
												</g>
											</g>
										</g>
									</g>
								</g>
							</g>
							<g>
								<g>
									<g>
										<g>
											<g>
												<g>
													<g>
														<g>
															<g>
																<g>
																	<path class="st4" d="M304.25,148.49c-0.55,0.57-2.37-0.27-4.65-0.54c-2.26-0.35-4.25-0.02-4.62-0.72
																		c-0.16-0.34,0.21-0.93,1.11-1.43c0.89-0.5,2.33-0.84,3.89-0.62c1.56,0.21,2.85,0.92,3.58,1.65
																		C304.3,147.54,304.49,148.21,304.25,148.49z"/>
																</g>
															</g>
														</g>
													</g>
												</g>
											</g>
										</g>
									</g>
								</g>
							</g>
							<g>
								<g>
									<g>
										<g>
											<g>
												<g>
													<path class="st7" d="M247.13,163.07c-0.29-0.16-11.9-4.93-12.8,7.33c-0.9,12.26,11.6,10.63,11.64,10.28
														C246.03,180.34,247.13,163.07,247.13,163.07z"/>
												</g>
											</g>
										</g>
									</g>
								</g>
							</g>
							<g>
								<g>
									<g>
										<g>
											<g>
												<g>
													<g>
														<path class="st8" d="M242.57,175.77c-0.05-0.04-0.22,0.13-0.6,0.27c-0.36,0.14-0.98,0.2-1.6-0.08
															c-1.26-0.57-2.2-2.71-2.1-4.92c0.05-1.12,0.36-2.16,0.82-3.01c0.44-0.87,1.07-1.45,1.73-1.52
															c0.66-0.1,1.09,0.32,1.22,0.68c0.14,0.35,0.04,0.59,0.11,0.62c0.03,0.03,0.28-0.19,0.22-0.7
															c-0.03-0.25-0.16-0.55-0.43-0.8c-0.28-0.26-0.7-0.41-1.16-0.4c-0.95,0-1.87,0.8-2.37,1.74
															c-0.56,0.93-0.93,2.11-0.99,3.36c-0.1,2.48,0.99,4.88,2.73,5.52c0.85,0.29,1.58,0.08,1.98-0.18
															C242.53,176.06,242.61,175.79,242.57,175.77z"/>
													</g>
												</g>
											</g>
										</g>
									</g>
								</g>
							</g>
							<g>
								<g>
									<g>
										<g>
											<g>
												<g>
													<path class="st4" d="M302.39,129.89c2.06-0.97-3.49-7.78-8.23-10.31c-7.16-3.82-18.29-6.61-25.21-5.11
														c-8.34,1.79-15.4,5.43-19.99,12.62c-4.59,7.19-6.69,15.77-7,24.29c-0.09,2.6,0,5.32,1.25,7.61
														c1.54,2.82,4.72,4.74,4.33,8.47c-0.14,1.36,0.16,2.77,1.03,3.83c2.09,2.53,4.98,0.47,6.39-1.7
														c3.01-4.63,3.68-10.35,4.27-15.84c0.42-3.9,0.84-7.89-0.02-11.72c-0.47-2.08-1.31-4.08-1.66-6.18s-0.14-4.46,1.26-6.07
														c0.23-0.26,0.6-0.59,1.06-0.94c3.67-2.82,8.59-3.42,12.85-1.6c6.75,2.89,18.31,7.3,21.55,5.15
														c4.65-3.09,5.85-5.22,5.85-5.22L302.39,129.89z"/>
												</g>
											</g>
										</g>
									</g>
								</g>
							</g>
						</g>
					</g>
					<g>
						<g>
							<g>
								<g>
									<g>
										<g>
											<path class="st4" d="M269.7,112.84c6.89-1.82,14.55-1.21,20.65,2.47c3.24,1.95,6.08,4.92,6.87,8.62
												c0.79,3.7-1.05,8.07-4.64,9.27l-0.25,0.14c-5.35,1.43-8.7,0.5-13.81-1.64c-4.29-1.8-8.02-4.76-12.33-6.55
												c-4.57-1.89-9.72-2.38-14.57-1.36C256.68,118.75,262.82,114.66,269.7,112.84z"/>
										</g>
									</g>
								</g>
							</g>
						</g>
					</g>
				</g>
			</g>
			<g>
				<path class="st11" d="M272.81,110.71c0-0.03,0.45,0,1.25,0.12c0.79,0.15,1.94,0.4,3.3,0.9c1.36,0.5,2.93,1.25,4.52,2.33
					c1.59,1.07,3.21,2.49,4.5,4.31c1.3,1.83,2.02,3.87,2.48,5.72c0.45,1.86,0.65,3.58,0.75,5.02c0.1,1.44,0.11,2.61,0.09,3.41
					c-0.02,0.8-0.06,1.25-0.09,1.25c-0.04,0-0.07-0.44-0.11-1.25c-0.05-0.8-0.11-1.96-0.25-3.38c-0.15-1.42-0.38-3.11-0.85-4.93
					c-0.48-1.81-1.19-3.79-2.44-5.54c-1.24-1.76-2.81-3.14-4.35-4.22c-1.54-1.08-3.06-1.85-4.38-2.38
					C274.57,111.02,272.79,110.81,272.81,110.71z"/>
			</g>
			<g>
				<path class="st11" d="M284.1,110.03c0.01-0.03,0.39,0.07,1.06,0.29c0.33,0.13,0.76,0.22,1.21,0.45c0.47,0.24,0.98,0.5,1.53,0.78
					c2.18,1.28,4.88,3.84,6.36,7.48c0.4,0.89,0.65,1.81,0.9,2.7c0.17,0.9,0.36,1.77,0.4,2.62c0.11,0.84,0.05,1.64,0.05,2.39
					c-0.09,0.74-0.12,1.45-0.28,2.07c-0.15,0.62-0.25,1.19-0.45,1.66c-0.18,0.47-0.3,0.89-0.49,1.2c-0.34,0.63-0.54,0.96-0.57,0.94
					c-0.11-0.05,0.74-1.4,1.15-3.87c0.13-0.61,0.14-1.3,0.21-2.02c-0.02-0.73,0.03-1.51-0.09-2.33c-0.05-0.82-0.25-1.66-0.42-2.54
					c-0.26-0.86-0.49-1.75-0.89-2.62c-1.44-3.53-3.99-6.04-6.07-7.37c-0.53-0.3-1.02-0.57-1.46-0.83c-0.43-0.26-0.84-0.37-1.16-0.53
					C284.44,110.24,284.09,110.07,284.1,110.03z"/>
			</g>
		</g>
		<g>
			<path class="st12" d="M292.1,238.77c0,1.68,8.43,38.73,11.66,47.83c3.23,9.1,13.45,100.35,12.11,106.84
				c-1.35,6.5-4.84,6.24-4.84,6.24s-82.58-5.2-91.46-4.42c-8.88,0.78-12.64,0.52-14.79-9.62c-2.15-10.14,0.06-62.83-1.82-75.57
				c-1.88-12.74-1.9-18.91-2.63-37.84c-0.63-16.4,3.1-29.56,10.9-39.05c7.8-9.5,25.07-19.1,25.07-19.1l6.13-8.93l43.35,22.92
				l0.99-5.22l2.63,8.12L292.1,238.77z"/>
			<g class="st13">
				<path d="M310.73,351.68c-0.72-1.84-3.06-2.3-5.03-2.52c-18.37-2.04-37.48-6.62-50.9-19.33c-5.25-4.97-9.39-10.98-13.37-17.01
					c-8.72-13.18-16.91-26.7-25.1-40.21l-6.36,2.41c3.9,19.08,7.74,32.89,14.1,48.53c6.36,15.66,11.29,30.81,27.39,35.94
					c10.41,3.31,30.18,0.77,41.07-0.08c4.55-0.36,9.12-0.8,13.49-2.11c1.32-0.4,2.66-0.9,3.65-1.86S311.23,352.96,310.73,351.68z"/>
			</g>
			<g>
				<path class="st12" d="M207.73,270.02c0.48,0.85,37.23,79.34,53.64,82.57s67.41,3.98,77.36,2.1s19.69-3.64,19.69-3.64
					s7.21-17.12,0.63-31.7l-13.7,0.43c0,0-38.09-2.05-43.47-3.53c-5.38-1.47-10.03-6.52-14.87-6.25l-28.98-67.43
					c0,0-18.83-17.49-32.28-12.1C212.3,235.86,203.78,263.01,207.73,270.02z"/>
				<g>
					<path class="st4" d="M346.4,353.78c-0.03-0.01,0.06-0.48,0.27-1.32c0.22-0.84,0.49-2.06,0.77-3.57
						c0.29-1.51,0.55-3.33,0.73-5.36c0.16-2.03,0.23-4.27,0.14-6.62c-0.2-4.7-1.04-8.9-1.86-11.87c-0.41-1.49-0.78-2.68-1.07-3.49
						c-0.28-0.82-0.41-1.28-0.38-1.29c0.03-0.01,0.23,0.42,0.57,1.22c0.35,0.8,0.77,1.98,1.23,3.46c0.92,2.96,1.83,7.2,2.03,11.95
						c0.09,2.37,0,4.63-0.18,6.68c-0.21,2.04-0.5,3.87-0.84,5.39c-0.33,1.52-0.66,2.73-0.94,3.55
						C346.59,353.34,346.43,353.79,346.4,353.78z"/>
				</g>
				<g>
					<path class="st4" d="M258.03,242.59c0,0,0.2,0.4,0.55,1.2c0.35,0.81,0.87,1.98,1.55,3.52c1.35,3.11,3.33,7.66,5.86,13.5
						c5.06,11.71,12.33,28.55,21.21,49.13l-0.2-0.12c2.29-0.11,4.44,0.89,6.42,1.97c2,1.1,3.93,2.38,6.06,3.35
						c2.1,1.07,4.48,1.31,6.89,1.6c2.41,0.29,4.88,0.5,7.37,0.71c10,0.83,20.59,1.48,31.61,2.09l-0.02,0
						c4.31-0.14,8.97-0.29,13.7-0.44l0.17-0.01l0.07,0.15c2.11,4.84,3,10.28,2.74,15.72c-0.23,5.45-1.35,10.94-3.36,16.19
						l-0.05,0.13l-0.14,0.03c-2.76,0.51-5.73,1.06-8.71,1.61c-3.2,0.59-6.38,1.18-9.53,1.76c-3.16,0.62-6.39,0.85-9.54,0.98
						c-6.34,0.29-12.58,0.31-18.72,0.28c-6.14-0.03-12.16-0.18-18.06-0.39c-5.9-0.21-11.67-0.51-17.29-0.94
						c-2.81-0.2-5.59-0.47-8.32-0.77c-2.73-0.36-5.42-0.6-8.05-1.34c-1.29-0.48-2.43-1.22-3.49-2.01c-1.06-0.8-2.04-1.69-2.96-2.6
						c-1.86-1.83-3.52-3.77-5.09-5.74c-6.21-7.9-11.08-15.9-15.44-23.22c-8.62-14.72-14.83-27.05-19.1-35.57
						c-2.12-4.27-3.73-7.6-4.81-9.87c-1.08-2.27-1.62-3.47-1.62-3.47s0.16,0.29,0.45,0.86c0.29,0.59,0.71,1.44,1.26,2.56
						c1.12,2.26,2.77,5.57,4.9,9.82c4.32,8.49,10.59,20.79,19.24,35.47c4.37,7.3,9.26,15.29,15.46,23.14
						c1.56,1.95,3.22,3.88,5.06,5.69c0.92,0.9,1.88,1.78,2.92,2.56c1.04,0.78,2.15,1.49,3.37,1.94c2.5,0.69,5.25,0.95,7.95,1.3
						c2.73,0.29,5.49,0.56,8.3,0.76c5.61,0.42,11.38,0.72,17.27,0.92c5.89,0.21,11.91,0.35,18.04,0.38c6.13,0.03,12.37,0,18.69-0.29
						c3.17-0.13,6.33-0.36,9.47-0.98c3.16-0.58,6.34-1.17,9.54-1.76c2.98-0.55,5.95-1.1,8.71-1.61l-0.19,0.15
						c1.98-5.16,3.1-10.62,3.33-16c0.25-5.38-0.62-10.74-2.69-15.49l0.24,0.15c-4.73,0.15-9.39,0.29-13.7,0.43l-0.01,0l-0.01,0
						c-11.03-0.62-21.62-1.29-31.63-2.13c-2.5-0.22-4.96-0.44-7.39-0.73c-1.21-0.14-2.41-0.29-3.6-0.52
						c-1.21-0.18-2.34-0.65-3.42-1.13c-2.17-0.99-4.1-2.28-6.08-3.38c-1.96-1.08-4.05-2.03-6.2-1.93l-0.14,0.01l-0.06-0.13
						c-8.81-20.61-16.03-37.47-21.04-49.2c-2.49-5.86-4.43-10.42-5.76-13.54c-0.65-1.55-1.15-2.73-1.49-3.55
						C258.19,243,258.03,242.59,258.03,242.59z"/>
				</g>
				<g>
					<path class="st4" d="M254.19,237.29c-0.03,0.03-0.51-0.47-1.43-1.32c-0.91-0.85-2.31-2-4.2-3.17c-1.89-1.17-4.3-2.31-7.14-3.09
						c-2.83-0.78-6.08-1.14-9.45-0.83c-3.37,0.36-6.48,1.36-9.1,2.68c-2.62,1.32-4.77,2.92-6.38,4.44
						c-1.62,1.52-2.77,2.93-3.49,3.94c-0.73,1.01-1.1,1.6-1.14,1.58c-0.02-0.01,0.06-0.16,0.22-0.45c0.17-0.28,0.39-0.72,0.75-1.24
						c0.68-1.06,1.79-2.51,3.41-4.09c1.61-1.58,3.76-3.23,6.42-4.6c2.65-1.37,5.83-2.41,9.27-2.77c3.44-0.32,6.76,0.06,9.63,0.88
						c2.88,0.82,5.32,2.01,7.2,3.24c1.89,1.23,3.27,2.43,4.15,3.34c0.46,0.43,0.76,0.82,0.98,1.07
						C254.1,237.14,254.2,237.28,254.19,237.29z"/>
				</g>
				<g>
					<path class="st4" d="M286.89,310.07c0.13,0.05-0.7,2.6-1.85,5.69c-1.16,3.1-2.21,5.56-2.34,5.51c-0.13-0.05,0.7-2.6,1.85-5.69
						C285.71,312.49,286.76,310.02,286.89,310.07z"/>
				</g>
			</g>
			<g>
				<path class="st4" d="M353.47,323c0-0.03,0.14-0.07,0.38,0.02c0.23,0.08,0.54,0.32,0.74,0.72c0.19,0.38,0.32,1-0.04,1.56
					c-0.34,0.51-0.99,0.91-1.74,0.8c-0.77-0.14-1.21-0.81-1.31-1.4c-0.11-0.62,0.15-1.18,0.5-1.48c0.36-0.31,0.75-0.34,0.98-0.32
					c0.24,0.02,0.36,0.09,0.35,0.12c0.02,0.1-0.58-0.04-1.08,0.47c-0.23,0.25-0.39,0.68-0.28,1.12c0.09,0.44,0.45,0.9,0.93,0.98
					c0.48,0.08,1-0.2,1.25-0.56c0.26-0.35,0.22-0.81,0.1-1.14C353.99,323.17,353.45,323.07,353.47,323z"/>
			</g>
			<g>
				<path class="st4" d="M286.8,230.69c-0.01,0.02-0.35-0.16-0.99-0.51c-0.68-0.39-1.59-0.91-2.74-1.56l0.19-0.08
					c-0.54,2.73-1.06,6.76-1.98,11.58l-0.06,0.32l-0.28-0.18c-4.02-2.54-8.85-5.43-14-8.55c-3.84-2.3-7.43-4.62-10.74-6.63
					c-3.32-1.99-6.36-3.71-8.92-5.14c-2.52-1.4-4.58-2.55-6.07-3.38c-0.68-0.38-1.22-0.69-1.65-0.93c-0.37-0.22-0.57-0.34-0.56-0.35
					c0.01-0.02,0.22,0.07,0.61,0.26c0.44,0.22,1,0.49,1.69,0.84c1.46,0.74,3.57,1.84,6.15,3.23c2.58,1.39,5.64,3.08,8.99,5.06
					c3.31,2.03,6.95,4.25,10.76,6.59c5.15,3.11,9.97,6.04,13.97,8.61l-0.34,0.14c0.96-4.78,1.55-8.81,2.17-11.54l0.04-0.18
					l0.15,0.09c1.11,0.7,2.01,1.25,2.67,1.67C286.49,230.45,286.81,230.67,286.8,230.69z"/>
			</g>
			<g class="st13">
				<path d="M245.11,218.51c7.54,5.62,15.08,11.24,22.62,16.85c4.98,3.71,10.07,7.48,15.98,9.38c-0.11-5.24-0.22-10.48-0.33-15.72
					l-2.31,11.03L245.11,218.51z"/>
			</g>
		</g>
	</g>
	<g>
		<g>
			<g>
				<g>
					<g>
						<g>
							<path class="st4" d="M478.03,139.78c-3.94,0.53-8.04-2.29-8.96-6.16c-0.92-3.86,1.47-8.23,5.23-9.54
								c-2.5-2.47-3.2-6.58-1.64-9.73c1.55-3.15,5.24-5.11,8.72-4.63c0.08-3.47,2.08-6.83,5.1-8.55c3.02-1.72,6.93-1.72,9.96-0.01
								c3.77-3.36,9.95-3.6,13.97-0.55c3.36-0.69,7.07,1.04,8.71,4.04c1.64,3.01,1.08,7.06-1.32,9.51"/>
						</g>
					</g>
					<g>
						<g>
							<g>
								<g>
									<g>
										<path class="st6" d="M476.87,140.94c1.08-17.89,15.72-31.96,33.64-32.32l1.78-0.04c19.23,0.73,29.35,17.47,28.08,36.67
											l1.14,68.5l0,0l-46.72,16.77l-0.41-24.67c0,0-18.52-2.49-19.12-20.95C474.98,175.98,475.87,157.58,476.87,140.94z"/>
									</g>
								</g>
							</g>
							<g>
								<g>
									<g>
										<g>
											<g>
												<path class="st9" d="M494.24,205.82c0,0,11.8,0.47,24.04-7.57c0,0-5.42,13.4-23.87,12.11L494.24,205.82z"/>
											</g>
										</g>
									</g>
								</g>
							</g>
							<g>
								<g>
									<g>
										<g>
											<g>
												<g>
													<g>
														<g>
															<path class="st4" d="M482.06,157.63c-0.02,1.39,1.14,2.56,2.6,2.61c1.45,0.05,2.65-1.04,2.67-2.43
																c0.02-1.39-1.14-2.56-2.59-2.61C483.27,155.15,482.08,156.24,482.06,157.63z"/>
														</g>
													</g>
												</g>
											</g>
										</g>
									</g>
								</g>
							</g>
							<g>
								<g>
									<g>
										<g>
											<g>
												<g>
													<g>
														<g>
															<g>
																<path class="st4" d="M481.03,149.89c0.33,0.34,2.3-1.18,5.14-1.23c2.83-0.09,4.94,1.33,5.24,0.97
																	c0.15-0.16-0.2-0.77-1.12-1.41c-0.91-0.64-2.44-1.25-4.21-1.2c-1.77,0.05-3.24,0.73-4.08,1.41
																	C481.14,149.11,480.86,149.74,481.03,149.89z"/>
															</g>
														</g>
													</g>
												</g>
											</g>
										</g>
									</g>
								</g>
							</g>
							<g>
								<g>
									<g>
										<g>
											<g>
												<g>
													<g>
														<g>
															<path class="st4" d="M507.9,157.63c-0.02,1.39,1.14,2.56,2.6,2.61c1.45,0.05,2.65-1.04,2.67-2.43
																c0.02-1.39-1.14-2.56-2.59-2.61C509.12,155.15,507.92,156.24,507.9,157.63z"/>
														</g>
													</g>
												</g>
											</g>
										</g>
									</g>
								</g>
							</g>
							<g>
								<g>
									<g>
										<g>
											<g>
												<g>
													<g>
														<g>
															<g>
																<path class="st4" d="M508.92,149.85c0.33,0.34,2.3-1.18,5.14-1.23c2.83-0.09,4.94,1.33,5.24,0.97
																	c0.15-0.16-0.19-0.77-1.12-1.41c-0.91-0.64-2.44-1.25-4.21-1.2c-1.77,0.05-3.24,0.73-4.08,1.41
																	C509.04,149.07,508.75,149.7,508.92,149.85z"/>
															</g>
														</g>
													</g>
												</g>
											</g>
										</g>
									</g>
								</g>
							</g>
							<g>
								<g>
									<g>
										<g>
											<g>
												<g>
													<g>
														<g>
															<path class="st4" d="M499.05,171.09c0.01-0.16-1.76-0.43-4.62-0.74c-0.73-0.06-1.41-0.19-1.55-0.68
																c-0.18-0.52,0.11-1.31,0.44-2.16c0.65-1.77,1.32-3.62,2.03-5.56c2.82-7.91,4.84-14.41,4.52-14.52
																c-0.32-0.11-2.86,6.21-5.67,14.13c-0.68,1.95-1.32,3.81-1.94,5.59c-0.26,0.83-0.71,1.77-0.32,2.85
																c0.21,0.54,0.75,0.92,1.21,1.03c0.47,0.13,0.87,0.13,1.23,0.15C497.26,171.28,499.04,171.26,499.05,171.09z"/>
														</g>
													</g>
												</g>
											</g>
										</g>
									</g>
								</g>
							</g>
							<g>
								<g>
									<g>
										<g>
											<path class="st4" d="M507.86,140.21c0.39,0.71,2.8-0.12,5.79-0.28c2.99-0.23,5.52,0.29,5.78-0.47
												c0.11-0.36-0.43-0.99-1.52-1.55c-1.08-0.55-2.72-0.97-4.51-0.85c-1.79,0.12-3.34,0.73-4.31,1.42
												C508.11,139.17,507.69,139.87,507.86,140.21z"/>
										</g>
									</g>
								</g>
							</g>
							<g>
								<g>
									<g>
										<g>
											<path class="st4" d="M480.48,139.85c0.61,0.63,2.94-0.08,5.75-0.17c2.81-0.17,5.21,0.33,5.74-0.36
												c0.23-0.33-0.15-0.97-1.21-1.56c-1.04-0.59-2.77-1.05-4.7-0.96c-1.93,0.09-3.6,0.71-4.56,1.39
												C480.52,138.88,480.21,139.55,480.48,139.85z"/>
										</g>
									</g>
								</g>
							</g>
							<g>
								<g>
									<g>
										<path class="st4" d="M478.48,132.44c0,0,4.63-11.66,10.15-14.47c6.68-3.4,9.74,3.94,16.13,2.02
											c6.39-1.93,12.77-5.19,19.44-0.36c7.3,5.29,4.01,9.18,4.62,17.36c2.48,33.17,8.73,42.43,10.14,26.76
											c0.15-1.72,4.88-3.18,5.44-10.43c0.72-9.41,0.85-20.81-1.38-27.43c-1.88-5.58-5.16-9.39-10.99-13.55
											c-9.2-6.57-21.65-6.46-30.09-5.44C493.51,107.92,477.41,117.98,478.48,132.44z"/>
									</g>
								</g>
							</g>
							<g>
								<g>
									<g>
										<path class="st6" d="M537.78,163.27c0.06-2.85,2.47-5.15,5.31-4.94c3.45,0.26,7.32,2.13,7.24,9.25
											c-0.15,12.63-12.79,9.88-12.81,9.51C537.5,176.85,537.67,168.55,537.78,163.27z"/>
									</g>
								</g>
							</g>
							<g>
								<g>
									<g>
										<path class="st9" d="M540.32,172.38c0.06-0.04,0.22,0.16,0.59,0.33c0.36,0.17,0.98,0.29,1.64,0.05
											c1.34-0.47,2.49-2.58,2.58-4.85c0.05-1.15-0.18-2.25-0.58-3.16c-0.37-0.93-0.96-1.58-1.63-1.71
											c-0.67-0.16-1.15,0.23-1.31,0.59c-0.17,0.35-0.1,0.6-0.16,0.63c-0.04,0.03-0.27-0.22-0.16-0.74
											c0.06-0.25,0.21-0.55,0.51-0.79c0.31-0.24,0.75-0.36,1.22-0.31c0.97,0.08,1.84,0.98,2.28,1.98c0.49,1,0.77,2.24,0.72,3.53
											c-0.11,2.54-1.44,4.91-3.27,5.42c-0.89,0.22-1.63-0.06-2.01-0.36C540.34,172.68,540.27,172.4,540.32,172.38z"/>
									</g>
								</g>
							</g>
						</g>
						<g>
							<g>
								<path class="st4" d="M537.03,138.83c-1.62,1.15-3.32,2.34-5.29,2.58c-1.97,0.24-4.25-0.85-4.62-2.8
									c-0.17-0.88,0.03-1.9-0.56-2.57c-0.71-0.8-1.97-0.52-3.03-0.38c-3.66,0.46-7.47-2.05-8.48-5.6
									c-0.91,1.42-3.09,1.4-4.53,0.52c-1.43-0.88-2.38-2.36-3.51-3.61c-1.13-1.25-2.71-2.35-4.38-2.08
									c-0.93,0.15-1.79,0.72-2.73,0.66c-1.66-0.11-2.51-2.04-2.79-3.68c-0.28-1.64-0.52-3.55-1.94-4.42
									c-1.32-0.8-2.99-0.29-4.51-0.03c-1.52,0.26-3.5-0.06-3.92-1.55c-0.22-0.78,0.1-1.61,0.52-2.3c1.9-3.13,6.16-4.59,9.58-3.29
									c1.15-4.19,4.98-7.52,9.3-8.06c4.32-0.54,8.85,1.72,11.01,5.5c2.62-2.47,6.47-3.57,10-2.84c3.53,0.73,6.63,3.26,8.05,6.57
									c3.05-0.87,6.58,0.25,8.57,2.71c2,2.47,2.35,6.15,0.86,8.95c2.29,1.25,4.28,3.46,4.38,6.07c0.1,2.61-2.39,5.27-4.93,4.63
									c1.06,2.01,0.29,4.79-1.66,5.97c-1.95,1.18-4.76,0.57-6.05-1.31"/>
							</g>
						</g>
						<g>
							<g>
								<g>
									<path class="st11" d="M495.97,114.01c-0.01,0-0.01,0.08,0.01,0.23c0.02,0.15,0.03,0.38,0.09,0.67
										c0.13,0.58,0.38,1.44,0.97,2.41c0.59,0.96,1.5,2.06,2.86,2.93c1.34,0.87,3.16,1.52,5.2,1.37l-0.22-0.28
										c-0.37,1.09-0.24,2.38,0.32,3.48c0.53,1.12,1.35,2.1,2.22,3.06c0.44,0.46,0.83,1,1.44,1.42c0.59,0.4,1.3,0.63,2.01,0.7
										c1.43,0.15,3.02-0.32,4.03-1.54l-0.47-0.13c0.37,2.5,1.85,4.98,4.15,6.47c1.22,0.84,2.71,1.34,4.17,1.27
										c1.46-0.04,2.81-0.5,4.07-0.98l-0.34-0.14c0.71,1.55,1.78,2.87,3.07,3.83c1.26,0.96,2.93,1.51,4.42,1.11
										c2.97-0.69,4.89-3.21,5.24-5.55l-0.28,0.14c1.49,0.78,3.08,0.82,4.35,0.55c1.29-0.26,2.29-0.84,3-1.41
										c0.71-0.58,1.13-1.17,1.38-1.57c0.23-0.42,0.32-0.65,0.31-0.66c-0.06-0.05-0.4,0.97-1.82,2.06
										c-0.71,0.52-1.69,1.06-2.92,1.28c-1.22,0.23-2.72,0.16-4.11-0.59l-0.24-0.13l-0.04,0.27c-0.36,2.18-2.21,4.53-4.96,5.14
										c-1.35,0.35-2.82-0.14-4.01-1.05c-1.2-0.91-2.22-2.18-2.88-3.64l-0.1-0.23l-0.24,0.09c-1.24,0.47-2.54,0.9-3.89,0.93
										c-1.35,0.06-2.69-0.39-3.85-1.19c-2.17-1.4-3.56-3.73-3.92-6.09l-0.09-0.6l-0.38,0.47c-0.85,1.04-2.28,1.49-3.56,1.36
										c-0.64-0.06-1.27-0.26-1.79-0.61c-0.5-0.33-0.91-0.87-1.36-1.33c-0.87-0.94-1.67-1.89-2.17-2.93
										c-0.53-1.03-0.65-2.16-0.34-3.15l0.1-0.3l-0.32,0.03c-1.92,0.17-3.68-0.42-4.98-1.23c-1.33-0.81-2.24-1.85-2.84-2.77
										C496.05,115.31,496.06,113.98,495.97,114.01z"/>
								</g>
							</g>
						</g>
					</g>
				</g>
			</g>
			<g>
				<g>
					<g>
						<g>
							<g>
								<g>
									<g>
										<g>
											<g>
												<g>
													<g>
														<g>
															<g>
																<g>
																	<path class="st4" d="M508.83,172.07c-0.45,0.05,0.07,3.03-2.1,5.59c-2.17,2.57-5.4,2.79-5.35,3.21
																		c-0.01,0.19,0.81,0.45,2.15,0.25c1.32-0.19,3.16-0.95,4.49-2.52c1.32-1.57,1.69-3.42,1.57-4.65
																		C509.49,172.7,509.03,172.02,508.83,172.07z"/>
																</g>
															</g>
														</g>
													</g>
												</g>
											</g>
										</g>
									</g>
								</g>
							</g>
						</g>
					</g>
				</g>
			</g>
		</g>
		<g>
			<g>
				<path class="st14" d="M405.71,315.68c1.6-0.64,54.45-6.99,54.45-6.99l21.44-18.15l-2.01,52.55l-67.48,6.51L405.71,315.68z"/>
				<path class="st13" d="M472.12,298.56c-0.64,0.32-5.94,5.03-5.94,5.03l1.62,40.47L472.12,298.56z"/>
			</g>
			<g>
				<path class="st10" d="M562.16,393.73H472.9c0,0,4.73,25.19,6.48,36.79c1.75,11.61,4.31,19.84,4.31,19.84h80.85
					c0,0,6.04-14.63,7.09-24.03C572.67,416.94,562.16,393.73,562.16,393.73z"/>
				<path class="st10" d="M466.25,396.77c0,0-2.49,28.71,0,53.6h30.92v-22.93L466.25,396.77z"/>
				<path class="st15" d="M483.43,256.04l9.62-21.07l1.19-13.01c0,0,18.45-11.59,27.2-15.97c8.75-4.38,20.54-8.34,20.54-8.34v12.28
					L483.43,256.04z"/>
				<path class="st14" d="M563.83,363.63c0,0,5.22-70.22,5.58-75.44c0,0,3.09-37.52-3.58-51.8c-6.66-14.29-21.57-26.84-21.57-26.84
					l-1.37-7.5l-29.12,18.35l-13.46,11.71c0,0-7.64,8.07-12.7,15.8c-3.82,5.29-8.07,12.09-9.96,20.64
					c-0.69,3.13-8.7,40.51-8.94,66.56c0,0-1.23,22.73-2.54,35.61c-1.62,15.94-4.1,52.26-3.56,73.79l94.35-2.88
					c23.32-3.56,19.22-5.87,19.22-5.87L563.83,363.63z"/>
				<g>
					<path class="st4" d="M541.98,209.93c0,0-0.22,0.11-0.65,0.3c-0.46,0.19-1.1,0.46-1.93,0.8c-0.82,0.4-1.82,0.92-3,1.53
						c-1.13,0.7-2.47,1.42-3.86,2.41c-5.66,3.8-13.13,10.24-20.73,19.16l-0.05,0.06l-0.08,0.01c-2.87,0.53-5.91,1.09-9.05,1.66
						l0.2-0.23c-0.14,4.21-0.29,8.62-0.45,13.19l0,0.1l-0.08,0.07c-4.53,4.29-9.14,9.15-13.31,14.59c-1.69,2.23-3.25,4.52-4.56,6.9
						l-0.49,0.89l-0.38,0.93c-0.26,0.61-0.5,1.23-0.68,1.88c-0.4,1.28-0.8,2.55-1.13,3.83c-1.4,5.1-2.55,10.08-3.63,14.82
						c-2.15,9.49-3.94,18.07-5.42,25.27c-2.96,14.42-4.63,23.36-4.63,23.36s0.02-0.57,0.2-1.64c0.16-1.07,0.44-2.65,0.8-4.67
						c0.73-4.05,1.83-9.9,3.27-17.12c1.44-7.22,3.19-15.81,5.31-25.31c1.07-4.75,2.21-9.73,3.61-14.85
						c0.33-1.28,0.73-2.56,1.13-3.85c0.18-0.65,0.43-1.29,0.7-1.93l0.39-0.96l0.5-0.9c1.33-2.41,2.9-4.72,4.6-6.96
						c4.2-5.47,8.82-10.34,13.38-14.65l-0.08,0.18c0.16-4.57,0.32-8.98,0.47-13.19l0.01-0.19l0.19-0.03
						c3.15-0.57,6.18-1.12,9.06-1.63l-0.13,0.08c7.67-8.94,15.2-15.34,20.93-19.09c1.41-0.98,2.77-1.69,3.91-2.37
						c1.19-0.6,2.2-1.1,3.04-1.48c0.84-0.32,1.49-0.57,1.96-0.75C541.75,210,541.98,209.93,541.98,209.93z"/>
				</g>
				<g>
					<path class="st14" d="M510.3,265.42l1.13,93.7l-14.27,91.26h37.61c0,0,17.09-69.29,21.08-83.85
						c3.87-14.14,9.66-85.31,10.17-88.8c0.2-1.37,4.28-25.95-7.73-37.54"/>
					<g>
						<path class="st4" d="M558.3,240.17c0,0,0.27,0.26,0.79,0.78c0.51,0.53,1.23,1.35,2.05,2.53c1.65,2.34,3.58,6.2,4.7,11.55
							c1.13,5.33,1.52,12.07,0.71,19.77c-0.56,3.84-0.85,7.94-1.26,12.31c-0.4,4.37-0.82,8.98-1.26,13.83
							c-0.9,9.7-1.91,20.32-3.13,31.72c-0.63,5.7-1.28,11.59-2.08,17.65c-0.82,6.05-1.62,12.32-3.31,18.57
							c-6.28,25.03-13.2,52.57-20.47,81.54l-0.05,0.2h-0.2c-1.28,0-2.67,0-4.06,0c-11.41,0-22.63,0-33.56,0h-0.3l0.05-0.3
							c5.28-33.66,10.15-64.72,14.31-91.25l0,0.04c-0.3-28.37-0.56-51.79-0.73-68.13c-0.07-8.16-0.13-14.55-0.17-18.91
							c-0.01-2.17-0.02-3.83-0.03-4.96c0-1.12,0.01-1.7,0.01-1.7s0.03,0.58,0.05,1.7c0.02,1.13,0.05,2.79,0.09,4.96
							c0.07,4.36,0.16,10.75,0.29,18.91c0.22,16.34,0.53,39.76,0.91,68.13l0,0.02l0,0.02c-4.13,26.53-8.98,57.6-14.22,91.26
							l-0.25-0.3c10.93,0,22.14,0,33.56,0c1.39,0,2.78,0,4.06,0l-0.25,0.2c7.29-28.96,14.22-56.51,20.52-81.54
							c1.69-6.22,2.49-12.46,3.32-18.51c0.81-6.05,1.47-11.94,2.11-17.64c1.24-11.39,2.28-22.02,3.2-31.71
							c0.45-4.85,0.89-9.46,1.29-13.83c0.43-4.35,0.73-8.51,1.3-12.32c0.83-7.67,0.47-14.38-0.62-19.7
							c-1.08-5.33-2.98-9.18-4.59-11.53c-0.81-1.18-1.51-2.01-2.01-2.55C558.55,240.46,558.3,240.17,558.3,240.17z"/>
					</g>
				</g>
				<g>
					<path class="st4" d="M530.2,368.33c-0.02,0.06-1.14-0.24-2.91-0.84c-1.77-0.6-4.18-1.52-6.79-2.68
						c-2.61-1.16-4.91-2.33-6.54-3.24c-1.63-0.91-2.61-1.53-2.57-1.59c0.04-0.07,1.07,0.44,2.74,1.26c1.67,0.82,3.99,1.94,6.58,3.09
						c2.6,1.15,4.98,2.12,6.71,2.81C529.15,367.84,530.22,368.26,530.2,368.33z"/>
				</g>
				<g>
					<path class="st4" d="M465.8,374.54c-0.01,0-0.01-0.08-0.01-0.25c0.01-0.19,0.02-0.43,0.03-0.72c0.04-0.67,0.09-1.59,0.15-2.76
						c0.16-2.44,0.37-5.89,0.64-10.13c0.58-8.55,1.4-20.36,2.55-33.39c1.15-13.03,2.48-24.8,3.57-33.3
						c0.54-4.25,1.01-7.69,1.36-10.06c0.17-1.15,0.31-2.06,0.41-2.73c0.05-0.29,0.09-0.52,0.12-0.71c0.03-0.16,0.05-0.24,0.06-0.24
						c0.01,0,0.01,0.08-0.01,0.25c-0.02,0.19-0.04,0.43-0.07,0.71c-0.08,0.67-0.18,1.58-0.31,2.74c-0.29,2.42-0.69,5.86-1.19,10.08
						c-0.99,8.51-2.26,20.28-3.42,33.31c-1.15,13.02-2.03,24.83-2.71,33.37c-0.34,4.24-0.61,7.68-0.81,10.12
						c-0.1,1.16-0.19,2.08-0.25,2.75c-0.03,0.29-0.06,0.52-0.08,0.71C465.83,374.46,465.81,374.54,465.8,374.54z"/>
				</g>
				<g>
					<path class="st4" d="M541.98,228.35c-0.16,0.06-1.08-3.6-3.54-7.46c-2.42-3.89-5.31-6.3-5.19-6.43
						c0.04-0.05,0.81,0.49,1.91,1.54c1.1,1.05,2.49,2.64,3.73,4.61c1.23,1.97,2.07,3.91,2.54,5.35
						C541.89,227.41,542.04,228.34,541.98,228.35z"/>
				</g>
				<g>
					<path class="st4" d="M475.61,344.76c0.03-0.01,0.12,0.23,0.09,0.68c-0.03,0.44-0.23,1.11-0.82,1.7
						c-0.55,0.59-1.65,1.01-2.71,0.62c-0.52-0.18-1.02-0.52-1.39-1c-0.38-0.48-0.58-1.13-0.56-1.76c0.01-0.81,0.26-1.58,0.72-2.18
						c0.23-0.3,0.53-0.55,0.88-0.69c0.36-0.13,0.62-0.2,0.92-0.29l0.04-0.01l0.03,0c0.68,0.02,1.34,0.16,1.81,0.52
						c0.48,0.34,0.72,0.82,0.84,1.19C475.68,344.31,475.64,344.76,475.61,344.76c-0.06,0.01-0.12-0.44-0.4-1.13
						c-0.15-0.33-0.39-0.72-0.8-0.98c-0.41-0.27-0.98-0.38-1.6-0.37l0.07-0.01c-0.27,0.1-0.62,0.2-0.86,0.3
						c-0.25,0.12-0.49,0.31-0.67,0.56c-0.38,0.5-0.59,1.18-0.6,1.87c-0.05,1.1,0.73,1.99,1.6,2.3c0.88,0.35,1.77,0.05,2.3-0.43
						c0.55-0.48,0.78-1.06,0.87-1.46C475.59,345.01,475.56,344.77,475.61,344.76z"/>
				</g>
				<g>
					<path class="st4" d="M474.21,377.89c0.03-0.01,0.12,0.23,0.09,0.68c-0.03,0.44-0.23,1.11-0.82,1.7
						c-0.55,0.59-1.65,1.01-2.71,0.62c-0.52-0.18-1.02-0.52-1.39-1c-0.38-0.48-0.58-1.13-0.56-1.76c0.01-0.81,0.26-1.58,0.72-2.18
						c0.23-0.3,0.53-0.55,0.88-0.69c0.36-0.13,0.62-0.2,0.92-0.29l0.04-0.01l0.03,0c0.68,0.02,1.34,0.16,1.81,0.52
						c0.48,0.34,0.72,0.82,0.84,1.19C474.28,377.44,474.24,377.89,474.21,377.89c-0.06,0.01-0.12-0.44-0.4-1.12
						c-0.15-0.33-0.39-0.72-0.8-0.98c-0.41-0.27-0.98-0.38-1.6-0.37l0.07-0.01c-0.27,0.1-0.62,0.2-0.86,0.3
						c-0.25,0.12-0.49,0.31-0.67,0.56c-0.38,0.5-0.59,1.18-0.6,1.87c-0.05,1.1,0.73,1.99,1.6,2.3c0.88,0.35,1.77,0.05,2.3-0.43
						c0.55-0.48,0.78-1.06,0.87-1.46C474.19,378.14,474.16,377.9,474.21,377.89z"/>
				</g>
			</g>
			<g>
				<path class="st4" d="M554.07,234.63c-0.05,0.09-1.29-0.71-3.49-1.55c-1.09-0.43-2.44-0.82-3.96-1.13
					c-1.52-0.28-3.22-0.46-5.01-0.45c-1.79,0.04-3.48,0.27-5,0.59c-1.51,0.35-2.84,0.78-3.93,1.24c-2.17,0.9-3.39,1.73-3.44,1.64
					c-0.02-0.03,0.27-0.25,0.83-0.62c0.27-0.19,0.62-0.41,1.04-0.63c0.42-0.22,0.88-0.5,1.44-0.73c1.08-0.51,2.43-0.98,3.96-1.37
					c1.54-0.35,3.27-0.6,5.1-0.64c1.83-0.01,3.56,0.19,5.11,0.5c1.54,0.34,2.91,0.77,4,1.26c0.56,0.21,1.03,0.48,1.46,0.69
					c0.43,0.21,0.78,0.42,1.05,0.6C553.79,234.39,554.09,234.6,554.07,234.63z"/>
			</g>
			<g class="st13">
				<path d="M471.68,322.27c4.07-5.93,5.57-11.52,7.75-18.38c3.23-10.19,4.14-21.7,9.21-31.11c2.99-5.54,6.51-11.23,11.7-14.78
					c5.07-3.47,5.82-7.87,5.72-19.79c3.62,0.04,7.45-2.76,7.91-3.25c2.47-2.65,4.26-6.87,4.44-8.33c-2.54,2.76-6.78,7.35-6.78,7.35
					s-9.19,1.71-9.06,1.65c-0.23,4.58-0.23,8.6-0.46,13.19c0,0-17.63,18.71-19,22.47C481.74,275.06,471.68,322.27,471.68,322.27z"/>
			</g>
			<g class="st13">
				<path d="M537.14,439.06c22.34-42.29,29.29-97.9,27.96-150.87c0,0-6.41,64.38-8.58,75.44
					C554.38,374.6,537.14,439.06,537.14,439.06z"/>
			</g>
			<g>
				<path class="st4" d="M540.55,203.12c0.01,0.02-0.16,0.15-0.5,0.38c-0.39,0.26-0.88,0.6-1.49,1.01
					c-1.36,0.89-3.24,2.13-5.53,3.63c-4.74,3.06-11.2,7.22-18.34,11.82c-2.76,1.76-5.42,3.46-7.91,5.05l0.02-0.01
					c-0.86,0.67-1.71,1.32-2.53,1.96c-0.84,0.62-1.56,1.24-2.26,1.93c-1.39,1.34-2.62,2.64-3.73,3.82l-0.2,0.21l-0.11-0.26
					c-1.2-2.77-2.18-5.03-2.89-6.67c-0.31-0.75-0.56-1.36-0.76-1.83c-0.17-0.42-0.25-0.64-0.23-0.65c0.02-0.01,0.13,0.2,0.33,0.61
					c0.22,0.46,0.5,1.05,0.85,1.78c0.75,1.62,1.78,3.86,3.04,6.6l-0.31-0.05c1.09-1.2,2.31-2.52,3.7-3.88
					c0.67-0.68,1.46-1.37,2.29-1.99c0.81-0.64,1.65-1.29,2.51-1.97l0.01-0.01l0.01-0.01c2.49-1.59,5.14-3.3,7.9-5.07
					c7.17-4.55,13.66-8.67,18.43-11.69c2.33-1.45,4.23-2.63,5.62-3.49c0.63-0.38,1.14-0.69,1.54-0.93
					C540.35,203.21,540.54,203.11,540.55,203.12z"/>
			</g>
		</g>
	</g>
</g>
<g id="Light_Bulb">
	<g>
		<g>
			<g>
				<path class="st4" d="M70.33,159.65c-0.12,0.07-4.37-7.31-9.49-16.47c-5.12-9.16-9.18-16.65-9.06-16.71
					c0.12-0.07,4.37,7.31,9.49,16.47C66.39,152.1,70.45,159.58,70.33,159.65z"/>
			</g>
			<g>
				<path class="st4" d="M84.69,127.85c0.14,0.01-0.06,5.66-0.45,12.61c-0.39,6.96-0.81,12.59-0.94,12.59
					c-0.14-0.01,0.06-5.65,0.45-12.61C84.13,133.47,84.55,127.84,84.69,127.85z"/>
			</g>
			<g>
				<path class="st4" d="M60.06,167.47c-0.04,0.13-4.84-1.37-10.7-3.36c-5.87-1.98-10.59-3.7-10.55-3.83
					c0.04-0.13,4.84,1.37,10.7,3.36C55.38,165.63,60.1,167.34,60.06,167.47z"/>
			</g>
		</g>
		<g>
			<g>
				<g>
					<g>
						<g>
							<path class="st5" d="M131.92,181.65c-8.84-20.17-32.36-29.36-52.53-20.53c-20.17,8.84-29.36,32.36-20.53,52.53
								c6.4,14.61,20.49,23.45,35.44,23.87c1.9,4.33,4.04,9.22,4.04,9.22l32.02-14.03c0,0-2.07-5.26-4.02-9.91
								C135.44,211.59,138.11,195.8,131.92,181.65z"/>
						</g>
					</g>
				</g>
			</g>
		</g>
		<g>
			<path class="st16" d="M125.56,234.81c0,0-0.09-0.14-0.26-0.43c-0.17-0.29-0.41-0.71-0.73-1.26c-0.64-1.11-1.57-2.76-2.73-4.91
				c-2.32-4.29-5.58-10.56-9.16-18.51c-0.9-1.99-1.81-4.08-2.74-6.28c-0.46-1.1-0.92-2.22-1.39-3.36c-0.46-1.14-0.98-2.33-1.08-3.64
				c-0.05-0.65,0.03-1.33,0.29-1.96c0.26-0.62,0.72-1.2,1.39-1.46c0.67-0.26,1.43-0.11,2.03,0.23c0.6,0.35,1.12,0.86,1.45,1.49
				c0.68,1.27,0.54,2.84-0.07,4.12c-0.61,1.3-1.67,2.39-2.95,3.1c-1.28,0.72-2.79,1.06-4.29,0.93c-1.5-0.11-2.96-0.74-4.17-1.66
				c-1.22-0.93-2.22-2.16-2.88-3.58c-0.32-0.71-0.58-1.46-0.66-2.26c-0.08-0.78,0.01-1.65,0.52-2.33c0.25-0.33,0.62-0.59,1.02-0.72
				c0.4-0.13,0.83-0.15,1.23-0.09c0.82,0.11,1.57,0.56,2.15,1.14c0.58,0.58,1.03,1.27,1.41,1.99c0.38,0.72,0.72,1.45,1.02,2.21
				c0.61,1.51,1.07,3.11,1.21,4.77c0.14,1.65-0.05,3.38-0.83,4.9c-0.38,0.76-0.88,1.46-1.49,2.04c-0.62,0.58-1.36,1.03-2.17,1.28
				c-0.81,0.24-1.68,0.25-2.5,0.09c-0.82-0.16-1.59-0.52-2.28-0.96c-1.39-0.89-2.52-2.09-3.52-3.34c-0.5-0.62-0.97-1.27-1.43-1.92
				c-0.45-0.65-0.91-1.3-1.25-2.03c-0.34-0.72-0.54-1.55-0.39-2.36c0.07-0.4,0.22-0.79,0.48-1.12c0.25-0.33,0.64-0.57,1.05-0.64
				c0.41-0.08,0.84,0,1.2,0.16c0.37,0.16,0.7,0.38,1,0.63c0.6,0.5,1.08,1.12,1.5,1.75c1.69,2.51,2.71,5.49,2.46,8.43
				c-0.13,1.46-0.63,2.86-1.44,4.04c-0.8,1.17-1.96,2.12-3.3,2.54c-1.34,0.44-2.8,0.24-4.02-0.33c-1.23-0.56-2.27-1.49-2.9-2.64
				c-0.32-0.57-0.54-1.19-0.62-1.84c-0.07-0.64-0.02-1.32,0.34-1.89c0.18-0.28,0.46-0.5,0.77-0.61c0.32-0.11,0.66-0.1,0.97,0
				c0.62,0.21,1.08,0.65,1.48,1.1c0.81,0.92,1.25,2.03,1.77,3.03c0.51,1.02,1.01,2.02,1.5,2.99c3.89,7.8,6.92,14.18,8.94,18.62
				c1.01,2.22,1.76,3.96,2.27,5.14c0.24,0.59,0.43,1.04,0.56,1.35c0.12,0.3,0.18,0.46,0.18,0.46s-0.07-0.15-0.21-0.45
				c-0.13-0.31-0.33-0.75-0.59-1.34c-0.52-1.17-1.29-2.9-2.31-5.11c-2.05-4.43-5.11-10.78-9.02-18.57
				c-0.49-0.97-0.99-1.97-1.51-2.99c-0.53-1.01-0.97-2.1-1.75-2.98c-0.38-0.44-0.83-0.85-1.38-1.03c-0.54-0.2-1.17,0.02-1.48,0.51
				c-0.31,0.49-0.37,1.13-0.3,1.73c0.08,0.6,0.29,1.2,0.6,1.75c0.61,1.1,1.61,1.99,2.79,2.53c1.17,0.55,2.57,0.73,3.84,0.32
				c1.28-0.4,2.38-1.31,3.16-2.44c0.78-1.14,1.27-2.5,1.39-3.92c0.24-2.85-0.76-5.78-2.42-8.25c-0.42-0.62-0.88-1.21-1.45-1.69
				c-0.56-0.46-1.27-0.86-1.98-0.73c-0.72,0.11-1.19,0.81-1.3,1.54c-0.14,0.74,0.05,1.5,0.37,2.19c0.32,0.7,0.77,1.34,1.22,1.99
				c0.45,0.65,0.92,1.29,1.41,1.9c0.99,1.23,2.1,2.41,3.45,3.27c0.67,0.43,1.41,0.77,2.19,0.92c0.78,0.15,1.6,0.15,2.36-0.08
				c1.54-0.46,2.77-1.71,3.49-3.17c0.75-1.46,0.93-3.14,0.8-4.75c-0.14-1.62-0.58-3.19-1.19-4.68c-0.63-1.47-1.27-2.99-2.37-4.1
				c-0.55-0.55-1.23-0.95-1.99-1.06c-0.74-0.12-1.54,0.1-1.99,0.7c-0.45,0.59-0.54,1.39-0.47,2.13c0.07,0.76,0.32,1.48,0.63,2.17
				c0.63,1.38,1.61,2.58,2.79,3.48c1.18,0.9,2.58,1.5,4.03,1.61c1.44,0.12,2.9-0.2,4.14-0.89c1.23-0.69,2.26-1.73,2.84-2.98
				c0.58-1.23,0.71-2.72,0.08-3.89c-0.31-0.58-0.79-1.07-1.35-1.39c-0.56-0.31-1.24-0.44-1.82-0.21c-0.59,0.22-1.01,0.75-1.25,1.32
				c-0.24,0.58-0.32,1.22-0.27,1.84c0.1,1.26,0.6,2.43,1.06,3.57c0.47,1.14,0.93,2.26,1.39,3.36c0.92,2.19,1.83,4.29,2.72,6.28
				c3.55,7.96,6.79,14.24,9.07,18.54c1.15,2.15,2.06,3.81,2.68,4.93c0.31,0.56,0.54,0.98,0.71,1.28
				C125.48,234.65,125.56,234.81,125.56,234.81z"/>
		</g>
		<g>
			<path class="st4" d="M97.46,234.72c0,0.01-0.17,0.03-0.49,0.05c-0.32,0.01-0.8,0.06-1.41,0.06c-1.22,0.03-3-0.03-5.17-0.31
				c-2.17-0.28-4.74-0.82-7.47-1.78c-2.74-0.95-5.63-2.34-8.42-4.19c-2.77-1.87-5.16-4.02-7.08-6.2c-1.92-2.17-3.41-4.33-4.49-6.24
				c-1.08-1.9-1.81-3.52-2.25-4.67c-0.24-0.56-0.37-1.02-0.48-1.32c-0.1-0.3-0.15-0.47-0.14-0.47c0.01,0,0.08,0.15,0.2,0.45
				c0.13,0.3,0.28,0.74,0.53,1.3c0.47,1.12,1.22,2.73,2.32,4.61c1.1,1.88,2.59,4.02,4.51,6.16c1.92,2.15,4.29,4.27,7.04,6.13
				c2.77,1.84,5.63,3.22,8.35,4.18c2.71,0.96,5.26,1.53,7.41,1.83c2.16,0.3,3.92,0.39,5.14,0.4c0.61,0.02,1.08-0.01,1.4,0
				C97.29,234.71,97.46,234.71,97.46,234.72z"/>
		</g>
		<g>
			<path class="st4" d="M58.56,202.02c0.08-0.01,0.3,0.89,0.49,2.01c0.19,1.12,0.29,2.04,0.21,2.06c-0.08,0.01-0.3-0.89-0.49-2.01
				C58.57,202.96,58.48,202.03,58.56,202.02z"/>
		</g>
		<g>
			<path class="st4" d="M131.59,191.91c-0.01,0-0.05-0.14-0.11-0.41c-0.07-0.3-0.15-0.69-0.26-1.19c-0.05-0.26-0.11-0.55-0.18-0.86
				c-0.08-0.31-0.18-0.64-0.28-1c-0.21-0.72-0.41-1.55-0.76-2.42c-0.16-0.44-0.33-0.9-0.51-1.39c-0.18-0.48-0.42-0.96-0.64-1.47
				c-0.42-1.02-1-2.05-1.58-3.15c-1.25-2.15-2.8-4.41-4.69-6.56c-1.92-2.13-3.97-3.94-5.96-5.44c-1.02-0.71-1.97-1.41-2.94-1.95
				c-0.48-0.28-0.92-0.57-1.38-0.81c-0.46-0.23-0.9-0.45-1.32-0.67c-0.83-0.45-1.63-0.74-2.31-1.04c-0.35-0.14-0.66-0.29-0.96-0.4
				c-0.3-0.1-0.58-0.2-0.83-0.28c-0.48-0.17-0.86-0.3-1.15-0.4c-0.26-0.09-0.4-0.15-0.39-0.16c0-0.01,0.14,0.03,0.41,0.1
				c0.29,0.09,0.68,0.2,1.16,0.35c0.26,0.08,0.54,0.16,0.84,0.26c0.3,0.1,0.62,0.24,0.97,0.38c0.69,0.29,1.5,0.56,2.34,1.01
				c0.42,0.21,0.87,0.43,1.33,0.65c0.46,0.23,0.91,0.52,1.4,0.8c0.98,0.53,1.94,1.23,2.97,1.94c2.01,1.49,4.09,3.31,6.02,5.46
				c1.9,2.17,3.46,4.45,4.7,6.62c0.58,1.11,1.16,2.15,1.57,3.18c0.22,0.51,0.45,1,0.63,1.48c0.17,0.49,0.33,0.95,0.49,1.4
				c0.34,0.88,0.52,1.72,0.72,2.45c0.09,0.36,0.19,0.7,0.26,1.01c0.06,0.31,0.11,0.6,0.16,0.87c0.09,0.5,0.15,0.9,0.21,1.2
				C131.58,191.76,131.6,191.91,131.59,191.91z"/>
		</g>
		<g class="st17">
			<path class="st16" d="M82.47,172.04c-1.31-1.26-3.49-1.63-5.77-1.35c-3.26,0.4-6.18,2.18-8.22,4.76
				c-6.01,7.57-8.27,14.5-7.13,24.55c0.39,3.4,2.1,8.55,4.85,10.85c1.39,1.15,3.16,1.78,4.95,1.55c4.65-0.61,6.17-6.05,5.77-10.44
				c-0.37-4.09-1.71-8.31-0.39-12.2c1.08-3.2,3.78-5.56,5.65-8.38C84.04,178.55,84.91,174.39,82.47,172.04z"/>
		</g>
		<g class="st17">
			<path class="st16" d="M96.49,164.2c-2.37-1.75-6.18-1.23-7.76,0.52c-1.27,1.49-1.85,3.58-1.43,5.49c0.5,2.31,2.52,4.22,4.86,4.54
				c2.34,0.31,4.83-1.05,5.76-3.21C98.87,169.36,98.39,165.6,96.49,164.2z"/>
		</g>
		<g>
			<g id="_x32_gGvdE.tif_1_">
				<path class="st10" d="M115.4,261.4c0,0,1.68,0.28,2.9,0.94c0.63,0.34,1.4,0.35,2.05,0.06l6.44-2.83
					c0.72-0.32,1.25-0.97,1.39-1.74c0.16-0.91,0.65-2.11,1.45-2.68L115.4,261.4z"/>
			</g>
			<path class="st18" d="M100.55,246.52c0.06,0.13,5.97,9.53,8.23,13.13c0.93,1.48,2.52,2.45,4.26,2.48c0.64,0.01,1.32-0.1,2.01-0.4
				c2.76-1.21,14.09-6.18,14.09-6.18s3.68-1.62,3.23-4.9c-0.47-3.46-4.11-16.28-4.11-16.28L100.55,246.52z"/>
			<g>
				<path class="st18" d="M132.68,248.9l-24.5,10.86c-0.38,0.17-0.84,0-1.01-0.39l-0.03-0.08c-0.17-0.38,0-0.84,0.39-1.01
					l24.5-10.86c0.38-0.17,0.84,0,1.01,0.39l0.03,0.08C133.24,248.28,133.07,248.73,132.68,248.9z"/>
				<g>
					<path class="st4" d="M132.68,248.9c-0.02-0.02,0.23-0.07,0.38-0.43c0.07-0.18,0.07-0.42-0.07-0.67
						c-0.12-0.24-0.43-0.45-0.78-0.38c-1.34,0.57-3.3,1.48-5.72,2.56c-4.85,2.16-11.53,5.14-18.91,8.42
						c-0.19,0.08-0.34,0.27-0.37,0.48c-0.02,0.1-0.01,0.21,0.03,0.31c0.04,0.1,0.09,0.21,0.15,0.29c0.13,0.16,0.35,0.24,0.55,0.21
						c0.19-0.03,0.43-0.17,0.65-0.26c0.9-0.4,1.79-0.79,2.66-1.18c1.74-0.77,3.43-1.51,5.03-2.22c3.2-1.41,6.09-2.68,8.52-3.75
						c2.42-1.05,4.38-1.91,5.75-2.5c0.67-0.28,1.19-0.51,1.57-0.67c0.17-0.07,0.31-0.12,0.41-0.17
						C132.63,248.91,132.68,248.89,132.68,248.9c0,0-0.04,0.03-0.13,0.07c-0.1,0.05-0.24,0.11-0.4,0.19
						c-0.37,0.17-0.89,0.41-1.55,0.71c-1.37,0.62-3.32,1.5-5.72,2.58c-2.42,1.08-5.3,2.37-8.5,3.8c-1.6,0.71-3.28,1.46-5.02,2.23
						c-0.87,0.39-1.76,0.78-2.66,1.18l-0.34,0.15c-0.1,0.05-0.24,0.11-0.39,0.13c-0.29,0.04-0.59-0.08-0.78-0.3
						c-0.1-0.12-0.15-0.24-0.2-0.37c-0.05-0.14-0.06-0.29-0.04-0.43c0.05-0.29,0.25-0.55,0.52-0.67c7.39-3.26,14.08-6.21,18.94-8.35
						c2.43-1.06,4.37-1.93,5.77-2.49c0.4-0.07,0.74,0.17,0.87,0.44c0.14,0.26,0.13,0.54,0.05,0.72
						C132.93,248.86,132.67,248.9,132.68,248.9z"/>
				</g>
			</g>
			<g>
				<path class="st18" d="M131.81,245.5l-25.54,11.32c-0.38,0.17-0.84,0-1.01-0.39l-0.03-0.08c-0.17-0.38,0-0.84,0.39-1.01
					l25.54-11.32c0.38-0.17,0.84,0,1.01,0.39l0.03,0.08C132.37,244.88,132.19,245.33,131.81,245.5z"/>
				<g>
					<path class="st4" d="M131.81,245.5c-0.02-0.02,0.24-0.07,0.38-0.45c0.07-0.19,0.05-0.44-0.1-0.69
						c-0.14-0.24-0.48-0.43-0.84-0.31c-1.42,0.64-3.44,1.55-5.94,2.67c-5.04,2.25-11.98,5.34-19.65,8.75
						c-0.2,0.09-0.35,0.28-0.37,0.5c-0.02,0.11,0,0.22,0.04,0.32c0.05,0.12,0.09,0.21,0.17,0.29c0.15,0.15,0.39,0.22,0.59,0.17
						c0.2-0.06,0.46-0.2,0.69-0.29c0.94-0.41,1.86-0.82,2.76-1.22c1.81-0.8,3.56-1.57,5.22-2.31c3.33-1.46,6.33-2.78,8.85-3.89
						c2.51-1.09,4.55-1.98,5.98-2.6c0.7-0.3,1.24-0.53,1.63-0.7c0.18-0.07,0.32-0.13,0.43-0.17
						C131.76,245.51,131.81,245.5,131.81,245.5c0,0-0.04,0.03-0.14,0.08c-0.11,0.05-0.24,0.12-0.42,0.2
						c-0.38,0.18-0.92,0.42-1.61,0.74c-1.42,0.64-3.45,1.55-5.94,2.68c-2.52,1.12-5.51,2.46-8.83,3.94
						c-1.66,0.74-3.41,1.52-5.22,2.32c-0.9,0.4-1.83,0.81-2.76,1.23c-0.25,0.1-0.44,0.21-0.73,0.31c-0.29,0.07-0.62-0.02-0.84-0.23
						c-0.11-0.1-0.19-0.25-0.23-0.37c-0.06-0.14-0.08-0.3-0.06-0.45c0.03-0.3,0.24-0.58,0.52-0.7c7.68-3.39,14.63-6.45,19.68-8.68
						c2.52-1.1,4.56-2,5.98-2.6c0.4-0.12,0.79,0.1,0.93,0.37c0.16,0.26,0.17,0.55,0.09,0.75
						C132.07,245.46,131.79,245.5,131.81,245.5z"/>
				</g>
			</g>
			<g>
				<path class="st18" d="M130.75,242.18l-26.2,11.61c-0.38,0.17-0.84,0-1.01-0.39l-0.03-0.08c-0.17-0.38,0-0.84,0.39-1.01
					l26.2-11.61c0.38-0.17,0.84,0,1.01,0.39l0.03,0.08C131.31,241.56,131.13,242.01,130.75,242.18z"/>
				<g>
					<path class="st4" d="M130.75,242.18c-0.02-0.02,0.25-0.07,0.39-0.46c0.07-0.19,0.04-0.45-0.12-0.7
						c-0.15-0.24-0.52-0.41-0.87-0.27c-1.45,0.65-3.53,1.59-6.08,2.74c-5.16,2.3-12.27,5.46-20.11,8.96
						c-0.21,0.09-0.35,0.29-0.37,0.52c-0.01,0.11,0.01,0.22,0.05,0.32c0.05,0.13,0.1,0.21,0.19,0.29c0.16,0.15,0.41,0.2,0.61,0.13
						c0.22-0.09,0.48-0.21,0.71-0.31c0.96-0.42,1.9-0.84,2.83-1.25c1.85-0.82,3.64-1.61,5.35-2.36c3.41-1.5,6.48-2.85,9.06-3.99
						c2.57-1.12,4.66-2.03,6.12-2.67c0.71-0.3,1.27-0.54,1.67-0.71c0.18-0.07,0.33-0.13,0.44-0.18
						C130.7,242.2,130.75,242.18,130.75,242.18s-0.05,0.03-0.14,0.08c-0.11,0.05-0.25,0.12-0.43,0.2c-0.39,0.18-0.95,0.43-1.65,0.76
						c-1.45,0.65-3.53,1.59-6.08,2.74c-2.58,1.15-5.64,2.52-9.04,4.04c-1.7,0.76-3.49,1.55-5.34,2.38
						c-0.93,0.41-1.87,0.83-2.83,1.25c-0.25,0.11-0.46,0.21-0.74,0.32c-0.29,0.1-0.64,0.02-0.87-0.19c-0.12-0.1-0.2-0.25-0.25-0.37
						c-0.06-0.14-0.09-0.3-0.07-0.46c0.03-0.31,0.24-0.6,0.53-0.73c7.86-3.47,14.97-6.61,20.14-8.89c2.57-1.12,4.66-2.03,6.12-2.67
						c0.4-0.16,0.81,0.05,0.97,0.32c0.17,0.27,0.19,0.56,0.11,0.76C131.02,242.15,130.73,242.18,130.75,242.18z"/>
				</g>
			</g>
			<g>
				<path class="st18" d="M129.89,238.78l-27.27,12.08c-0.38,0.17-0.84,0-1.01-0.39l-0.03-0.08c-0.17-0.38,0-0.84,0.39-1.01
					l27.27-12.08c0.38-0.17,0.84,0,1.01,0.39l0.03,0.08C130.45,238.16,130.27,238.61,129.89,238.78z"/>
				<g>
					<path class="st4" d="M129.89,238.78c-0.02-0.02,0.26-0.08,0.4-0.48c0.07-0.2,0.02-0.47-0.16-0.72
						c-0.17-0.24-0.57-0.39-0.92-0.19c-1.51,0.68-3.66,1.65-6.31,2.84c-5.35,2.38-12.72,5.66-20.86,9.29
						c-0.21,0.09-0.36,0.31-0.38,0.54c-0.01,0.22,0.11,0.48,0.28,0.62c0.18,0.14,0.44,0.17,0.65,0.07c0.25-0.11,0.5-0.22,0.75-0.33
						c0.99-0.44,1.97-0.87,2.93-1.3c1.92-0.85,3.78-1.67,5.55-2.45c3.53-1.56,6.72-2.96,9.4-4.13c2.67-1.16,4.83-2.11,6.35-2.77
						c0.74-0.32,1.32-0.56,1.73-0.74c0.19-0.08,0.34-0.14,0.45-0.19C129.83,238.8,129.89,238.78,129.89,238.78
						c0,0-0.05,0.03-0.15,0.08c-0.11,0.05-0.26,0.12-0.44,0.21c-0.41,0.19-0.98,0.45-1.71,0.78c-1.51,0.68-3.66,1.65-6.31,2.84
						c-2.67,1.19-5.85,2.61-9.38,4.19c-1.77,0.79-3.62,1.61-5.54,2.46c-0.96,0.43-1.94,0.86-2.93,1.3c-0.25,0.11-0.5,0.22-0.75,0.33
						c-0.29,0.13-0.66,0.09-0.91-0.1c-0.13-0.1-0.23-0.24-0.29-0.38c-0.06-0.13-0.11-0.3-0.09-0.46c0.02-0.33,0.23-0.63,0.53-0.76
						c8.15-3.6,15.53-6.85,20.9-9.22c2.67-1.16,4.83-2.11,6.35-2.77c0.39-0.21,0.84-0.03,1.03,0.24c0.18,0.27,0.23,0.57,0.15,0.78
						c-0.07,0.21-0.2,0.33-0.29,0.4C129.95,238.77,129.89,238.78,129.89,238.78z"/>
				</g>
			</g>
			<path class="st10" d="M93.19,239.4c0.11,0.26,3.4,6.17,5.09,9.2c0.62,1.11,1.71,1.88,2.97,2.08l1.85,0.3l27.24-11.96l1.01-1.54
				c0.71-1.08,0.88-2.42,0.46-3.64l-3.39-9.91L93.19,239.4z"/>
			<g class="st13">
				<path d="M109.06,259.29c2.88-0.56,5.52-1.66,8.4-2.93c2.32-1.03,4.63-1.97,7.13-3.13c1.83-0.85,3.49-1.69,5.3-2.58
					c0.92-0.45,1.83-1.14,1.94-1.41L109.06,259.29z"/>
			</g>
			<g class="st13">
				<path d="M106.69,256.54c3.09-0.65,5.93-1.84,9.03-3.21c2.5-1.11,4.99-2.13,7.69-3.37c1.98-0.91,3.77-1.81,5.72-2.76
					c0.99-0.48,1.99-1.2,2.11-1.48L106.69,256.54z"/>
			</g>
			<g class="st13">
				<path d="M105.31,253.39c3.09-0.65,5.93-1.84,9.03-3.21c2.5-1.11,4.99-2.13,7.69-3.37c1.98-0.91,3.77-1.81,5.72-2.76
					c0.99-0.48,1.99-1.2,2.11-1.48L105.31,253.39z"/>
			</g>
			<g class="st13">
				<path d="M103.93,250.25c3.09-0.65,5.93-1.84,9.03-3.21c2.5-1.11,4.99-2.13,7.69-3.37c1.98-0.91,3.77-1.81,5.72-2.76
					c0.99-0.48,1.99-1.2,2.11-1.48L103.93,250.25z"/>
			</g>
			<g>
				<path class="st4" d="M131.72,235.45c0.03,0.07-7.23,3.32-16.22,7.26c-8.99,3.95-16.3,7.09-16.32,7.02
					c-0.03-0.07,7.23-3.32,16.22-7.26C124.38,238.53,131.69,235.38,131.72,235.45z"/>
			</g>
			<g>
				<path class="st4" d="M128.15,223.83c0.03,0.07-7.84,3.63-17.58,7.96c-9.75,4.32-17.67,7.77-17.71,7.7
					c-0.03-0.07,7.84-3.63,17.58-7.96C120.19,227.21,128.12,223.76,128.15,223.83z"/>
			</g>
		</g>
	</g>
</g>
<g id="Speech_Bubble_1_">
	<g>
		<g>
			<g>
				<g>
					<g>
						<g>
							<g class="st19">
								<g>
									<path class="st3" d="M448.32,156.95l-12.49-1.46c-5.03,5.11-11.5,8.94-18.98,10.78c-21.51,5.29-43.22-7.86-48.51-29.37
										c-5.29-21.51,7.86-43.22,29.37-48.51c21.51-5.29,43.22,7.86,48.51,29.37c2.21,8.98,1.19,17.99-2.3,25.83l0.01-0.02
										L448.32,156.95z"/>
								</g>
							</g>
							<g>
								<g>
									<g>
										<path class="st4" d="M448.32,156.95c0,0-0.11-0.31-0.31-0.88c-0.2-0.59-0.49-1.45-0.87-2.56
											c-0.76-2.26-1.87-5.57-3.32-9.89l0.22,0.04l-0.01,0.02c-0.04,0.05-0.12,0.06-0.18,0.02c-0.05-0.04-0.06-0.1-0.04-0.15
											c2.09-4.79,3.93-11.52,3.25-19.49c-0.17-1.98-0.48-4.03-1-6.1c-0.61-2.05-1.17-4.19-2.13-6.26
											c-1.79-4.18-4.4-8.31-7.92-11.96c-3.5-3.64-7.9-6.78-12.95-8.95c-5.05-2.18-10.75-3.38-16.63-3.26
											c-11.75,0.13-24.14,6.17-31.58,16.77c-3.76,5.39-6.27,11.57-7.01,17.85c-0.81,6.27-0.1,12.56,1.84,18.24
											c1.92,5.69,5.18,10.68,9.07,14.69c3.91,4.01,8.49,7.03,13.22,9c4.73,1.99,9.6,2.94,14.19,3.08
											c0.57,0.01,1.15,0.01,1.71,0.02c0.57,0.02,1.13,0.02,1.68-0.05c1.11-0.1,2.2-0.19,3.27-0.29
											c2.11-0.42,4.17-0.72,6.08-1.33c7.69-2.31,13.25-6.47,16.85-10.1c0.03-0.03,0.06-0.04,0.1-0.03
											c4.03,0.5,7.13,0.89,9.24,1.15c1.05,0.13,1.84,0.24,2.4,0.31C448.03,156.91,448.32,156.95,448.32,156.95
											s-0.26-0.02-0.79-0.07c-0.55-0.06-1.34-0.14-2.37-0.25c-2.14-0.23-5.27-0.57-9.35-1.02l0.1-0.03
											c-3.59,3.69-9.17,7.92-16.91,10.29c-1.92,0.63-4,0.94-6.13,1.37c-1.08,0.1-2.18,0.2-3.3,0.31
											c-0.56,0.07-1.13,0.08-1.7,0.06c-0.57-0.01-1.15-0.01-1.73-0.02c-4.64-0.13-9.56-1.07-14.36-3.07
											c-4.79-1.99-9.44-5.03-13.4-9.08c-3.95-4.05-7.26-9.1-9.21-14.87c-1.97-5.74-2.7-12.12-1.89-18.48
											c0.75-6.38,3.29-12.64,7.1-18.11c0.43-0.7,0.96-1.31,1.48-1.94l1.55-1.88l1.71-1.72c0.56-0.58,1.13-1.15,1.77-1.64
											c0.62-0.51,1.24-1.02,1.85-1.53c0.6-0.53,1.31-0.91,1.95-1.37c0.67-0.43,1.3-0.91,1.99-1.3c0.7-0.37,1.39-0.75,2.08-1.12
											c5.57-2.89,11.69-4.42,17.65-4.5c5.96-0.12,11.74,1.11,16.85,3.33c5.12,2.21,9.56,5.4,13.09,9.09
											c3.55,3.69,6.18,7.89,7.97,12.12c0.96,2.1,1.52,4.26,2.13,6.33c0.51,2.1,0.82,4.17,0.98,6.17
											c0.65,8.05-1.24,14.82-3.39,19.62l-0.21-0.13l0.01-0.02c0.04-0.05,0.12-0.06,0.18-0.02c0.02,0.02,0.03,0.04,0.04,0.06
											c1.4,4.37,2.47,7.73,3.2,10.02c0.35,1.11,0.62,1.96,0.81,2.55C448.24,156.68,448.32,156.95,448.32,156.95z"/>
									</g>
								</g>
							</g>
						</g>
					</g>
				</g>
			</g>
		</g>
		<g>
			<g>
				<g>
					<g>
						<polygon class="st10" points="388.81,128.26 393.61,122.95 403.79,131.13 418.91,113.76 423.86,118.58 403.56,140.91 						
							"/>
					</g>
				</g>
			</g>
		</g>
		<g>
			<path class="st20" d="M338.28,160.42c1.81-0.23,4.47-0.56,7.93-0.99c0.03,0,0.06,0.01,0.08,0.03c3.09,3.12,7.86,6.68,14.45,8.66
				c1.63,0.53,3.4,0.78,5.21,1.14c0.92,0.08,1.85,0.16,2.81,0.25c0.47,0.06,0.96,0.06,1.44,0.05c0.48-0.01,0.97-0.01,1.47-0.02
				c3.93-0.12,8.11-0.94,12.17-2.64c1.04-0.44,2.07-0.93,3.09-1.48c-0.31-0.12-0.62-0.23-0.93-0.36c-4.69-1.95-9.25-4.93-13.14-8.9
				c-3.87-3.97-7.12-8.92-9.03-14.57c-1.93-5.63-2.65-11.88-1.85-18.12c0.73-6.25,3.22-12.39,6.96-17.75
				c0.42-0.68,0.94-1.29,1.45-1.9l1.52-1.84l0.65-0.66c-0.37-0.02-0.75-0.04-1.12-0.05c-5.04-0.1-9.94,0.93-14.26,2.79
				c-4.33,1.86-8.1,4.55-11.11,7.67c-3.01,3.12-5.26,6.67-6.79,10.25c-0.82,1.77-1.3,3.61-1.83,5.37c-0.44,1.78-0.71,3.53-0.86,5.23
				c-0.59,6.83,0.99,12.6,2.78,16.71c0.02,0.04,0.01,0.09-0.03,0.13c-1.23,3.67-2.18,6.49-2.83,8.41c-0.32,0.96-0.57,1.69-0.75,2.2
				c-0.17,0.5-0.27,0.76-0.27,0.76s0.25-0.04,0.71-0.1C336.7,160.62,337.39,160.54,338.28,160.42z"/>
			<g>
				<path class="st4" d="M338.28,160.42c0,0-0.23,0.05-0.7,0.12c-0.48,0.07-1.17,0.17-2.07,0.3l-0.09,0.01l0.03-0.09
					c0.77-2.34,2.06-6.22,3.77-11.39l0.04-0.06c-0.02-0.01,0.01,0.06-0.02-0.01l-0.07-0.16l-0.14-0.33
					c-0.09-0.22-0.18-0.44-0.27-0.67c-0.18-0.45-0.35-0.92-0.52-1.4c-0.34-0.96-0.64-1.97-0.91-3.03c-0.53-2.12-0.91-4.44-1-6.91
					c-0.1-2.47,0.06-5.1,0.56-7.8c0.23-1.36,0.66-2.71,1.07-4.07c0.4-1.38,0.98-2.75,1.6-4.09c2.51-5.42,6.73-10.64,12.51-14.34
					c5.73-3.71,12.99-5.87,20.51-5.45l0.57,0.03l-0.4,0.4c-0.2,0.2-0.43,0.43-0.65,0.66l0.02-0.02c-4.59,5.17-8.09,11.72-9.49,18.92
					c-1.87,9.87,0.12,20.04,4.93,27.86c4.79,7.89,12.03,13.46,19.46,16.29l0.49,0.19l-0.46,0.22c-1.82,0.87-3.57,1.78-5.41,2.35
					c-1.82,0.61-3.64,1.05-5.44,1.34c-3.58,0.59-7.09,0.52-10.25,0.14l-0.01,0l-0.01,0c-1.15-0.23-2.29-0.42-3.39-0.67
					c-1.11-0.23-2.15-0.59-3.16-0.93c-2.01-0.71-3.85-1.55-5.48-2.47c-3.28-1.84-5.77-3.94-7.62-5.81c-0.01-0.1-0.22,0-0.37,0
					c-0.16,0.02-0.31,0.04-0.47,0.06c-0.31,0.04-0.61,0.07-0.89,0.11c-0.58,0.07-1.12,0.13-1.62,0.19c-1,0.11-1.84,0.21-2.54,0.29
					c-0.67,0.07-1.19,0.13-1.56,0.17C338.46,160.42,338.28,160.42,338.28,160.42s0.18-0.04,0.53-0.09c0.37-0.05,0.89-0.13,1.55-0.22
					c0.69-0.09,1.54-0.21,2.53-0.34c0.5-0.07,1.04-0.14,1.62-0.21c0.29-0.04,0.59-0.08,0.89-0.12c0.15-0.02,0.31-0.04,0.47-0.06
					l0.24-0.03c0.05,0,0.05-0.02,0.15-0.01c0.04,0.01,0.08,0.03,0.11,0.06l0.04,0.04c1.86,1.84,4.35,3.9,7.62,5.7
					c3.26,1.81,7.28,3.29,11.96,3.96l-0.02,0c1.61,0.14,3.24,0.32,4.93,0.27c1.7-0.01,3.44-0.16,5.22-0.45
					c1.77-0.3,3.57-0.74,5.37-1.35c1.81-0.57,3.54-1.48,5.33-2.34l0.03,0.4c-7.52-2.84-14.87-8.47-19.73-16.45
					c-4.89-7.93-6.91-18.22-5.02-28.22c1.42-7.32,4.98-13.93,9.61-19.15l0.01-0.01l0,0c0.23-0.23,0.45-0.45,0.65-0.65l0.17,0.43
					c-7.41-0.42-14.57,1.7-20.23,5.35c-5.7,3.64-9.89,8.77-12.38,14.12c-0.63,1.35-1.19,2.67-1.6,4.04
					c-0.42,1.37-0.84,2.69-1.07,4.02c-0.51,2.67-0.68,5.27-0.59,7.71c0.08,2.45,0.44,4.75,0.95,6.85c0.26,1.05,0.55,2.06,0.88,3.01
					c0.17,0.47,0.33,0.94,0.51,1.39c0.09,0.22,0.18,0.45,0.27,0.67l0.14,0.33l0.07,0.16c0.03,0.03,0.07,0.25-0.05,0.31l0.04-0.06
					c-1.77,5.18-3.08,9.06-3.91,11.35l-0.06-0.08c0.9-0.11,1.59-0.19,2.08-0.24C338.05,160.43,338.28,160.42,338.28,160.42z"/>
			</g>
		</g>
	</g>
</g>
<g id="Chart_x0A_">
	<g>
		<path class="st10" d="M674.33,166.46h-12.44c-2.46,0-4.45-1.99-4.45-4.45V93.99c0-2.46,1.99-4.45,4.45-4.45h12.44
			c2.46,0,4.45,1.99,4.45,4.45v68.01C678.78,164.47,676.79,166.46,674.33,166.46z"/>
		<g>
			<g>
				<path class="st10" d="M607.31,169.72h-12.13c-2.54,0-4.6-2.06-4.6-4.6v-25.71c0-2.54,2.06-4.6,4.6-4.6h12.13
					c2.54,0,4.6,2.06,4.6,4.6v25.71C611.92,167.66,609.86,169.72,607.31,169.72z"/>
			</g>
			<g>
				<path class="st10" d="M639.98,169.72h-11.5c-2.72,0-4.92-2.2-4.92-4.92v-44.07c0-2.72,2.2-4.92,4.92-4.92h11.5
					c2.72,0,4.92,2.2,4.92,4.92v44.07C644.9,167.52,642.69,169.72,639.98,169.72z"/>
			</g>
			<g>
				<g>
					<path class="st4" d="M670.89,64.13c0.02,0.02-0.16,0.25-0.51,0.68c-0.41,0.48-0.93,1.1-1.58,1.87c-1.47,1.68-3.5,4.01-6.02,6.9
						c-5.25,5.92-12.53,14.12-20.93,23.59l-0.23,0.26l-0.3-0.19c-4.11-2.69-8.53-5.57-13.1-8.55l0.56-0.08
						c-0.16,0.19-0.33,0.39-0.5,0.59c-10.79,12.66-20.55,24.11-27.69,32.49l-0.18,0.21l-0.22-0.17c-4.34-3.22-7.88-5.85-10.41-7.73
						c-1.17-0.89-2.1-1.6-2.81-2.14c-0.64-0.5-0.96-0.77-0.94-0.79c0.02-0.02,0.38,0.2,1.04,0.65c0.73,0.51,1.69,1.17,2.9,2.01
						c2.57,1.83,6.16,4.38,10.57,7.51l-0.41,0.05c7.09-8.42,16.79-19.93,27.51-32.65c0.17-0.2,0.34-0.4,0.5-0.59l0.24-0.29
						l0.31,0.21c4.56,2.99,8.97,5.89,13.08,8.58l-0.53,0.07c8.49-9.39,15.85-17.53,21.15-23.39c2.6-2.83,4.69-5.1,6.2-6.74
						c0.69-0.73,1.25-1.32,1.68-1.78C670.66,64.31,670.87,64.11,670.89,64.13z"/>
				</g>
			</g>
			<g>
				<g>
					<path class="st4" d="M671.56,80.37c-0.12,0-0.22-1.87-0.3-4.91c-0.08-3.04-0.13-7.24-0.13-11.9l0.49,0.42
						c-0.13,0.02-0.28,0.05-0.42,0.07c-4.7,0.78-8.96,1.43-12.05,1.86c-3.09,0.43-5.01,0.64-5.03,0.53
						c-0.02-0.12,1.87-0.53,4.93-1.12c3.07-0.58,7.31-1.33,12.01-2.11c0.15-0.02,0.29-0.05,0.42-0.07l0.49-0.08l0,0.5
						c0,4.66-0.05,8.87-0.13,11.9C671.79,78.5,671.68,80.37,671.56,80.37z"/>
				</g>
			</g>
		</g>
	</g>
</g>
</svg>
