<?xml version="1.0" encoding="utf-8"?>
<!-- Generator: Adobe Illustrator 26.0.1, SVG Export Plug-In . SVG Version: 6.00 Build 0)  -->
<svg version="1.1" id="Layer_1" xmlns="http://www.w3.org/2000/svg" xmlns:xlink="http://www.w3.org/1999/xlink" x="0px" y="0px"
	 viewBox="0 0 600 450" style="enable-background:new 0 0 600 450;" xml:space="preserve">
<style type="text/css">
	.st0{fill:#2688BF;}
	.st1{fill:#FFFFFF;}
	.st2{opacity:0.75;}
	.st3{opacity:0.2;}
	.st4{fill:#1F417B;}
	.st5{fill:#F0BB8F;}
	.st6{opacity:0.5;}
	.st7{fill:#7BD1F6;}
	.st8{fill:#206096;}
	.st9{opacity:0.3;}
	.st10{fill:#D3EFFC;}
	.st11{fill:#2D6CA9;}
	.st12{fill:#E8AB79;}
	.st13{opacity:0.5;fill:#1F417B;}
	.st14{fill:#D6F0FF;}
	.st15{fill:#4C3E35;}
	.st16{fill:#EF384C;}
	.st17{opacity:0.7;}
	.st18{fill:#C3C6D5;}
	.st19{fill:#827A7F;}
	.st20{fill:#DBDFE8;}
	.st21{fill:#ECF0FA;}
	.st22{fill:#1F5493;}
	.st23{fill:#694329;}
	.st24{fill:#113870;}
	.st25{fill:#F8EBE0;}
	.st26{fill:#1F78A0;}
	.st27{fill:#A55F3E;}
	.st28{fill:#1B7BA5;}
	.st29{fill:#FFC92E;}
	.st30{fill:#F8F3E0;}
	.st31{fill:#7A553C;}
	.st32{fill:#759EE0;}
</style>
<g>
	<g>
		<polygon class="st0" points="290.25,144.51 287.25,140.57 284.25,144.51 285.7,144.51 285.7,147.96 288.8,147.96 288.8,144.51 		
			"/>
	</g>
	<g>
		<g>
			<rect x="266.09" y="144.42" class="st0" width="1.44" height="40.57"/>
		</g>
	</g>
	<g>
		<g>
			<rect x="262.48" y="180.67" class="st0" width="43.78" height="1.44"/>
		</g>
	</g>
	<g>
		<g>
			<g>
				<rect x="269.58" y="169.33" class="st0" width="6.67" height="9.29"/>
			</g>
			<g>
				<path class="st0" d="M276.25,179.05h-6.67c-0.24,0-0.43-0.19-0.43-0.43v-9.29c0-0.24,0.19-0.43,0.43-0.43h6.67
					c0.24,0,0.43,0.19,0.43,0.43v9.29C276.68,178.86,276.48,179.05,276.25,179.05z M270.01,178.19h5.8v-8.43h-5.8V178.19z"/>
			</g>
		</g>
	</g>
	<g>
		<g>
			<g>
				<rect x="276.26" y="165.99" class="st0" width="6.67" height="12.63"/>
			</g>
			<g>
				<path class="st0" d="M282.93,179.05h-6.67c-0.24,0-0.43-0.19-0.43-0.43v-12.63c0-0.24,0.19-0.43,0.43-0.43h6.67
					c0.24,0,0.43,0.19,0.43,0.43v12.63C283.36,178.86,283.17,179.05,282.93,179.05z M276.69,178.19h5.81v-11.77h-5.81V178.19z"/>
			</g>
		</g>
	</g>
	<g>
		<g>
			<g>
				<rect x="282.95" y="159.69" class="st0" width="6.67" height="18.93"/>
			</g>
			<g>
				<path class="st0" d="M289.61,179.05h-6.67c-0.24,0-0.43-0.19-0.43-0.43v-18.93c0-0.24,0.19-0.43,0.43-0.43h6.67
					c0.24,0,0.43,0.19,0.43,0.43v18.93C290.04,178.86,289.85,179.05,289.61,179.05z M283.38,178.19h5.8v-18.07h-5.8V178.19z"/>
			</g>
		</g>
	</g>
	<g>
		<g>
			<g>
				<rect x="289.63" y="155.06" class="st0" width="6.67" height="23.56"/>
			</g>
			<g>
				<path class="st0" d="M296.3,179.05h-6.67c-0.24,0-0.43-0.19-0.43-0.43v-23.56c0-0.24,0.19-0.43,0.43-0.43h6.67
					c0.24,0,0.43,0.19,0.43,0.43v23.56C296.73,178.86,296.53,179.05,296.3,179.05z M290.06,178.19h5.8v-22.7h-5.8V178.19z"/>
			</g>
		</g>
	</g>
	<g>
		<g>
			<g>
				<rect x="296.31" y="148.95" class="st0" width="6.67" height="29.67"/>
			</g>
			<g>
				<path class="st0" d="M302.98,179.05h-6.67c-0.24,0-0.43-0.19-0.43-0.43v-29.67c0-0.24,0.19-0.43,0.43-0.43h6.67
					c0.24,0,0.43,0.19,0.43,0.43v29.67C303.41,178.86,303.22,179.05,302.98,179.05z M296.74,178.19h5.8v-28.81h-5.8V178.19z"/>
			</g>
		</g>
	</g>
	<g>
		<g>
			<g>
				<polygon class="st0" points="272.81,168.03 271.53,167.14 275.3,161.75 278.75,161.75 282.28,155.04 285.86,155.04 
					289.38,149.91 292.86,149.91 296.28,143.65 297.54,142.29 298.68,143.35 297.49,144.63 293.78,151.47 290.2,151.47 
					286.68,156.6 283.22,156.6 279.69,163.31 276.11,163.31 				"/>
			</g>
		</g>
		<g>
			<g>
				<g>
					<polygon class="st0" points="299.76,145.58 301.13,139.53 295.2,141.37 					"/>
				</g>
			</g>
		</g>
	</g>
	<g>
		<polygon class="st0" points="277.67,154.54 273.81,149.48 269.96,154.54 271.81,154.54 271.81,158.98 275.81,158.98 
			275.81,154.54 		"/>
	</g>
	<g>
		<polygon class="st0" points="280.88,137.32 278.44,134.12 276.01,137.32 277.18,137.32 277.18,140.12 279.7,140.12 279.7,137.32 
					"/>
	</g>
</g>
<g>
	<g>
		<g>
			<g>
				<path class="st0" d="M162.59,157.67L162.59,157.67l-2.04-6.25c0,0-5.07,1.77-9.81,1.92l-5.38,3.28
					c-3.2,0.69,5.62,3.67,1.86,5.52c-6.36,3.12,5.39,9.8,7.75,7.86c2.37-1.94,11.02-3.3,11.02-3.3L162.59,157.67z"/>
			</g>
			<g>
				<path class="st1" d="M153.74,170.9L153.74,170.9c-2.75,0-8.16-2.88-8.85-5.83c-0.23-0.98-0.05-2.37,2.1-3.43
					c0.39-0.19,0.62-0.4,0.64-0.57c0.05-0.51-1.1-1.41-1.86-2c-1.05-0.82-1.81-1.41-1.64-2.15c0.13-0.56,0.73-0.75,1.03-0.82
					l5.42-3.31l0.15,0c4.6-0.14,9.59-1.87,9.65-1.89l0.53-0.18l2.21,6.78l3.65,9.64l-0.67,0.11c-0.09,0.01-8.53,1.36-10.76,3.19
					C154.96,170.74,154.42,170.9,153.74,170.9z M145.3,157.21c0.22,0.26,0.77,0.69,1.15,0.99c1.18,0.92,2.4,1.87,2.28,2.99
					c-0.06,0.58-0.48,1.07-1.25,1.45c-1.81,0.89-1.59,1.87-1.51,2.19c0.52,2.26,5.22,4.97,7.77,4.97h0c0.41,0,0.72-0.08,0.9-0.22
					c2.09-1.71,8.51-2.94,10.62-3.31l-3.18-8.4l-1.87-5.74c-1.42,0.45-5.41,1.62-9.29,1.77l-5.42,3.28
					C145.41,157.18,145.35,157.2,145.3,157.21z"/>
			</g>
		</g>
		<g>
			<g>
				<path class="st0" d="M114.98,162.39c0,0,7.93,7.15,8.97,8.71c1.05,1.56,19.88,16.95,21.73,9.07c0,0,4.01,0.1,4.11-3.44
					c0,0,3.1-0.51,3.2-4.05c0,0,3.08-0.51,3.23-3.49c0,0-11.98-4.65-16.42-15.63c0,0-15.15-1.8-16.52-2.64L114.98,162.39z"/>
			</g>
			<g>
				<path class="st1" d="M142.77,182.96C142.77,182.96,142.77,182.96,142.77,182.96c-6.08,0-18.46-10.32-19.28-11.55
					c-0.83-1.24-6.69-6.64-8.88-8.61l-0.37-0.33l8.9-12.28l0.43,0.27c0.92,0.56,10.48,1.87,16.29,2.56l0.32,0.04l0.12,0.3
					c4.3,10.63,15.99,15.28,16.11,15.32l0.37,0.14l-0.02,0.4c-0.13,2.41-1.99,3.54-3.26,3.9c-0.25,2.52-2,3.68-3.2,4.05
					c-0.3,2.57-2.6,3.42-4.21,3.54C145.61,182.18,144.47,182.96,142.77,182.96z M115.72,162.31c1.6,1.45,7.74,7.06,8.69,8.49
					c0.77,1.15,12.75,11.06,18.36,11.06l0,0c1.33,0,2.08-0.58,2.37-1.81l0.1-0.43l0.45,0.01h0c0.6,0,3.47-0.14,3.55-2.91l0.01-0.45
					l0.45-0.07c0.11-0.02,2.65-0.49,2.74-3.52l0.01-0.45l0.45-0.07c0.1-0.02,2.38-0.44,2.73-2.59c-2.13-0.91-12.06-5.6-16.21-15.47
					c-2.91-0.35-13.31-1.64-15.93-2.48L115.72,162.31z"/>
			</g>
		</g>
		<g>
			<g>
				<path class="st0" d="M152.24,163.47c0,0-6.09,2.55-10.29-4.56c0,0-6.68,6.25-10.45,2.8l8.62-8.94c0,0,2.54-1.25,6.03,0
					c1.34,0.48,2.95,0.62,4.59,0.57L152.24,163.47z"/>
			</g>
			<g>
				<path class="st1" d="M149.66,164.45c-2.2,0-5.31-0.83-7.82-4.7c-1.69,1.43-7.19,5.57-10.69,2.36l-0.42-0.38l9.16-9.46
					c0.11-0.06,2.79-1.34,6.46-0.02c1.15,0.41,2.63,0.59,4.39,0.54c0.3-0.02,0.56,0.23,0.57,0.53c0.01,0.3-0.23,0.56-0.53,0.57
					c-1.89,0.06-3.51-0.14-4.79-0.6c-2.88-1.03-5.08-0.24-5.52-0.06l-8.12,8.42c3.43,2.23,9.19-3.09,9.25-3.14l0.5-0.47l0.35,0.59
					c3.91,6.62,9.37,4.43,9.6,4.34c0.28-0.12,0.6,0.01,0.72,0.3c0.12,0.28-0.02,0.6-0.3,0.72
					C152.43,163.99,151.29,164.45,149.66,164.45z"/>
			</g>
		</g>
		<g>
			<g>
				<path class="st0" d="M129,174.78c-0.55,0.85-1.86,0.99-2.92,0.3l0,0c-1.06-0.69-1.46-1.94-0.91-2.79l2.2-3.39
					c0.56-0.85,1.86-0.98,2.92-0.3l0,0c1.06,0.69,1.47,1.94,0.91,2.79L129,174.78z"/>
			</g>
			<g>
				<path class="st1" d="M127.5,176.07c-0.6,0-1.19-0.18-1.72-0.53c-1.31-0.85-1.79-2.45-1.07-3.55l2.2-3.39
					c0.41-0.63,1.12-0.99,1.96-0.99c0.6,0,1.19,0.18,1.73,0.53c1.31,0.86,1.79,2.45,1.07,3.55l-2.21,3.39
					C129.05,175.71,128.34,176.07,127.5,176.07z M128.87,168.71c-0.45,0-0.83,0.18-1.03,0.49l-2.2,3.39
					c-0.39,0.6-0.05,1.51,0.75,2.03c0.77,0.5,1.79,0.43,2.15-0.14l2.21-3.39c0.39-0.59,0.05-1.51-0.75-2.03
					C129.65,168.83,129.25,168.71,128.87,168.71z"/>
			</g>
		</g>
		<g>
			<g>
				<path class="st0" d="M140.22,182.29c-0.56,0.85-1.86,0.99-2.92,0.3l0,0c-1.05-0.69-1.46-1.94-0.9-2.79l2.2-3.39
					c0.56-0.85,1.86-0.99,2.92-0.29l0,0c1.06,0.69,1.46,1.93,0.91,2.79L140.22,182.29z"/>
			</g>
			<g>
				<path class="st1" d="M138.72,183.58c-0.6,0-1.19-0.18-1.72-0.53c-1.31-0.85-1.78-2.45-1.07-3.56l2.2-3.39
					c0.41-0.63,1.12-0.99,1.96-0.99c0.6,0,1.2,0.19,1.73,0.53c0.7,0.46,1.2,1.15,1.35,1.89c0.13,0.59,0.03,1.18-0.28,1.66l-2.2,3.39
					C140.27,183.22,139.56,183.58,138.72,183.58z M140.09,176.22c-0.45,0-0.83,0.18-1.03,0.49l-2.2,3.39
					c-0.39,0.6-0.05,1.51,0.74,2.03c0.77,0.5,1.79,0.43,2.16-0.14l2.2-3.39c0.19-0.29,0.18-0.61,0.13-0.83
					c-0.1-0.46-0.42-0.9-0.88-1.19C140.87,176.35,140.47,176.22,140.09,176.22z"/>
			</g>
		</g>
		<g>
			<g>
				<path class="st0" d="M132.5,177.69c-0.65,1.01-2.05,1.27-3.1,0.59l0,0c-1.05-0.69-1.38-2.07-0.72-3.08l2.61-4.01
					c0.65-1.01,2.05-1.27,3.1-0.58l0,0c1.05,0.69,1.38,2.07,0.72,3.08L132.5,177.69z"/>
			</g>
			<g>
				<path class="st1" d="M130.68,179.21c-0.56,0-1.11-0.16-1.58-0.47c-1.31-0.85-1.7-2.57-0.88-3.84l2.61-4.01
					c0.49-0.76,1.35-1.22,2.28-1.22c0.56,0,1.11,0.16,1.58,0.47c1.31,0.86,1.7,2.58,0.89,3.84l-2.62,4.01
					C132.47,178.75,131.62,179.21,130.68,179.21z M133.11,170.77c-0.56,0-1.07,0.27-1.36,0.71l-2.61,4.01
					c-0.49,0.75-0.24,1.79,0.56,2.32c0.77,0.5,1.87,0.3,2.34-0.42l2.62-4.01c0.49-0.75,0.24-1.79-0.56-2.32
					C133.8,170.87,133.46,170.77,133.11,170.77z"/>
			</g>
		</g>
		<g>
			<g>
				<path class="st0" d="M136.33,180.18c-0.66,1.01-2.05,1.27-3.11,0.58l0,0c-1.05-0.69-1.38-2.06-0.72-3.08l2.62-4.01
					c0.66-1.01,2.05-1.27,3.11-0.59l0,0c1.05,0.69,1.38,2.07,0.72,3.08L136.33,180.18z"/>
			</g>
			<g>
				<path class="st1" d="M134.51,181.7c-0.56,0-1.11-0.16-1.59-0.48c-1.3-0.85-1.7-2.57-0.88-3.84l2.62-4.01
					c0.49-0.76,1.35-1.22,2.29-1.22c0.56,0,1.11,0.16,1.58,0.47c1.31,0.86,1.7,2.58,0.88,3.84l-2.61,4.01
					C136.3,181.25,135.45,181.7,134.51,181.7z M136.94,173.26c-0.56,0-1.07,0.27-1.36,0.72l-2.62,4.01
					c-0.49,0.75-0.24,1.79,0.56,2.31c0.78,0.51,1.87,0.31,2.35-0.42l2.61-4.01c0.49-0.75,0.24-1.79-0.56-2.32
					C137.63,173.36,137.29,173.26,136.94,173.26z"/>
			</g>
		</g>
		<g>
			<g>
				
					<rect x="160.31" y="149.5" transform="matrix(0.9431 -0.3326 0.3326 0.9431 -43.6869 62.8356)" class="st0" width="2.8" height="19.07"/>
			</g>
			<g>
				<path class="st1" d="M163.23,169.19l-6.73-19.01l3.68-1.3l6.73,19.02L163.23,169.19z M157.91,150.85l5.99,16.94l1.6-0.56
					l-5.99-16.94L157.91,150.85z"/>
			</g>
		</g>
		<g>
			<g>
				
					<rect x="162.36" y="146.69" transform="matrix(0.9428 -0.3333 0.3333 0.9428 -43.0315 64.2998)" class="st0" width="7.03" height="21.74"/>
			</g>
			<g>
				<path class="st1" d="M165.85,169.68l-7.62-21.54l7.67-2.71l7.61,21.54L165.85,169.68z M159.64,148.82l6.88,19.46l5.58-1.97
					l-6.88-19.46L159.64,148.82z"/>
			</g>
		</g>
		<g>
			<g>
				
					<rect x="111.68" y="157.09" transform="matrix(0.5171 -0.8559 0.8559 0.5171 -77.1241 180.2761)" class="st0" width="19.07" height="2.8"/>
			</g>
			<g>
				<path class="st1" d="M117.65,168.12l-3.34-2.02l10.46-17.25l3.34,2.02L117.65,168.12z M115.82,165.73l1.45,0.88l9.31-15.36
					l-1.45-0.88L115.82,165.73z"/>
			</g>
		</g>
		<g>
			<g>
				
					<rect x="106.56" y="152.68" transform="matrix(0.5184 -0.8551 0.8551 0.5184 -77.0173 175.6376)" class="st0" width="21.74" height="7.03"/>
			</g>
			<g>
				<path class="st1" d="M114.98,168.07l-6.95-4.21l11.85-19.54l6.95,4.22L114.98,168.07z M109.54,163.49l5.06,3.07l10.71-17.64
					l-5.07-3.08L109.54,163.49z"/>
			</g>
		</g>
	</g>
</g>
<g>
	<g>
		<g>
			<g>
				<path class="st0" d="M268.47,50.43h-0.11c-5.08,0.03-9.85,2.04-13.42,5.65c-3.57,3.62-5.52,8.4-5.49,13.49
					c0.06,10.43,8.59,18.92,19.02,18.92h0.12c5.08-0.03,9.85-2.04,13.42-5.65c3.57-3.61,5.52-8.41,5.49-13.49
					C287.43,58.92,278.9,50.43,268.47,50.43z"/>
			</g>
			<g>
				<path class="st1" d="M268.58,88.99h-0.12c-10.7,0-19.46-8.71-19.52-19.41c-0.03-5.22,1.97-10.13,5.64-13.84
					c3.67-3.71,8.56-5.77,13.78-5.8h0.12c10.7,0,19.46,8.71,19.53,19.41c0.03,5.22-1.97,10.13-5.64,13.84
					C278.69,86.9,273.8,88.96,268.58,88.99L268.58,88.99z M268.35,50.93c-4.95,0.03-9.59,1.98-13.07,5.5
					c-3.48,3.52-5.38,8.18-5.35,13.13c0.06,10.16,8.37,18.42,18.52,18.42h0.11c4.95-0.03,9.59-1.98,13.07-5.5
					c3.48-3.52,5.38-8.18,5.35-13.13c-0.06-10.16-8.37-18.42-18.53-18.42H268.35z"/>
			</g>
		</g>
		<g>
			<g>
				
					<rect x="268.02" y="50.43" transform="matrix(1 -2.911509e-03 2.911509e-03 1 -0.2011 0.7821)" class="st1" width="1" height="38.06"/>
			</g>
		</g>
		<g>
			<g>
				
					<rect x="249.5" y="68.96" transform="matrix(1 -2.498743e-03 2.498743e-03 1 -0.1727 0.6712)" class="st1" width="38.06" height="1"/>
			</g>
		</g>
		<g>
			<g>
				<path class="st1" d="M272.01,88.41l-0.84-0.54c12.88-20.27-0.54-36.96-0.67-37.13l0.77-0.64
					C271.4,50.28,285.27,67.53,272.01,88.41z"/>
			</g>
		</g>
		<g>
			<g>
				<path class="st1" d="M278.18,86.58l-0.84-0.54c11.61-18.27-0.48-32.85-0.6-33l0.76-0.65C277.63,52.55,290.19,67.68,278.18,86.58
					z"/>
			</g>
		</g>
		<g>
			<g>
				<path class="st1" d="M253.23,81.2l-0.63-0.78c0.14-0.11,14.27-11.35,31.91-0.14l-0.54,0.84
					C266.93,70.31,253.36,81.09,253.23,81.2z"/>
			</g>
		</g>
		<g>
			<g>
				<path class="st1" d="M268.47,63.6c-9.45,0-15.78-5.03-15.87-5.11l0.63-0.78c0.14,0.11,13.72,10.88,30.74,0.07l0.54,0.84
					C278.65,62.36,273.17,63.6,268.47,63.6z"/>
			</g>
		</g>
		<g>
			<g>
				<path class="st1" d="M258.86,86.58c-12.01-18.9,0.55-34.03,0.68-34.18l0.76,0.65c-0.12,0.14-12.2,14.73-0.6,33L258.86,86.58z"/>
			</g>
		</g>
		<g>
			<g>
				<path class="st1" d="M265.04,88.41c-13.27-20.88,0.6-38.13,0.75-38.3l0.77,0.64c-0.14,0.17-13.54,16.87-0.67,37.13L265.04,88.41
					z"/>
			</g>
		</g>
	</g>
	<g>
		<g>
			<g>
				<path class="st0" d="M270.64,79.47c0,7.67-6.49,13.89-14.49,13.89c-8.01,0-14.5-6.22-14.5-13.89c0-7.67,6.49-13.89,14.5-13.89
					C264.15,65.58,270.64,71.8,270.64,79.47z"/>
			</g>
		</g>
		<g>
			<g>
				<g>
					<path class="st0" d="M254.1,72.07c-0.33,0.4-0.5,0.89-0.5,1.48c0,0.57,0.22,1.04,0.67,1.43c0.44,0.38,0.99,0.73,1.66,1.05
						v-4.61C255.04,71.46,254.43,71.67,254.1,72.07z"/>
				</g>
				<g>
					<path class="st1" d="M256.43,76.83l-0.72-0.35c-0.69-0.33-1.28-0.71-1.76-1.12c-0.56-0.48-0.84-1.09-0.84-1.81
						c0-0.71,0.21-1.31,0.61-1.8c0.43-0.52,1.14-0.79,2.19-0.84l0.52-0.02V76.83z M255.43,71.97c-0.45,0.07-0.77,0.22-0.94,0.42
						c-0.26,0.31-0.38,0.69-0.38,1.16c0,0.42,0.16,0.76,0.49,1.05c0.24,0.21,0.52,0.4,0.83,0.59V71.97z"/>
				</g>
			</g>
			<g>
				<g>
					<path class="st0" d="M258.18,81.62c-0.48-0.38-1.06-0.73-1.74-1.05v4.99c0.83-0.09,1.45-0.35,1.86-0.78
						c0.41-0.43,0.61-0.99,0.61-1.68C258.9,82.49,258.66,82,258.18,81.62z"/>
				</g>
				<g>
					<path class="st1" d="M255.94,86.11v-6.33l0.71,0.33c0.71,0.33,1.33,0.71,1.84,1.11c0.6,0.48,0.91,1.11,0.91,1.86
						c0,0.82-0.25,1.51-0.75,2.03c-0.49,0.51-1.21,0.83-2.16,0.94L255.94,86.11z M256.94,81.39v3.57c0.43-0.11,0.76-0.29,0.99-0.53
						c0.32-0.33,0.47-0.77,0.47-1.34c0-0.45-0.17-0.79-0.53-1.08C257.59,81.79,257.28,81.58,256.94,81.39z"/>
				</g>
			</g>
			<g>
				<g>
					<path class="st0" d="M256.25,64.49c-8.18,0-14.81,6.63-14.81,14.81c0,8.18,6.63,14.81,14.81,14.81
						c8.18,0,14.81-6.63,14.81-14.81C271.07,71.12,264.43,64.49,256.25,64.49z M261.27,86.76c-0.88,0.97-2.08,1.6-3.61,1.88v2.63
						h-2.95v-2.46c-1.08-0.04-2.02-0.16-2.83-0.35c-0.81-0.19-1.44-0.41-1.9-0.66l1.11-3.24c0.34,0.21,0.82,0.4,1.43,0.59
						c0.61,0.19,1.34,0.32,2.19,0.4V79.8c-0.59-0.26-1.17-0.56-1.74-0.88c-0.58-0.32-1.09-0.71-1.54-1.16
						c-0.45-0.45-0.82-1-1.09-1.63c-0.28-0.63-0.41-1.38-0.41-2.25c0-1.63,0.43-2.89,1.29-3.78c0.86-0.9,2.03-1.48,3.5-1.74v-2.58
						h2.95v2.46c0.83,0.06,1.56,0.17,2.18,0.34c0.62,0.17,1.2,0.37,1.73,0.59l-1.02,3.12c-0.32-0.15-0.73-0.3-1.22-0.45
						c-0.49-0.15-1.05-0.27-1.67-0.34v5.32c0.59,0.26,1.17,0.56,1.77,0.89c0.6,0.33,1.12,0.72,1.59,1.18
						c0.46,0.45,0.84,0.98,1.13,1.6c0.29,0.61,0.44,1.35,0.44,2.2C262.58,84.43,262.14,85.78,261.27,86.76z"/>
				</g>
				<g>
					<path class="st1" d="M256.25,94.62c-8.44,0-15.32-6.87-15.32-15.31c0-8.44,6.87-15.31,15.32-15.31
						c8.44,0,15.31,6.87,15.31,15.31C271.57,87.75,264.7,94.62,256.25,94.62z M256.25,64.99c-7.89,0-14.31,6.42-14.31,14.31
						c0,7.89,6.42,14.31,14.31,14.31c7.89,0,14.31-6.42,14.31-14.31C270.57,71.41,264.15,64.99,256.25,64.99z M258.15,91.77h-3.95
						v-2.49c-0.91-0.06-1.73-0.17-2.45-0.34c-0.86-0.2-1.53-0.44-2.03-0.71l-0.37-0.2l1.44-4.22l0.53,0.32
						c0.31,0.19,0.75,0.37,1.32,0.54c0.44,0.14,0.95,0.24,1.55,0.32v-4.87c-0.49-0.23-0.98-0.48-1.49-0.76
						c-0.6-0.33-1.16-0.75-1.65-1.25c-0.5-0.5-0.9-1.1-1.2-1.78c-0.3-0.69-0.45-1.51-0.45-2.45c0-1.75,0.48-3.14,1.43-4.13
						c0.85-0.89,1.98-1.49,3.36-1.81v-2.67h3.95v2.5c0.68,0.07,1.28,0.17,1.81,0.32c0.64,0.17,1.24,0.38,1.79,0.61l0.42,0.18
						l-1.34,4.1l-0.51-0.24c-0.32-0.15-0.71-0.29-1.15-0.43c-0.31-0.1-0.65-0.18-1.03-0.24v4.42c0.49,0.23,1,0.49,1.51,0.78
						c0.63,0.35,1.2,0.77,1.69,1.26c0.5,0.49,0.92,1.08,1.23,1.74c0.32,0.69,0.49,1.5,0.49,2.41c0,1.86-0.49,3.34-1.45,4.4
						c-0.87,0.96-2.04,1.62-3.48,1.96V91.77z M255.21,90.77h1.94v-2.55l0.41-0.08c1.41-0.26,2.54-0.84,3.33-1.73
						c0.79-0.87,1.19-2.13,1.19-3.73c0-0.77-0.13-1.43-0.39-1.98c-0.27-0.55-0.61-1.04-1.03-1.46c-0.43-0.42-0.93-0.79-1.48-1.1
						c-0.59-0.33-1.18-0.62-1.73-0.87l-0.29-0.13v-6.21l0.56,0.07c0.66,0.08,1.24,0.2,1.76,0.36c0.27,0.08,0.53,0.17,0.76,0.26
						l0.71-2.16c-0.39-0.15-0.8-0.28-1.24-0.4c-0.58-0.16-1.28-0.27-2.09-0.32l-0.47-0.03v-2.43h-1.94v2.49l-0.41,0.07
						c-1.36,0.24-2.44,0.78-3.23,1.6c-0.76,0.79-1.15,1.95-1.15,3.43c0,0.8,0.12,1.49,0.37,2.05c0.25,0.57,0.58,1.07,0.99,1.47
						c0.43,0.43,0.91,0.79,1.43,1.08c0.59,0.33,1.14,0.61,1.7,0.86l0.3,0.13v6.62l-0.55-0.05c-0.91-0.08-1.66-0.22-2.3-0.42
						c-0.38-0.12-0.71-0.24-1-0.36l-0.78,2.27c0.37,0.16,0.84,0.3,1.4,0.43c0.77,0.18,1.69,0.29,2.74,0.33l0.48,0.02V90.77z"/>
				</g>
			</g>
		</g>
	</g>
</g>
<g>
	<g>
		<g>
			<g>
				<path class="st0" d="M138.54,81.26c0-5.91,5.22-10.69,11.65-10.69c6.43,0,11.65,4.79,11.65,10.69c0,5.91-5.22,10.69-11.65,10.69
					C143.75,91.95,138.54,87.17,138.54,81.26z"/>
			</g>
		</g>
		<g>
			<g>
				<path class="st0" d="M137.78,84.71c0.3,1.1,0.73,2.14,1.29,3.11l-2.53,2.53l4.74,4.74l2.53-2.53c0.96,0.56,2,1,3.1,1.29v3.57
					h6.7v-3.57c1.1-0.3,2.14-0.73,3.11-1.29l2.53,2.53l4.74-4.74l-2.53-2.53c0.56-0.96,1-2.01,1.29-3.11h3.57v-6.7h-3.57
					c-0.3-1.1-0.73-2.14-1.29-3.1l2.53-2.53l-4.74-4.74l-2.53,2.53c-0.96-0.56-2.01-1-3.11-1.29V65.3h-6.7v3.57
					c-1.1,0.3-2.14,0.73-3.11,1.29l-2.53-2.53l-4.74,4.74l2.52,2.53c-0.56,0.96-1,2-1.29,3.1h-3.57v6.7H137.78z M140.77,81.36
					c0-5.23,4.26-9.49,9.49-9.49c5.24,0,9.5,4.26,9.5,9.49c0,5.24-4.26,9.5-9.5,9.5C145.03,90.86,140.77,86.6,140.77,81.36z"/>
			</g>
			<g>
				<path class="st1" d="M146.51,94.16c-0.91-0.27-1.79-0.63-2.63-1.09l-2.6,2.6l-5.31-5.31l2.6-2.6c-0.46-0.84-0.83-1.72-1.1-2.64
					h-3.67v-7.51h3.67c0.27-0.91,0.63-1.79,1.09-2.63l-2.59-2.6l5.3-5.31l2.6,2.6c0.84-0.46,1.72-0.83,2.63-1.09V64.9h7.5v3.67
					c0.91,0.27,1.8,0.64,2.64,1.1l2.6-2.6l5.3,5.31l-2.59,2.6c0.46,0.84,0.83,1.72,1.1,2.63h3.67v7.51h-3.67
					c-0.27,0.91-0.64,1.8-1.1,2.64l2.6,2.59l-5.3,5.31l-2.6-2.6c-0.84,0.46-1.72,0.83-2.64,1.1v3.67h-7.51V94.16z M153.22,93.54
					l0.3-0.08c1.05-0.28,2.06-0.7,3.01-1.25l0.27-0.15l2.46,2.46l4.17-4.17l-2.46-2.46l0.15-0.27c0.55-0.95,0.97-1.96,1.25-3.01
					l0.08-0.3h3.48v-5.9h-3.48l-0.08-0.3c-0.28-1.05-0.7-2.06-1.25-3.01l-0.15-0.27l2.46-2.46l-4.17-4.17l-2.47,2.47l-0.27-0.15
					c-0.95-0.55-1.96-0.97-3.01-1.25l-0.3-0.08v-3.48h-5.89v3.48l-0.3,0.08c-1.05,0.28-2.06,0.7-3.01,1.25l-0.27,0.15l-2.46-2.46
					l-4.17,4.17l2.46,2.46l-0.16,0.27c-0.55,0.95-0.97,1.96-1.25,3l-0.08,0.3h-3.48v5.9h3.48l0.08,0.3c0.28,1.05,0.7,2.06,1.25,3.01
					l0.15,0.27l-2.46,2.46l4.17,4.17l2.46-2.46l0.27,0.15c0.95,0.55,1.96,0.97,3.01,1.25l0.3,0.08v3.48h5.9V93.54z M140.37,81.36
					c0-5.45,4.44-9.89,9.9-9.89c5.46,0,9.9,4.44,9.9,9.89c0,5.46-4.44,9.9-9.9,9.9C144.81,91.26,140.37,86.82,140.37,81.36z
					 M141.17,81.36c0,5.02,4.08,9.1,9.09,9.1c5.02,0,9.1-4.08,9.1-9.1c0-5.01-4.08-9.09-9.1-9.09
					C145.25,72.27,141.17,76.35,141.17,81.36z"/>
			</g>
		</g>
	</g>
	<g>
		<g>
			<g>
				<path class="st0" d="M127.98,83.19c1.76-4.03,6.74-5.74,11.13-3.82c4.39,1.92,6.52,6.73,4.76,10.76
					c-1.76,4.03-6.74,5.74-11.13,3.82C128.36,92.04,126.23,87.22,127.98,83.19z"/>
			</g>
		</g>
		<g>
			<g>
				<path class="st0" d="M126.44,85.32c-0.13,0.84-0.14,1.68-0.05,2.5l-2.48,0.97l1.82,4.64l2.48-0.97c0.49,0.67,1.07,1.28,1.73,1.8
					l-1.06,2.44l4.57,2l1.06-2.43c0.84,0.13,1.68,0.14,2.5,0.04l0.97,2.48l4.64-1.82l-0.97-2.48c0.67-0.49,1.28-1.07,1.81-1.73
					l2.43,1.06l2-4.57l-2.44-1.06c0.13-0.84,0.14-1.68,0.04-2.5l2.48-0.97l-1.82-4.64l-2.48,0.97c-0.49-0.67-1.07-1.28-1.73-1.81
					l1.06-2.44l-4.57-1.99l-1.06,2.44c-0.84-0.13-1.68-0.14-2.5-0.05l-0.97-2.48l-4.64,1.82l0.97,2.48
					c-0.67,0.49-1.27,1.07-1.8,1.73L126,79.69l-2,4.57L126.44,85.32z M129.48,83.93c1.56-3.57,5.73-5.2,9.3-3.64
					c3.57,1.56,5.21,5.73,3.65,9.3c-1.56,3.57-5.73,5.21-9.3,3.65C129.56,91.67,127.92,87.5,129.48,83.93z"/>
			</g>
			<g>
				<path class="st1" d="M136.76,96.74c-0.67,0.06-1.34,0.04-1.99-0.03l-1.1,2.53l-5.31-2.32l1.1-2.53
					c-0.5-0.43-0.97-0.91-1.38-1.44l-2.57,1.01l-2.11-5.39l2.57-1.01c-0.05-0.67-0.04-1.34,0.04-1.99l-2.52-1.1l2.32-5.31l2.53,1.1
					c0.43-0.5,0.91-0.97,1.44-1.38l-1-2.57l5.39-2.11l1.01,2.57c0.67-0.05,1.33-0.04,1.99,0.04l1.1-2.53l5.31,2.32l-1.1,2.53
					c0.51,0.43,0.97,0.91,1.38,1.44l2.57-1.01l2.11,5.39l-2.57,1.01c0.05,0.67,0.04,1.33-0.04,1.99l2.53,1.1l-2.32,5.31l-2.53-1.1
					c-0.43,0.51-0.91,0.97-1.44,1.38l1.01,2.57l-5.39,2.12L136.76,96.74z M141.18,94.35l0.25-0.18c0.65-0.48,1.23-1.04,1.73-1.66
					l0.19-0.24l2.35,1.03l1.67-3.83l-2.35-1.03l0.05-0.31c0.12-0.79,0.13-1.6,0.04-2.39l-0.03-0.31l2.39-0.94l-1.52-3.89l-2.39,0.94
					l-0.18-0.25c-0.48-0.65-1.04-1.23-1.66-1.73l-0.24-0.19l1.03-2.35l-3.83-1.67l-1.03,2.35l-0.31-0.05
					c-0.79-0.12-1.6-0.13-2.4-0.04l-0.31,0.03l-0.94-2.39l-3.89,1.52l0.93,2.39l-0.25,0.18c-0.65,0.48-1.23,1.03-1.73,1.66
					l-0.19,0.24l-2.35-1.03l-1.67,3.83l2.35,1.03l-0.05,0.31c-0.12,0.79-0.13,1.59-0.04,2.4l0.03,0.31l-2.39,0.94l1.53,3.89
					l2.39-0.94l0.18,0.25c0.48,0.65,1.04,1.23,1.66,1.73l0.24,0.19l-1.03,2.35l3.83,1.67l1.03-2.35l0.31,0.05
					c0.78,0.12,1.59,0.13,2.4,0.04l0.31-0.03l0.94,2.39l3.89-1.53L141.18,94.35z M132.96,93.6c-1.82-0.8-3.23-2.26-3.96-4.12
					c-0.73-1.86-0.69-3.89,0.11-5.71c1.19-2.72,3.88-4.48,6.85-4.48c1.03,0,2.03,0.21,2.98,0.62c1.83,0.8,3.23,2.26,3.96,4.12
					c0.73,1.86,0.69,3.89-0.1,5.71c-1.19,2.72-3.88,4.48-6.85,4.48C134.92,94.22,133.91,94.01,132.96,93.6z M129.85,84.09
					c-0.71,1.63-0.75,3.44-0.09,5.1c0.65,1.66,1.9,2.96,3.53,3.67c0.85,0.37,1.74,0.56,2.66,0.56c2.66,0,5.06-1.57,6.12-4
					c0.71-1.63,0.74-3.44,0.09-5.1c-0.65-1.66-1.91-2.96-3.54-3.67c-0.85-0.37-1.74-0.56-2.66-0.56
					C133.31,80.1,130.91,81.66,129.85,84.09z"/>
			</g>
		</g>
	</g>
</g>
<g>
	<g>
		<g>
			<g>
				<path class="st0" d="M392.95,88.48c0,8.01-6.52,14.5-14.56,14.5c-8.04,0-14.56-6.49-14.56-14.5c0-8.01,6.52-14.5,14.56-14.5
					C386.43,73.98,392.95,80.47,392.95,88.48z"/>
			</g>
		</g>
		<g>
			<g>
				<g>
					<path class="st0" d="M380.83,92.46l-0.98-2.44c0.33-0.34,0.53-0.8,0.53-1.32c0-1.03-0.81-1.86-1.82-1.9l-2.92-7.27
						c-0.1-0.25-0.48-0.33-0.85-0.18c-0.37,0.15-0.58,0.47-0.48,0.72l2.9,7.21c-0.39,0.35-0.64,0.85-0.64,1.42
						c0,1.05,0.86,1.91,1.91,1.91c0.02,0,0.04-0.01,0.07-0.01l0.96,2.38c0.1,0.25,0.48,0.33,0.85,0.18
						C380.71,93.03,380.93,92.71,380.83,92.46z"/>
				</g>
				<g>
					<path class="st1" d="M379.98,93.74L379.98,93.74c-0.44,0-0.8-0.22-0.94-0.56l-0.84-2.09c-1.2-0.13-2.14-1.15-2.14-2.38
						c0-0.56,0.2-1.1,0.56-1.53l-2.78-6.92c-0.08-0.21-0.08-0.45,0.01-0.67c0.13-0.29,0.39-0.54,0.74-0.68
						c0.6-0.24,1.28-0.04,1.48,0.45l2.81,7c1.13,0.2,1.97,1.18,1.97,2.35c0,0.51-0.16,1-0.46,1.4l0.87,2.17
						c0.2,0.5-0.13,1.1-0.75,1.35C380.35,93.7,380.16,93.74,379.98,93.74z M379.93,92.76c0.04,0.01,0.11,0.01,0.23-0.03
						c0.1-0.04,0.17-0.1,0.19-0.14l-1.08-2.68l0.22-0.23c0.25-0.27,0.4-0.62,0.4-0.98c0-0.76-0.6-1.38-1.36-1.42l-0.31-0.01
						l-3.02-7.5c-0.04-0.01-0.11-0.02-0.23,0.03c-0.1,0.04-0.17,0.1-0.19,0.14l3.01,7.48l-0.26,0.23c-0.31,0.28-0.48,0.65-0.48,1.06
						c0,0.78,0.64,1.42,1.42,1.42c0,0,0.03-0.01,0.07-0.01h0.33L379.93,92.76z"/>
				</g>
			</g>
			<g>
				<g>
					<path class="st0" d="M381.79,73.26c0.01-0.07,0.02-0.14,0.02-0.21c0-0.91-0.74-1.64-1.64-1.64h-0.07l-0.02-1.4l1.15-0.02
						c1.05-0.02,1.9-0.89,1.88-1.94c-0.02-1.06-0.88-1.9-1.94-1.88l-5.26,0.08c-1.06,0.02-1.9,0.88-1.88,1.94
						c0.02,1.05,0.89,1.9,1.94,1.88l1.02-0.02l0.02,1.35h-0.04c-0.91,0-1.64,0.74-1.64,1.64c0,0.07,0.01,0.13,0.02,0.19
						c-7.22,1.47-12.66,7.85-12.66,15.51c0,8.74,7.08,15.83,15.83,15.83c8.74,0,15.83-7.09,15.83-15.83
						C394.35,81.13,388.96,74.77,381.79,73.26z M378.52,101.88c-7.25,0-13.13-5.88-13.13-13.13c0-7.25,5.88-13.13,13.13-13.13
						c7.25,0,13.13,5.88,13.13,13.13C391.65,96,385.77,101.88,378.52,101.88z"/>
				</g>
				<g>
					<path class="st1" d="M378.52,105.07c-9,0-16.31-7.32-16.31-16.32c0-7.59,5.29-14.21,12.65-15.9c0.09-0.93,0.77-1.69,1.67-1.88
						l-0.01-0.41l-0.54,0.01l0,0c-1.34,0-2.42-1.06-2.44-2.36c-0.01-0.64,0.23-1.25,0.68-1.71c0.45-0.46,1.05-0.72,1.69-0.73
						l5.26-0.08l0,0c1.34,0,2.42,1.06,2.44,2.36c0.02,1.32-1.04,2.42-2.36,2.44l-0.67,0.01l0.01,0.47c0.92,0.18,1.63,0.96,1.71,1.92
						c7.29,1.73,12.55,8.34,12.55,15.88C394.83,97.75,387.52,105.07,378.52,105.07z M377.01,71.89c-0.68,0-1.2,0.52-1.2,1.16
						c0,0.03,0,0.05,0.01,0.08l0.06,0.45l-0.44,0.14c-7.11,1.44-12.27,7.77-12.27,15.03c0,8.46,6.88,15.34,15.34,15.34
						c8.46,0,15.34-6.88,15.34-15.34c0-7.22-5.12-13.53-12.17-15.01l-0.44-0.09l0.06-0.45c0.01-0.07,0.02-0.11,0.02-0.15
						c0-0.64-0.52-1.16-1.16-1.16h-0.55l-0.04-2.36l1.64-0.03c0.78-0.01,1.41-0.66,1.4-1.45c-0.01-0.77-0.65-1.4-1.43-1.4
						l-5.28,0.09c-0.38,0.01-0.74,0.16-1,0.43c-0.26,0.27-0.41,0.63-0.4,1.01c0.01,0.77,0.65,1.4,1.42,1.4l1.54-0.02l0.04,2.33
						H377.01z M378.52,102.37c-7.51,0-13.61-6.11-13.61-13.62c0-7.51,6.11-13.61,13.61-13.61c7.51,0,13.62,6.11,13.62,13.61
						C392.13,96.26,386.03,102.37,378.52,102.37z M378.52,76.12c-6.97,0-12.64,5.67-12.64,12.64c0,6.97,5.67,12.64,12.64,12.64
						c6.97,0,12.64-5.67,12.64-12.64C391.16,81.78,385.49,76.12,378.52,76.12z"/>
				</g>
			</g>
			<g>
				<g>
					<path class="st1" d="M378.52,79.77c-0.27,0-0.49-0.22-0.49-0.49v-1.81c0-0.27,0.22-0.49,0.49-0.49c0.27,0,0.49,0.22,0.49,0.49
						v1.81C379.01,79.55,378.79,79.77,378.52,79.77z"/>
				</g>
			</g>
			<g>
				<g>
					<path class="st1" d="M378.52,100.49c-0.27,0-0.49-0.22-0.49-0.49V98.2c0-0.27,0.22-0.49,0.49-0.49c0.27,0,0.49,0.22,0.49,0.49
						V100C379.01,100.27,378.79,100.49,378.52,100.49z"/>
				</g>
			</g>
			<g>
				<g>
					<path class="st1" d="M369.06,89.23h-1.81c-0.27,0-0.49-0.22-0.49-0.49c0-0.27,0.22-0.49,0.49-0.49h1.81
						c0.27,0,0.49,0.22,0.49,0.49C369.55,89.01,369.33,89.23,369.06,89.23z"/>
				</g>
			</g>
			<g>
				<g>
					<path class="st1" d="M389.78,89.23h-1.81c-0.27,0-0.49-0.22-0.49-0.49c0-0.27,0.22-0.49,0.49-0.49h1.81
						c0.27,0,0.49,0.22,0.49,0.49C390.27,89.01,390.05,89.23,389.78,89.23z"/>
				</g>
			</g>
			<g>
				<g>
					<path class="st1" d="M370.55,97.19c-0.12,0-0.25-0.05-0.34-0.14c-0.19-0.19-0.19-0.5,0-0.69l1.28-1.28
						c0.19-0.19,0.5-0.19,0.69,0c0.19,0.19,0.19,0.5,0,0.69l-1.28,1.28C370.8,97.14,370.68,97.19,370.55,97.19z"/>
				</g>
			</g>
			<g>
				<g>
					<path class="st1" d="M385.21,82.54c-0.12,0-0.25-0.05-0.34-0.14c-0.19-0.19-0.19-0.5,0-0.69l1.28-1.28
						c0.19-0.19,0.5-0.19,0.69,0c0.19,0.19,0.19,0.5,0,0.69l-1.28,1.28C385.46,82.49,385.33,82.54,385.21,82.54z"/>
				</g>
			</g>
			<g>
				<g>
					<path class="st1" d="M386.49,97.19c-0.12,0-0.25-0.05-0.34-0.14l-1.28-1.28c-0.19-0.19-0.19-0.5,0-0.69
						c0.19-0.19,0.5-0.19,0.69,0l1.28,1.28c0.19,0.19,0.19,0.5,0,0.69C386.73,97.14,386.61,97.19,386.49,97.19z"/>
				</g>
			</g>
			<g>
				<g>
					<path class="st1" d="M371.83,82.54c-0.12,0-0.25-0.05-0.34-0.14l-1.28-1.28c-0.19-0.19-0.19-0.5,0-0.69
						c0.19-0.19,0.5-0.19,0.69,0l1.28,1.28c0.19,0.19,0.19,0.5,0,0.69C372.08,82.49,371.96,82.54,371.83,82.54z"/>
				</g>
			</g>
		</g>
	</g>
	<g>
		<g>
			<g>
				
					<ellipse transform="matrix(1 -1.496160e-03 1.496160e-03 1 -0.1456 0.5837)" class="st0" cx="390.04" cy="97.58" rx="7.85" ry="7.86"/>
			</g>
		</g>
		<g>
			<g>
				<path class="st0" d="M389.99,89.41c-4.58,0-8.29,3.71-8.29,8.29c0,4.58,3.71,8.29,8.29,8.29c4.58,0,8.29-3.71,8.29-8.29
					C398.28,93.12,394.56,89.41,389.99,89.41z M395.63,94.8l-5.29,6c-0.12,0.14-0.34,0.14-0.5,0l-0.31-0.27l-0.32-0.28l-3.71-3.27
					c-0.13-0.12-0.13-0.34,0.01-0.5l0.63-0.71c0.14-0.15,0.36-0.19,0.49-0.07l3.42,3.02l4.38-4.97c0.12-0.14,0.34-0.14,0.5,0
					l0.63,0.56C395.72,94.44,395.75,94.67,395.63,94.8z"/>
			</g>
			<g>
				<path class="st1" d="M389.99,106.48c-4.84,0-8.78-3.94-8.78-8.77c0-4.84,3.94-8.78,8.78-8.78c4.84,0,8.78,3.94,8.78,8.78
					C398.76,102.54,394.83,106.48,389.99,106.48z M389.99,89.9c-4.3,0-7.8,3.5-7.8,7.8c0,4.3,3.5,7.8,7.8,7.8c4.3,0,7.8-3.5,7.8-7.8
					C397.79,93.4,394.29,89.9,389.99,89.9z M390.11,101.39c-0.21,0-0.42-0.08-0.59-0.23l-4.34-3.82c-0.17-0.15-0.27-0.37-0.26-0.61
					c0-0.21,0.08-0.42,0.23-0.58l0.62-0.71c0.31-0.34,0.85-0.4,1.18-0.12l3.06,2.7l4.06-4.61c0.3-0.33,0.84-0.34,1.19-0.04
					l0.63,0.56c0.18,0.16,0.29,0.38,0.3,0.61c0.01,0.22-0.06,0.42-0.2,0.58l-5.29,6C390.56,101.29,390.34,101.39,390.11,101.39z
					 M385.95,96.72l4.13,3.64l5.08-5.76l-0.46-0.41l-4.6,5.22l-3.67-3.23L385.95,96.72z"/>
			</g>
		</g>
	</g>
</g>
<g>
	<g>
		<g>
			<g class="st2">
				<path class="st0" d="M395.89,199.68c0,12.28-9.96,22.24-22.24,22.24s-22.24-9.96-22.24-22.24c0-12.28,9.96-22.24,22.24-22.24
					S395.89,187.39,395.89,199.68z"/>
			</g>
			<g>
				<path class="st1" d="M373.65,222.54c-12.6,0-22.86-10.26-22.86-22.86c0-12.6,10.25-22.86,22.86-22.86s22.86,10.25,22.86,22.86
					C396.51,212.28,386.26,222.54,373.65,222.54z M373.65,178.05c-11.92,0-21.62,9.7-21.62,21.62c0,11.92,9.7,21.62,21.62,21.62
					c11.92,0,21.62-9.7,21.62-21.62C395.27,187.75,385.57,178.05,373.65,178.05z"/>
			</g>
		</g>
		<g>
			<g class="st2">
				<path class="st0" d="M388.15,199.68c0,8.01-6.49,14.5-14.5,14.5s-14.5-6.49-14.5-14.5c0-8.01,6.49-14.5,14.5-14.5
					S388.15,191.67,388.15,199.68z"/>
			</g>
			<g>
				<path class="st1" d="M373.65,214.8c-8.34,0-15.12-6.78-15.12-15.12c0-8.34,6.78-15.12,15.12-15.12
					c8.34,0,15.12,6.78,15.12,15.12C388.77,208.01,381.99,214.8,373.65,214.8z M373.65,185.79c-7.65,0-13.88,6.23-13.88,13.88
					c0,7.65,6.23,13.88,13.88,13.88s13.88-6.23,13.88-13.88C387.53,192.02,381.31,185.79,373.65,185.79z"/>
			</g>
		</g>
		<g>
			<g>
				<path class="st1" d="M373.74,229.26c-0.34,0-0.62-0.28-0.62-0.62v-57.03c0-0.34,0.28-0.62,0.62-0.62s0.62,0.28,0.62,0.62v57.03
					C374.36,228.99,374.08,229.26,373.74,229.26z"/>
			</g>
		</g>
		<g>
			<g>
				<path class="st1" d="M402.25,200.75h-57.03c-0.34,0-0.62-0.28-0.62-0.62c0-0.34,0.28-0.62,0.62-0.62h57.03
					c0.34,0,0.62,0.28,0.62,0.62C402.87,200.47,402.59,200.75,402.25,200.75z"/>
			</g>
		</g>
		<g>
			<g class="st2">
				<path class="st0" d="M380.41,199.68c0,3.73-3.03,6.76-6.76,6.76c-3.73,0-6.76-3.03-6.76-6.76c0-3.73,3.03-6.76,6.76-6.76
					C377.39,192.91,380.41,195.94,380.41,199.68z"/>
			</g>
			<g>
				<path class="st1" d="M373.65,207.06c-4.07,0-7.38-3.31-7.38-7.38c0-4.07,3.31-7.38,7.38-7.38c4.07,0,7.38,3.31,7.38,7.38
					C381.03,203.75,377.72,207.06,373.65,207.06z M373.65,193.53c-3.39,0-6.14,2.76-6.14,6.14c0,3.39,2.76,6.14,6.14,6.14
					c3.39,0,6.14-2.76,6.14-6.14C379.79,196.29,377.04,193.53,373.65,193.53z"/>
			</g>
		</g>
	</g>
	<g>
		<g>
			<g class="st2">
				<path class="st0" d="M378.93,208.86c0,0,8.98,6.92,6.6,20.73c0,0,7.31-13.81-1.59-24.11l4.21-2.07l-14.27-4.01l2.87,13.5
					L378.93,208.86z"/>
			</g>
			<g>
				<path class="st1" d="M384.27,233.32l0.66-3.83c1.94-11.28-3.94-17.88-5.82-19.65l-2.61,4.83l-3.43-16.15l16.81,4.72l-4.96,2.44
					c8.28,10.43,1.24,24.05,1.16,24.19L384.27,233.32z M378.74,207.93l0.58,0.44c0.08,0.06,7.32,5.79,7.24,16.89
					c1.43-4.76,2.56-12.85-3.08-19.37l-0.52-0.61l3.48-1.71l-11.73-3.29l2.31,10.85L378.74,207.93z"/>
			</g>
		</g>
	</g>
</g>
<g>
	<g>
		<g>
			<path class="st0" d="M508.29,103.6c-2.35-5.38-9-7.66-14.86-5.1c-5.85,2.56-8.7,8.99-6.35,14.37c2.35,5.38,9,7.66,14.86,5.1
				C507.79,115.41,510.63,108.98,508.29,103.6z"/>
		</g>
	</g>
	<g>
		<g>
			<path class="st0" d="M513.6,105.02l-2.66-6.1l-3.25,1.42c-0.71-0.88-1.51-1.66-2.41-2.31l1.29-3.31l-6.19-2.43l-1.3,3.3
				c-1.1-0.12-2.22-0.11-3.34,0.06l-1.42-3.25l-6.1,2.66l1.42,3.25c-0.89,0.7-1.66,1.52-2.32,2.41l-3.31-1.3l-2.43,6.2l3.31,1.3
				c-0.12,1.1-0.11,2.22,0.06,3.34l-3.25,1.42l2.66,6.1l3.25-1.42c0.71,0.88,1.52,1.66,2.41,2.31l-1.3,3.31l6.2,2.43l1.3-3.31
				c1.1,0.12,2.22,0.11,3.34-0.06l1.42,3.25l6.1-2.66l-1.42-3.25c0.88-0.7,1.66-1.52,2.31-2.41l3.3,1.3l2.43-6.2l-3.3-1.3
				c0.12-1.1,0.11-2.22-0.06-3.34L513.6,105.02z M501.42,117c-4.77,2.08-10.34-0.1-12.42-4.87c-2.08-4.76,0.11-10.33,4.87-12.41
				c4.76-2.08,10.33,0.1,12.41,4.86C508.37,109.35,506.19,114.92,501.42,117z"/>
		</g>
		<g>
			<path class="st1" d="M495.23,125.12l-7.19-2.82l1.34-3.43c-0.7-0.55-1.34-1.17-1.92-1.84l-3.37,1.47l-3.1-7.09l3.37-1.47
				c-0.1-0.88-0.12-1.77-0.05-2.66l-3.43-1.35l2.82-7.2l3.43,1.35c0.55-0.7,1.17-1.35,1.84-1.92l-1.47-3.37l7.08-3.09l1.47,3.38
				c0.88-0.1,1.77-0.12,2.66-0.05l1.34-3.43l7.19,2.82l-1.34,3.43c0.7,0.55,1.34,1.17,1.92,1.84l3.37-1.47l3.09,7.09l-3.37,1.47
				c0.1,0.88,0.12,1.77,0.05,2.66l3.43,1.35l-2.82,7.2l-3.43-1.34c-0.55,0.7-1.17,1.34-1.84,1.92l1.47,3.37l-7.08,3.09l-1.47-3.37
				c-0.87,0.1-1.77,0.12-2.66,0.05L495.23,125.12z M489.42,121.69l5.2,2.04l1.25-3.19l0.41,0.05c1.07,0.12,2.16,0.1,3.2-0.06
				l0.41-0.06l1.37,3.14l5.12-2.23l-1.37-3.14l0.32-0.26c0.83-0.66,1.58-1.44,2.21-2.31l0.25-0.33l3.19,1.25l2.04-5.2l-3.19-1.25
				l0.05-0.41c0.12-1.08,0.1-2.16-0.06-3.2l-0.06-0.41l3.13-1.37l-2.23-5.12l-3.14,1.37l-0.26-0.32c-0.66-0.83-1.44-1.58-2.31-2.21
				l-0.33-0.24l1.24-3.19l-5.19-2.04l-1.25,3.19l-0.41-0.05c-1.06-0.12-2.15-0.1-3.2,0.06l-0.41,0.06l-1.37-3.14l-5.11,2.23
				l1.37,3.14l-0.32,0.26c-0.83,0.66-1.58,1.44-2.22,2.31l-0.24,0.33l-3.2-1.26l-2.03,5.2l3.19,1.25l-0.05,0.41
				c-0.12,1.07-0.1,2.14,0.06,3.2l0.06,0.41l-3.14,1.37l2.24,5.12l3.14-1.37l0.26,0.32c0.67,0.83,1.44,1.58,2.31,2.22l0.33,0.25
				L489.42,121.69z M497.66,118.33c-3.97,0-7.56-2.35-9.15-5.98c-1.06-2.43-1.11-5.14-0.14-7.62c0.97-2.48,2.85-4.43,5.29-5.5
				c1.27-0.55,2.6-0.83,3.98-0.83c3.97,0,7.56,2.35,9.15,5.97c1.06,2.44,1.11,5.15,0.14,7.63c-0.97,2.48-2.85,4.43-5.29,5.5
				C500.37,118.05,499.04,118.33,497.66,118.33z M497.64,99.47c-1.22,0-2.42,0.25-3.55,0.74c-2.17,0.95-3.85,2.69-4.72,4.9
				c-0.87,2.21-0.82,4.63,0.13,6.8c1.41,3.24,4.62,5.34,8.16,5.34c1.22,0,2.42-0.25,3.55-0.74c2.17-0.95,3.85-2.69,4.72-4.9
				c0.87-2.22,0.82-4.63-0.13-6.81C504.39,101.56,501.18,99.47,497.64,99.47z"/>
		</g>
	</g>
</g>
<g>
	<g>
		<g>
			<path class="st0" d="M532.26,125.19c-1.71-3.91-6.54-5.57-10.8-3.71c-4.26,1.86-6.33,6.54-4.62,10.45
				c1.71,3.91,6.55,5.57,10.8,3.71C531.9,133.78,533.97,129.1,532.26,125.19z"/>
		</g>
	</g>
	<g>
		<g>
			<path class="st0" d="M536.12,126.23l-1.94-4.44l-2.36,1.03c-0.51-0.64-1.1-1.2-1.75-1.68l0.94-2.41l-4.5-1.77l-0.94,2.4
				c-0.8-0.09-1.62-0.08-2.43,0.04l-1.03-2.37l-4.43,1.94l1.03,2.37c-0.64,0.51-1.21,1.1-1.69,1.75l-2.41-0.95l-1.77,4.51l2.4,0.95
				c-0.09,0.8-0.08,1.61,0.04,2.43l-2.37,1.03l1.94,4.44l2.36-1.03c0.51,0.64,1.11,1.21,1.75,1.68l-0.94,2.4l4.51,1.77l0.94-2.4
				c0.8,0.09,1.62,0.08,2.43-0.04l1.03,2.36l4.44-1.94l-1.03-2.36c0.64-0.51,1.2-1.1,1.68-1.75l2.4,0.94l1.77-4.51l-2.4-0.94
				c0.09-0.8,0.08-1.62-0.04-2.43L536.12,126.23z M527.27,134.94c-3.47,1.51-7.52-0.07-9.03-3.54c-1.51-3.46,0.08-7.51,3.54-9.03
				c3.47-1.51,7.52,0.07,9.03,3.54C532.33,129.37,530.74,133.43,527.27,134.94z"/>
		</g>
		<g>
			<path class="st1" d="M522.76,140.84l-5.23-2.05l0.98-2.49c-0.51-0.4-0.98-0.85-1.4-1.34l-2.45,1.07l-2.25-5.15l2.45-1.07
				c-0.08-0.64-0.09-1.29-0.03-1.93l-2.49-0.98l2.05-5.24l2.5,0.98c0.4-0.51,0.85-0.98,1.34-1.4l-1.07-2.45l5.15-2.25l1.07,2.45
				c0.64-0.08,1.29-0.09,1.93-0.03l0.98-2.49l5.23,2.05l-0.97,2.49c0.51,0.4,0.98,0.85,1.39,1.34l2.45-1.07l2.25,5.15l-2.45,1.07
				c0.08,0.64,0.09,1.29,0.03,1.94l2.49,0.98l-2.05,5.24l-2.49-0.98c-0.4,0.51-0.85,0.98-1.34,1.39l1.07,2.45l-5.15,2.25l-1.07-2.45
				c-0.64,0.08-1.28,0.09-1.93,0.03L522.76,140.84z M518.54,138.35l3.78,1.48l0.91-2.32l0.3,0.03c0.78,0.09,1.57,0.07,2.33-0.04
				l0.3-0.04l1,2.28l3.72-1.63l-1-2.28l0.23-0.19c0.6-0.48,1.15-1.05,1.61-1.68l0.18-0.24l2.32,0.91l1.48-3.78l-2.32-0.91l0.03-0.3
				c0.09-0.78,0.07-1.57-0.04-2.33l-0.04-0.3l2.28-1l-1.62-3.72l-2.28,1l-0.19-0.23c-0.48-0.6-1.05-1.15-1.68-1.61l-0.24-0.18
				l0.9-2.32l-3.78-1.48l-0.91,2.32l-0.3-0.03c-0.77-0.09-1.56-0.07-2.33,0.04l-0.3,0.04l-1-2.28l-3.72,1.62l1,2.28l-0.24,0.19
				c-0.6,0.48-1.15,1.05-1.61,1.68l-0.18,0.24l-2.32-0.91l-1.48,3.78l2.32,0.91l-0.03,0.3c-0.09,0.78-0.07,1.56,0.04,2.33l0.04,0.3
				l-2.28,1l1.63,3.72l2.28-1l0.19,0.23c0.49,0.61,1.05,1.15,1.68,1.61l0.24,0.18L518.54,138.35z M524.53,135.9
				c-2.89,0-5.5-1.71-6.65-4.35c-0.77-1.77-0.81-3.74-0.1-5.55c0.71-1.8,2.07-3.22,3.85-4c0.92-0.4,1.89-0.61,2.89-0.61
				c2.89,0,5.5,1.71,6.65,4.34c0.77,1.77,0.81,3.74,0.1,5.55c-0.71,1.81-2.07,3.23-3.84,4C526.51,135.7,525.53,135.9,524.53,135.9z
				 M524.52,122.18c-0.89,0-1.76,0.18-2.58,0.54c-1.58,0.69-2.8,1.96-3.43,3.57c-0.63,1.61-0.6,3.37,0.09,4.95
				c1.03,2.36,3.36,3.88,5.94,3.88c0.89,0,1.76-0.18,2.58-0.54c1.58-0.69,2.8-1.96,3.43-3.57c0.63-1.61,0.6-3.37-0.09-4.95
				C529.42,123.71,527.09,122.18,524.52,122.18z"/>
		</g>
	</g>
</g>
<g class="st3">
	<g>
		<path class="st1" d="M50.1,167.72c-0.09,0.4,0.07,0.77,0.36,0.85l2.82,0.64c0.29,0.07,0.6-0.19,0.7-0.6l0.52-2.27
			c0.09-0.4-0.07-0.78-0.37-0.84l-2.81-0.65c-0.3-0.06-0.6,0.2-0.7,0.6L50.1,167.72z"/>
	</g>
	<g>
		<path class="st1" d="M45.02,189.81c0.09-0.4,0.4-0.67,0.69-0.6l2.82,0.65c0.29,0.07,0.46,0.45,0.36,0.84l-0.52,2.27
			c-0.09,0.39-0.4,0.66-0.7,0.6l-2.81-0.65c-0.29-0.07-0.46-0.45-0.37-0.84L45.02,189.81z"/>
	</g>
	<g>
		<path class="st1" d="M55.76,169.56c-0.28,0.3-0.32,0.71-0.1,0.91l2.11,1.97c0.22,0.2,0.62,0.13,0.91-0.17l1.59-1.7
			c0.28-0.3,0.33-0.71,0.11-0.92l-2.11-1.97c-0.22-0.21-0.63-0.13-0.91,0.17L55.76,169.56z"/>
	</g>
	<g>
		<path class="st1" d="M40.31,186.15c0.28-0.3,0.69-0.38,0.91-0.17l2.11,1.98c0.22,0.2,0.17,0.61-0.1,0.91l-1.59,1.7
			c-0.28,0.3-0.69,0.38-0.9,0.17l-2.12-1.97c-0.22-0.21-0.17-0.61,0.11-0.91L40.31,186.15z"/>
	</g>
	<g>
		<path class="st1" d="M59.75,173.99c-0.39,0.12-0.63,0.45-0.55,0.74l0.85,2.76c0.09,0.29,0.48,0.42,0.87,0.3l2.23-0.68
			c0.39-0.12,0.64-0.45,0.55-0.74l-0.84-2.76c-0.09-0.29-0.48-0.42-0.87-0.3L59.75,173.99z"/>
	</g>
	<g>
		<path class="st1" d="M38.08,180.63c0.39-0.12,0.78,0.02,0.86,0.31l0.85,2.76c0.09,0.29-0.16,0.62-0.55,0.74l-2.22,0.68
			c-0.39,0.12-0.78-0.02-0.87-0.31l-0.85-2.76c-0.09-0.29,0.15-0.62,0.54-0.74L38.08,180.63z"/>
	</g>
	<g>
		<path class="st1" d="M60.99,179.82c-0.4-0.09-0.78,0.07-0.85,0.36L59.49,183c-0.07,0.29,0.2,0.6,0.6,0.7l2.27,0.52
			c0.4,0.09,0.78-0.07,0.85-0.37l0.65-2.82c0.07-0.29-0.2-0.6-0.6-0.69L60.99,179.82z"/>
	</g>
	<g>
		<path class="st1" d="M38.9,174.73c0.4,0.09,0.67,0.4,0.6,0.69l-0.65,2.82c-0.07,0.29-0.45,0.46-0.85,0.37l-2.27-0.52
			c-0.4-0.1-0.66-0.41-0.59-0.7l0.65-2.82c0.06-0.3,0.45-0.46,0.84-0.37L38.9,174.73z"/>
	</g>
	<g>
		<path class="st1" d="M59.14,185.48c-0.3-0.27-0.7-0.33-0.91-0.11l-1.97,2.11c-0.2,0.22-0.13,0.62,0.17,0.91l1.71,1.58
			c0.3,0.28,0.7,0.33,0.91,0.11l1.97-2.12c0.21-0.22,0.13-0.62-0.17-0.9L59.14,185.48z"/>
	</g>
	<g>
		<path class="st1" d="M42.56,170.03c0.3,0.28,0.38,0.68,0.17,0.9l-1.97,2.11c-0.21,0.22-0.62,0.17-0.92-0.11l-1.7-1.59
			c-0.3-0.28-0.37-0.68-0.17-0.9l1.97-2.11c0.2-0.22,0.61-0.17,0.91,0.1L42.56,170.03z"/>
	</g>
	<g>
		<path class="st1" d="M54.72,189.47c-0.12-0.39-0.45-0.63-0.74-0.55l-2.76,0.85c-0.29,0.09-0.43,0.48-0.31,0.87l0.68,2.23
			c0.12,0.39,0.45,0.63,0.74,0.54l2.76-0.84c0.29-0.09,0.42-0.48,0.31-0.87L54.72,189.47z"/>
	</g>
	<g>
		<path class="st1" d="M48.08,167.8c0.12,0.39-0.01,0.78-0.31,0.87l-2.76,0.84c-0.29,0.09-0.62-0.15-0.74-0.54l-0.68-2.23
			c-0.12-0.4,0.01-0.78,0.3-0.87l2.76-0.85c0.29-0.08,0.62,0.16,0.74,0.55L48.08,167.8z"/>
	</g>
	<g>
		<path class="st1" d="M37.63,176.48c-1.51,6.55,2.58,13.09,9.13,14.6c6.55,1.51,13.09-2.59,14.6-9.14
			c1.51-6.55-2.58-13.09-9.13-14.6C45.68,165.84,39.14,169.93,37.63,176.48z M41.68,177.41c1-4.32,5.3-7.01,9.61-6.01
			c4.31,1,7.01,5.29,6.01,9.61c-1,4.32-5.3,7.01-9.61,6.01C43.38,186.03,40.69,181.73,41.68,177.41z"/>
	</g>
</g>
<g class="st3">
	<g>
		<path class="st1" d="M126.86,50.6c-0.05,0.23,0.04,0.45,0.21,0.49l1.65,0.38c0.17,0.04,0.35-0.11,0.41-0.35l0.3-1.33
			c0.05-0.23-0.04-0.45-0.21-0.49l-1.65-0.38c-0.17-0.04-0.35,0.12-0.41,0.35L126.86,50.6z"/>
	</g>
	<g>
		<path class="st1" d="M123.89,63.52c0.05-0.23,0.23-0.39,0.41-0.35l1.65,0.38c0.17,0.04,0.27,0.26,0.21,0.49l-0.3,1.33
			c-0.05,0.23-0.24,0.39-0.41,0.35l-1.65-0.38c-0.17-0.04-0.27-0.26-0.21-0.49L123.89,63.52z"/>
	</g>
	<g>
		<path class="st1" d="M130.17,51.68c-0.16,0.17-0.19,0.41-0.06,0.53l1.23,1.15c0.13,0.12,0.36,0.08,0.53-0.1l0.93-1
			c0.16-0.18,0.19-0.41,0.06-0.54l-1.24-1.15c-0.13-0.12-0.37-0.08-0.53,0.1L130.17,51.68z"/>
	</g>
	<g>
		<path class="st1" d="M121.13,61.38c0.17-0.18,0.4-0.22,0.53-0.1l1.24,1.16c0.13,0.12,0.1,0.36-0.06,0.53l-0.93,0.99
			c-0.16,0.18-0.4,0.22-0.53,0.1l-1.24-1.15c-0.13-0.12-0.1-0.36,0.06-0.53L121.13,61.38z"/>
	</g>
	<g>
		<path class="st1" d="M132.5,54.27c-0.23,0.07-0.37,0.26-0.32,0.43l0.5,1.62c0.05,0.17,0.28,0.25,0.51,0.18l1.3-0.4
			c0.23-0.07,0.37-0.26,0.32-0.43l-0.49-1.62c-0.05-0.17-0.28-0.25-0.51-0.18L132.5,54.27z"/>
	</g>
	<g>
		<path class="st1" d="M119.83,58.15c0.23-0.07,0.46,0.01,0.51,0.18l0.49,1.61c0.05,0.17-0.09,0.36-0.32,0.43l-1.3,0.4
			c-0.23,0.07-0.45-0.01-0.51-0.18l-0.49-1.61c-0.05-0.17,0.09-0.36,0.32-0.43L119.83,58.15z"/>
	</g>
	<g>
		<path class="st1" d="M133.23,57.68c-0.23-0.05-0.45,0.04-0.5,0.21l-0.38,1.65c-0.04,0.17,0.12,0.35,0.35,0.41l1.33,0.31
			c0.23,0.05,0.45-0.04,0.49-0.21l0.38-1.65c0.04-0.17-0.12-0.35-0.35-0.41L133.23,57.68z"/>
	</g>
	<g>
		<path class="st1" d="M120.31,54.7c0.23,0.05,0.39,0.23,0.35,0.41l-0.38,1.65c-0.04,0.17-0.26,0.27-0.49,0.21l-1.33-0.3
			c-0.23-0.06-0.39-0.24-0.35-0.41l0.38-1.65c0.04-0.17,0.26-0.27,0.49-0.21L120.31,54.7z"/>
	</g>
	<g>
		<path class="st1" d="M132.15,60.99c-0.17-0.16-0.41-0.19-0.53-0.06l-1.15,1.24c-0.12,0.13-0.08,0.37,0.1,0.53l1,0.93
			c0.18,0.16,0.41,0.19,0.53,0.06l1.15-1.24c0.12-0.13,0.08-0.37-0.1-0.53L132.15,60.99z"/>
	</g>
	<g>
		<path class="st1" d="M122.45,51.95c0.17,0.16,0.22,0.4,0.1,0.53l-1.15,1.24c-0.12,0.13-0.36,0.1-0.54-0.06l-1-0.93
			c-0.17-0.16-0.22-0.4-0.1-0.53l1.15-1.24c0.12-0.13,0.36-0.1,0.53,0.06L122.45,51.95z"/>
	</g>
	<g>
		<path class="st1" d="M129.56,63.32c-0.07-0.23-0.26-0.37-0.43-0.32l-1.61,0.5c-0.17,0.05-0.25,0.28-0.18,0.51l0.4,1.3
			c0.07,0.23,0.26,0.37,0.43,0.32l1.62-0.49c0.17-0.05,0.25-0.28,0.18-0.51L129.56,63.32z"/>
	</g>
	<g>
		<path class="st1" d="M125.68,50.64c0.07,0.23-0.01,0.45-0.18,0.51l-1.62,0.49c-0.17,0.05-0.36-0.09-0.43-0.32l-0.4-1.3
			c-0.07-0.23,0.01-0.45,0.18-0.51l1.61-0.5c0.17-0.05,0.37,0.09,0.43,0.32L125.68,50.64z"/>
	</g>
	<g>
		<path class="st1" d="M119.57,55.73c-0.88,3.83,1.51,7.65,5.34,8.54c3.83,0.88,7.66-1.51,8.54-5.34c0.88-3.83-1.51-7.66-5.34-8.54
			C124.27,49.5,120.45,51.89,119.57,55.73z M121.93,56.27c0.58-2.53,3.1-4.1,5.62-3.52c2.52,0.58,4.1,3.1,3.52,5.62
			c-0.58,2.52-3.1,4.1-5.62,3.52C122.93,61.31,121.36,58.79,121.93,56.27z"/>
	</g>
</g>
<g class="st3">
	<g>
		<path class="st1" d="M178.4,190.52c-2.92,4.32-1.79,10.2,2.54,13.12c4.33,2.93,10.2,1.79,13.13-2.53
			c2.92-4.33,1.79-10.2-2.54-13.13C187.19,185.06,181.32,186.2,178.4,190.52z M181.07,192.33c1.93-2.85,5.79-3.6,8.64-1.67
			c2.85,1.93,3.6,5.8,1.67,8.64c-1.93,2.85-5.8,3.6-8.65,1.67C179.9,199.05,179.14,195.18,181.07,192.33z"/>
	</g>
	<g>
		<path class="st1" d="M189.27,187.56c-0.18,0.26-0.11,0.62,0.15,0.8l2.53,1.71c0.26,0.18,0.62,0.11,0.8-0.15l1.02-1.51
			c0.18-0.27,0.11-0.62-0.15-0.8l-2.53-1.71c-0.26-0.18-0.63-0.11-0.8,0.16L189.27,187.56z"/>
	</g>
	<g>
		<path class="st1" d="M179.7,201.71c0.18-0.27,0.54-0.34,0.8-0.15l2.54,1.71c0.26,0.18,0.33,0.54,0.16,0.8l-1.02,1.5
			c-0.18,0.27-0.54,0.34-0.81,0.16l-2.53-1.71c-0.27-0.18-0.33-0.54-0.16-0.8L179.7,201.71z"/>
	</g>
	<g>
		<path class="st1" d="M194.22,192.12c-0.32,0.06-0.52,0.37-0.46,0.68l0.58,3c0.06,0.31,0.37,0.52,0.68,0.46l1.78-0.35
			c0.31-0.06,0.52-0.36,0.46-0.67l-0.58-3.01c-0.06-0.31-0.36-0.52-0.68-0.46L194.22,192.12z"/>
	</g>
	<g>
		<path class="st1" d="M177.44,195.37c0.31-0.06,0.62,0.14,0.68,0.46l0.58,3.01c0.06,0.31-0.15,0.62-0.46,0.67l-1.79,0.35
			c-0.31,0.06-0.62-0.15-0.67-0.46l-0.58-3c-0.06-0.32,0.15-0.62,0.46-0.68L177.44,195.37z"/>
	</g>
	<g>
		<path class="st1" d="M194.49,198.85c-0.26-0.17-0.63-0.11-0.8,0.16l-1.72,2.53c-0.18,0.26-0.11,0.63,0.15,0.8l1.51,1.02
			c0.27,0.18,0.63,0.11,0.8-0.15l1.72-2.53c0.17-0.27,0.11-0.63-0.15-0.8L194.49,198.85z"/>
	</g>
	<g>
		<path class="st1" d="M180.33,189.28c0.26,0.18,0.33,0.54,0.16,0.8l-1.72,2.54c-0.18,0.26-0.54,0.33-0.8,0.15l-1.5-1.02
			c-0.27-0.18-0.34-0.54-0.16-0.8l1.71-2.53c0.18-0.26,0.54-0.33,0.8-0.15L180.33,189.28z"/>
	</g>
	<g>
		<path class="st1" d="M189.92,203.8c-0.06-0.31-0.36-0.52-0.68-0.46l-3,0.58c-0.31,0.06-0.52,0.36-0.45,0.68l0.34,1.79
			c0.06,0.32,0.36,0.52,0.67,0.46l3.01-0.58c0.32-0.06,0.52-0.36,0.46-0.68L189.92,203.8z"/>
	</g>
	<g>
		<path class="st1" d="M186.68,187.03c0.06,0.31-0.15,0.62-0.46,0.68l-3,0.58c-0.31,0.06-0.62-0.14-0.68-0.46l-0.35-1.79
			c-0.06-0.31,0.15-0.62,0.46-0.68l3-0.58c0.31-0.06,0.62,0.14,0.68,0.46L186.68,187.03z"/>
	</g>
</g>
<g class="st3">
	<g>
		<path class="st1" d="M548.73,174.64c-1.38,2.04-0.84,4.81,1.2,6.19c2.04,1.38,4.81,0.84,6.19-1.2c1.38-2.04,0.84-4.81-1.2-6.19
			C552.88,172.06,550.11,172.6,548.73,174.64z M549.99,175.49c0.91-1.34,2.73-1.7,4.08-0.79c1.35,0.91,1.7,2.73,0.79,4.08
			c-0.91,1.34-2.74,1.7-4.08,0.79C549.44,178.66,549.08,176.84,549.99,175.49z"/>
	</g>
	<g>
		<path class="st1" d="M553.86,173.24c-0.08,0.12-0.05,0.29,0.07,0.38l1.2,0.81c0.12,0.08,0.29,0.05,0.38-0.07l0.48-0.71
			c0.08-0.13,0.05-0.29-0.07-0.38l-1.19-0.81c-0.12-0.09-0.3-0.05-0.38,0.07L553.86,173.24z"/>
	</g>
	<g>
		<path class="st1" d="M549.34,179.92c0.08-0.13,0.25-0.16,0.38-0.07l1.2,0.81c0.12,0.08,0.16,0.25,0.07,0.38l-0.48,0.71
			c-0.08,0.13-0.25,0.16-0.38,0.07l-1.19-0.81c-0.12-0.09-0.16-0.25-0.07-0.38L549.34,179.92z"/>
	</g>
	<g>
		<path class="st1" d="M556.19,175.39c-0.15,0.03-0.25,0.17-0.22,0.32l0.27,1.42c0.03,0.15,0.17,0.24,0.32,0.22l0.84-0.16
			c0.15-0.03,0.25-0.17,0.22-0.32l-0.28-1.42c-0.03-0.15-0.17-0.25-0.32-0.22L556.19,175.39z"/>
	</g>
	<g>
		<path class="st1" d="M548.28,176.92c0.15-0.03,0.29,0.07,0.32,0.22l0.27,1.42c0.03,0.15-0.07,0.29-0.22,0.32l-0.84,0.16
			c-0.15,0.03-0.29-0.07-0.32-0.22l-0.28-1.42c-0.03-0.15,0.07-0.29,0.22-0.32L548.28,176.92z"/>
	</g>
	<g>
		<path class="st1" d="M556.32,178.57c-0.12-0.08-0.29-0.05-0.38,0.07l-0.81,1.2c-0.08,0.12-0.05,0.29,0.07,0.38l0.71,0.48
			c0.13,0.09,0.3,0.05,0.38-0.07l0.81-1.2c0.08-0.13,0.05-0.3-0.07-0.38L556.32,178.57z"/>
	</g>
	<g>
		<path class="st1" d="M549.64,174.06c0.12,0.09,0.16,0.25,0.07,0.38l-0.81,1.2c-0.08,0.12-0.25,0.16-0.38,0.07l-0.71-0.48
			c-0.13-0.08-0.16-0.25-0.07-0.38l0.81-1.2c0.08-0.12,0.25-0.16,0.38-0.07L549.64,174.06z"/>
	</g>
	<g>
		<path class="st1" d="M554.16,180.9c-0.03-0.15-0.17-0.24-0.32-0.22l-1.42,0.27c-0.15,0.03-0.25,0.17-0.21,0.32l0.16,0.84
			c0.03,0.15,0.17,0.25,0.32,0.22l1.42-0.27c0.15-0.03,0.25-0.17,0.22-0.32L554.16,180.9z"/>
	</g>
	<g>
		<path class="st1" d="M552.63,172.99c0.03,0.15-0.07,0.29-0.22,0.32l-1.42,0.27c-0.15,0.03-0.29-0.07-0.32-0.22l-0.16-0.84
			c-0.03-0.15,0.07-0.29,0.22-0.32l1.42-0.27c0.15-0.03,0.29,0.07,0.32,0.21L552.63,172.99z"/>
	</g>
</g>
<g class="st3">
	<g>
		<path class="st1" d="M379.66,50.59c-1.87,2.76-1.14,6.52,1.62,8.38c2.76,1.87,6.52,1.14,8.38-1.62c1.87-2.76,1.14-6.52-1.62-8.39
			C385.28,47.1,381.52,47.83,379.66,50.59z M381.37,51.75c1.23-1.82,3.7-2.3,5.52-1.07c1.82,1.23,2.3,3.7,1.07,5.52
			c-1.23,1.82-3.7,2.3-5.52,1.07C380.61,56.04,380.13,53.57,381.37,51.75z"/>
	</g>
	<g>
		<path class="st1" d="M386.6,48.7c-0.12,0.17-0.07,0.4,0.1,0.51l1.62,1.09c0.17,0.11,0.4,0.07,0.51-0.1l0.65-0.96
			c0.11-0.17,0.07-0.4-0.1-0.51l-1.62-1.09c-0.17-0.12-0.4-0.07-0.51,0.1L386.6,48.7z"/>
	</g>
	<g>
		<path class="st1" d="M380.49,57.74c0.11-0.17,0.35-0.21,0.51-0.1l1.62,1.09c0.17,0.11,0.21,0.34,0.1,0.51l-0.65,0.96
			c-0.11,0.17-0.34,0.22-0.51,0.1l-1.62-1.09c-0.17-0.12-0.21-0.35-0.1-0.51L380.49,57.74z"/>
	</g>
	<g>
		<path class="st1" d="M389.76,51.62c-0.2,0.04-0.33,0.23-0.29,0.43l0.37,1.92c0.04,0.2,0.23,0.33,0.43,0.29l1.14-0.22
			c0.2-0.04,0.33-0.23,0.29-0.43l-0.37-1.92c-0.04-0.2-0.23-0.33-0.43-0.29L389.76,51.62z"/>
	</g>
	<g>
		<path class="st1" d="M379.04,53.69c0.2-0.04,0.4,0.09,0.43,0.29l0.37,1.92c0.04,0.2-0.09,0.39-0.29,0.43l-1.14,0.22
			c-0.2,0.04-0.39-0.09-0.43-0.29l-0.37-1.92c-0.04-0.2,0.1-0.4,0.29-0.43L379.04,53.69z"/>
	</g>
	<g>
		<path class="st1" d="M389.93,55.91c-0.17-0.11-0.4-0.07-0.51,0.1l-1.1,1.62c-0.11,0.17-0.07,0.4,0.1,0.51l0.96,0.65
			c0.17,0.12,0.4,0.07,0.51-0.1l1.1-1.62c0.11-0.17,0.07-0.4-0.1-0.51L389.93,55.91z"/>
	</g>
	<g>
		<path class="st1" d="M380.89,49.8c0.17,0.12,0.21,0.34,0.1,0.51l-1.1,1.62c-0.11,0.17-0.34,0.21-0.51,0.1l-0.96-0.65
			c-0.17-0.11-0.22-0.34-0.1-0.51l1.09-1.62c0.11-0.17,0.34-0.21,0.51-0.1L380.89,49.8z"/>
	</g>
	<g>
		<path class="st1" d="M387.02,59.08c-0.04-0.2-0.23-0.33-0.43-0.29l-1.92,0.37c-0.2,0.04-0.33,0.23-0.29,0.43l0.22,1.14
			c0.04,0.2,0.23,0.33,0.43,0.29l1.92-0.37c0.2-0.04,0.33-0.23,0.29-0.43L387.02,59.08z"/>
	</g>
	<g>
		<path class="st1" d="M384.94,48.36c0.04,0.2-0.09,0.39-0.29,0.43l-1.92,0.37c-0.2,0.04-0.39-0.09-0.43-0.29l-0.22-1.14
			c-0.04-0.2,0.09-0.4,0.29-0.43l1.92-0.37c0.2-0.04,0.4,0.09,0.43,0.29L384.94,48.36z"/>
	</g>
</g>
<g class="st3">
	<g>
		<rect x="222.71" y="54.47" class="st1" width="3.89" height="4.67"/>
	</g>
	<g>
		<polygon class="st1" points="228.41,54.82 220.9,54.82 224.66,49.89 224.66,49.89 		"/>
	</g>
</g>
<g class="st3">
	<g>
		<rect x="274.4" y="74.65" class="st1" width="6.28" height="7.54"/>
	</g>
	<g>
		<polygon class="st1" points="283.6,75.22 271.47,75.22 277.54,67.26 277.54,67.26 		"/>
	</g>
</g>
<g class="st3">
	<g>
		<rect x="149.29" y="44.08" class="st1" width="4.91" height="5.9"/>
	</g>
	<g>
		<polygon class="st1" points="156.49,44.52 147.01,44.52 151.75,38.3 151.75,38.3 		"/>
	</g>
</g>
<g>
	<g>
		<g>
			<path class="st0" d="M565.75,335.64c0.19-1.17,0.38-3.18-0.65-3.41c0,0,0.05,0.83-1.86,1.06c-1.92,0.23-4.29,0.19-5.26-1.21
				c0,0-0.97-0.23-1.12,0.38c-0.15,0.6-0.07,1.02-1.88,1.55c-1.8,0.53-6.16,0.98-6.12,3.63c0.04,2.65,0.56,2.61,1.8,3.02
				c1.24,0.42,4.85,0.91,7.51-0.08c2.67-0.98,2.63-1.74,3.42-1.36c0.79,0.38,3.79-0.49,3.98-0.64
				C565.75,338.44,565.75,335.64,565.75,335.64z"/>
		</g>
		<g>
			<path class="st4" d="M550.65,340.67c-1.08-0.36-1.62-0.38-1.76-2.14c0.57,0.41,1.59,0.94,3.39,1.36c3.32,0.77,6.63-0.78,7.3-1.25
				c0.67-0.47,1.61-0.68,2.23-0.47c0.62,0.21,2.64,0.16,3.92-0.94c-0.03,0.66-0.07,1.29-0.16,1.36c-0.19,0.15-3.19,1.02-3.98,0.64
				c-0.79-0.38-0.75,0.38-3.42,1.36C555.49,341.57,551.89,341.08,550.65,340.67z"/>
		</g>
		<g>
			<path class="st5" d="M564.93,330.84l0.26,2.24c0,0-0.08,0.97-3.73,0.97c-3.66,0-3.43-1.27-3.43-1.27l0.3-3.28L564.93,330.84z"/>
		</g>
		<g>
			<path class="st5" d="M575.81,334.68l0.27,2.35c0,0-0.08,1.02-3.92,1.02c-3.84,0-3.6-1.33-3.6-1.33l0.63-3.95L575.81,334.68z"/>
		</g>
		<g>
			<path class="st0" d="M567.79,269.15c1.45,3.88,0.84,7.08-0.21,11.55c-1.05,4.47-1.46,18.85-0.68,21.04
				c0.78,2.19,1.46,9.02,0.71,15.64c-0.75,6.62-2.09,15.32-2.09,15.32s-5.22,0.03-8.5-1.57c0,0,1.09-20.14,0.95-22.43
				c-0.14-2.29-0.86-6.92-2-9.68c-1.13-2.75-1.44-28.41-1.44-28.41L567.79,269.15z"/>
		</g>
		<g class="st6">
			<path class="st7" d="M561.49,288.81c1.25,4.9-0.55,14.61,0.12,17.69c0.59,2.72-0.69,21.63-1,25.73c-1.23-0.23-2.51-0.58-3.58-1.1
				c0,0,1.09-20.14,0.95-22.43c-0.14-2.29-0.86-6.92-2-9.68c-1.13-2.75-1.44-28.41-1.44-28.41l3.16-0.35l1.78,0.76L561.49,288.81z"
				/>
		</g>
		<g>
			<path class="st0" d="M573.6,266.39c1.94,4.05,1.59,7.57,0.88,12.5c-0.7,4.93,0.41,20.47,1.47,22.76
				c1.06,2.29,2.52,9.51,2.34,16.72c-0.18,7.22-0.88,17.67-0.88,17.67s-5.63,0.53-9.33-0.88c0,0-0.66-22.77-1.03-25.24
				c-0.38-2.46-1.68-7.3-3.17-10.16c-1.49-2.86-6.47-28.06-6.47-28.06L573.6,266.39z"/>
		</g>
		<g>
			<path class="st0" d="M576.67,339.74c0.2-1.21,0.4-3.29-0.68-3.53c0,0,0.06,0.86-1.94,1.1c-2,0.24-4.47,0.2-5.49-1.25
				c0,0-1.01-0.24-1.17,0.39c-0.16,0.63-0.08,1.06-1.96,1.61c-1.88,0.55-6.42,1.02-6.39,3.76c0.04,2.74,0.59,2.7,1.88,3.13
				c1.29,0.43,5.05,0.94,7.83-0.08c2.78-1.02,2.74-1.8,3.56-1.41c0.82,0.39,3.96-0.51,4.15-0.67
				C576.67,342.64,576.67,339.74,576.67,339.74z"/>
		</g>
		<g>
			<path class="st8" d="M553.1,233c-3.33,1.16-4.4,4.21-5.11,8.74c-0.71,4.53-2.96,13.28-2.76,13.8c0.2,0.52,5.04,2.63,5.04,2.63
				l4.45-9.82L553.1,233z"/>
		</g>
		<g class="st6">
			<path class="st7" d="M557.41,271.7l2.07-0.68c2.66-0.17,5.73-0.73,5.73-0.73c0.53,4.69,2.72,26.77,4.35,30.17
				c1.63,3.4,3.62,29.58,3,35.58c-1.51-0.12-3.12-0.37-4.48-0.89c0,0-0.66-22.77-1.03-25.24c-0.38-2.46-1.68-7.3-3.17-10.16
				C562.39,296.9,557.41,271.7,557.41,271.7z"/>
		</g>
		<g>
			<path class="st4" d="M558.43,209c-1.5-1.1-6.15,0.31-8.18,3.88c-2.03,3.57-2.38,19.39-3.53,21.9c0,0,3.94,0.52,7.33-1.44
				c1.1-0.63,2.72-1.77,2.72-1.77l0.38-6.77L558.43,209z"/>
		</g>
		<g>
			<path class="st5" d="M553.67,228.2c0.48,1.73,0.78,4.7-1.56,7.76c0,0,2.33,0.23,4.28-0.68c1.95-0.91,3.55-11.32,3.55-11.32
				l-5.73-0.3L553.67,228.2z"/>
		</g>
		<g class="st9">
			<path class="st10" d="M557.68,230.97c-2.29,0.94-3.79,1.62-4.58,2.03c-0.79,0.41-1.85,4.18-2.67,7.01
				c-0.82,2.83-2.06,5.51-0.5,8.72c1.56,3.2,2.13,4.2,2.32,9.96c0.19,5.76,1.52,14.94,1.52,14.94s11.75,0.8,21.35-5.6
				c0,0-3.8-8.84-4.82-12.02c-1.02-3.17-0.86-8.13-0.47-12.9c0.39-4.77,1.24-7-0.63-9.86c-1.87-2.86-5.62-4.1-6.57-4.27
				C561.69,228.8,557.68,230.97,557.68,230.97z"/>
		</g>
		<g>
			<path class="st11" d="M557.68,230.97c-2.29,0.94-3.79,1.62-4.58,2.03c-0.79,0.41-1.85,4.18-2.67,7.01
				c-0.82,2.83-2.06,5.51-0.5,8.72c1.56,3.2,2.13,4.2,2.32,9.96c0.19,5.76,1.52,16.94,1.52,16.94s14.3,2.66,22.35-6.6
				c0,0-4.8-9.84-5.82-13.02c-1.02-3.17-0.86-8.13-0.47-12.9c0.39-4.77,0.68-6.07-1.19-8.94c-1.87-2.86-5.07-5.02-6.01-5.19
				C561.69,228.8,557.68,230.97,557.68,230.97z"/>
		</g>
		<g class="st6">
			<path class="st12" d="M553.98,225.58l5.51-1.61c0,0,0.18,0.07,0.41,0.18c-0.09,0.59-0.43,2.55-0.92,4.69
				c-2.14,0.68-5.2-0.08-5.2-0.08l-0.01-0.02c-0.03-0.19-0.06-0.38-0.11-0.55L553.98,225.58z"/>
		</g>
		<g>
			<path class="st5" d="M567.66,263.88c-2.64,4.81-6.64,8.97-7.52,10.85c-0.88,1.88-0.85,5.62-2.55,7.32
				c-1.52,1.51-3.21,1.37-3.01,0.76c0.21-0.67,1.3-4.87,1.14-5.2c-0.17-0.33-2.08,2.45-2.25,1.88c-0.17-0.57,1.32-3.33,1.79-4.11
				c0.47-0.79,1.37-0.84,2.27-1.97c0.9-1.13,4.67-11.96,4.67-11.96l5.12-0.79L567.66,263.88z"/>
		</g>
		<g>
			<path class="st8" d="M571.22,247.92c-0.06,2.74,0.38,6.51-0.21,8.4c-0.88,2.83-3.67,8.13-3.67,8.13s-2.65-2.82-5.15-2.99
				c0,0,1.9-6.62,2.06-7.33c0.16-0.71-3.44-10.04-4-12.83c-0.44-2.22-0.46-8,3.01-9.88c0.88-0.48,2.05-1.22,3.34-0.75
				c1.11,0.41,1.92,1.53,2.61,2.59C571.08,236.11,571.25,246.25,571.22,247.92z"/>
		</g>
		<g>
			<path class="st4" d="M557.09,209.94c0,0-3.04,2.58-4.62,1.7c-0.56-0.31-0.4-0.78,0.04-1.25c2.18-1.65,4.85-2.16,5.92-1.38
				l-0.1,1.29C557.65,210.1,557.09,209.94,557.09,209.94z"/>
		</g>
		<g>
			<path class="st4" d="M560.92,344.95c-1.13-0.38-1.69-0.4-1.84-2.22c0.6,0.42,1.66,0.98,3.54,1.41c3.46,0.79,6.91-0.81,7.61-1.3
				c0.7-0.48,1.67-0.7,2.32-0.48c0.65,0.21,2.75,0.16,4.09-0.97c-0.03,0.68-0.07,1.33-0.16,1.41c-0.2,0.16-3.33,1.06-4.15,0.67
				c-0.82-0.39-0.78,0.39-3.56,1.41C565.98,345.89,562.22,345.38,560.92,344.95z"/>
		</g>
		<g>
			<path class="st4" d="M559.49,223.97c-0.65,1.53-2.08,12.93-2.08,12.93s8.22-1.48,9.67-3.23c0,0-0.35-7.39,0.28-10.33
				c1.08-4.99,0.48-13.11-8.92-14.33l-5.45,3.79l2.7,7.08L559.49,223.97z"/>
		</g>
		<g>
			<path class="st4" d="M552.98,212.79l4.1-2.85c-2.72,2.85,5.18,6.49,5.79,9.18c0.6,2.69-3.21,10.44-2.82,12.23
				c0.38,1.79,6.98,1.12,6.98,1.12l0,0c0.02,0.73,0.04,1.19,0.04,1.19c-1.45,1.75-9.67,3.23-9.67,3.23s1.44-11.4,2.08-12.93
				l-3.81-4.1L552.98,212.79z"/>
		</g>
		<g>
			<path class="st5" d="M559.49,223.97c-0.16,2.71-2.56,4.08-5.82,4.23c-3.26,0.14-3.82-4.69-3.75-6.2
				c0.07-1.51,0.57-2.47,0.21-3.51c-0.36-1.04,1.01-5.25,2.85-5.69c1.84-0.44,6.15,3.67,6.13,6.36c0,0,1.73-0.86,2.06,1.37
				C561.36,221.74,560.47,224.13,559.49,223.97z"/>
		</g>
	</g>
</g>
<g>
	<g>
		<path class="st4" d="M93.24,251.93v17.98H79.37v71.86H56.01v-71.86H42.19v-17.98H93.24z"/>
	</g>
	<g>
		<path class="st4" d="M98.57,251.93h38.96v17.98h-15.59v17.04h14.59v17.09h-14.59v19.76h17.15v17.98H98.57V251.93z"/>
	</g>
	<g>
		<path class="st4" d="M186.18,251.93l13.36,89.84h-23.88l-1.25-16.15h-8.36l-1.4,16.15H140.5l11.92-89.84H186.18z M173.8,309.7
			c-1.18-10.18-2.37-22.75-3.56-37.74c-2.38,17.2-3.88,29.78-4.48,37.74H173.8z"/>
	</g>
	<g>
		<path class="st4" d="M275.6,251.93v89.84h-20.42l-0.03-60.66l-8.13,60.66h-14.48l-8.57-59.27l-0.03,59.27h-20.42v-89.84h30.23
			c0.9,5.4,1.82,11.77,2.77,19.1l3.32,22.85l5.37-41.95H275.6z"/>
	</g>
	<g>
		<path class="st4" d="M372.93,251.93l-10.4,89.84h-29.17c-2.67-13.8-5.03-29.51-7.07-47.11c-0.93,7.55-3.1,23.25-6.51,47.11h-29
			l-10.46-89.84h22.7l2.47,31.35l2.39,30.31c0.86-15.68,3.01-36.23,6.46-61.65h24.26c0.32,2.63,1.17,12.5,2.55,29.63l2.58,34.18
			c1.33-21.75,3.5-43.02,6.52-63.82H372.93z"/>
	</g>
	<g>
		<path class="st4" d="M430.92,304.54c0,9.03-0.21,15.42-0.64,19.17c-0.42,3.76-1.76,7.19-4,10.29c-2.24,3.11-5.26,5.49-9.07,7.16
			c-3.81,1.66-8.25,2.5-13.32,2.5c-4.81,0-9.13-0.79-12.96-2.36c-3.83-1.57-6.91-3.93-9.24-7.08c-2.33-3.14-3.72-6.57-4.16-10.27
			c-0.44-3.7-0.67-10.17-0.67-19.42v-15.37c0-9.03,0.21-15.42,0.64-19.17c0.42-3.75,1.76-7.19,4-10.29
			c2.24-3.11,5.26-5.49,9.07-7.16c3.81-1.67,8.25-2.5,13.32-2.5c4.81,0,9.13,0.79,12.96,2.36c3.83,1.57,6.91,3.93,9.24,7.08
			c2.33,3.15,3.72,6.57,4.16,10.27c0.44,3.7,0.67,10.17,0.67,19.42V304.54z M407.56,275.01c0-4.18-0.23-6.85-0.69-8.02
			c-0.46-1.17-1.42-1.75-2.86-1.75c-1.22,0-2.16,0.47-2.8,1.42c-0.65,0.94-0.97,3.73-0.97,8.35v41.95c0,5.22,0.21,8.43,0.64,9.66
			c0.42,1.22,1.42,1.83,2.97,1.83c1.59,0,2.61-0.7,3.05-2.11c0.45-1.41,0.67-4.75,0.67-10.04V275.01z"/>
	</g>
	<g>
		<path class="st4" d="M439.64,251.93h16.54c11.03,0,18.49,0.43,22.39,1.28c3.9,0.85,7.08,3.02,9.54,6.52
			c2.46,3.5,3.69,9.07,3.69,16.73c0,6.99-0.87,11.69-2.61,14.1c-1.74,2.41-5.16,3.85-10.27,4.33c4.62,1.15,7.73,2.68,9.32,4.61
			c1.59,1.92,2.58,3.69,2.97,5.3c0.39,1.61,0.58,6.04,0.58,13.29v23.7h-21.7v-29.86c0-4.81-0.38-7.79-1.14-8.93
			c-0.76-1.15-2.75-1.72-5.97-1.72v40.51h-23.36V251.93z M463,267.3v19.98c2.63,0,4.47-0.36,5.52-1.08
			c1.05-0.72,1.58-3.06,1.58-7.02v-4.94c0-2.85-0.51-4.72-1.53-5.6C467.56,267.74,465.7,267.3,463,267.3z"/>
	</g>
	<g>
		<path class="st4" d="M556.54,251.93l-13.4,40.57l14.68,49.28h-24.14l-9.46-38.51v38.51h-23.36v-89.84h23.36v34.91l10.41-34.91
			H556.54z"/>
	</g>
	<path class="st13" d="M441.95,251.93c1.51,2.04,3.28,4.46,10.29,4.21c7.01-0.25,7.11-1.01,9.47,0.02v-2.61l-17.76-1.62
		L441.95,251.93z"/>
	<path class="st13" d="M406.4,252.33c1.48,0.93,12.45,5.54,14.12,6.03c1.67,0.49,2.8,0.35,4.03,0.66c1.22,0.31,0.53,2.5,4.32,5.33
		c-0.69-1.69-1.61-3.32-2.77-4.88c-2.33-3.14-5.41-5.5-9.24-7.08c-3.83-1.57-8.15-2.36-12.96-2.36
		C403.9,250.04,404.92,251.4,406.4,252.33z"/>
	<path class="st13" d="M353.64,251.93c0,0,0.31,0.77,1.36,0.77c1.05,0,2.57-0.77,2.57-0.77H353.64z"/>
	<path class="st13" d="M536.71,254.92c1.74,0.82,2.17,0.98,4.24,0s2.09-1.91,3.38-2.45c1.29-0.54,1.29-0.54,1.29-0.54l-4.14-0.62
		L536.71,254.92z"/>
</g>
<g>
	<g class="st3">
		<path class="st4" d="M88.71,254.61c-2.03,0.9-14.74,4.09-22.11,2.77c-7.88-1.42-10.48-5.45-10.48-5.45l34.76-0.65l3.11,1.5
			L88.71,254.61z"/>
	</g>
	<g>
		<g>
			<g>
				<path class="st5" d="M97.31,248.93c-0.21-3.4-4.07-5-10.02-5.54c-5.96-0.54-13.78-0.58-13.78-0.58l0.05-0.03l-14.22-0.47
					c-0.77,3.13-0.63,6.87,2.72,10.04c4.95,4.68,25.72-0.27,25.72-0.27s-4.74,7.78-6.51,23.43c-1.47,13.02-5,21.06-5,21.06
					s-0.7,3.14-0.75,4.75c-0.06,1.84,1.06,1.11,1.95,1.34c1.96,0.5,4.28-4.44,4.28-4.44s0.62-4.46,1.55-7.19
					c1.64-4.81,5.16-12.3,8.02-20.23C95.57,259.02,97.42,250.54,97.31,248.93z"/>
			</g>
		</g>
		<g>
			<g>
				<path class="st5" d="M74.89,239.16c0,0,12.87-1.33,18.01-0.92c5.15,0.41,5.88-0.09,7.11,5.32c1.23,5.41,1.21,41.06,6.99,46.02
					c0,0-3.15,1.74-4.38,1.18c-2.24-1-4.98-8.75-4.98-8.75s1.76-3.33-1.07-8.59c-5.53-10.32-2.82-18.48-1.67-24.79l-29.05-1.13
					L74.89,239.16z"/>
			</g>
		</g>
		<g>
			<g>
				<path class="st0" d="M80.78,279.16L80.78,279.16c0,0.01,2.97-1.22,6.52,1.83c1.32-3.18,2.73-6.63,4.02-10.19
					c4.26-11.78,6.1-20.26,6-21.87c-0.1-1.62-1.05-2.82-2.64-3.7l-11.14-0.37l-8.93,9.33c6.62-0.54,13.17-2.1,13.17-2.1
					s-4.74,7.78-6.51,23.43C81.12,276.78,80.95,277.99,80.78,279.16z"/>
			</g>
		</g>
		<g>
			<g>
				<g>
					<path class="st5" d="M102.9,269.79c0.46,9.1,1.49,17.55,4.09,19.79c0,0-3.15,1.74-4.38,1.18c-2.24-1-4.98-8.75-4.98-8.75
						s1.76-3.33-1.07-8.59c-0.52-0.96-0.94-1.91-1.32-2.84c2.04-0.36,5.59-0.91,7.65-0.78C102.9,269.8,102.9,269.79,102.9,269.79z"
						/>
				</g>
			</g>
			<g>
				<g>
					<path class="st0" d="M60.39,239.21l17.86-0.76c0,0,13.51-1.17,18.73-0.77c5.22,0.4,4.51,5.31,4.82,8.42
						c0.39,3.96,1.09,23.33,1.09,23.69c0,0,0,0.01,0,0.01c-2.07-0.13-5.61,0.42-7.65,0.78c-3.72-9.35-4.35-14.14-3.31-19.86
						c0,0-4.63,3.11-21.68,3.9C52.81,255.44,60.39,239.21,60.39,239.21z"/>
				</g>
			</g>
		</g>
		<g>
			<g>
				<path class="st0" d="M97.64,282.01c0,0-1.81,1.8-1.42,4.51c0.4,2.7,0.19,4.75,0.03,5.75l1.19,0.15l0.71-5.94
					c0,0,2.23,2.93,2.7,4.45c0.48,1.53-0.23,1.89,5.91,2.66c3.02,0.38,5.94-0.08,5.49-1.28c-0.31-0.78-4.17-2.13-5.24-2.73
					C106.99,289.58,102.99,290.73,97.64,282.01z"/>
			</g>
		</g>
		<g>
			<g>
				<path class="st0" d="M81.71,298.52c0.38-1.76-1.99,3.68-3.83,2.91c-1.84-0.76-1.42-3.46-1.61-4.87c0,0-4.31,11.07-0.18,11.82
					C78.76,308.88,80.62,303.54,81.71,298.52z"/>
			</g>
		</g>
	</g>
	<g>
		<g>
			<path class="st14" d="M79.87,238.71c0,0,2.84-8.59,2.16-13.11c-0.68-4.52,4.53-7.34,4.53-7.34l-1.86,20.11L79.87,238.71z"/>
		</g>
	</g>
	<g class="st6">
		<path class="st15" d="M99.45,239.39c-2.02,2.19-15.17,7.84-17.44,7.84c-3.17,0-14.99-6.14-14.99-6.14L99.45,239.39z"/>
	</g>
	<g>
		<g>
			<path class="st11" d="M79.87,238.71c0,0,2.84-8.59,2.16-13.11c-0.68-4.52,4.53-7.34,4.53-7.34l-1.86,20.11L79.87,238.71z"/>
		</g>
	</g>
	<g>
		<g>
			<path class="st4" d="M69.54,195.68c-0.56,1.27-4.78,2-4.12,6.33c0.66,4.34,7.7,0.74,7.7,0.74l1.54-6.48l-1.98-2.91L69.54,195.68z
				"/>
		</g>
	</g>
	<g>
		<g>
			<path class="st4" d="M80.32,195.23c-1.13,1.94-1.34,4.04-0.94,5.32c0.4,1.28,2.77,2.83,1.43,4.76c-1.34,1.93-8.7-0.29-8.7-0.29
				L80.32,195.23z"/>
		</g>
	</g>
	<g>
		<g>
			<path class="st5" d="M62.2,227.75c-0.25-1.79-0.69-3.74-1.12-5.44c0.52-1.59,1.04-3.19,1.65-4.75c0.02-0.02,0.06-0.04,0.06-0.08
				c0-0.02,0-0.04-0.01-0.06c0-0.01,0.01-0.02,0.01-0.02c0.01-0.02-0.02-0.02-0.02-0.03c-0.76-5.19,1.48-10.41,2.17-15.61
				c3.21-0.67,6.2-0.8,6.33-1.36c0.18-0.76,1.58-6.86,1.58-6.86l6.33,3.63c-0.81,2.84-1.23,6.04,0.59,6.69
				c2.35,0.84,5.67,1.52,5.76,5.93c0.09,4.4-3.92,12.29-3.76,17.84c0.15,5.55-2.49,6.82-2.49,6.82l-18.06,5.11
				C61.24,239.55,62.81,232.16,62.2,227.75z"/>
		</g>
	</g>
	<g>
		<g>
			<g>
				<path class="st4" d="M85,191.72c0,0,2.48-2.17,1.96-4.99c-0.41-2.19-1.24-6.57-4.85-7.46C77.72,178.21,85,191.72,85,191.72z"/>
			</g>
		</g>
		<g>
			<g>
				<path class="st16" d="M84.76,192.5c0.23,0.59-0.06,1.24-0.65,1.46l-1.2,0.46c-0.58,0.23-1.24-0.06-1.46-0.64l0,0
					c-0.23-0.58,0.06-1.24,0.64-1.47l1.2-0.46C83.88,191.63,84.53,191.92,84.76,192.5L84.76,192.5z"/>
			</g>
		</g>
		<g>
			<g>
				<path class="st4" d="M86,186.95c-0.13-3.71-1.46-7.7-6.53-8.34c-5.35-0.68-8.81,3.42-9.31,6.35c-0.5,2.92-0.23,4.86-0.11,5.49
					c0.12,0.62,1.29,2.75,2.64,2.92C74.59,193.6,86,186.95,86,186.95z"/>
			</g>
		</g>
		<g>
			<g>
				<path class="st12" d="M72.66,192.02c0.06,1.06-0.41,2.52-0.67,4.05c0.35,0.3,0.94,0.87,1.39,1.21c2.96,2.27,5.78,2.81,5.78,2.81
					s-0.28-0.58-0.71-1.43L72.71,192C72.7,192.01,72.68,192.02,72.66,192.02z"/>
			</g>
		</g>
		<g>
			<g>
				<path class="st5" d="M72.46,192.14c0.23,1.09,0.24,2.54,1.78,4.11c1.53,1.59,4.04,3.73,4.92,3.84c0.87,0.11,1.51,0.44,3.12-1.6
					c1.61-2.04,2.72-2.95,3.09-5.2c0.37-2.25,1.84-6.75-0.75-8.82c-1.91-1.53-5.38-1.36-7.4,0.24c-2.03,1.61-2.16,2.29-3.16,5.11
					c0,0-1.24-2.2-1.83-2.35c-0.58-0.16-1.14,0.16-0.96,1.44c0.18,1.27,0.51,1.12,0.47,1.75c-0.04,0.65-0.05,1.28,0.24,1.55
					C72.33,192.53,72.46,192.14,72.46,192.14z"/>
			</g>
		</g>
		<g>
			<g>
				<path class="st4" d="M83.69,183.87c0,0-4.46,6.05-9.67,6.46l-1.22-6.18l5.13-2.9L83.69,183.87z"/>
			</g>
		</g>
		<g>
			<g>
				<path class="st4" d="M82.67,183.97c0,0,1.68,3.9,3.67,5.26c0,0,1.1-5.01-1.52-7.75L82.67,183.97z"/>
			</g>
		</g>
	</g>
	<g>
		<g>
			<path class="st11" d="M59.34,223c0,0-2.86-4.04-2.76-7.46c0.15-4.86,1.6-12.51,6.32-13.73c1.09-0.28,2.76-0.31,4.11-0.49
				c1.19-0.16,2.14-0.27,2.14-0.27s0.96,5.81,7.39,6.59c3.74,0.46,4.57-3.35,4.57-3.35s1.02,0.27,1.27,0.36c0.34,0.12,1,0.52,1,0.52
				s2.77,6.71,3.18,8.31c0.54,2.12,1.5,5.5-1.89,8.73c0,0-4.05,11.44-1.73,19.07c0,0-13.46,1.57-22.79-1.75
				c0,0,1.96-8.58,0.74-11.78C60.18,225.85,60.53,226.35,59.34,223z"/>
		</g>
	</g>
	<g>
		<g>
			<g>
				<path class="st14" d="M85.65,209.61c0.01,0.31-0.05,0.67-0.08,1.01c-0.92-2.41-2.12-5.32-2.17-5.44
					C84.64,205.96,85.6,207.29,85.65,209.61z"/>
			</g>
		</g>
	</g>
	<g>
		<g>
			<g>
				<path class="st11" d="M85.65,209.61c0.01,0.31-0.05,0.67-0.08,1.01c-0.92-2.41-2.12-5.32-2.17-5.44
					C84.64,205.96,85.6,207.29,85.65,209.61z"/>
			</g>
		</g>
	</g>
	<g class="st17">
		<path class="st14" d="M60.16,239.51c0,0,1.09-4.78,1.14-8.53c0.01,0,0.04-0.01,0.04-0.01s1.66-0.95,4.4,1.55
			c2.74,2.5,16.46,6.18,16.46,6.18s0.09,0.03,0.24,0.08c0.12,0.85,0.27,1.68,0.51,2.47C82.95,241.26,69.58,242.83,60.16,239.51z"/>
	</g>
	<g>
		<g>
			<path class="st4" d="M76.88,178.65c-0.96,0.3-6.95,1.51-8.25,8.03c-0.41,2.06-0.05,5.36,0.91,9.01l2.53,1.28
				c0,0,0.48-2.73,0.62-3.6c0,0-3.01-1.71-2.6-5.55c0.41-3.84,3.92-5.82,3.92-5.82L76.88,178.65z"/>
		</g>
	</g>
	<g class="st17">
		<path class="st14" d="M64.97,212.47c-0.43,2.32-2.2,4.9-2.2,4.9l-1.22,6.95l2.73,1.48c0,0-0.79-3.33-0.18-5.64
			C64.71,217.85,64.97,212.47,64.97,212.47z"/>
	</g>
	<g>
		<polygon class="st18" points="81.39,245.26 68.03,240.44 86.26,234.49 99.47,238.65 		"/>
	</g>
	<g>
		<polygon class="st19" points="83.28,244.57 97.75,239.28 88.39,236.33 73.72,241.12 		"/>
	</g>
	<g>
		<path class="st5" d="M67.48,234.05c3.52,1.79,6.79,2.58,7.35,2.8c0.56,0.22,0.47,1.46,1.79,1.91c1.31,0.45,2.37,0.04,2.89,0.3
			c0.51,0.26,0.36,1.26,1.39,1.82c1.03,0.56,1.56,0.13,2.08,0.35c0.52,0.22,1.4,0.13,1.26-0.36c-0.14-0.49-1.12-3.9-1.7-4.4
			c-0.59-0.5-4.79-0.92-6.1-1.53c-1.31-0.61-7.53-4.55-7.53-4.55L67.48,234.05z"/>
	</g>
	<g>
		<polygon class="st20" points="81.38,246 83.08,229.72 101.31,223.77 99.45,239.39 		"/>
	</g>
	<g>
		<polygon class="st18" points="68.03,240.44 68.02,241.29 81.38,246 81.39,245.26 		"/>
	</g>
	<g class="st6">
		<polygon class="st18" points="68.03,240.44 68.02,241.29 81.38,246 81.39,245.26 		"/>
	</g>
	<g>
		<polygon class="st20" points="81.38,246 80.94,245.85 82.64,229.48 83.08,229.72 		"/>
	</g>
	<g class="st6">
		<polygon class="st18" points="81.38,246 80.94,245.85 82.64,229.48 83.08,229.72 		"/>
	</g>
	<g>
		<polygon class="st21" points="101.31,223.77 100.87,223.54 82.64,229.48 83.08,229.72 		"/>
	</g>
	<g>
		<path class="st1" d="M90.22,236.33c0.65,0.67,1.83,0.58,2.65-0.2c0.81-0.79,0.94-1.97,0.29-2.64c-0.65-0.67-1.84-0.58-2.65,0.21
			C89.7,234.48,89.57,235.66,90.22,236.33z"/>
	</g>
	<g>
		<path class="st11" d="M57.75,208.15c-2.38,12.5-4.73,17.23-0.52,20.63c5,4.04,9.39,5.03,15.41,7.64l1.65-2.96
			c0,0-0.57-0.22-3.24-2.59c-3.42-3.03-6.64-5.39-9.49-6.55l1.22-6.95L57.75,208.15z"/>
	</g>
	<g class="st9">
		<path class="st22" d="M74.29,233.46L74,233.98l0,0c0,0-4.49-3.89-6.75-5.41c-2.26-1.53-5.71-3.59-5.71-3.59l0.02-0.67
			c2.85,1.16,6.07,3.53,9.49,6.55C73.72,233.24,74.29,233.46,74.29,233.46z"/>
	</g>
</g>
<g>
	<g>
		<polygon class="st11" points="307.59,340.75 278.8,343.67 278.8,307.21 306.27,310.13 		"/>
	</g>
	<g>
		<path class="st0" d="M321.49,326.12c2.86,1.16,4.68,3.36,4.68,6.88c0,3.51-11.37,13.04-22.75,14.22
			c-11.37,1.17-17.06-4.85-17.06-4.85s14.88-4.18,19.9-7.86C311.29,330.82,317.31,324.43,321.49,326.12z"/>
	</g>
	<g>
		<path class="st8" d="M280.6,322.78c0,0,0.59-8.1,0.88-11.42c0,0-0.87,9.21,2.79,10.58c3.66,1.37,22.54,0.69,22.54,0.69l0.08,2.82
			l-24.33,1.19L280.6,322.78z"/>
	</g>
	<g>
		<path class="st0" d="M271.55,345.05c-4.75,0.49-6.25,1.33-7.42,3c-1.17,1.67,0.9,6.19,3.71,7.02c2.81,0.84,14.07-2.82,17.72-3.67
			C289.21,350.55,271.55,345.05,271.55,345.05z"/>
	</g>
	<g>
		<path class="st0" d="M301.92,353.23c2.34,0,5.35,1,10.2,0.67c4.85-0.34,6.19-2.01,6.02-5.35c-0.17-3.34-2.5-5.19-8.11-4.35
			c-5.61,0.84-9.79,1.84-9.79,1.84L301.92,353.23z"/>
	</g>
	<g>
		<path class="st0" d="M300.58,356.24c2.23,0.15,4.68-10.03,3.85-11.21c-0.84-1.17-8.03-1-17.56-5.35
			c-9.53-4.35-14.72-14.05-19.23-13.55c-4.52,0.5-7.52,4.35-8.36,6.69c-0.84,2.34,2.68,6.52,9.87,10.87
			C276.34,348.04,295.73,355.91,300.58,356.24z"/>
	</g>
	<g class="st9">
		<path class="st23" d="M271.91,328.78c-0.5,2.58-0.32,4.04,3.52,6.79c3.84,2.74,7.5,3.75,7.5,3.75l2.19-4.3L271.91,328.78z"/>
	</g>
	<g class="st9">
		<path class="st23" d="M324.29,327.95c-0.75-0.78-1.7-1.38-2.8-1.83c-4.18-1.69-10.2,4.7-15.22,8.38l1.52,2.62
			C313.64,335.19,323.66,329.19,324.29,327.95z"/>
	</g>
	<g>
		<path class="st5" d="M280.28,324.68c-1.31,0.17-2.61,0.36-3.92,0.66c-1.48,0.34-2.96,0.6-4.45,0.69
			c-0.06,1.91-0.02,3.38,0.17,3.97c0.66,1.97,9.38,7.67,9.38,7.67s3.96-2.52,4.91-5.26l-6.46-5.57L280.28,324.68z"/>
	</g>
	<g>
		<path class="st11" d="M292.22,296.99c-3.51,2.01-8.52,2.06-13.04,3.56c-4.52,1.51-4.68,4.18-5.69,9.87
			c-0.69,3.94-1.42,10.86-1.58,15.41c1.6-0.1,3.18-0.4,4.76-0.77c1.22-0.28,3.12-0.46,4.33-0.6l0.48-10.35l15.15-2.41v-14.8
			L292.22,296.99z"/>
	</g>
	<g>
		<path class="st11" d="M311.85,320.9c2.06-1.74,4.65-2.71,7.08-3.83c-0.86-1.2-1.78-2.53-2.67-4.06c-3.29-5.59-3.98-7.52-7.06-9.32
			c-2.7-1.58-8.84-5.48-9.83-6.8h-2.74v14.8l7.4,1.93C304.04,313.62,311.2,320.18,311.85,320.9z"/>
	</g>
	<g>
		<path class="st5" d="M311.96,321.02c1.79,1.99,3.09,3.83,3.09,3.83s-6.39,7.79-8.22,7.78c-1.83-0.01-4.17-0.11-5.15,0.55
			c-0.99,0.66-5.59,3.95-4.17,4.06c1.43,0.12,0.44-0.56,4.39-0.12c3.95,0.44,3.4-0.44,5.48-1.43c2.08-0.99,3.07-1.1,7.45-3.51
			c4.38-2.41,7.67-5.59,8-8c0.24-1.72-1.55-3.85-3.78-6.96C316.62,318.35,314.02,319.29,311.96,321.02z"/>
	</g>
	<g>
		<path class="st5" d="M292.27,297.31c-1.04,0.81-1.27,2.3-0.15,4.79c0.69,1.53,2.36,5.69,3.64,8.42c0,0,2.34-4.69,3.87-6.99
			c1.05-1.57,1.77-3.24,1.21-4.41C299.5,296.23,292.27,297.31,292.27,297.31z"/>
	</g>
	<g>
		<path class="st8" d="M310.85,319.83c-0.5,0.41,1.32,3.17,2.5,3.19c1.08,0.02,4.96-4.36,6.39-4.85c1.39-0.47-1.26-3.76-2.04-3.74
			C316.92,314.44,311.98,318.89,310.85,319.83z"/>
	</g>
	<g>
		<path class="st8" d="M271.19,324.05c-0.17,0.45-0.17,3.45,0.52,3.97c0.69,0.52,9.22,0.71,9.52-1.36c0.3-2.07,0.57-3.85-0.62-3.88
			c-1.2-0.03-4.94,0.58-6.53,0.58C272.49,323.36,271.52,323.15,271.19,324.05z"/>
	</g>
	<g>
		<g>
			<path class="st20" d="M281.06,341.54l-2.58-14.78c-0.1-0.57,0.34-1.09,0.91-1.09h30.19c0.59,0,1.04,0.55,0.91,1.13l-3.31,14.74
				H281.06z"/>
		</g>
		<g class="st6">
			<polygon class="st18" points="280.85,340.33 281.06,341.54 307.18,341.54 307.45,340.33 			"/>
		</g>
		<g>
			<path class="st1" d="M297.23,333.19c0,0.85-1.22,1.54-2.72,1.54c-1.5,0-2.72-0.69-2.72-1.54c0-0.85,1.22-1.54,2.72-1.54
				C296.02,331.66,297.23,332.35,297.23,333.19z"/>
		</g>
		<g class="st9">
			<polygon class="st1" points="302.47,325.67 288.47,341.54 292.71,341.54 304.25,325.67 			"/>
		</g>
		<g class="st9">
			<polygon class="st1" points="306.21,325.67 296.36,341.54 298.82,341.54 307.45,325.67 			"/>
		</g>
	</g>
	<g>
		<path class="st24" d="M297.57,279.84c-1.01-1.25-2.19-4.98,1.63-5c4.67-0.03,3.51,4.97,1.93,5.91
			C299.56,281.68,297.57,279.84,297.57,279.84z"/>
	</g>
	<g>
		<path class="st23" d="M297.57,279.84l0.11,0.53c0,0,0.64,1,2.12,0.89c1.48-0.1,1.91-0.61,1.91-0.61v-0.45
			C301.71,280.2,298.5,280.67,297.57,279.84z"/>
	</g>
	<g>
		<path class="st12" d="M300.86,299.11c-1.35-2.88-8.58-1.8-8.58-1.8c-0.47,0.37-0.75,0.88-0.84,1.55c0.49,1.07,3.58,4.42,9.08,3.12
			C301.01,300.92,301.23,299.9,300.86,299.11z"/>
	</g>
	<g>
		<g>
			<path class="st5" d="M295.77,301.07c1.86,0.3,4.25-0.6,5.61-2.4c1.36-1.8,1.99-4,2.67-5.75c0.67-1.74,2.17-7.51,0.87-9.57
				c-1.3-2.06-3.76-3.13-5.72-3.5L295.77,301.07z"/>
		</g>
		<g>
			<path class="st5" d="M304.2,290.98c0.39-0.33,1.42-0.45,1.31,0.21c-0.11,0.66-0.89,0.98-1.06,1.9c-0.18,0.93-0.66,2.04-1.64,1.94
				C301.82,294.92,304.2,290.98,304.2,290.98z"/>
		</g>
		<g>
			<path class="st5" d="M295.77,301.07c-1.86-0.3-3.84-1.91-4.57-4.04c-0.72-2.14-0.64-4.42-0.73-6.29
				c-0.09-1.87,0.3-7.81,2.18-9.36c1.88-1.55,4.56-1.79,6.54-1.53L295.77,301.07z"/>
		</g>
		<g>
			<path class="st5" d="M290.95,288.84c-0.27-0.44-1.2-0.87-1.31-0.21c-0.11,0.66,0.53,1.21,0.41,2.14
				c-0.12,0.93-0.02,2.15,0.95,2.35C291.97,293.33,290.95,288.84,290.95,288.84z"/>
		</g>
		<g>
			<path class="st24" d="M304.92,283.35c0.98,1.56,0.36,5.25-0.29,7.7c-0.01,0.01-0.59,0.98-0.93,1.71c0,0,0.14-4.33-1.14-4.99
				c-1.28-0.65-1.51,0.53-4.65,0.02l1.28-7.95C301.16,280.22,303.62,281.29,304.92,283.35z"/>
		</g>
		<g>
			<path class="st24" d="M292.66,281.37c-1.42,1.17-1.99,4.87-2.14,7.4c0,0.01,0.25,1.11,0.34,1.91c0,0,1.6-4.09,3.02-4.32
				c1.42-0.22,0.9,0.92,4.03,1.42l1.28-7.95C297.22,279.58,294.54,279.82,292.66,281.37z"/>
		</g>
	</g>
	<g class="st9">
		<path class="st23" d="M281.06,341.54c1.87,0.63,18.48,2.41,26.12,0H281.06z"/>
	</g>
</g>
<g>
	<path class="st5" d="M543.7,251.93c-1.24-0.07-1.79,1.39-3.67,2.29c-1.88,0.91-3.33,1.04-3.68,0.4c-0.35-0.64,1.05-3.75,1.52-4.16
		c0.47-0.41,4.25-0.45,5.42-0.21c1.16,0.24,2.33,1.68,2.33,1.68L543.7,251.93z"/>
</g>
<g>
	<g class="st6">
		<path class="st25" d="M218.08,262.56c2.59-1.27,8.25-3.03,15.48-0.59l-0.68-5.18l-9.1-2.34l-6.15,4.05L218.08,262.56z"/>
	</g>
	<g>
		<path class="st0" d="M209.96,289.36c-0.16,1.28-0.22,2.35-1.41,5.83c-1.08,3.15-4.14,7.76-2.13,9.38c1.88,1.52,5.39,1.8,7.09,0.98
			c1.7-0.82,2.75-3.68,3.14-6.23c0.39-2.55,0.14-4.14,0.73-4.39c0.59-0.25,1.27-0.77,1.31-2.42c0.04-1.64-0.32-4.74-0.32-4.74
			L209.96,289.36z"/>
	</g>
	<g>
		<path class="st11" d="M209.98,291.65c3.12,1.71,7.69,0.37,7.69,0.37s0.68,2.05-0.28,2.35c-0.96,0.3-0.95,1.75-1.15,3.12
			c-0.2,1.37-1.66,6.48-3.87,7.17c-2.21,0.7-5.95-0.1-6.41-1.87c0,0-0.07,0.09-0.2,0.25c0.02,0.62,0.2,1.15,0.66,1.51
			c1.88,1.52,5.39,1.8,7.09,0.98c1.7-0.82,2.75-3.68,3.14-6.23c0.39-2.55,0.14-4.14,0.73-4.39c0.59-0.25,1.27-0.77,1.31-2.42
			c0.03-1.19-0.15-3.14-0.26-4.12c-1.88,0.18-3.71,0.45-3.71,0.45L209.98,291.65z"/>
	</g>
	<g>
		<path class="st0" d="M239.95,288.62c0.27,1.26,0.43,2.32,1.94,5.68c1.36,3.04,4.83,7.35,2.98,9.15c-1.73,1.68-5.2,2.28-6.97,1.63
			c-1.77-0.66-3.08-3.41-3.7-5.92c-0.62-2.5-0.52-4.11-1.12-4.3c-0.61-0.19-1.33-0.65-1.52-2.28c-0.19-1.63-0.11-4.75-0.11-4.75
			L239.95,288.62z"/>
	</g>
	<g>
		<path class="st11" d="M240.11,291.67c-3.12,1.28-7.59,0.32-7.59,0.32s-0.49,2.11,0.49,2.31c0.98,0.21,1.1,1.66,1.43,3
			c0.33,1.35,2.24,6.3,4.51,6.79c2.26,0.49,5.91-0.64,6.21-2.45c0,0,0.08,0.09,0.22,0.24c0.04,0.62-0.1,1.16-0.52,1.57
			c-1.73,1.68-5.2,2.28-6.97,1.63c-1.77-0.66-3.08-3.41-3.7-5.92c-0.62-2.5-0.51-4.11-1.12-4.3c-0.61-0.19-1.33-0.65-1.52-2.28
			c-0.14-1.18-0.13-3.14-0.12-4.13c1.89,0.01,3.73,0.11,3.73,0.11L240.11,291.67z"/>
	</g>
	<g>
		<path class="st11" d="M252.19,233.64c-0.23-1.03-1.89-3.46-3.08-5.72c-0.34-0.83-0.72-1.74-1.12-2.66c0,0,0,0,0-0.01v0
			c-1.07-2.48-2.26-7.08-3.2-8.66c-2.23-3.75-3.3-6.14-7.56-7.56c-4.26-1.42-8.64-3-8.64-3l-10.69-0.45
			c-2.35,0.93-10.16,3.67-12.18,5.09c-2.03,1.42-5.58,9.71-7.91,18.23c-0.18,0.64-0.33,1.22-0.47,1.76h0
			c-1.34,3.46-1.2,8.02-0.99,9.4c0.21,1.38,2.98,2.77,4.61,3.33c1.63,0.57,7.77-2.23,7.77-2.23l1.13,5.73l30.1-1.63l0.13-7.24
			c0,0,1.2,2.44,2.91,3.17c1.71,0.73,3.9,2.36,6.75,0C252.59,238.84,252.51,235.1,252.19,233.64z"/>
	</g>
	<g>
		<path class="st8" d="M206.24,215.82c0.09,2.3-0.58,12.94-2.21,14.47c-1.63,1.54-2.88,1.82-3.74,3.07c0,0,1.44-1.04,2.21-0.81
			c0,0-1.92,1.38-1.63,2.92c0,0,0.93-1.61,3.55-2.3c2.62-0.69,3.26-2.5,3.26-3.93C207.67,227.79,207.01,218.89,206.24,215.82z"/>
	</g>
	<g>
		<polygon class="st8" points="235.91,222.74 235.51,216.83 237.6,223.13 		"/>
	</g>
	<g>
		<path class="st8" d="M207.75,233.17c-1.97,0.19-3.65,5.29-2.79,7.02c0.86,1.73,4.89,0,4.89,0v-5.47
			C209.85,234.71,209.86,232.96,207.75,233.17z"/>
	</g>
	<g>
		<path class="st26" d="M220.01,260.09c0.76-1.21,3.7-2.49,5.07-2.4c1.38,0.09,5.97,1.93,5.97,1.93l3.39-15.61h-18.36l-1.56,8.04
			L220.01,260.09z"/>
	</g>
	<g>
		<path class="st8" d="M242.73,231.43c0.44-0.38,3.13-0.96,3.61,0c0.48,0.97,0.77,5.35,0.29,6.37c-0.48,1.02-4.26,0.51-4.77,0
			c-0.51-0.51-1.57-1.81-0.85-2.79C241.73,234.03,242.73,231.43,242.73,231.43z"/>
	</g>
	<g>
		<path class="st0" d="M210.21,245.27c-2.09,0.23-4.72,2.05-4.43,7.93c0.29,5.87,2.02,31.31,1.89,33.7c-0.13,2.39,0,4.32,0,4.32
			s7.77,2.02,12.73-0.46c0,0-0.55-24.06-0.46-28.46c0.09-4.41,0.64-12.03,0.46-13.59C220.21,247.14,220.4,244.13,210.21,245.27z"/>
	</g>
	<g>
		<path class="st0" d="M219.94,262.29c0.09-4.41,0.64-12.03,0.46-13.59c-0.14-1.19-0.08-3.2-4.52-3.6
			c-0.65,6.73,0.85,41.32,1.09,46.68c1.2-0.18,2.38-0.5,3.43-1.02C220.4,290.75,219.85,266.69,219.94,262.29z"/>
	</g>
	<g>
		<path class="st0" d="M239.96,245.27c2.08,0.23,4.72,2.05,4.43,7.93c-0.29,5.87-2.02,31.31-1.89,33.7c0.13,2.39,0,4.32,0,4.32
			s-7.77,2.02-12.73-0.46c0,0,0.55-24.06,0.46-28.46c-0.09-4.41-0.64-12.03-0.46-13.59C229.95,247.14,229.76,244.13,239.96,245.27z"
			/>
	</g>
	<g>
		<path class="st0" d="M230.22,262.29c-0.09-4.41-0.64-12.03-0.46-13.59c0.14-1.19,0.08-3.2,4.52-3.6
			c0.65,6.73-0.85,41.32-1.09,46.68c-1.2-0.18-2.38-0.5-3.43-1.02C229.76,290.75,230.31,266.69,230.22,262.29z"/>
	</g>
	<g>
		<path class="st27" d="M217.96,203.41c0.25,0.94-0.4,4.07-0.33,4.59c0.07,0.52,2.76,4.74,6.15,4.81c3.39,0.07,6.28-3.68,6.15-4.25
			c-0.13-0.57-0.6-3.2-0.6-4.57C229.32,202.61,217.96,203.41,217.96,203.41z"/>
	</g>
	<g>
		<path class="st4" d="M216.96,201.45c-0.27,0.73,0.08,2.58,0.58,3.73c0.5,1.15,3.14,4.36,6.48,4.82c3.34,0.47,5.62-3.44,6.01-4.47
			c0.62-1.66,0.41-4.13,0.41-4.13L216.96,201.45z"/>
	</g>
	<g>
		<path class="st27" d="M214.78,197.89c-0.47,0.15-0.22,1.04,0.43,1.86c0.66,0.82,0.28,1.8,0.68,2.15c0.4,0.35,1.04-0.19,1.04-0.19
			s2.09,4.4,7.14,4.39c4.16-0.01,5.78-2.41,6.36-4.7c0,0,0.62,0.4,0.87-0.4c0.25-0.8,0.27-2.12,0.58-2.67
			c0.31-0.55,0.31-1.7-0.47-1.6c-0.78,0.1-1.8-5.39-1.8-5.39s-1.89-2.07-2.05-2.04c-0.17,0.02-9.51,1.41-9.51,1.41l-2.3,5.17
			L214.78,197.89z"/>
	</g>
	<g>
		<path class="st4" d="M216.68,199.91c0,0-0.31-3.44-1.9-2.02c0,0-1.14-7.62,0.84-7.79c0,0-0.15-4.18,3.86-4.13
			c4.01,0.06,7.27,0.03,7.28-1.49c0,0,2.7,1.66,1.84,3.31c0,0,2.72,0.75,2.86,4.4c0.13,3.65-0.04,4.54-0.04,4.54
			s-0.79,0.29-1.11,1.17c0,0-0.23-2.18-0.91-4.11c-0.73-2.05-1.54-2.68-1.54-2.68c-0.25,0.2-5.17,2.32-9.76,1.37
			C218.09,192.49,217.52,198.48,216.68,199.91z"/>
	</g>
	<g>
		<path class="st4" d="M216.87,202.04l0-1.36c0,0,0.63,1.94,2.54,2.49c1.91,0.55,2.62-0.42,4.63-0.71c2.01-0.29,2.56,0.45,3.82,0.19
			c1.5-0.31,2.46-2.43,2.46-2.43s0.18,1.32,0.15,2.17c-0.02,0.84-3.75,4.5-3.84,4.61c-0.1,0.12-5.08,0.5-5.08,0.5l-4.31-4.05
			L216.87,202.04z"/>
	</g>
	<g>
		<path class="st27" d="M226.89,204.15c0.18,0.42-0.83,1.05-2.13,1.05s-2.35-0.42-2.35-0.81c0-0.34,1.08-0.88,2.38-0.88
			C226.09,203.51,226.75,203.85,226.89,204.15z"/>
	</g>
	<g>
		<g>
			<path class="st20" d="M207.34,223.44l1.73,21.81c0,0.01,0.01,0.02,0.02,0.02h30.88c0.01,0,0.02-0.01,0.02-0.02l1.43-22.3
				c0.03-0.44-0.3-0.81-0.72-0.81l-32.66,0.48C207.63,222.62,207.31,223,207.34,223.44z"/>
		</g>
		<g>
			<path class="st1" d="M227.82,234.36c0,1.64-1.44,2.98-3.21,2.98c-1.77,0-3.21-1.33-3.21-2.98c0-1.64,1.44-2.97,3.21-2.97
				C226.38,231.38,227.82,232.71,227.82,234.36z"/>
		</g>
		<g class="st6">
			<path class="st18" d="M208.98,243.99l0.1,1.26c0,0.01,0.01,0.02,0.02,0.02h30.88c0.01,0,0.02-0.01,0.02-0.02l0.08-1.26H208.98z"
				/>
		</g>
		<g class="st3">
			<polygon class="st1" points="229.72,222.3 213.76,245.27 217.06,245.27 231.44,222.3 			"/>
		</g>
		<g class="st3">
			<polygon class="st1" points="233.62,222.25 222.58,245.27 224.26,245.27 234.39,222.24 			"/>
		</g>
	</g>
	<g>
		<path class="st27" d="M240.1,229.28c-1.79,0.02-3.54,0-4.1,0.31c-0.56,0.31-1.14,0.53-1.28,1.04c-0.1,0.33,0.24,1.46,0.75,1.78
			c0.43,0.27,0.89,1.18,1.11,1.26c0.21,0.08,2.23,0.23,2.7,1.08c0.46,0.86,2.05,0.59,2.74,1.29c0.69,0.7,1.87,0.99,2.58,0.71
			c0.71-0.28,1.22-3.22,0.89-3.66c-0.33-0.44-1.46-1.29-2.37-2.21C242.6,230.39,241.34,229.27,240.1,229.28z"/>
	</g>
	<g>
		<path class="st27" d="M208.16,233.79c-1.71,1.2-1.58,6.3,0.48,6.03L208.16,233.79z"/>
	</g>
</g>
<g>
	<path class="st1" d="M79.27,159.59c-1.88-5.08-8.34-7.37-14.45-5.12c-6.1,2.25-9.53,8.2-7.65,13.28c1.81,4.9,7.89,7.2,13.79,5.34
		l3.99,1.2l0.34-3.46C78.99,167.98,80.72,163.53,79.27,159.59z"/>
</g>
<g>
	<g>
		<g>
			<path class="st28" d="M482.19,286.21c-0.16,0.62-0.8,3.45-0.77,4.17c0.05,1.36,0.38,2.67,0.78,3.11c0.6,0.68,3.16,1.46,3.59,0.96
				c0.43-0.5,1.27-0.87,1.53-0.45c0.25,0.42,2.17,2.27,5.23,2.59c3.05,0.32,6.31,0.34,7.52-0.78c1.21-1.12,1.06-2.46,0.37-3.38
				c-0.7-0.92-8.95-3.21-9.9-5.18L482.19,286.21z"/>
		</g>
		<g>
			<path class="st0" d="M461.26,236.45c0,0,24.47,7.71,29.66,9.72c5.19,2.01,8.38,4.69,8.21,7.71c-0.16,3.02-3.52,13.41-3.69,16.59
				c-0.17,3.18-2.38,18.2-2.66,18.48c-0.28,0.28-8.14,1.05-11.29-1.4c0,0,2.67-17.68,2.67-18.73c0-1.05-2.32-14.52-2.32-14.52
				s-24.41-10.94-23.57-10.73C459.11,243.77,461.26,236.45,461.26,236.45z"/>
		</g>
		<g>
			<path class="st28" d="M505.78,293.14c0.64,1.75,2.54,3.72,3.42,3.94c0.88,0.22,3.43-0.58,3.5-1.24c0.07-0.66,0.56-1.44,1.01-1.23
				c0.45,0.21,3.08,0.65,5.78-0.81c2.7-1.46,5.4-3.29,5.77-4.89c0.37-1.61-0.51-2.63-1.61-2.99c-1.09-0.37-9.2,2.41-11.1,1.31
				L505.78,293.14z"/>
		</g>
		<g>
			<path class="st0" d="M440.98,246.5c2.85,4.36,4.36,7.88,11.73,8.04c7.37,0.17,8.88,1.51,15.59,4.86
				c6.7,3.35,11.56,5.53,11.56,5.53s14.41,20.28,16.26,22.96c1.84,2.68,4.67,6.7,6.27,6.7c1.6,0,9.98-5.19,11.32-7.71
				c0,0-14.91-18.77-16.26-20.28c-1.34-1.51-5.53-9.89-8.21-12.57c-2.68-2.68-34.36-19.94-34.36-19.94s-9.38,4.86-11.73,6.87
				C440.81,242.99,440.98,246.5,440.98,246.5z"/>
		</g>
		<g>
			<path class="st5" d="M440.67,200.33c1.82-1.97,1.66-5.42,1.66-5.42l9.48,0.36c0,0-0.51,5.75,0.28,7.89
				C452.88,205.3,443.98,206.5,440.67,200.33z"/>
		</g>
		<g>
			<path class="st12" d="M499.31,215.51c0.49,0.19,0.29,0.52,0.42,0.85c0.12,0.33-0.29,0.82-0.4,1.21
				c-0.11,0.39-0.23,0.71-0.82,1.09c-0.59,0.38-3.93,0.86-4.49,1.3c0,0-1.43-1.48-1.22-1.69
				C493.02,218.05,499.31,215.51,499.31,215.51z"/>
		</g>
		<g>
			<path class="st0" d="M480.79,255.83c-4.64-4.34-29.14-9.8-30.56-12.07c0,0-6,0.26-9.17,1.47c-0.1,0.75-0.08,1.27-0.08,1.27
				c2.85,4.36,4.36,7.88,11.73,8.04c7.37,0.17,8.88,1.51,15.59,4.86c6.7,3.35,11.56,5.53,11.56,5.53s14.41,20.28,16.26,22.96
				c1.84,2.68,4.67,6.7,6.27,6.7c0.83,0,3.5-1.41,6.06-3.11C508.44,291.48,485.43,260.17,480.79,255.83z"/>
		</g>
		<g>
			<path class="st11" d="M488.65,221.87c-0.12-1.32-0.38-2.85-0.7-3.18l-0.21,0.03c-0.33,0.06-0.67,0.11-1.03,0.17l-2.49,0.41
				l-4.51,0.75c-2.91,0.43-6.12,0.81-6.54,0.46c-0.65-0.53-9.24-14.22-11.45-16.64c-2.21-2.42-3.26-1.41-9.24-2.89
				c0,0,5.66,16.35,6.38,17.4c0.73,1.06,10.38,9.78,11.23,10.03c0.86,0.24,5.71-0.03,9.7-1.93c0.73-0.35,1.48-0.74,2.22-1.14
				c0.01,0,0.02,0,0.02-0.01c1.73-0.9,6.63-1.46,6.63-1.46C488.75,223.66,488.73,222.82,488.65,221.87z"/>
		</g>
		<g>
			<path class="st11" d="M451.73,200.79l4.7,1.2c0,0,3.29,6.56,3.37,9.98c0.08,3.42,2.03,11.79,2.89,13.63
				c0.86,1.84,3.92,11.96,3.95,12.47c0.02,0.51-8.88,0.26-12.68,3.1c-3.8,2.84-11.77,7.85-12.98,7.57
				c-1.21-0.29-2.32-5.36-2.93-7.47c-0.62-2.11-1.02-20.07-1.02-20.07s5.2-11.71,5.44-11.89c0.25-0.18,6.68-6.01,6.68-6.01
				L451.73,200.79z"/>
		</g>
		<g>
			<path class="st8" d="M453.95,241.17c3.8-2.84,12.71-2.59,12.68-3.1c-0.02-0.51-3.09-10.63-3.95-12.47
				c-0.75-1.61-2.34-8.24-2.78-12.16c-0.75-1.45-1.21-2.35-1.21-2.35c1.25,4.82,1.52,17.73-21.35,20.64
				c0.17,4.33,0.41,8.57,0.69,9.53c0.62,2.11,1.72,7.19,2.93,7.47C442.19,249.02,450.16,244.01,453.95,241.17z"/>
		</g>
		<g>
			<path class="st11" d="M440.67,200.33c-2.1,1.01-8.67,2.42-9.52,3.61c-0.85,1.18-1.91,9-2.76,14.71
				c-0.85,5.71-1.62,12.95-1.09,14.4c0.52,1.45,3.03,2.23,4.3,2.62c1.27,0.39,14.97-2.43,15.66-3.26c0,0-0.07-2.52-0.73-5.08
				c0,0-7.7-0.06-11.08,0.37c0,0,1.13-3.62,1.58-6.51l12.13-17.9L440.67,200.33z"/>
		</g>
		<g>
			<g>
				<path class="st11" d="M450.55,227.94c-9.17-0.1-13.31-11.77-13.34-13.58l-0.19,5.67l0.21,7.57L450.55,227.94z"/>
			</g>
			<g>
				<path class="st29" d="M437.21,214.36l0-0.23C437.21,214.13,437.21,214.22,437.21,214.36z"/>
			</g>
		</g>
		<g>
			<path class="st30" d="M451.43,222.54l1.4,9.07c0,0,3.09,1.53,5.87-0.29l-0.46-9.31L451.43,222.54z"/>
		</g>
		<g>
			<path class="st31" d="M450.55,221.8c0.06,0.2,0.51,1.17,0.51,1.17l7.57-0.64l-0.07-1.43L450.55,221.8z"/>
		</g>
		<g>
			<polygon class="st23" points="451.9,220.4 451.39,221.71 457.81,220.99 457.09,219.78 			"/>
		</g>
		<g>
			<path class="st25" d="M456.6,219.37c-0.54-0.84-0.77-1.43-0.12-2.39c0.65-0.97-0.56-2.14-0.56-2.14s1.95,1.27,1.19,2.22
				C456.37,218.02,456.14,218,456.6,219.37z"/>
		</g>
		<g>
			<path class="st32" d="M457.1,226.65c0.12,1.62-0.61,3-1.63,3.07c-1.02,0.08-1.95-1.17-2.07-2.79c-0.12-1.62,0.61-3,1.63-3.07
				C456.05,223.77,456.98,225.03,457.1,226.65z"/>
		</g>
		<g>
			<path class="st5" d="M453.76,224.23c-0.56,0.11-3.82,2.57-4.36,2.93c-0.51,0.34-1.42,0.46-2.75,0.72
				c0.26,1.16,0.42,2.27,0.5,3.11c0.92-0.3,2.69-0.86,3.41-0.9c1-0.05,2.26-0.81,3.14-1.2c0.88-0.39,2.58,0.62,3.06,0.4
				c0.49-0.22,2.31-1.76,2.08-2.45C458.6,226.15,454.31,224.12,453.76,224.23z"/>
		</g>
		<g>
			<path class="st5" d="M496.66,216.8c2.01-0.82,3.31-1.52,2.74-1.68c-0.57-0.16-1.55,0.41-4.72,1.18c-3.17,0.77-3.1,1.55-4.51,1.93
				c-0.62,0.17-1.46,0.33-2.42,0.49l0.21-0.03c0.32,0.33,0.58,1.86,0.7,3.18c0.42-0.15,0.79-0.26,1.04-0.25
				c1.43,0.07,2.32,0.51,4.19,0.04c1.88-0.47,3.48-0.16,3.53-0.63c0.05-0.47-1.61-0.7-2.44-0.82c-0.83-0.12-1.04-0.54-1-1.07
				C494.01,218.6,494.64,217.63,496.66,216.8z"/>
		</g>
		<g>
			<path class="st11" d="M431.5,231.18c1.2-2.15,3.95-3.48,3.95-3.48s1.13-3.62,1.58-6.51l0.18-7.06
				C437.02,218.98,431.5,231.18,431.5,231.18z"/>
		</g>
		<g>
			<path class="st11" d="M470.95,225.21c-0.81-0.75-11.9-13.63-11.9-13.63c0.12,2.34,1.05,8.1,1.05,8.1
				c2.81,2.74,9.29,8.52,9.98,8.71c0.86,0.24,5.71-0.03,9.7-1.93c0.73-0.35,1.48-0.74,2.22-1.14c0.01,0,0.02,0,0.02-0.01
				c1.73-0.9,6.63-1.46,6.63-1.46c0.1-0.21,0.08-1.05-0.01-2c0,0-8.71,2.07-11.91,3.17C473.54,226.15,471.76,225.97,470.95,225.21z"
				/>
		</g>
		<g>
			<g>
				<path class="st4" d="M454.45,184.64c0.88-3.37-1.57-7.91-8.8-7.61c-2.61,0.11-5.17,1-5.81,3.39c-0.04,0.13-0.18,0.21-0.26,0.32
					c-1.18,1.55-1.6,3.45-1.5,5.04c0.18,3.11,1.19,5.03,1.46,5.63c0.28,0.61,2.27,2.2,2.99,4.08
					C443.25,197.37,454.45,184.64,454.45,184.64z"/>
			</g>
		</g>
		<g>
			<g>
				<path class="st5" d="M441.83,192.94c0.5,1.04,0.63,2.19,2.58,3.43c1.96,1.25,5.04,2.82,5.96,2.73c0.92-0.09,1.67,0.1,2.83-2.34
					c1.16-2.44,2.08-3.61,1.93-5.98c-0.15-2.36,0.3-7.25-2.86-8.74c-2.34-1.11-5.85-0.14-7.55,1.96c-1.7,2.1-1.67,2.81-2.03,5.9
					c0,0-1.54-1.77-2.18-1.79c-0.64-0.03-1.14,0.42-0.65,1.68c0.5,1.25,0.53,0.85,0.64,1.5c0.11,0.65,0.25,1.3,0.61,1.5
					C441.58,193.05,441.83,192.94,441.83,192.94z"/>
			</g>
		</g>
		<g>
			<g>
				<path class="st4" d="M452.1,181.68c0,0-1.84-0.1-3.44,0.76c-1.73,0.94-4.13,2.3-4.42,4.23c-0.29,1.93-0.65,3.9-0.65,3.9
					l-0.75-0.04l-0.59-6.53l3.61-4.02L452.1,181.68z"/>
			</g>
		</g>
		<g>
			<path class="st4" d="M442.7,189.91c-0.14,2.29-1.01,2.15-1.12,3.26c-0.1,1.11-0.02,1.93,2.29,4.18c2.32,2.25,5.29,3.77,6.88,3.53
				c1.58-0.23,2.46-1.71,2.63-2.46c0.18-0.74,0.92-3.89,0.92-3.89s-0.67,1.48-2.3,2.06c-1.63,0.57-5.09-0.41-6.21-1.58
				c-1.12-1.17-2.21-4.44-2.21-4.44l-0.69-3.13L442,188.2L442.7,189.91z"/>
		</g>
		<g>
			<path class="st4" d="M453.72,195.72c0.31-0.62,0.59-1.17,0.82-1.7c-0.39-0.23-1.04-0.47-1.99-0.33
				c-1.18,0.17-1.18,0.36-2.91,1.24c-1.86,0.95-2.74,0.98-4.28,0.27c-1.12-0.52-0.24,1.05,0.31,1.94c0.34,0.2,0.69,0.39,1.05,0.58
				l2.11,0.04l0.26-1.2c1.71-0.27,1.93-1.19,2.77-1.53C452.88,194.61,453.18,195,453.72,195.72z"/>
		</g>
	</g>
</g>
</svg>
