<?xml version="1.0" encoding="utf-8"?>
<!-- Generator: Adobe Illustrator 26.0.1, SVG Export Plug-In . SVG Version: 6.00 Build 0)  -->
<svg version="1.1" xmlns="http://www.w3.org/2000/svg" xmlns:xlink="http://www.w3.org/1999/xlink" x="0px" y="0px"
	 viewBox="0 0 500 500" style="enable-background:new 0 0 500 500;" xml:space="preserve">
<style type="text/css">
	.st0{opacity:0.17;fill:#9191A3;}
	.st1{fill:#2D6CA9;}
	.st2{fill:#1F417B;}
	.st3{fill:none;stroke:#2C74AF;stroke-width:0.7815;stroke-miterlimit:10;}
	.st4{fill:#2688BF;}
	.st5{fill:#FFFFFD;}
	.st6{fill:#FFFFFF;}
	.st7{fill:#1F5493;}
	.st8{fill:none;stroke:#1F417B;stroke-width:1.3486;stroke-miterlimit:10;}
	.st9{clip-path:url(#SVGID_00000139975729537435562920000017140891235363651504_);}
	.st10{fill:#163C7A;}
	.st11{fill:#2A7EBF;}
	.st12{opacity:0.57;fill:#D8EEFF;}
	.st13{fill:#214B87;}
	.st14{fill:#ECECEC;}
	.st15{opacity:0.66;fill:#9191A3;}
	.st16{fill:#FF8E78;}
	.st17{fill:#512626;}
	.st18{fill:none;stroke:#512626;stroke-width:1.7547;stroke-linecap:round;stroke-miterlimit:10;}
	.st19{fill:#842115;}
	.st20{fill:none;stroke:#2D0101;stroke-width:0.6382;stroke-miterlimit:10;}
	.st21{fill:#E89182;}
	.st22{opacity:0.49;fill:#FEFEFE;}
	.st23{opacity:0.49;fill:#2D6CA9;}
	.st24{opacity:0.44;fill:#222226;}
	.st25{fill:none;stroke:#2C74AF;stroke-width:0.8773;stroke-miterlimit:10;}
	.st26{fill:url(#SVGID_00000120525995733963922390000001257445359492757672_);}
	.st27{fill:#A87D1D;}
	.st28{opacity:0.62;fill:#FFFFFF;}
	.st29{fill:none;stroke:#1F417B;stroke-width:0.6016;stroke-miterlimit:10;}
	.st30{fill:none;stroke:#1F417B;stroke-width:0.514;stroke-miterlimit:10;}
	.st31{fill:none;stroke:#FFFFFF;stroke-width:3.3836;stroke-miterlimit:10;}
	.st32{fill:none;stroke:#FFFFFF;stroke-width:1.1637;stroke-miterlimit:10;}
	.st33{fill:#2C74AF;}
</style>
<g id="BACKGROUND">
</g>
<g id="OBJECTS">
	<path class="st0" d="M83.41,176.85c1.12-23.69,7.69-46.64,22.1-67.82c54.17-79.65,188.59-78.61,262.68-34.51
		c22.24,13.24,41.32,33.65,48.84,59.01c6.08,20.48,4.32,42.48,4.06,63.95c-0.29,24.21,4.52,42.13,13.84,63.79
		c7.46,17.33,8.91,37.99,5.72,56.6c-6.93,40.37-35.76,73.21-70.23,91.97c-54.78,29.81-141.37,30.79-207.83,14.32
		c-33.59-8.32-65.61-25.43-81.78-49.7c-12.87-19.31-14.73-41.49-10.44-61.95c3.45-16.45,11.44-31.19,18.15-46.73
		c5.37-12.46,3.21-23.24,0.14-36.72C84.64,211.52,82.6,193.99,83.41,176.85z"/>
	<g>
		<g>
			<polygon class="st1" points="179.87,307.18 133.8,260.05 128.64,278.77 75.38,231.94 80.76,225.82 124.24,264.05 129.71,244.21 
				185.7,301.48 			"/>
			<polygon class="st1" points="69.45,244.8 92.88,218.76 66.03,218.15 			"/>
			<polygon class="st2" points="154.68,281.41 179.87,307.18 191.92,308.21 158.79,273.95 			"/>
		</g>
		<path class="st2" d="M227.02,418.08l-77.68-71.92c-6.47-5.99-6.86-16.09-0.87-22.55l164.9-178.12c5.99-6.47,16.09-6.86,22.55-0.87
			l77.68,71.92c6.47,5.99,6.86,16.09,0.87,22.55l-164.9,178.12C243.59,423.68,233.49,424.07,227.02,418.08z"/>
		<path class="st3" d="M222.94,412.65l-77.68-71.92c-6.47-5.99-6.89-16.05-0.94-22.48l163.86-177c5.95-6.43,16.02-6.78,22.49-0.8
			l77.68,71.92c6.47,5.99,6.89,16.05,0.94,22.48l-163.86,177C239.48,418.29,229.41,418.64,222.94,412.65z"/>
		<path class="st4" d="M214.93,406.88l-77.68-71.92c-6.47-5.99-6.86-16.09-0.87-22.55l164.9-178.12c5.99-6.47,16.09-6.86,22.55-0.87
			l77.68,71.92c6.47,5.99,6.86,16.09,0.87,22.55l-164.9,178.12C231.49,412.48,221.4,412.87,214.93,406.88z"/>
		<path class="st5" d="M229.04,398.44l-84.47-78.2c-3-2.78-3.18-7.46-0.4-10.46l161.05-173.95c2.78-3,7.46-3.18,10.46-0.4
			l84.47,78.2c3,2.78,3.18,7.46,0.4,10.46L239.5,398.04C236.72,401.04,232.04,401.22,229.04,398.44z"/>
		<path class="st6" d="M185.46,368.55c-1.98,2.13-5.31,2.26-7.44,0.29c-2.13-1.98-2.26-5.31-0.29-7.44
			c1.98-2.13,5.31-2.26,7.44-0.29C187.31,363.08,187.44,366.41,185.46,368.55z"/>
		<g>
			<path class="st7" d="M392.07,250.85c-1.44-1.33-3.69-1.25-5.03,0.19l-14.19,15.33c-1.33,1.44-1.25,3.69,0.19,5.03l2.61,2.42
				l2.42-2.61l14.19-15.33l2.42-2.61L392.07,250.85z"/>
			<path class="st4" d="M380.68,273.62c-1.33,1.44-3.58,1.53-5.03,0.19l0,0c-1.44-1.33-1.53-3.58-0.19-5.03l14.19-15.33
				c1.33-1.44,3.58-1.53,5.03-0.19l0,0c1.44,1.33,1.53,3.58,0.19,5.03L380.68,273.62z"/>
		</g>
		<g>
			<path class="st7" d="M369.42,275.31c-1.44-1.33-3.69-1.25-5.03,0.19l-14.19,15.33c-1.33,1.44-1.25,3.69,0.19,5.03l2.61,2.42
				l2.42-2.61l14.19-15.33l2.42-2.61L369.42,275.31z"/>
			<path class="st4" d="M358.03,298.08c-1.33,1.44-3.58,1.53-5.03,0.19l0,0c-1.44-1.33-1.53-3.58-0.19-5.03L367,277.92
				c1.33-1.44,3.58-1.53,5.03-0.19l0,0c1.44,1.33,1.53,3.58,0.19,5.03L358.03,298.08z"/>
		</g>
		<path class="st4" d="M328.59,149.34c-2.46,2.66-2.3,6.8,0.36,9.26l46.8,43.33c2.66,2.46,6.8,2.3,9.26-0.36l0,0
			c2.46-2.66,2.3-6.8-0.36-9.26l-46.8-43.33C335.19,146.52,331.05,146.68,328.59,149.34L328.59,149.34z"/>
		<g>
			<line class="st8" x1="313.2" y1="169.74" x2="303.64" y2="160.88"/>
			<line class="st8" x1="310.01" y1="173.19" x2="300.44" y2="164.33"/>
			<line class="st8" x1="306.82" y1="176.64" x2="297.25" y2="167.78"/>
		</g>
		<g>
			<path class="st2" d="M370.5,225.47c1.83-1.98,7.58,1.29,4.72,4.37c-4.55,4.91-11.27,2.7-11.27,2.7s-2.72-6.54,1.83-11.45
				C368.63,218.01,372.33,223.49,370.5,225.47z"/>
			<g>
				<polygon class="st2" points="346.16,212.16 353.76,219.19 359.84,213.98 350.89,205.69 				"/>
				<path class="st2" d="M349.72,217.62c-0.6,0.64-0.56,1.65,0.09,2.25c0.64,0.6,1.65,0.56,2.25-0.09c0.6-0.65,0.56-1.65-0.09-2.25
					C351.33,216.94,350.32,216.98,349.72,217.62z"/>
				<path class="st2" d="M345.7,213.9c-0.6,0.64-0.56,1.65,0.09,2.25c0.64,0.6,1.65,0.56,2.25-0.09c0.6-0.64,0.56-1.65-0.09-2.25
					C347.3,213.21,346.3,213.25,345.7,213.9z"/>
				
					<rect x="348.85" y="203.22" transform="matrix(0.6794 -0.7338 0.7338 0.6794 -38.8749 322.6042)" class="st2" width="1.73" height="5.13"/>
			</g>
		</g>
		<path class="st6" d="M332.46,152.91c-1.09,1.17-1.02,3.01,0.16,4.1c1.17,1.09,3.01,1.02,4.1-0.16c1.09-1.17,1.02-3.01-0.16-4.1
			C335.38,151.67,333.54,151.74,332.46,152.91z"/>
	</g>
	<g>
		<g>
			<defs>
				<path id="SVGID_1_" d="M400.14,213.63l-21.44-19.85l-2.7-151.5H142.2v272.13l0.01,0c-0.11,2.12,0.68,4.28,2.36,5.83l84.47,78.2
					c3,2.78,7.68,2.6,10.46-0.4l161.05-173.95C403.32,221.09,403.14,216.41,400.14,213.63z"/>
			</defs>
			<clipPath id="SVGID_00000129167327763336880770000002331050241141556609_">
				<use xlink:href="#SVGID_1_"  style="overflow:visible;"/>
			</clipPath>
			<g style="clip-path:url(#SVGID_00000129167327763336880770000002331050241141556609_);">
				<g>
					<path class="st10" d="M221.13,95.69c0,0-11.65,4.3-11.64,18.5c7.44,0.84,7.44,0.84,7.44,0.84l7.03-15.84L221.13,95.69z"/>
					<path class="st10" d="M206.28,135.5l0.05,0.03c1.42,0.8,3.23,0.3,4.03-1.12l10.83-19.18l-5.21-2.94l-10.83,19.18
						C204.35,132.89,204.85,134.7,206.28,135.5z"/>
					<path class="st11" d="M198.8,73.6c0,0,11.81,18.51,30.4,29.69l6.05,4.4c0.86,0.63,1.33,1.66,1.22,2.72
						c-0.24,2.44-1.28,6.86-5.49,9.78c-0.86,0.59-1.97,0.67-2.92,0.24c-23.19-10.56-33.37-12.62-47.96-13.71
						C186.51,102.39,201.34,91.49,198.8,73.6z"/>
					<path class="st12" d="M235.25,107.69c0.86,0.63,1.33,1.66,1.22,2.72c-0.09,0.9-0.29,2.08-0.72,3.35
						c-15.61-8.96-30.24-22.59-37.43-29.77c0.77-3.16,1.01-6.61,0.48-10.39c0,0,11.81,18.51,30.4,29.69L235.25,107.69z"/>
					<path class="st2" d="M231.53,104.64c0.05,2.44-0.75,7.59-7.08,13.59c-0.96,0.91-2.37,1.15-3.59,0.65l-11.37-4.69
						c0,0,8.78-3.85,11.64-18.5c5.41,3.58,7.96,5.45,9.16,6.41C231.06,102.73,231.51,103.65,231.53,104.64z"/>
					
						<ellipse transform="matrix(0.4918 -0.8707 0.8707 0.4918 17.7277 207.7993)" class="st2" cx="186.89" cy="88.71" rx="19.92" ry="9.88"/>
					
						<ellipse transform="matrix(0.4918 -0.8707 0.8707 0.4918 17.7209 207.3331)" class="st6" cx="186.48" cy="88.48" rx="17.74" ry="8.19"/>
					<path class="st11" d="M183.82,93.19c0,0,0,0,5.13-9.08c2.3,1.3,5.92,2.46,7.22,2.85c-0.65,1.81-1.51,3.68-2.56,5.54
						c-1.08,1.9-2.27,3.64-3.51,5.16C187.41,95.18,183.82,93.19,183.82,93.19z"/>
					<path class="st2" d="M184.95,87.74c-1.41,2.5-1.9,4.9-1.1,5.36c0.81,0.46,2.61-1.2,4.02-3.7c1.41-2.5,1.9-4.9,1.1-5.36
						C188.17,83.58,186.37,85.24,184.95,87.74z"/>
				</g>
				<path class="st2" d="M230.43,127.29c0,0-8.23,4.34-15.65,12.55c-7.41,8.21-34.1,34.9-34.1,34.9l11.6,24.48l30.42-25.27
					L230.43,127.29z"/>
				<path class="st13" d="M216.4,263.27c0,0-3.72,62.28,9.07,138.9c54.83,2.92,74.34,0,74.34,0s-28.14-107.9-35.2-135.4
					C235.85,257.71,216.4,263.27,216.4,263.27z"/>
				<path class="st2" d="M230.43,254.78c0,0,0.23,42.11,5.16,50.3c9.02,3.51,9.02,3.51,9.02,3.51s-5.26-32.17-2.63-53.81
					C244.62,233.14,230.43,254.78,230.43,254.78z"/>
				<path class="st13" d="M264.61,266.77c-9.51-3-17.99-4.39-25.1-4.92v44.75c0,0,12.42,68.67,26.2,96.86
					c24.54,0.14,34.1-1.29,34.1-1.29S271.67,294.28,264.61,266.77z"/>
				<path class="st14" d="M216.4,263.27c0,0,15.27,9.64,48.21,3.5c2.97-71.08,2.97-71.08,2.97-71.08l-0.07-52.4l-20.02-5.92
					l-28.45,81.59L216.4,263.27z"/>
				<path class="st15" d="M256.62,155.13l-4.15,4.38c0,0-8.96,27.16-24.32,33.29c6.14-20.34,6.14-20.34,6.14-20.34
					s13.12-12.13,15.22-16.18C253.87,154.17,256.62,155.13,256.62,155.13z"/>
				<path class="st2" d="M218.04,235.57l-1.65,27.7c0,0-0.9,15.17-0.28,39.74c2.41-4.49,5.4-11.41,6.6-19.71
					c2.15-14.86,3.83-68.95,3.83-68.95L218.04,235.57z"/>
				<polygon class="st5" points="252.37,148.33 242.6,155.69 246.81,142.01 249.52,142.85 				"/>
				<path class="st7" d="M249.52,142.85c0,0-26.1,48.03-29.17,125.68c-1.75,18.42-19.74,31.15-19.74,31.15s6.14-28.95,8.33-60.1
					c2.19-31.15,11.41-99.98,21.49-112.28c11.41,3.05,22.04,9.2,22.04,9.2L249.52,142.85z"/>
				<path class="st2" d="M226.54,214.35c8.68-45.17,22.98-71.5,22.98-71.5l2.96-6.35c0,0-3.92-2.27-9.55-4.73L230,155.69l3.95,2.05
					l-7.41,6.16V214.35z"/>
				<polygon class="st6" points="252.37,148.33 262.11,163.9 265.57,156.87 267.5,143.29 				"/>
				<path class="st1" d="M268.38,136.5c0,0,11.37-8.38,14.82-16.99c3.44-8.61,5.24-15.64-0.96-21.98
					c-6.2-6.34-14.73-13.92-16.67-19.57c-1.94-5.65-7.79,1.52-5.96,9.37c1.82,7.85,1.59,11.25,1.59,11.25l4.37,25.54L268.38,136.5z"
					/>
				<path class="st11" d="M255.27,106.35c0,0-3.23-7.58-1.57-12.68c1.66-5.1,2.41-2.34,4.31,0.41c1.9,2.76,4.75,4.96,4.75,4.96
					L255.27,106.35z"/>
				<polygon class="st16" points="251.27,126.4 249.52,142.85 252.37,148.33 267.5,143.29 269.7,126.4 				"/>
				<path class="st17" d="M250.48,133.82c6.74-0.43,11.66-1.5,11.66-1.5l-6.61-5.92h-4.26L250.48,133.82z"/>
				<path class="st16" d="M262.14,97.01c0,0-11.31,9.65-18.33,26.1c0.22,2.41,14.72,9.43,18.33,9.21
					c3.61-0.22,10.19-8.55,10.19-8.55s-1.97-0.22-1.1-1.97c0.88-1.75,3.73-7.46,2.41-12.28c-1.32-4.83-3.51-8.55-0.66-6.58
					c2.85,1.97,5.04,6.58,5.04,4.39C278.03,105.12,273.23,95.91,262.14,97.01z"/>
				<path class="st16" d="M279.79,127.29c0,2.79-2.26,5.04-5.04,5.04c-2.79,0-5.04-2.26-5.04-5.04c0-2.79,2.26-5.04,5.04-5.04
					C277.53,122.25,279.79,124.51,279.79,127.29z"/>
				<path class="st17" d="M265.09,116.17c-0.39,0.58-1.18,0.73-1.76,0.34l0,0c-0.58-0.39-0.73-1.18-0.34-1.76l1.14-1.68
					c0.39-0.58,1.18-0.73,1.76-0.34l0,0c0.58,0.39,0.73,1.18,0.34,1.76L265.09,116.17z"/>
				<path class="st17" d="M255.68,110.16c-0.33,0.5-1.01,0.63-1.5,0.29l0,0c-0.5-0.33-0.63-1.01-0.29-1.5l0.97-1.44
					c0.33-0.5,1.01-0.63,1.5-0.29l0,0c0.5,0.33,0.63,1.01,0.29,1.5L255.68,110.16z"/>
				<path class="st18" d="M265.57,107.88c0,0,3.72,0.12,5.12,3.78"/>
				<path class="st18" d="M256.28,102.09c1.14,0.27,2.47,0.93,3.48,2.44"/>
				<path class="st17" d="M250.85,114.93c-0.01,2.6,1.35,5.12,3.78,6.47c2.43,1.35,5.29,1.18,7.49-0.19L250.85,114.93z"/>
				<path class="st2" d="M278.81,321.53L278.81,321.53c-5.96-22.93-11.56-44.47-14.2-54.76c2.97-71.08,2.97-71.08,2.97-71.08
					l-0.01-6.45l-5.45-25.34C262.11,163.9,220.76,295.74,278.81,321.53z"/>
				<path class="st19" d="M254.62,121.4c2.1,1.17,4.53,1.2,6.57,0.29c-0.75-0.92-2.11-2.13-4.1-2.18c-1.76-0.05-3.07,0.41-3.92,0.83
					C253.61,120.74,254.09,121.1,254.62,121.4z"/>
				<path class="st6" d="M251.26,117.34l8.59,4.79c1.05-0.23,1.91-0.55,2.27-0.92l-11.27-6.28
					C250.84,115.75,250.99,116.57,251.26,117.34z"/>
				<polyline class="st20" points="259.23,110.64 256.28,114.04 257.75,115.32 				"/>
				<path class="st1" d="M267.5,143.29c0,0-27.71,90.73-7.9,138.11c11.62,24.27,25.37,27.2,25.37,27.2s-5.56-73.7,0-101.48
					c5.56-27.78,5.85-40.65,5.85-40.65L267.5,143.29z"/>
				<path class="st7" d="M290.83,166.46c0,0,8.92,14.77,12.87,28.81c3.95,14.04,34.39,100.29,34.39,100.29l-22.37,27.2L272.8,209.31
					C272.8,209.31,270.06,173.63,290.83,166.46z"/>
				<path class="st2" d="M274.74,150.48l-7.24-7.19c0,0-21.62,70.81-13,119.99l0,0c0.38-22.36,15.19-75.46,15.19-75.46l-6.93-10.09
					h7.92L274.74,150.48z"/>
				<path class="st1" d="M202.5,115.25l-28.8,67.21c-2.72,6.34-0.06,13.7,6.09,16.84l0.25,0.13c7.07,3.61,15.71,0.15,18.34-7.34
					l24.01-68.51c1-2.85-0.34-5.99-3.09-7.24l-9.02-4.09C207.29,110.88,203.79,112.24,202.5,115.25z"/>
				<path class="st21" d="M219.68,122.33l3.48,1.17c1.84,0.62,2.78,2.65,2.07,4.46l-2.74,6.95c-0.57,1.44-2.05,2.31-3.59,2.12
					l-4.11-0.53L219.68,122.33z"/>
				<path class="st1" d="M179.55,184.74c-2.45,0-4.76,0.58-6.84,1.57c-0.52,5.24,2.15,10.47,7.08,12.98l0.25,0.13
					c5.13,2.62,11.08,1.51,14.96-2.16C193.49,190.11,187.15,184.74,179.55,184.74z"/>
				<path class="st16" d="M211.41,154.89l10.98-31.32c1-2.85-0.34-5.99-3.09-7.24l-9.02-4.09c-2.98-1.35-6.48,0.01-7.77,3.01
					l-12.58,29.35C196.15,148.14,204.46,152.5,211.41,154.89z"/>
				<path class="st2" d="M187.84,149.45c7.44,4.99,16.83,8.41,21.94,10.06l5.05-14.42c-9.37-1.14-17.53-7.04-20.92-9.82
					L187.84,149.45z"/>
				<line class="st20" x1="221.81" y1="125.21" x2="212.68" y2="120.92"/>
				<line class="st20" x1="219.68" y1="131.29" x2="210.14" y2="127.29"/>
				<path class="st22" d="M262.14,97.01c0,0-11.31,9.65-18.33,26.1c0.13,1.41,5.16,4.41,10.03,6.6
					c9.91-3.97,17.49-13.76,20.14-17.54c0-0.9-0.1-1.79-0.34-2.66c-1.32-4.83-3.51-8.55-0.66-6.58c2.85,1.97,5.04,6.58,5.04,4.39
					C278.03,105.12,273.23,95.91,262.14,97.01z"/>
				<path class="st23" d="M290.83,166.46l-23.32-23.18c0,0,15.8,21.96,23.32,50.31c7.53,28.35,11.54,94.87,47.26,101.97
					c0,0-30.44-86.26-34.39-100.29C299.74,181.23,290.83,166.46,290.83,166.46z"/>
				<path class="st24" d="M202.5,115.25l-28.8,67.21c-2.08,4.85-1,10.3,2.37,13.99C198.73,166.73,202.5,115.25,202.5,115.25z"/>
				<polygon class="st2" points="273.23,210.43 282.61,256.96 282.62,235.27 				"/>
				<path class="st25" d="M252.37,148.33c0,0-21.52,66.63-18.42,119.93"/>
				<path class="st11" d="M247.48,155.69c0,0,3.36,2.05,3.36,2.05c0.49,0.3-6.09,8.87-6.49,9.33c-5.29,6.12-12.07,10.32-18.68,14.82
					c-4.57,3.11-7.76,8.04-10.52,12.75c-5.47,9.31-9.47,19.52-12.83,29.75c-0.6,1.83-1.19,3.66-1.72,5.51l-10.49,1.85l-1.61-14.99
					c2.5-6.55,5.93-12.87,9.68-18.77c3.35-5.27,7.14-10.3,11.58-14.7c5.37-5.33,11.36-8.38,18.1-11.65
					C235.37,168.01,243.08,163.01,247.48,155.69z"/>
				<polygon class="st1" points="247.48,152.01 247.48,155.69 250.85,157.74 256.62,155.13 252.37,148.33 				"/>
			</g>
		</g>
		
			<linearGradient id="SVGID_00000119103771782408219330000015633886821928074415_" gradientUnits="userSpaceOnUse" x1="272.3586" y1="302.3019" x2="272.3586" y2="462.5384">
			<stop  offset="0" style="stop-color:#FFFFFF"/>
			<stop  offset="1" style="stop-color:#5A5A66"/>
		</linearGradient>
		<path style="fill:url(#SVGID_00000119103771782408219330000015633886821928074415_);" d="M229.04,398.44l-84.47-78.2
			c-3-2.78-3.18-7.46-0.4-10.46l161.05-173.95c2.78-3,7.46-3.18,10.46-0.4l84.47,78.2c3,2.78,3.18,7.46,0.4,10.46L239.5,398.04
			C236.72,401.04,232.04,401.22,229.04,398.44z"/>
	</g>
	<g>
		<path class="st2" d="M133.21,43.66h-6.87l-2.94,2.66c-5.75,3.37-9.62,9.62-9.62,16.77c0,7.15,3.87,13.4,9.62,16.77l2.94,2.66h6.87
			c10.73,0,19.43-8.7,19.43-19.43S143.94,43.66,133.21,43.66z"/>
		
			<ellipse transform="matrix(0.2883 -0.9575 0.9575 0.2883 29.5001 165.8783)" class="st1" cx="126.34" cy="63.09" rx="19.43" ry="19.43"/>
		<path class="st2" d="M126.34,56.97c-3.76-4.35-12.67-5.52-12.65,2.41c0.02,7.92,12.7,15.9,12.7,15.9s12.64-8.03,12.62-15.96
			S130.08,52.6,126.34,56.97z"/>
	</g>
	<g>
		<path class="st2" d="M320.29,381.75h-6.75l-2.89,2.61c-5.65,3.31-9.45,9.45-9.45,16.47c0,7.02,3.8,13.16,9.45,16.47l2.89,2.61
			h6.75c10.54,0,19.08-8.54,19.08-19.08C339.38,390.29,330.83,381.75,320.29,381.75z"/>
		
			<ellipse transform="matrix(0.922 -0.3872 0.3872 0.922 -130.7378 152.66)" class="st1" cx="313.55" cy="400.83" rx="19.08" ry="19.08"/>
		<path class="st2" d="M313.54,394.82c-3.69-4.27-12.45-5.42-12.43,2.36c0.02,7.78,12.47,15.62,12.47,15.62s12.42-7.89,12.4-15.67
			C325.96,389.34,317.22,390.53,313.54,394.82z"/>
	</g>
	<g>
		<path class="st2" d="M416.43,72.26H310.16c-1.15,0-2.07-0.93-2.07-2.07V45.97c0-1.15,0.93-2.07,2.07-2.07h106.26
			c1.15,0,2.07,0.93,2.07,2.07v24.22C418.5,71.34,417.57,72.26,416.43,72.26z"/>
		<path class="st1" d="M408.64,72.26H302.37c-1.15,0-2.07-0.93-2.07-2.07V45.97c0-1.15,0.93-2.07,2.07-2.07h106.26
			c1.15,0,2.07,0.93,2.07,2.07v24.22C410.71,71.34,409.78,72.26,408.64,72.26z"/>
		<path class="st6" d="M406.68,70.3H304.35c-1.19,0-2.15-0.96-2.15-2.15V48.01c0-1.19,0.96-2.15,2.15-2.15h102.33
			c1.19,0,2.15,0.96,2.15,2.15v20.14C408.82,69.34,407.86,70.3,406.68,70.3z"/>
		<g>
			<g>
				<polygon class="st27" points="316.76,49.63 317.91,49.63 318.17,50.68 316.76,51.1 				"/>
				<path class="st2" d="M318.52,50.01l2.07,4.19l4.63,0.67c0.56,0.08,0.78,0.77,0.38,1.16l-3.35,3.26l0.79,4.61
					c0.1,0.56-0.49,0.98-0.99,0.72l-4.14-2.18l-4.14,2.18c-0.5,0.26-1.08-0.16-0.99-0.72l0.79-4.61l-3.35-3.26
					c-0.4-0.39-0.18-1.08,0.38-1.16l4.63-0.67l2.07-4.19C317.55,49.5,318.27,49.5,318.52,50.01z"/>
				<path class="st1" d="M317.37,50.01l2.07,4.19l4.63,0.67c0.56,0.08,0.78,0.77,0.38,1.16l-3.35,3.26l0.79,4.61
					c0.1,0.56-0.49,0.98-0.99,0.72l-4.14-2.18l-4.14,2.18c-0.5,0.26-1.08-0.16-0.99-0.72l0.79-4.61l-3.35-3.26
					c-0.4-0.39-0.18-1.08,0.38-1.16l4.63-0.67l2.07-4.19C316.4,49.5,317.12,49.5,317.37,50.01z"/>
			</g>
			<path class="st28" d="M315.57,54.47c-0.1,0.2-0.34,0.28-0.54,0.18l0,0c-0.2-0.1-0.28-0.34-0.18-0.54l1.42-2.83
				c0.1-0.2,0.34-0.28,0.54-0.18l0,0c0.2,0.1,0.28,0.34,0.18,0.54L315.57,54.47z"/>
		</g>
		<g>
			<g>
				<polygon class="st27" points="336.08,49.63 337.23,49.63 337.49,50.68 336.08,51.1 				"/>
				<path class="st2" d="M337.84,50.01l2.07,4.19l4.63,0.67c0.56,0.08,0.78,0.77,0.38,1.16l-3.35,3.26l0.79,4.61
					c0.1,0.56-0.49,0.98-0.99,0.72l-4.14-2.18l-4.14,2.18c-0.5,0.26-1.08-0.16-0.99-0.72l0.79-4.61l-3.35-3.26
					c-0.4-0.39-0.18-1.08,0.38-1.16l4.63-0.67l2.07-4.19C336.87,49.5,337.59,49.5,337.84,50.01z"/>
				<path class="st1" d="M336.69,50.01l2.07,4.19l4.63,0.67c0.56,0.08,0.78,0.77,0.38,1.16l-3.35,3.26l0.79,4.61
					c0.1,0.56-0.49,0.98-0.99,0.72l-4.14-2.18l-4.14,2.18c-0.5,0.26-1.08-0.16-0.99-0.72l0.79-4.61l-3.35-3.26
					c-0.4-0.39-0.18-1.08,0.38-1.16l4.63-0.67l2.07-4.19C335.72,49.5,336.44,49.5,336.69,50.01z"/>
			</g>
			<path class="st28" d="M334.89,54.47c-0.1,0.2-0.34,0.28-0.54,0.18l0,0c-0.2-0.1-0.28-0.34-0.18-0.54l1.42-2.83
				c0.1-0.2,0.34-0.28,0.54-0.18l0,0c0.2,0.1,0.28,0.34,0.18,0.54L334.89,54.47z"/>
		</g>
		<g>
			<g>
				<polygon class="st27" points="355.4,49.63 356.55,49.63 356.82,50.68 355.4,51.1 				"/>
				<path class="st2" d="M357.16,50.01l2.07,4.19l4.63,0.67c0.56,0.08,0.78,0.77,0.38,1.16l-3.35,3.26l0.79,4.61
					c0.1,0.56-0.49,0.98-0.99,0.72l-4.14-2.18l-4.14,2.18c-0.5,0.26-1.08-0.16-0.99-0.72l0.79-4.61l-3.35-3.26
					c-0.4-0.39-0.18-1.08,0.38-1.16l4.63-0.67l2.07-4.19C356.19,49.5,356.91,49.5,357.16,50.01z"/>
				<path class="st1" d="M356.01,50.01l2.07,4.19l4.63,0.67c0.56,0.08,0.78,0.77,0.38,1.16l-3.35,3.26l0.79,4.61
					c0.1,0.56-0.49,0.98-0.99,0.72l-4.14-2.18l-4.14,2.18c-0.5,0.26-1.08-0.16-0.99-0.72l0.79-4.61l-3.35-3.26
					c-0.4-0.39-0.18-1.08,0.38-1.16l4.63-0.67l2.07-4.19C355.04,49.5,355.77,49.5,356.01,50.01z"/>
			</g>
			<path class="st28" d="M354.21,54.47c-0.1,0.2-0.34,0.28-0.54,0.18l0,0c-0.2-0.1-0.28-0.34-0.18-0.54l1.42-2.83
				c0.1-0.2,0.34-0.28,0.54-0.18l0,0c0.2,0.1,0.28,0.34,0.18,0.54L354.21,54.47z"/>
		</g>
		<g>
			<g>
				<polygon class="st27" points="374.73,49.63 375.88,49.63 376.14,50.68 374.73,51.1 				"/>
				<path class="st2" d="M376.49,50.01l2.07,4.19l4.63,0.67c0.56,0.08,0.78,0.77,0.38,1.16l-3.35,3.26l0.79,4.61
					c0.1,0.56-0.49,0.98-0.99,0.72l-4.14-2.18l-4.14,2.18c-0.5,0.26-1.08-0.16-0.99-0.72l0.79-4.61l-3.35-3.26
					c-0.4-0.39-0.18-1.08,0.38-1.16l4.63-0.67l2.07-4.19C375.52,49.5,376.24,49.5,376.49,50.01z"/>
				<path class="st1" d="M375.34,50.01l2.07,4.19l4.63,0.67c0.56,0.08,0.78,0.77,0.38,1.16l-3.35,3.26l0.79,4.61
					c0.1,0.56-0.49,0.98-0.99,0.72l-4.14-2.18l-4.14,2.18c-0.5,0.26-1.08-0.16-0.99-0.72l0.79-4.61l-3.35-3.26
					c-0.4-0.39-0.18-1.08,0.38-1.16l4.63-0.67l2.07-4.19C374.37,49.5,375.09,49.5,375.34,50.01z"/>
			</g>
			<path class="st28" d="M373.54,54.47c-0.1,0.2-0.34,0.28-0.54,0.18l0,0c-0.2-0.1-0.28-0.34-0.18-0.54l1.42-2.83
				c0.1-0.2,0.34-0.28,0.54-0.18l0,0c0.2,0.1,0.28,0.34,0.18,0.54L373.54,54.47z"/>
		</g>
		<g>
			<g>
				<polygon class="st27" points="395.2,49.63 394.05,49.63 393.79,50.68 395.2,51.1 				"/>
				<path class="st1" d="M393.44,50.01l-2.07,4.19l-4.63,0.67c-0.56,0.08-0.78,0.77-0.38,1.16l3.35,3.26l-0.79,4.61
					c-0.1,0.56,0.49,0.98,0.99,0.72l4.14-2.18l4.14,2.18c0.5,0.26,1.08-0.16,0.99-0.72l-0.79-4.61l3.35-3.26
					c0.4-0.39,0.18-1.08-0.38-1.16l-4.63-0.67l-2.07-4.19C394.41,49.5,393.69,49.5,393.44,50.01z"/>
				<path class="st2" d="M394.59,50.01l-2.07,4.19l-4.63,0.67c-0.56,0.08-0.78,0.77-0.38,1.16l3.35,3.26l-0.79,4.61
					c-0.1,0.56,0.49,0.98,0.99,0.72l4.14-2.18l4.14,2.18c0.5,0.26,1.08-0.16,0.99-0.72l-0.79-4.61l3.35-3.26
					c0.4-0.39,0.18-1.08-0.38-1.16l-4.63-0.67l-2.07-4.19C395.56,49.5,394.84,49.5,394.59,50.01z"/>
			</g>
		</g>
		<g>
			<polygon class="st2" points="353.13,83.72 348.02,83.72 354.58,73.45 357.08,74.32 			"/>
			<polygon class="st2" points="363.33,71.73 353.13,83.72 355.44,71.73 			"/>
			<polygon class="st1" points="358.23,71.73 348.02,83.72 350.34,71.73 			"/>
		</g>
	</g>
	<path class="st2" d="M367.5,394.34h52.88c5.42,0,9.81-4.39,9.81-9.81v-36.67c0-5.42-4.39-9.81-9.81-9.81H367.5
		c-5.42,0-9.81,4.39-9.81,9.81v36.67C357.69,389.95,362.08,394.34,367.5,394.34z"/>
	<path class="st1" d="M377.68,394.34h52.88c5.42,0,9.81-4.39,9.81-9.81v-36.67c0-5.42-4.39-9.81-9.81-9.81h-52.88
		c-5.42,0-9.81,4.39-9.81,9.81v36.67C367.87,389.95,372.26,394.34,377.68,394.34z"/>
	<path class="st2" d="M378.6,388.91h51.85c2.21,0,4.01-1.8,4.01-4.01v-37.5c0-2.21-1.8-4.01-4.01-4.01H378.6
		c-2.21,0-4.01,1.8-4.01,4.01v37.5C374.59,387.11,376.38,388.91,378.6,388.91z"/>
	<path class="st13" d="M431.61,384.9v-37.5c0-2.21-1.8-4.01-4.01-4.01h2.85c2.21,0,4.01,1.8,4.01,4.01v37.5
		c0,2.21-1.8,4.01-4.01,4.01h-2.85C429.82,388.91,431.61,387.11,431.61,384.9z"/>
	<g>
		<g>
			<path class="st6" d="M392.21,363.21c0,0,8.26-0.27,9.34-5.28c1.08-5.01-0.41-6.77,0-8.26c0.41-1.49,6.09-0.95,6.36,3.93
				c0.27,4.87-0.68,7.72-0.68,7.72h7.39c2.04,0,3.55,1.94,2.99,3.9c-0.25,0.87-0.76,1.75-1.71,2.48c1.9,3.77,1.9,4.99,0.14,6.88
				c0.81,2.84,0.54,6.57-5.15,6.57c-5.69,0-18.68,0-18.68,0V363.21z"/>
			<path class="st6" d="M393.7,379.75c0,1.33-1.08,2.42-2.42,2.42l0,0c-1.33,0-2.42-1.08-2.42-2.42v-16.77
				c0-1.33,1.08-2.42,2.42-2.42l0,0c1.33,0,2.42,1.08,2.42,2.42V379.75z"/>
		</g>
		<path class="st6" d="M411.06,367.74c0,0.6-0.49,1.09-1.09,1.09h-9.63c-0.6,0-1.09-0.49-1.09-1.09l0,0c0-0.6,0.49-1.09,1.09-1.09
			h9.63C410.57,366.65,411.06,367.14,411.06,367.74L411.06,367.74z"/>
		<path class="st6" d="M411.06,374.36c0,0.6-0.49,1.09-1.09,1.09h-9.63c-0.6,0-1.09-0.49-1.09-1.09l0,0c0-0.6,0.49-1.09,1.09-1.09
			h9.63C410.57,373.27,411.06,373.76,411.06,374.36L411.06,374.36z"/>
	</g>
	<polygon class="st1" points="398.42,391.69 398.42,411.22 412.9,391.69 	"/>
	<rect x="390.81" y="394.34" class="st2" width="7.61" height="16.88"/>
	<path class="st2" d="M125.79,160.08H72.91c-5.42,0-9.81-4.39-9.81-9.81v-36.67c0-5.42,4.39-9.81,9.81-9.81h52.88
		c5.42,0,9.81,4.39,9.81,9.81v36.67C135.6,155.68,131.21,160.08,125.79,160.08z"/>
	<path class="st1" d="M115.61,160.08H62.73c-5.42,0-9.81-4.39-9.81-9.81v-36.67c0-5.42,4.39-9.81,9.81-9.81h52.88
		c5.42,0,9.81,4.39,9.81,9.81v36.67C125.42,155.68,121.02,160.08,115.61,160.08z"/>
	<path class="st2" d="M114.69,154.64H62.84c-2.21,0-4.01-1.8-4.01-4.01v-37.5c0-2.22,1.8-4.01,4.01-4.01h51.85
		c2.21,0,4.01,1.8,4.01,4.01v37.5C118.7,152.84,116.9,154.64,114.69,154.64z"/>
	<path class="st13" d="M61.67,150.63v-37.5c0-2.21,1.8-4.01,4.01-4.01h-2.85c-2.21,0-4.01,1.8-4.01,4.01v37.5
		c0,2.21,1.8,4.01,4.01,4.01h2.85C63.47,154.64,61.67,152.84,61.67,150.63z"/>
	<g>
		<g>
			<path class="st6" d="M101.07,128.94c0,0-8.26-0.27-9.34-5.28c-1.08-5.01,0.41-6.77,0-8.26c-0.41-1.49-6.09-0.95-6.36,3.93
				c-0.27,4.87,0.68,7.72,0.68,7.72h-7.39c-2.04,0-3.55,1.94-2.99,3.9c0.25,0.87,0.76,1.75,1.71,2.48c-1.9,3.77-1.9,4.99-0.14,6.88
				c-0.81,2.84-0.54,6.57,5.15,6.57s18.68,0,18.68,0V128.94z"/>
			<path class="st6" d="M99.58,145.48c0,1.33,1.08,2.42,2.42,2.42l0,0c1.33,0,2.42-1.08,2.42-2.42V128.7c0-1.33-1.08-2.42-2.42-2.42
				l0,0c-1.33,0-2.42,1.08-2.42,2.42V145.48z"/>
		</g>
		<path class="st6" d="M82.23,133.47c0,0.6,0.49,1.09,1.09,1.09h9.63c0.6,0,1.09-0.49,1.09-1.09l0,0c0-0.6-0.49-1.09-1.09-1.09
			h-9.63C82.72,132.38,82.23,132.87,82.23,133.47L82.23,133.47z"/>
		<path class="st6" d="M82.23,140.09c0,0.6,0.49,1.09,1.09,1.09h9.63c0.6,0,1.09-0.49,1.09-1.09l0,0c0-0.6-0.49-1.09-1.09-1.09
			h-9.63C82.72,139,82.23,139.49,82.23,140.09L82.23,140.09z"/>
	</g>
	<polygon class="st1" points="94.87,157.42 94.87,176.95 80.38,157.42 	"/>
	<rect x="94.87" y="160.08" class="st2" width="7.61" height="16.88"/>
	<g>
		<path class="st2" d="M133.82,193.87h-6.57l-2.81,2.54c-5.5,3.22-9.2,9.19-9.2,16.03c0,6.84,3.7,12.81,9.2,16.03l2.81,2.54h6.57
			c10.26,0,18.57-8.32,18.57-18.57C152.4,202.18,144.08,193.87,133.82,193.87z"/>
		
			<ellipse transform="matrix(0.7536 -0.6573 0.6573 0.7536 -108.283 135.9785)" class="st1" cx="127.26" cy="212.44" rx="18.57" ry="18.57"/>
		<g>
			<g>
				<path class="st2" d="M127.26,224.63c-0.39,0-0.78,0-1.17,0c-0.35,0-0.52-0.18-0.52-0.53c0-0.75-0.01-1.51,0-2.26
					c0-0.14-0.05-0.2-0.18-0.24c-2.22-0.7-3.7-2.53-3.92-4.86c-0.01-0.06-0.02-0.11-0.02-0.17c-0.03-0.33,0.17-0.58,0.5-0.58
					c0.8-0.01,1.6-0.01,2.39,0c0.28,0,0.44,0.19,0.5,0.48c0.05,0.23,0.09,0.47,0.19,0.67c0.41,0.85,1.13,1.26,2.05,1.35
					c0.42,0.04,0.84,0,1.25-0.12c1.46-0.43,1.83-2.33,0.79-3.37c-0.55-0.55-1.21-0.92-1.92-1.19c-0.78-0.3-1.59-0.56-2.36-0.88
					c-0.99-0.42-1.87-1.01-2.52-1.89c-0.75-1.01-1.01-2.17-0.85-3.39c0.32-2.33,1.69-3.79,3.91-4.47c0.15-0.05,0.2-0.11,0.2-0.26
					c-0.01-0.69,0-1.39,0-2.08c0-0.4,0.16-0.57,0.56-0.57c0.76,0,1.52,0,2.28,0c0.37,0,0.54,0.17,0.54,0.55c0,0.78,0,1.56,0,2.34
					c0,0.14,0.04,0.2,0.17,0.26c1.85,0.8,2.9,2.21,3.22,4.19c0.02,0.1,0.03,0.21,0.04,0.31c0.01,0.31-0.18,0.55-0.5,0.55
					c-0.81,0.01-1.62,0.01-2.43,0c-0.3,0-0.45-0.17-0.52-0.52c-0.11-0.59-0.41-1.04-0.94-1.33c-0.88-0.47-2.09-0.29-2.75,0.4
					c-0.58,0.62-0.73,1.74,0.23,2.4c0.57,0.39,1.22,0.63,1.87,0.85c1.08,0.36,2.12,0.79,3.07,1.42c1.16,0.78,2.09,1.75,2.45,3.12
					c0.57,2.16,0.14,4.1-1.52,5.67c-0.63,0.59-1.39,0.96-2.22,1.18c-0.14,0.04-0.17,0.1-0.17,0.23c0.01,0.7,0,1.41,0,2.11
					c0,0.48-0.14,0.62-0.61,0.63C127.98,224.63,127.62,224.63,127.26,224.63C127.26,224.63,127.26,224.63,127.26,224.63z"/>
			</g>
		</g>
		<circle class="st29" cx="127.26" cy="212.45" r="15.44"/>
	</g>
	<g>
		<path class="st2" d="M134.92,375.1h-9.54l-4.08,3.7c-7.99,4.69-13.36,13.36-13.36,23.3c0,9.93,5.37,18.61,13.36,23.3l4.08,3.69
			h9.54c14.91,0,26.99-12.08,26.99-26.99C161.91,387.18,149.83,375.1,134.92,375.1z"/>
		
			<ellipse transform="matrix(0.7536 -0.6573 0.6573 0.7536 -233.3981 181.4649)" class="st1" cx="125.38" cy="402.09" rx="26.99" ry="26.99"/>
		<g>
			<g>
				<path class="st2" d="M125.39,419.8c-0.57,0-1.13,0-1.7,0c-0.51,0-0.76-0.25-0.76-0.77c-0.01-1.1-0.01-2.19,0-3.29
					c0-0.21-0.07-0.29-0.27-0.35c-3.23-1.01-5.37-3.68-5.7-7.07c-0.01-0.08-0.02-0.16-0.03-0.24c-0.04-0.48,0.25-0.84,0.73-0.85
					c1.16-0.02,2.32-0.01,3.48,0c0.4,0,0.64,0.27,0.73,0.7c0.07,0.33,0.13,0.68,0.27,0.98c0.6,1.24,1.64,1.84,2.98,1.96
					c0.61,0.06,1.22,0,1.81-0.18c2.13-0.62,2.66-3.38,1.15-4.9c-0.8-0.8-1.76-1.33-2.8-1.73c-1.14-0.44-2.31-0.81-3.43-1.28
					c-1.44-0.61-2.72-1.46-3.67-2.75c-1.08-1.47-1.47-3.15-1.23-4.92c0.46-3.39,2.46-5.5,5.68-6.5c0.22-0.07,0.29-0.16,0.29-0.38
					c-0.01-1.01-0.01-2.01-0.01-3.02c0-0.58,0.24-0.82,0.81-0.83c1.11,0,2.21,0,3.32,0c0.54,0,0.79,0.25,0.79,0.8
					c0,1.13,0.01,2.26,0,3.4c0,0.2,0.06,0.29,0.25,0.37c2.69,1.16,4.22,3.22,4.68,6.09c0.02,0.15,0.05,0.3,0.05,0.45
					c0.02,0.46-0.26,0.79-0.72,0.8c-1.18,0.01-2.35,0.01-3.53,0c-0.44-0.01-0.66-0.25-0.76-0.76c-0.16-0.85-0.6-1.51-1.37-1.93
					c-1.27-0.69-3.04-0.43-3.99,0.58c-0.84,0.89-1.07,2.53,0.33,3.49c0.83,0.57,1.77,0.92,2.71,1.23c1.56,0.52,3.08,1.14,4.46,2.07
					c1.68,1.13,3.04,2.54,3.57,4.54c0.82,3.14,0.2,5.95-2.21,8.24c-0.91,0.86-2.02,1.4-3.23,1.72c-0.2,0.05-0.25,0.14-0.25,0.33
					c0.01,1.02,0,2.05,0,3.07c0,0.7-0.2,0.91-0.89,0.91C126.43,419.8,125.91,419.8,125.39,419.8
					C125.39,419.8,125.39,419.8,125.39,419.8z"/>
			</g>
		</g>
		<circle class="st29" cx="125.38" cy="402.1" r="22.43"/>
	</g>
	<g>
		<path class="st2" d="M437.56,169.17h5.61l2.4,2.17c4.7,2.76,7.86,7.86,7.86,13.7c0,5.84-3.16,10.94-7.86,13.7l-2.4,2.17h-5.61
			c-8.76,0-15.87-7.11-15.87-15.87C421.69,176.28,428.79,169.17,437.56,169.17z"/>
		<circle class="st4" cx="443.17" cy="185.04" r="15.87"/>
		<g>
			<g>
				<path class="st2" d="M443.17,195.46c-0.33,0-0.67,0-1,0c-0.3,0-0.45-0.15-0.45-0.45c0-0.64,0-1.29,0-1.93
					c0-0.12-0.04-0.17-0.16-0.21c-1.9-0.6-3.16-2.16-3.35-4.16c0-0.05-0.01-0.09-0.02-0.14c-0.02-0.28,0.15-0.49,0.43-0.5
					c0.68-0.01,1.36-0.01,2.04,0c0.24,0,0.37,0.16,0.43,0.41c0.04,0.2,0.07,0.4,0.16,0.58c0.35,0.73,0.97,1.08,1.75,1.15
					c0.36,0.03,0.72,0,1.07-0.1c1.25-0.37,1.56-1.99,0.68-2.88c-0.47-0.47-1.03-0.78-1.64-1.02c-0.67-0.26-1.36-0.48-2.02-0.75
					c-0.85-0.36-1.6-0.86-2.16-1.61c-0.64-0.86-0.87-1.85-0.73-2.89c0.27-2,1.45-3.23,3.34-3.82c0.13-0.04,0.17-0.09,0.17-0.22
					c-0.01-0.59,0-1.18,0-1.78c0-0.34,0.14-0.49,0.48-0.49c0.65,0,1.3,0,1.95,0c0.32,0,0.46,0.15,0.46,0.47c0,0.67,0,1.33,0,2
					c0,0.12,0.04,0.17,0.15,0.22c1.58,0.68,2.48,1.89,2.75,3.58c0.01,0.09,0.03,0.18,0.03,0.27c0.01,0.27-0.16,0.47-0.42,0.47
					c-0.69,0.01-1.38,0.01-2.08,0c-0.26,0-0.39-0.15-0.45-0.45c-0.09-0.5-0.35-0.89-0.81-1.13c-0.75-0.4-1.79-0.25-2.35,0.34
					c-0.49,0.53-0.63,1.49,0.2,2.05c0.49,0.34,1.04,0.54,1.59,0.73c0.92,0.31,1.81,0.67,2.62,1.22c0.99,0.66,1.79,1.49,2.1,2.67
					c0.48,1.85,0.12,3.5-1.3,4.84c-0.53,0.51-1.19,0.82-1.9,1.01c-0.12,0.03-0.15,0.08-0.14,0.19c0.01,0.6,0,1.2,0,1.81
					c0,0.41-0.12,0.53-0.52,0.54C443.79,195.46,443.48,195.45,443.17,195.46L443.17,195.46z"/>
			</g>
		</g>
		
			<ellipse transform="matrix(0.987 -0.1608 0.1608 0.987 -23.9933 73.69)" class="st30" cx="443.17" cy="185.05" rx="13.19" ry="13.19"/>
	</g>
	<g>
		<path class="st2" d="M399.11,98.03h10.02l4.29,3.88c8.39,4.92,14.03,14.02,14.03,24.45s-5.64,19.53-14.03,24.45l-4.29,3.88h-10.02
			c-15.65,0-28.33-12.68-28.33-28.33S383.46,98.03,399.11,98.03z"/>
		
			<ellipse transform="matrix(0.9301 -0.3674 0.3674 0.9301 -17.8143 159.1297)" class="st1" cx="409.13" cy="126.36" rx="28.33" ry="28.33"/>
		<circle class="st4" cx="409.33" cy="126.27" r="23.74"/>
		<path class="st2" d="M409.33,102.53c-0.48,0-0.96,0.02-1.44,0.05c12.44,0.74,22.31,11.07,22.31,23.7
			c0,12.63-9.86,22.95-22.31,23.7c0.48,0.03,0.95,0.05,1.44,0.05c13.11,0,23.74-10.63,23.74-23.74
			C433.07,113.16,422.44,102.53,409.33,102.53z"/>
		<g>
			<path class="st31" d="M415.84,139.73h-14.99c-3.28,0-5.95-2.66-5.95-5.95V118.8c0-3.28,2.66-5.95,5.95-5.95h14.99
				c3.28,0,5.95,2.66,5.95,5.95v14.99C421.79,137.07,419.12,139.73,415.84,139.73z"/>
			<path class="st31" d="M414,126.47c0,2.88-2.34,5.22-5.22,5.22c-2.88,0-5.22-2.34-5.22-5.22c0-2.88,2.34-5.22,5.22-5.22
				C411.66,121.25,414,123.59,414,126.47z"/>
			<circle class="st32" cx="415.76" cy="118.97" r="1.79"/>
		</g>
	</g>
	<g>
		<path class="st2" d="M82.25,291.37H71.34l-4.67,4.23c-9.14,5.36-15.28,15.28-15.28,26.64s6.14,21.28,15.28,26.64l4.67,4.23h10.91
			c17.04,0,30.86-13.82,30.86-30.86C113.11,305.19,99.29,291.37,82.25,291.37z"/>
		
			<ellipse transform="matrix(0.84 -0.5426 0.5426 0.84 -163.4353 90.2739)" class="st33" cx="71.34" cy="322.24" rx="30.86" ry="30.86"/>
		
			<ellipse transform="matrix(0.8401 -0.5424 0.5424 0.8401 -163.3465 90.0693)" class="st1" cx="71.12" cy="322.14" rx="25.87" ry="25.87"/>
		<path class="st2" d="M71.12,296.27c0.53,0,1.05,0.02,1.56,0.05c-13.56,0.81-24.3,12.05-24.3,25.81c0,13.76,10.74,25,24.3,25.81
			c-0.52,0.03-1.04,0.05-1.56,0.05c-14.29,0-25.87-11.58-25.87-25.87C45.25,307.85,56.84,296.27,71.12,296.27z"/>
		<g>
			<path class="st6" d="M87.18,313.58c-0.7,0.19-1.25,0.16-1.25,0.16l0.02-0.13c0.65-0.52,2.29-2.11,2.5-2.86
				c0.09-0.32-0.02-0.43-0.02-0.44l-2.09,0.89l-1.75,0.79l0,0c-1.21-1.28-3.04-2.09-5.08-2.09c-3.64,0-6.59,2.58-6.59,5.76
				c0,0.58,0.09,1.64,0.27,2.17c0,0.17,0.01-0.17,0,0c-2.34-0.06-5.35-1.03-8.02-2.38c-5.28-2.67-5.61-4.52-5.61-4.52
				c-0.83,0.88-1.26,3.79-0.42,6.08c0.54,1.46,2.39,2.78,2.39,2.78l0,0c0,0-0.83,0.02-1.69-0.28c-0.87-0.29-1.19-0.58-1.19-0.58
				c-0.51,1.26,0.52,3.5,2.3,5.11c1.04,0.94,2.94,1.53,2.94,1.53l-2.97,0.08c-0.17,2.89,6.05,4.6,6.05,4.6l0,0
				c-1.82,1.4-3.94,2.26-6.21,2.26c-1.18,0-2.31-0.18-3.39-0.5c3,2.47,6.85,4.17,11.03,3.95c11.11-0.58,17.38-10.13,17.68-19.51
				l0.01,0.02c0,0,0.52-0.26,1.63-1.37c1.11-1.11,1.8-2.41,1.8-2.41S87.88,313.38,87.18,313.58z"/>
			<path class="st6" d="M88.44,310.3C88.45,310.48,88.44,310.32,88.44,310.3L88.44,310.3z"/>
		</g>
	</g>
	<g>
		<path class="st2" d="M419.45,271.32h8.52l3.65,3.3c7.14,4.18,11.94,11.93,11.94,20.81c0,8.87-4.8,16.62-11.94,20.81l-3.65,3.3
			h-8.52c-13.31,0-24.11-10.79-24.11-24.11C395.34,282.11,406.13,271.32,419.45,271.32z"/>
		<circle class="st1" cx="427.97" cy="295.42" r="24.11"/>
		<circle class="st33" cx="428.14" cy="295.34" r="20.2"/>
		<path class="st2" d="M428.14,275.14c-0.41,0-0.82,0.02-1.22,0.04c10.59,0.63,18.98,9.42,18.98,20.16s-8.39,19.53-18.98,20.16
			c0.4,0.02,0.81,0.04,1.22,0.04c11.16,0,20.2-9.05,20.2-20.2C448.34,284.18,439.3,275.14,428.14,275.14z"/>
		<path class="st6" d="M423.36,290.97v4.39h-5.14v5.95h5.14v13.64c1.53,0.37,3.13,0.59,4.78,0.59c0.46,0,0.92-0.04,1.37-0.07v-14.16
			h5.13l0.77-5.95h-5.89v-3.8c0-1.72,0.48-2.9,2.95-2.9l3.15,0v-5.32c-0.55-0.07-2.42-0.23-4.59-0.23
			C426.47,283.1,423.36,285.88,423.36,290.97z"/>
	</g>
</g>
</svg>
