<?xml version="1.0" encoding="utf-8"?>
<!-- Generator: Adobe Illustrator 26.0.1, SVG Export Plug-In . SVG Version: 6.00 Build 0)  -->
<svg version="1.1" xmlns="http://www.w3.org/2000/svg" xmlns:xlink="http://www.w3.org/1999/xlink" x="0px" y="0px"
	 viewBox="0 0 500 500" style="enable-background:new 0 0 500 500;" xml:space="preserve">
<style type="text/css">
	.st0{opacity:0.5;}
	.st1{fill:#2C74AF;}
	.st2{display:none;}
	.st3{display:inline;}
	.st4{fill:#F5F5F5;}
	.st5{fill:#2D6CA9;}
	.st6{fill:#FAFAFA;}
	.st7{fill:#263238;}
	.st8{fill:#1F417B;}
	.st9{fill:#2688BF;}
	.st10{opacity:0.3;}
	.st11{fill:#FFFFFF;}
	.st12{fill:#E0E0E0;}
	.st13{opacity:0.2;}
	.st14{fill:none;stroke:#000000;stroke-width:0.05;stroke-miterlimit:10;}
	.st15{fill:#1F5493;}
	.st16{fill:#FFBF9D;}
	.st17{fill:#FF9A6C;}
</style>
<g id="Background_Complete">
	<g class="st0">
		<polygon class="st1" points="450.22,114.21 456.9,127.74 471.83,129.91 461.03,140.45 463.58,155.32 450.22,148.3 436.86,155.32 
			439.41,140.45 428.6,129.91 443.54,127.74 		"/>
	</g>
	<g class="st0">
		<polygon class="st1" points="52.51,288.97 56.72,297.5 66.13,298.86 59.32,305.5 60.93,314.88 52.51,310.45 44.09,314.88 
			45.7,305.5 38.89,298.86 48.3,297.5 		"/>
	</g>
	<g class="st0">
		<polygon class="st1" points="57.73,214.66 67.08,233.6 87.98,236.64 72.86,251.38 76.43,272.2 57.73,262.37 39.04,272.2 
			42.61,251.38 27.48,236.64 48.39,233.6 		"/>
	</g>
	<g class="st0">
		<polygon class="st1" points="444.27,175.32 448.3,183.49 457.31,184.8 450.79,191.15 452.33,200.12 444.27,195.89 436.21,200.12 
			437.75,191.15 431.23,184.8 440.24,183.49 		"/>
	</g>
	<g class="st0">
		<polygon class="st1" points="312.05,43.07 316.08,51.23 325.09,52.54 318.57,58.89 320.11,67.87 312.05,63.63 303.99,67.87 
			305.53,58.89 299.01,52.54 308.02,51.23 		"/>
	</g>
	<g class="st0">
		<polygon class="st1" points="404.22,130.41 406.86,135.75 412.76,136.61 408.49,140.77 409.5,146.64 404.22,143.87 398.95,146.64 
			399.96,140.77 395.69,136.61 401.59,135.75 		"/>
	</g>
	<g class="st0">
		<polygon class="st1" points="160.92,400.11 166.06,410.51 177.54,412.18 169.23,420.28 171.2,431.72 160.92,426.32 150.65,431.72 
			152.61,420.28 144.3,412.18 155.79,410.51 		"/>
	</g>
	<g class="st0">
		<polygon class="st1" points="174.48,389.76 176.6,394.06 181.35,394.75 177.91,398.1 178.73,402.83 174.48,400.59 170.24,402.83 
			171.05,398.1 167.61,394.75 172.36,394.06 		"/>
	</g>
</g>
<g id="Background_Simple" class="st2">
	<g class="st3">
		<path class="st4" d="M462.29,345.26l-1.02-0.89c-8.59-7.47-20.54-9.8-31.04-5.69c-1.35,0.53-2.66,1.15-3.92,1.88
			c-9.08,5.2-15.2,15.28-15.69,25.85c-0.29,6.21,1.18,12.79-1.34,18.45c-3.27,7.37-11.88,10.32-19.57,12.52
			c-7.7,2.2-16.3,5.18-19.54,12.56c-2.03,4.62-1.4,10.07,0.4,14.82c4.77,12.56,17.33,21.14,30.47,23.2
			c13.14,2.06,26.64-1.7,38.24-8.17c16.25-9.06,29.68-23.95,34.86-41.98C479.32,379.78,475.36,358.75,462.29,345.26z"/>
	</g>
	<g class="st3">
		<path class="st4" d="M410.47,65.06l-1.27,0.46c-10.69,3.89-18.53,13.21-20.03,24.39c-0.19,1.44-0.28,2.89-0.26,4.34
			c0.15,10.46,6,20.7,15,26.26c5.29,3.27,11.75,5.17,15.48,10.11c4.86,6.43,3.27,15.39,1.46,23.19c-1.81,7.8-3.38,16.77,1.51,23.18
			c3.06,4.01,8.13,6.11,13.15,6.83c13.3,1.92,26.89-4.91,35.07-15.41s11.43-24.13,11.4-37.4c-0.04-18.6-6.56-37.57-19.81-50.84
			C448.91,66.9,428.6,60.17,410.47,65.06z"/>
	</g>
	<g class="st3">
		<path class="st4" d="M41.19,373.37l0.7-1.15c5.9-9.73,16.57-15.59,27.83-14.88c1.45,0.09,2.89,0.29,4.31,0.59
			c10.23,2.19,19.13,9.93,22.82,19.83c2.17,5.83,2.78,12.54,6.89,17.16c5.36,6.02,14.46,6.21,22.46,5.96
			c8-0.25,17.1-0.04,22.44,6.01c3.34,3.78,4.4,9.17,4.13,14.24c-0.71,13.42-10.06,25.42-21.96,31.38
			c-11.89,5.96-25.89,6.5-38.91,3.87c-18.23-3.68-35.57-13.77-45.99-29.36C35.49,411.44,32.85,390.2,41.19,373.37z"/>
	</g>
	<g class="st3">
		
			<ellipse transform="matrix(0.2322 -0.9727 0.9727 0.2322 65.0519 655.4916)" class="st4" cx="447.74" cy="286.54" rx="25.12" ry="25.12"/>
	</g>
	<g class="st3">
		
			<ellipse transform="matrix(0.7071 -0.7071 0.7071 0.7071 52.1625 231.9899)" class="st4" cx="306.12" cy="53.03" rx="25.12" ry="25.12"/>
	</g>
	<g class="st3">
		
			<ellipse transform="matrix(0.2212 -0.9752 0.9752 0.2212 -256.9462 306.502)" class="st4" cx="63.44" cy="314.13" rx="25.12" ry="25.12"/>
	</g>
</g>
<g id="Stars">
	<g class="st0">
		<polygon class="st5" points="364.14,349.92 368.65,359.07 378.75,360.54 371.44,367.66 373.17,377.72 364.14,372.97 355.1,377.72 
			356.83,367.66 349.52,360.54 359.62,359.07 		"/>
	</g>
	<g class="st0">
		<polygon class="st5" points="385.68,341.81 387.81,346.12 392.56,346.81 389.12,350.17 389.93,354.91 385.68,352.67 
			381.42,354.91 382.24,350.17 378.79,346.81 383.55,346.12 		"/>
	</g>
</g>
<g id="Speech_Bubble">
	<g>
		<g>
			<g>
				<g>
					<g>
						<g>
							<g>
								<g>
									<g>
										<g>
											<g>
												<g>
													<g>
														<g>
															<g>
																<path class="st6" d="M357.44,103.66l3.53-11.06c-2.75-5.51-4.05-11.83-3.46-18.41
																	c1.71-18.93,18.47-32.89,37.42-31.17c18.96,1.71,32.94,18.45,31.22,37.38c-1.71,18.93-18.47,32.89-37.42,31.17
																	c-7.92-0.72-14.43-3.58-19.84-8.6l0,0L357.44,103.66z"/>
															</g>
															<g>
																<g>
																	<path class="st7" d="M357.44,103.66c0,0,0.27-0.03,0.76-0.06c0.51-0.04,1.25-0.09,2.2-0.16
																		c1.94-0.13,4.79-0.33,8.49-0.58l0.05,0l0.04,0.03c3.26,3.01,8.23,6.34,14.96,7.77c1.67,0.36,3.43,0.64,5.26,0.75
																		c0.92,0.03,1.85,0.07,2.8,0.11c0.95-0.01,1.91-0.11,2.89-0.16c3.9-0.36,7.98-1.41,11.9-3.33
																		c3.92-1.91,7.66-4.68,10.79-8.25c3.12-3.57,5.66-7.93,7.07-12.82c1.41-4.88,1.76-10.23,0.85-15.51
																		c-0.16-1.33-0.58-2.62-0.91-3.93c-0.15-0.66-0.43-1.29-0.66-1.93c-0.24-0.63-0.47-1.28-0.73-1.91
																		c-1.18-2.46-2.47-4.93-4.23-7.1c-0.8-1.15-1.78-2.13-2.71-3.15c-0.44-0.53-1-0.95-1.5-1.42
																		c-0.52-0.45-1-0.94-1.54-1.35l-1.64-1.21l-0.82-0.6l-0.87-0.52l-1.74-1.04c-0.58-0.33-1.21-0.59-1.81-0.88
																		c-4.84-2.27-10.08-3.37-15.16-3.26c-5.08,0.1-9.95,1.34-14.22,3.4c-4.27,2.06-7.94,4.92-10.82,8.18
																		c-2.89,3.26-4.99,6.91-6.38,10.57c-0.17,0.46-0.33,0.92-0.49,1.37c-0.17,0.45-0.32,0.9-0.42,1.37
																		c-0.23,0.92-0.45,1.83-0.68,2.72c-0.24,1.82-0.58,3.57-0.61,5.28c-0.28,6.85,1.53,12.54,3.5,16.53l0.02,0.04
																		l-0.01,0.04c-1.17,3.56-2.07,6.3-2.68,8.17c-0.31,0.92-0.54,1.63-0.7,2.12
																		C357.53,103.41,357.44,103.66,357.44,103.66s0.06-0.23,0.2-0.7c0.15-0.49,0.37-1.19,0.65-2.11
																		c0.59-1.9,1.45-4.68,2.57-8.29l0.01,0.08c-2.02-3.99-3.89-9.72-3.64-16.64c0.03-1.73,0.35-3.49,0.59-5.33
																		c0.22-0.9,0.44-1.82,0.67-2.75c0.1-0.47,0.25-0.93,0.42-1.39c0.16-0.46,0.33-0.92,0.49-1.39
																		c1.38-3.7,3.5-7.41,6.42-10.72c2.91-3.31,6.61-6.22,10.94-8.32c4.32-2.1,9.27-3.36,14.42-3.47
																		c5.15-0.12,10.47,0.99,15.39,3.29c0.61,0.3,1.24,0.56,1.83,0.89l1.76,1.05l0.88,0.53l0.83,0.61l1.67,1.23
																		c0.55,0.42,1.04,0.92,1.57,1.37c0.51,0.48,1.07,0.9,1.52,1.44c0.94,1.04,1.94,2.03,2.75,3.19
																		c1.78,2.2,3.1,4.71,4.29,7.21c0.27,0.64,0.49,1.3,0.74,1.94c0.23,0.65,0.52,1.28,0.67,1.96
																		c0.34,1.33,0.77,2.64,0.93,3.99c0.92,5.36,0.55,10.79-0.88,15.74c-1.44,4.96-4.02,9.38-7.2,12.99
																		c-3.18,3.62-6.98,6.41-10.96,8.33c-3.98,1.93-8.12,2.98-12.06,3.33c-0.99,0.05-1.96,0.14-2.92,0.15
																		c-0.96-0.04-1.9-0.08-2.83-0.12c-1.85-0.12-3.62-0.41-5.31-0.78c-6.79-1.47-11.79-4.88-15.03-7.94l0.08,0.03
																		c-3.74,0.2-6.61,0.35-8.57,0.45c-0.94,0.05-1.67,0.08-2.18,0.11C357.68,103.66,357.44,103.66,357.44,103.66z"/>
																</g>
															</g>
														</g>
													</g>
												</g>
											</g>
										</g>
									</g>
								</g>
							</g>
						</g>
					</g>
				</g>
			</g>
		</g>
		<g>
			<g>
				<g>
					<g>
						<polygon class="st8" points="372.31,76 377.98,71.08 387.53,80.89 408.95,63.05 413.48,68.7 386.04,91.04 						"/>
					</g>
				</g>
			</g>
		</g>
	</g>
</g>
<g id="Form">
	<g>
		<g>
			<g>
				<g>
					<g>
						<path class="st9" d="M298.11,349.49l-191.76,42.74c-4.65,1.04-9.27-1.9-10.31-6.55L33.81,106.43
							c-1.04-4.65,1.9-9.27,6.55-10.31l191.76-42.74c4.65-1.04,9.27,1.9,10.31,6.55l62.23,279.25
							C305.7,343.84,302.77,348.46,298.11,349.49z"/>
					</g>
				</g>
			</g>
			<g>
				<g>
					<g>
						<g>
							<path class="st7" d="M298.11,349.49c0,0,0.21-0.07,0.64-0.19c0.42-0.12,1.04-0.36,1.8-0.78c0.74-0.44,1.62-1.1,2.42-2.11
								c0.79-1,1.5-2.37,1.75-4.05c0.14-0.83,0.13-1.74-0.02-2.67c-0.16-0.93-0.41-1.9-0.63-2.92c-0.46-2.04-0.96-4.28-1.5-6.7
								c-1.09-4.84-2.34-10.43-3.75-16.73c-5.63-25.17-13.77-61.6-23.82-106.6c-5.02-22.51-10.53-47.16-16.43-73.62
								c-2.95-13.23-6.01-26.92-9.15-41.01c-1.57-7.05-3.17-14.2-4.78-21.45c-0.81-3.62-1.63-7.27-2.45-10.94
								c-0.44-1.79-1.52-3.4-2.97-4.56c-1.47-1.13-3.3-1.8-5.17-1.79c-0.94,0-1.85,0.18-2.78,0.4c-0.93,0.21-1.87,0.42-2.8,0.63
								c-1.87,0.42-3.75,0.84-5.63,1.26c-3.77,0.84-7.55,1.68-11.36,2.53c-7.62,1.7-15.32,3.42-23.11,5.15
								c-15.58,3.47-31.48,7.02-47.67,10.63c-32.38,7.22-65.91,14.69-100.25,22.35c-2.1,0.46-4,1.75-5.18,3.54
								c-1.2,1.77-1.68,4.01-1.3,6.12c0.9,4.26,1.89,8.52,2.82,12.76c1.89,8.48,3.77,16.91,5.63,25.27
								c3.73,16.73,7.4,33.21,11.01,49.4c7.21,32.39,14.17,63.63,20.8,93.39c6.63,29.76,12.92,58.04,18.82,84.51
								c0.74,3.31,1.47,6.59,2.19,9.84c0.37,1.62,0.71,3.26,1.1,4.84c0.41,1.57,1.29,2.99,2.48,4.07c1.19,1.08,2.68,1.8,4.24,2.08
								c0.78,0.13,1.58,0.15,2.37,0.07c0.78-0.1,1.56-0.29,2.35-0.47c3.13-0.7,6.24-1.39,9.31-2.07
								c12.29-2.73,24.08-5.36,35.33-7.86c45.02-10,81.45-18.1,106.62-23.69c12.59-2.79,22.36-4.95,28.99-6.42
								c3.31-0.73,5.84-1.29,7.54-1.66C297.24,349.67,298.11,349.49,298.11,349.49s-0.87,0.21-2.56,0.59
								c-1.7,0.38-4.22,0.95-7.53,1.7c-6.63,1.49-16.4,3.68-28.98,6.5c-25.17,5.63-61.59,13.77-106.6,23.82
								c-11.25,2.51-23.04,5.14-35.33,7.89c-3.07,0.69-6.17,1.38-9.31,2.08c-0.78,0.17-1.56,0.37-2.38,0.47
								c-0.82,0.08-1.65,0.06-2.46-0.07c-1.63-0.29-3.18-1.04-4.41-2.16c-1.23-1.12-2.16-2.6-2.58-4.23
								c-0.4-1.62-0.73-3.23-1.1-4.86c-0.73-3.25-1.46-6.53-2.2-9.84c-5.9-26.47-12.21-54.75-18.85-84.51
								c-6.64-29.76-13.6-61-20.83-93.39c-3.61-16.19-7.28-32.68-11.01-49.4c-1.86-8.36-3.74-16.79-5.63-25.27
								c-0.94-4.25-1.91-8.48-2.83-12.78c-0.39-2.2,0.11-4.56,1.37-6.42c1.24-1.87,3.23-3.23,5.44-3.71
								c34.34-7.65,67.87-15.12,100.25-22.34c16.19-3.61,32.1-7.15,47.67-10.62c7.79-1.73,15.49-3.45,23.11-5.15
								c3.81-0.85,7.6-1.69,11.36-2.53c1.88-0.42,3.76-0.84,5.63-1.25c0.94-0.21,1.87-0.42,2.8-0.62c0.92-0.22,1.89-0.42,2.87-0.41
								c1.95-0.01,3.87,0.69,5.4,1.87c1.51,1.2,2.64,2.89,3.1,4.76c0.82,3.67,1.64,7.32,2.45,10.95c1.61,7.25,3.21,14.4,4.78,21.45
								c3.14,14.1,6.18,27.78,9.13,41.02c5.89,26.47,11.37,51.12,16.38,73.63c10,45.02,18.1,81.45,23.7,106.63
								c1.4,6.29,2.64,11.89,3.71,16.73c0.54,2.42,1.03,4.66,1.48,6.71c0.22,1.03,0.47,1.99,0.62,2.93c0.15,0.94,0.16,1.86,0.01,2.7
								c-0.26,1.69-0.99,3.07-1.79,4.08c-0.81,1.01-1.7,1.67-2.45,2.11c-0.77,0.41-1.39,0.65-1.81,0.77
								C298.33,349.44,298.11,349.49,298.11,349.49z"/>
						</g>
					</g>
				</g>
			</g>
		</g>
		<g>
			<g>
				<g>
					<polygon class="st8" points="116.07,382.34 290.79,342.4 285.27,308.16 275.36,288.97 108.22,354.62 					"/>
				</g>
			</g>
		</g>
		<g class="st10">
			<g>
				<g>
					<polygon points="189.02,63.63 195.63,74.54 196.91,80.33 192.43,81.33 					"/>
				</g>
			</g>
		</g>
		<g>
			<g>
				<g>
					<polygon class="st11" points="43.76,108.05 104.38,380.05 294.39,337.71 283.55,289.07 233.77,65.7 					"/>
				</g>
			</g>
			<g>
				<g>
					<g>
						<path class="st7" d="M43.76,108.05c1.35-0.3,74.49-16.67,189.97-42.51l0.16-0.04l0.04,0.17
							c16.86,75.59,37.89,169.92,60.65,271.97l0,0.02l0.05,0.2l-0.2,0.05c-67.93,15.13-132.43,29.5-190.01,42.33l-0.19,0.04
							l-0.04-0.19C68.51,219.47,44.13,109.71,43.76,108.05c0.37,1.66,24.9,111.39,60.8,271.96l-0.23-0.14
							c57.58-12.84,122.08-27.22,190.01-42.36l-0.16,0.25l0-0.02c-22.73-102.06-43.74-196.39-60.57-271.99l0.2,0.13
							C118.28,91.51,45.12,107.75,43.76,108.05z"/>
					</g>
				</g>
			</g>
		</g>
	</g>
	<g>
		<g>
			<g>
				<g>
					<path class="st8" d="M193.45,83.54l-96.14,21.43l-4.84-21.71c-0.76-3.41,1.39-6.79,4.8-7.55l83.79-18.67
						c3.41-0.76,6.79,1.39,7.55,4.8L193.45,83.54z"/>
				</g>
			</g>
		</g>
		<g>
			<g>
				<g>
					<polygon class="st8" points="149.07,53.15 124.6,58.6 132.13,78.94 150.56,74.83 					"/>
				</g>
			</g>
		</g>
	</g>
	<g>
		<g>
			<g>
				<path class="st7" d="M134.45,161.51c0.03,0.11-12.95,3.1-28.97,6.67c-16.03,3.57-29.04,6.38-29.07,6.26
					c-0.03-0.11,12.94-3.1,28.97-6.67C121.41,164.21,134.42,161.4,134.45,161.51z"/>
			</g>
		</g>
	</g>
	<g>
		<g>
			<g>
				<path class="st7" d="M231.16,150.62c0.03,0.11-33.87,7.76-75.7,17.09c-41.85,9.33-75.78,16.79-75.8,16.68
					c-0.03-0.11,33.87-7.76,75.71-17.09C197.2,157.98,231.14,150.51,231.16,150.62z"/>
			</g>
		</g>
	</g>
	<g>
		<g>
			<g>
				<path class="st7" d="M233.25,159.97c0.03,0.11-33.87,7.76-75.7,17.09c-41.85,9.33-75.78,16.79-75.8,16.68
					c-0.03-0.11,33.87-7.76,75.71-17.09C199.28,167.32,233.22,159.86,233.25,159.97z"/>
			</g>
		</g>
	</g>
	<g>
		<g>
			<g>
				<path class="st7" d="M235.33,169.32c0.03,0.11-33.87,7.76-75.7,17.09c-41.85,9.33-75.78,16.79-75.8,16.68
					c-0.03-0.11,33.87-7.76,75.71-17.09C201.37,176.67,235.3,169.21,235.33,169.32z"/>
			</g>
		</g>
	</g>
	<g>
		<g>
			<g>
				<path class="st7" d="M237.41,178.67c0.03,0.11-33.87,7.76-75.7,17.09c-41.85,9.33-75.78,16.79-75.8,16.68
					c-0.03-0.11,33.87-7.76,75.71-17.09C203.45,186.02,237.39,178.55,237.41,178.67z"/>
			</g>
		</g>
	</g>
	<g>
		<g>
			<g>
				<path class="st7" d="M239.5,188.01c0.03,0.11-33.87,7.76-75.7,17.09c-41.85,9.33-75.78,16.79-75.8,16.68
					c-0.03-0.11,33.87-7.76,75.71-17.09C205.53,195.37,239.47,187.9,239.5,188.01z"/>
			</g>
		</g>
	</g>
	<g>
		<g>
			<g>
				<path class="st7" d="M117.37,253.81c-0.01-0.01-0.04-0.11-0.09-0.32c-0.06-0.23-0.13-0.53-0.22-0.89
					c-0.19-0.81-0.46-1.93-0.79-3.34c-0.67-2.89-1.61-6.95-2.73-11.81l0.22,0.14c-4.77,1.07-10.4,2.34-16.39,3.68
					c-0.04,0.05,0.3-0.47,0.16-0.25l0,0l0,0.01l0,0.02l0.01,0.04l0.02,0.07l0.03,0.14l0.06,0.28l0.12,0.56
					c0.08,0.37,0.17,0.74,0.25,1.11c0.16,0.74,0.33,1.47,0.49,2.19c0.32,1.45,0.63,2.86,0.94,4.24c0.61,2.75,1.18,5.35,1.7,7.74
					l-0.22-0.14c4.88-1.05,8.95-1.92,11.85-2.55c1.42-0.3,2.55-0.53,3.36-0.7c0.37-0.07,0.66-0.13,0.9-0.18
					C117.25,253.83,117.36,253.81,117.37,253.81c0.01,0.01-0.09,0.03-0.28,0.08c-0.22,0.06-0.51,0.13-0.86,0.21
					c-0.8,0.19-1.91,0.45-3.3,0.78c-2.92,0.67-7.02,1.62-11.93,2.75l-0.18,0.04l-0.04-0.18c-0.54-2.39-1.12-4.98-1.74-7.73
					c-0.31-1.38-0.63-2.79-0.95-4.24c-0.16-0.72-0.33-1.45-0.49-2.19c-0.08-0.37-0.17-0.74-0.25-1.11l-0.12-0.56l-0.06-0.28
					l-0.03-0.14l-0.02-0.07l-0.01-0.04l0-0.02l0-0.01l0,0c-0.14,0.22,0.19-0.31,0.16-0.25c6-1.33,11.63-2.57,16.41-3.63l0.18-0.04
					l0.04,0.18c1.06,4.92,1.94,9.04,2.57,11.97c0.29,1.4,0.52,2.52,0.69,3.32c0.07,0.35,0.13,0.64,0.17,0.87
					C117.37,253.72,117.38,253.82,117.37,253.81z"/>
			</g>
		</g>
	</g>
	<g>
		<g>
			<g>
				
					<rect x="124.53" y="226" transform="matrix(0.9761 -0.2175 0.2175 0.9761 -45.8387 45.3649)" class="st12" width="117.22" height="9.78"/>
			</g>
		</g>
	</g>
	<g>
		<g>
			<g>
				<path class="st7" d="M123.71,282.27c-0.01-0.01-0.04-0.11-0.09-0.32c-0.06-0.23-0.13-0.53-0.22-0.89
					c-0.19-0.81-0.46-1.93-0.79-3.34c-0.67-2.89-1.61-6.95-2.73-11.81l0.22,0.14c-4.77,1.07-10.4,2.34-16.4,3.68
					c-0.04,0.05,0.3-0.47,0.16-0.25l0,0l0,0.01l0,0.02l0.01,0.04l0.02,0.07l0.03,0.14l0.06,0.28l0.12,0.56
					c0.08,0.37,0.17,0.74,0.25,1.11c0.16,0.74,0.33,1.47,0.49,2.19c0.32,1.45,0.63,2.86,0.94,4.24c0.61,2.75,1.18,5.35,1.7,7.74
					l-0.22-0.14c4.88-1.05,8.95-1.92,11.86-2.55c1.42-0.3,2.55-0.53,3.36-0.7c0.37-0.07,0.66-0.13,0.9-0.18
					C123.59,282.28,123.7,282.26,123.71,282.27c0.01,0.01-0.09,0.03-0.28,0.08c-0.22,0.06-0.51,0.13-0.86,0.21
					c-0.8,0.19-1.91,0.45-3.3,0.78c-2.92,0.67-7.02,1.62-11.93,2.75l-0.18,0.04l-0.04-0.18c-0.54-2.39-1.12-4.98-1.74-7.73
					c-0.31-1.38-0.63-2.79-0.95-4.24c-0.16-0.72-0.33-1.45-0.49-2.19c-0.08-0.37-0.17-0.74-0.25-1.11l-0.12-0.56l-0.06-0.28
					l-0.03-0.14l-0.02-0.07l-0.01-0.04l0-0.02l0-0.01l0,0c-0.14,0.22,0.19-0.31,0.16-0.25c6-1.33,11.63-2.57,16.41-3.63l0.18-0.04
					l0.04,0.18c1.06,4.92,1.94,9.04,2.57,11.97c0.29,1.4,0.52,2.52,0.69,3.32c0.07,0.35,0.13,0.64,0.17,0.87
					C123.71,282.17,123.72,282.27,123.71,282.27z"/>
			</g>
		</g>
	</g>
	<g>
		<g>
			<g>
				
					<rect x="130.87" y="254.45" transform="matrix(0.9761 -0.2175 0.2175 0.9761 -51.8759 47.4254)" class="st12" width="117.22" height="9.78"/>
			</g>
		</g>
	</g>
	<g>
		<g>
			<g>
				<path class="st7" d="M130.05,310.72c-0.01-0.01-0.04-0.11-0.09-0.32c-0.06-0.23-0.13-0.53-0.22-0.89
					c-0.19-0.81-0.46-1.93-0.79-3.34c-0.67-2.89-1.61-6.95-2.73-11.81l0.22,0.14c-4.77,1.07-10.4,2.34-16.39,3.68
					c-0.04,0.05,0.3-0.47,0.16-0.25l0,0l0,0.01l0,0.02l0.01,0.04l0.02,0.07l0.03,0.14l0.06,0.28l0.12,0.56
					c0.08,0.37,0.17,0.74,0.25,1.11c0.16,0.74,0.33,1.47,0.49,2.19c0.32,1.45,0.63,2.86,0.94,4.24c0.61,2.75,1.18,5.35,1.7,7.74
					l-0.22-0.14c4.88-1.05,8.95-1.92,11.85-2.55c1.42-0.3,2.55-0.53,3.36-0.7c0.37-0.07,0.66-0.13,0.9-0.18
					C129.93,310.73,130.05,310.71,130.05,310.72c0.01,0.01-0.09,0.03-0.28,0.08c-0.22,0.06-0.51,0.13-0.86,0.21
					c-0.8,0.19-1.91,0.45-3.3,0.78c-2.92,0.67-7.02,1.62-11.93,2.75l-0.18,0.04l-0.04-0.18c-0.54-2.39-1.12-4.98-1.74-7.73
					c-0.31-1.38-0.63-2.79-0.95-4.24c-0.16-0.72-0.32-1.45-0.49-2.19c-0.08-0.37-0.17-0.74-0.25-1.11l-0.12-0.56l-0.06-0.28
					l-0.03-0.14l-0.02-0.07l-0.01-0.04l0-0.02l0-0.01l0,0c-0.14,0.22,0.19-0.31,0.16-0.25c6-1.33,11.63-2.57,16.41-3.63l0.18-0.04
					l0.04,0.18c1.06,4.92,1.94,9.04,2.57,11.97c0.29,1.4,0.52,2.52,0.69,3.32c0.07,0.35,0.13,0.64,0.17,0.87
					C130.05,310.63,130.06,310.72,130.05,310.72z"/>
			</g>
		</g>
	</g>
	<g>
		<g>
			<g>
				
					<rect x="137.21" y="282.91" transform="matrix(0.9761 -0.2175 0.2175 0.9761 -57.913 49.486)" class="st12" width="117.22" height="9.78"/>
			</g>
		</g>
	</g>
	<g>
		<g>
			<g>
				<g>
					<g>
						<g>
							<polygon class="st8" points="101.62,247.93 103.33,245.23 108.44,248.07 115.02,238.15 117.56,239.91 109.08,252.4 							
								"/>
						</g>
					</g>
				</g>
			</g>
		</g>
	</g>
	<g>
		<g>
			<g>
				<g>
					<g>
						<g>
							<polygon class="st8" points="107.74,275.43 109.46,272.73 114.57,275.57 121.14,265.65 123.69,267.41 115.2,279.9 							"/>
						</g>
					</g>
				</g>
			</g>
		</g>
	</g>
	<g>
		<g>
			<g>
				<g>
					<g>
						<g>
							<polygon class="st8" points="114.03,303.63 115.75,300.93 120.85,303.77 127.43,293.85 129.97,295.6 121.49,308.1 							"/>
						</g>
					</g>
				</g>
			</g>
		</g>
	</g>
	<g>
		<g>
			<g>
				<path class="st7" d="M166.4,339.01c0.03,0.11-9.63,2.36-21.57,5.02c-11.94,2.66-21.64,4.73-21.67,4.61
					c-0.03-0.11,9.63-2.36,21.58-5.02C156.67,340.97,166.37,338.9,166.4,339.01z"/>
			</g>
		</g>
	</g>
	<g>
		<g>
			<g>
				<path class="st7" d="M187.94,333.86c0.03,0.11-3.53,1-7.94,1.98c-4.41,0.98-8,1.69-8.03,1.57c-0.03-0.11,3.53-1,7.94-1.98
					C184.32,334.46,187.92,333.75,187.94,333.86z"/>
			</g>
		</g>
	</g>
	<g>
		<g>
			<g>
				<path class="st7" d="M259.28,311.41c0.03,0.11-8.67,2.15-19.41,4.54c-10.75,2.4-19.48,4.25-19.5,4.13
					c-0.03-0.11,8.66-2.15,19.41-4.54C250.52,313.15,259.26,311.3,259.28,311.41z"/>
			</g>
		</g>
	</g>
	<g>
		<g>
			<g>
				<path class="st7" d="M249.99,337.73c-0.02-0.01,0.08-0.27,0.19-0.8c0.12-0.52,0.12-1.33-0.12-2.31
					c-0.25-0.99-0.77-2.12-1.38-3.44c-0.59-1.31-1.36-2.87-1.37-4.77c0.03-1.86,0.85-3.93,2.53-5.38c1.66-1.48,4.28-2,6.65-1.24
					c1.18,0.38,2.32,1.05,3.16,2.08c0.4,0.52,0.73,1.15,0.75,1.87c0.06,0.73-0.5,1.46-1.17,1.69c-0.67,0.25-1.31,0.33-1.97,0.49
					c-0.66,0.14-1.32,0.27-1.99,0.41c-1.34,0.26-2.7,0.51-4.09,0.69c-2.78,0.37-5.57,0.42-8.18,0.05c-1.28-0.14-2.63-0.16-3.59,0.59
					c-0.96,0.73-1.45,1.92-2.16,2.92c-0.35,0.5-0.8,0.99-1.39,1.25c-0.58,0.27-1.26,0.26-1.83,0.08c-1.15-0.39-2-1.16-2.92-1.68
					c-0.45-0.27-0.92-0.48-1.41-0.53c-0.48-0.05-0.96,0.07-1.34,0.34c-0.77,0.55-1.18,1.46-1.69,2.22
					c-1.01,1.62-2.75,2.38-4.22,2.44c-1.51,0.07-2.73-0.57-3.5-1.24c-0.79-0.69-1.18-1.42-1.38-1.92c-0.2-0.51-0.23-0.79-0.23-0.79
					c0.02-0.01,0.08,0.27,0.3,0.76c0.23,0.48,0.63,1.18,1.41,1.83c0.77,0.64,1.95,1.22,3.38,1.13c1.41-0.07,3.04-0.82,3.99-2.36
					c0.5-0.74,0.88-1.68,1.76-2.32c0.43-0.31,1-0.46,1.56-0.41c0.56,0.05,1.07,0.29,1.55,0.57c0.95,0.54,1.81,1.29,2.85,1.63
					c0.52,0.16,1.08,0.16,1.57-0.07c0.5-0.22,0.9-0.64,1.23-1.13c0.69-0.95,1.16-2.18,2.24-3.02c0.54-0.42,1.21-0.63,1.87-0.7
					c0.67-0.07,1.34-0.03,2,0.03c2.61,0.37,5.32,0.31,8.09-0.05c1.38-0.18,2.73-0.42,4.07-0.68c0.67-0.14,1.33-0.27,1.98-0.41
					c0.65-0.15,1.33-0.24,1.9-0.46c0.57-0.21,0.96-0.71,0.92-1.3c-0.01-0.58-0.29-1.16-0.66-1.63c-0.77-0.94-1.85-1.59-2.97-1.96
					c-2.25-0.73-4.72-0.25-6.3,1.14c-1.61,1.37-2.42,3.34-2.46,5.12c-0.01,1.8,0.71,3.35,1.29,4.67c0.59,1.32,1.1,2.49,1.33,3.5
					c0.22,1.01,0.19,1.84,0.04,2.36C250.13,337.48,249.99,337.73,249.99,337.73z"/>
			</g>
		</g>
	</g>
	<g>
		<g>
			<g>
				<path class="st7" d="M270.67,324.93c0,0.01-0.18,0.07-0.52,0.16c-0.39,0.09-0.89,0.21-1.51,0.37c-1.37,0.32-3.26,0.76-5.58,1.29
					c-4.71,1.09-11.21,2.63-18.35,4.44c-7.15,1.81-13.6,3.56-18.26,4.84c-2.29,0.63-4.17,1.15-5.52,1.52
					c-0.62,0.16-1.12,0.3-1.5,0.4c-0.35,0.09-0.53,0.13-0.53,0.11c0-0.01,0.17-0.08,0.51-0.19c0.38-0.12,0.87-0.28,1.48-0.48
					c1.29-0.41,3.16-0.97,5.48-1.65c4.64-1.36,11.08-3.15,18.23-4.96c7.15-1.81,13.66-3.31,18.39-4.33
					c2.36-0.51,4.28-0.91,5.61-1.16c0.63-0.12,1.14-0.21,1.53-0.29C270.48,324.94,270.66,324.92,270.67,324.93z"/>
			</g>
		</g>
	</g>
	<g>
		
			<rect x="111.66" y="113.97" transform="matrix(0.9761 -0.2175 0.2175 0.9761 -22.7915 35.8505)" class="st9" width="79.57" height="14.95"/>
	</g>
</g>
<g id="Character_00000039826182135072414070000016352920049323683971_">
	<g>
		<g>
			<g>
				<g>
					<g>
						<g>
							<g>
								<g>
									<polygon class="st1" points="262.12,342.31 287.21,474.87 310.14,432.5 353.6,458.01 307.47,328.93 									"/>
								</g>
							</g>
						</g>
					</g>
				</g>
				<g class="st10">
					<g>
						<path d="M270.56,386.89c4.64,0.96,10.05-0.68,13.34-4.09c2.29-2.37,3.81-5.58,6.69-7.16c2.59-1.42,5.78-1.22,8.62-0.43
							c2.85,0.79,5.53,2.1,8.38,2.85c5.6,1.45,11.78,0.54,16.72-2.48l-7.24-20.1l-33.6-4.2l-16.02,19.25L270.56,386.89z"/>
					</g>
				</g>
				<g>
					<g>
						<path class="st7" d="M308.51,427.24c-0.14,0.04-3.88-13.73-8.34-30.75c-4.47-17.02-7.98-30.85-7.84-30.88
							c0.14-0.04,3.87,13.73,8.35,30.75C305.13,413.37,308.65,427.2,308.51,427.24z"/>
					</g>
				</g>
			</g>
			<g>
				<g>
					<g>
						<g>
							<g>
								<polygon class="st1" points="265.79,349.2 240.7,481.76 217.77,439.4 174.31,464.9 220.44,335.82 								"/>
							</g>
						</g>
					</g>
				</g>
			</g>
			<g class="st10">
				<path d="M206.64,374.43c0,0,7.14,5.87,15.65,3.17c8.51-2.71,13.8-3.28,18.41,0c4.61,3.28,17.08,13.96,17.08,13.96l2.9-15.29
					l-16.75-23l-17.49,3.53l-12.46,1.24l-4.63,8.76L206.64,374.43z"/>
			</g>
			<g>
				<path class="st1" d="M412.9,229.54c0,9.51-12.16,17.7-13.94,26.69c-1.83,9.26,6.23,21.47,2.7,29.99
					c-3.6,8.67-17.97,11.59-23.12,19.29c-5.2,7.77-2.43,22.15-9.01,28.73c-6.58,6.58-20.97,3.81-28.73,9.01
					c-7.71,5.16-10.62,19.53-19.29,23.12c-8.52,3.53-20.73-4.53-29.99-2.7c-8.99,1.78-17.18,13.94-26.69,13.94
					c-9.51,0-17.7-12.16-26.69-13.94c-9.26-1.83-21.47,6.23-29.99,2.7c-8.67-3.6-11.59-17.97-19.29-23.12
					c-7.77-5.2-22.15-2.43-28.73-9.01c-6.58-6.58-3.81-20.97-9.01-28.73c-5.16-7.71-19.53-10.62-23.12-19.29
					c-3.53-8.52,4.53-20.73,2.7-29.99c-1.78-8.99-13.94-17.18-13.94-26.69s12.16-17.7,13.94-26.69c1.83-9.26-6.23-21.47-2.7-29.99
					c3.6-8.67,17.97-11.59,23.12-19.29c5.2-7.77,2.43-22.15,9.01-28.73c6.58-6.58,20.97-3.81,28.73-9.01
					c7.71-5.16,10.62-19.53,19.29-23.12c8.52-3.53,20.73,4.53,29.99,2.7c8.99-1.78,17.18-13.94,26.69-13.94
					c9.51,0,17.7,12.16,26.69,13.94c9.26,1.83,21.47-6.23,29.99-2.7c8.67,3.6,11.59,17.97,19.29,23.12
					c7.77,5.2,22.15,2.43,28.73,9.01c6.58,6.58,3.81,20.97,9.01,28.73c5.16,7.71,19.53,10.62,23.12,19.29
					c3.53,8.52-4.53,20.73-2.7,29.99C400.75,211.83,412.9,220.03,412.9,229.54z"/>
			</g>
			<g>
				<g>
					<path class="st7" d="M230.17,146.53c-0.02,0.01-0.11-0.13-0.27-0.41c-0.19-0.33-0.41-0.73-0.68-1.22
						c-0.59-1.06-1.39-2.62-2.36-4.56c-1.93-3.88-4.43-9.34-6.84-15.5c-2.4-6.17-4.26-11.88-5.47-16.04
						c-0.61-2.08-1.06-3.78-1.35-4.95c-0.13-0.54-0.24-0.99-0.32-1.36c-0.07-0.31-0.1-0.48-0.08-0.48c0.02,0,0.08,0.15,0.18,0.46
						c0.11,0.36,0.25,0.8,0.42,1.33c0.38,1.24,0.89,2.89,1.51,4.9c1.3,4.13,3.2,9.8,5.6,15.96c2.4,6.15,4.84,11.62,6.68,15.53
						c0.91,1.9,1.65,3.46,2.21,4.63c0.24,0.5,0.43,0.92,0.59,1.26C230.12,146.37,230.18,146.52,230.17,146.53z"/>
				</g>
			</g>
			<g>
				<g>
					<path class="st7" d="M243.35,141.52c-0.03,0.01-0.17-0.38-0.38-1.1c-0.21-0.72-0.5-1.76-0.83-3.06
						c-0.66-2.6-1.48-6.21-2.22-10.23c-0.74-4.02-1.26-7.69-1.56-10.35c-0.15-1.33-0.26-2.41-0.31-3.16
						c-0.06-0.75-0.07-1.16-0.03-1.17c0.04,0,0.12,0.4,0.24,1.14c0.13,0.85,0.29,1.9,0.48,3.13c0.4,2.64,0.97,6.29,1.71,10.31
						c0.74,4.01,1.5,7.63,2.06,10.24c0.26,1.22,0.49,2.26,0.67,3.1C243.31,141.1,243.38,141.51,243.35,141.52z"/>
				</g>
			</g>
			<g>
				<g>
					<path class="st7" d="M266.6,139.21c-0.14,0-0.51-11.21-0.83-25.05c-0.31-13.84-0.45-25.06-0.31-25.07
						c0.14,0,0.51,11.21,0.83,25.05C266.6,127.98,266.74,139.21,266.6,139.21z"/>
				</g>
			</g>
			<g>
				<g>
					<path class="st7" d="M289.99,116.16c0.14,0.04-1.48,5.65-3.61,12.53c-2.13,6.88-3.97,12.42-4.1,12.37
						c-0.14-0.04,1.48-5.65,3.61-12.53C288.02,121.66,289.85,116.12,289.99,116.16z"/>
				</g>
			</g>
			<g>
				<g>
					<path class="st7" d="M299.54,145.15c-0.02-0.01,0.03-0.17,0.13-0.47c0.12-0.36,0.27-0.79,0.46-1.32
						c0.4-1.14,1.02-2.78,1.8-4.81c1.56-4.04,3.81-9.59,6.37-15.68c2.56-6.1,4.94-11.59,6.69-15.55c0.86-1.92,1.58-3.5,2.11-4.68
						c0.24-0.5,0.44-0.92,0.6-1.26c0.14-0.29,0.23-0.43,0.24-0.43s-0.03,0.17-0.15,0.47c-0.14,0.35-0.31,0.78-0.51,1.3
						c-0.49,1.2-1.15,2.8-1.95,4.74c-1.7,4.06-4,9.55-6.55,15.61c-2.53,6.06-4.81,11.55-6.51,15.62c-0.8,1.95-1.46,3.55-1.95,4.74
						c-0.22,0.51-0.4,0.93-0.55,1.28C299.63,145,299.56,145.15,299.54,145.15z"/>
				</g>
			</g>
			<g>
				<g>
					<path class="st7" d="M312.04,151.67c-0.03-0.02,0.17-0.38,0.57-1.02c0.39-0.64,0.99-1.54,1.74-2.65
						c1.5-2.22,3.66-5.23,6.17-8.45c2.52-3.22,4.91-6.05,6.7-8.05c0.89-1,1.63-1.8,2.15-2.33c0.52-0.54,0.82-0.82,0.85-0.8
						c0.03,0.02-0.22,0.36-0.7,0.94c-0.55,0.66-1.22,1.48-2.02,2.44c-1.71,2.05-4.06,4.91-6.57,8.13c-2.51,3.22-4.71,6.19-6.28,8.35
						c-0.74,1.01-1.37,1.86-1.87,2.56C312.33,151.36,312.07,151.69,312.04,151.67z"/>
				</g>
			</g>
			<g>
				<g>
					<path class="st7" d="M330.22,166.57c-0.1-0.11,7.81-7.63,17.67-16.79c9.86-9.17,17.93-16.52,18.03-16.41
						c0.1,0.11-7.81,7.62-17.67,16.8C338.39,159.33,330.32,166.68,330.22,166.57z"/>
				</g>
			</g>
			<g>
				<g>
					<path class="st7" d="M361.98,169.68c0.03,0.07-1.14,0.66-3.01,1.64c-1.88,0.98-4.43,2.39-7.25,3.98
						c-2.82,1.58-5.42,2.95-7.34,3.85c-0.96,0.45-1.75,0.8-2.3,1.02c-0.55,0.22-0.86,0.33-0.88,0.3c-0.03-0.07,1.14-0.66,3.01-1.64
						c1.88-0.98,4.43-2.39,7.25-3.98c2.82-1.58,5.42-2.95,7.34-3.85c0.96-0.45,1.75-0.8,2.3-1.02
						C361.66,169.75,361.97,169.64,361.98,169.68z"/>
				</g>
			</g>
			<g>
				<g>
					<path class="st7" d="M391.39,181.87c0.05,0.14-9.37,3.58-21.03,7.68c-11.67,4.11-21.16,7.33-21.21,7.19
						c-0.05-0.14,9.37-3.57,21.04-7.68C381.84,184.96,391.34,181.74,391.39,181.87z"/>
				</g>
			</g>
			<g>
				<g>
					<path class="st7" d="M400.75,235.34c-0.01,0.14-10.25-0.71-22.86-1.91c-12.61-1.2-22.83-2.29-22.81-2.43
						c0.01-0.14,10.25,0.71,22.86,1.91C390.55,234.11,400.76,235.2,400.75,235.34z"/>
				</g>
			</g>
			<g>
				<g>
					<path class="st7" d="M393.22,283.3c-0.06,0.13-9.63-4.26-21.37-9.81c-11.74-5.55-21.21-10.15-21.15-10.28
						c0.06-0.13,9.63,4.26,21.37,9.81C383.81,278.56,393.28,283.17,393.22,283.3z"/>
				</g>
			</g>
			<g>
				<g>
					<path class="st7" d="M361.74,328.93c-0.11,0.09-7.01-7.91-15.41-17.88c-8.41-9.97-15.13-18.12-15.02-18.22
						c0.11-0.09,7.01,7.91,15.42,17.88C355.13,320.68,361.85,328.83,361.74,328.93z"/>
				</g>
			</g>
			<g>
				<g>
					<path class="st7" d="M335.46,334.95c-0.03,0.02-0.33-0.38-0.83-1.12c-0.51-0.74-1.23-1.83-2.1-3.18
						c-1.74-2.71-4.07-6.49-6.52-10.75c-2.45-4.25-4.57-8.17-6.04-11.03c-0.74-1.43-1.32-2.59-1.71-3.41
						c-0.39-0.81-0.59-1.27-0.56-1.29c0.03-0.02,0.29,0.41,0.74,1.19c0.49,0.87,1.11,1.99,1.85,3.33c1.56,2.81,3.72,6.69,6.17,10.94
						c2.45,4.25,4.73,8.06,6.39,10.81c0.79,1.31,1.44,2.41,1.95,3.27C335.26,334.5,335.5,334.93,335.46,334.95z"/>
				</g>
			</g>
			<g>
				<g>
					<path class="st7" d="M319.14,357.9c-0.02,0.01-0.11-0.13-0.26-0.41c-0.18-0.33-0.39-0.74-0.65-1.22
						c-0.56-1.06-1.34-2.62-2.26-4.57c-1.84-3.89-4.21-9.35-6.46-15.52c-2.25-6.18-3.95-11.88-5.04-16.05
						c-0.55-2.08-0.96-3.77-1.21-4.95c-0.11-0.54-0.21-0.99-0.29-1.36c-0.06-0.31-0.08-0.48-0.06-0.48c0.02,0,0.07,0.15,0.17,0.46
						c0.1,0.36,0.23,0.8,0.38,1.33c0.35,1.24,0.81,2.89,1.37,4.9c1.18,4.13,2.93,9.8,5.17,15.97c2.25,6.16,4.55,11.63,6.31,15.55
						c0.86,1.9,1.57,3.47,2.1,4.63c0.23,0.5,0.41,0.92,0.57,1.26C319.1,357.74,319.16,357.89,319.14,357.9z"/>
				</g>
			</g>
			<g>
				<g>
					<path class="st7" d="M286.08,341.81c-0.08,0-0.2-1.33-0.43-3.48c-0.23-2.15-0.59-5.12-1.14-8.37
						c-0.55-3.25-1.17-6.18-1.65-8.29c-0.48-2.11-0.8-3.41-0.72-3.43c0.03-0.01,0.16,0.3,0.35,0.88c0.19,0.58,0.45,1.42,0.73,2.46
						c0.57,2.09,1.26,5.02,1.81,8.29c0.55,3.27,0.85,6.26,0.99,8.42c0.07,1.08,0.11,1.96,0.11,2.57
						C286.13,341.47,286.11,341.81,286.08,341.81z"/>
				</g>
			</g>
			<g>
				<g>
					<path class="st7" d="M264.45,370.6c-0.02,0-0.03-0.18-0.04-0.51c-0.01-0.4-0.01-0.88-0.02-1.47c-0.01-1.28-0.01-3.12,0.04-5.41
						c0.08-4.56,0.29-10.87,0.65-17.82c0.36-6.96,0.81-13.25,1.18-17.8c0.19-2.27,0.35-4.11,0.48-5.38
						c0.07-0.59,0.12-1.07,0.16-1.46c0.04-0.33,0.08-0.51,0.09-0.51c0.02,0,0.02,0.18,0.01,0.51c-0.02,0.4-0.04,0.88-0.07,1.47
						c-0.08,1.35-0.19,3.18-0.32,5.39c-0.27,4.63-0.63,10.88-1.02,17.8c-0.37,6.95-0.63,13.25-0.8,17.81
						c-0.08,2.22-0.15,4.05-0.2,5.4c-0.03,0.59-0.05,1.07-0.07,1.47C264.49,370.42,264.47,370.6,264.45,370.6z"/>
				</g>
			</g>
			<g>
				<g>
					<path class="st7" d="M246.87,320.23c0.07,0.01-0.04,0.99-0.3,2.55c-0.26,1.56-0.68,3.71-1.23,6.07
						c-0.55,2.35-1.13,4.47-1.59,5.98c-0.46,1.52-0.8,2.44-0.87,2.42c-0.07-0.02,0.14-0.98,0.51-2.52c0.41-1.72,0.9-3.75,1.44-6.01
						c0.52-2.26,0.98-4.3,1.38-6.02C246.56,321.17,246.8,320.22,246.87,320.23z"/>
				</g>
			</g>
			<g>
				<g>
					<path class="st7" d="M215.08,304.96c0.11,0.09-1.84,2.86-4.38,6.2c-2.53,3.34-4.68,5.97-4.79,5.89
						c-0.11-0.09,1.84-2.86,4.38-6.2C212.82,307.51,214.97,304.87,215.08,304.96z"/>
				</g>
			</g>
			<g>
				<g>
					<path class="st7" d="M198.41,293.76c0.11,0.09-6.1,7.38-13.86,16.27c-7.76,8.9-14.14,16.03-14.25,15.93
						c-0.11-0.09,6.1-7.38,13.86-16.28C191.92,300.8,198.3,293.66,198.41,293.76z"/>
				</g>
			</g>
			<g>
				<g>
					<path class="st7" d="M190.06,281.36c0.09,0.11-3.36,3.11-7.71,6.69c-4.35,3.59-7.95,6.4-8.04,6.29
						c-0.09-0.11,3.36-3.11,7.71-6.69C186.37,284.06,189.97,281.24,190.06,281.36z"/>
				</g>
			</g>
			<g>
				<g>
					<path class="st7" d="M180.3,262.64c0.06,0.13-8.58,4.42-19.3,9.59c-10.73,5.17-19.47,9.25-19.53,9.12
						c-0.06-0.13,8.58-4.42,19.31-9.59C171.49,266.6,180.24,262.51,180.3,262.64z"/>
				</g>
			</g>
			<g>
				<g>
					<path class="st7" d="M176.38,253.31c0.01,0.04-0.31,0.13-0.9,0.27c-0.58,0.14-1.44,0.32-2.49,0.51
						c-2.11,0.39-5.05,0.84-8.31,1.17c-3.26,0.33-6.23,0.47-8.38,0.5c-1.07,0.02-1.94,0.01-2.54-0.01c-0.6-0.02-0.93-0.05-0.93-0.08
						c0-0.08,1.32-0.15,3.46-0.28c2.14-0.13,5.09-0.33,8.34-0.66c3.25-0.33,6.18-0.71,8.3-1.01
						C175.05,253.42,176.36,253.23,176.38,253.31z"/>
				</g>
			</g>
			<g>
				<g>
					<path class="st7" d="M173.21,231.76c0,0.04-0.63,0.02-1.75-0.04c-1.21-0.06-2.81-0.14-4.76-0.24
						c-4.02-0.19-9.57-0.38-15.7-0.35c-6.13,0.04-11.68,0.28-15.7,0.52c-1.94,0.12-3.54,0.22-4.75,0.3
						c-1.12,0.07-1.75,0.09-1.75,0.06c0-0.04,0.61-0.13,1.73-0.26c1.12-0.14,2.74-0.3,4.75-0.46c4.01-0.33,9.57-0.63,15.72-0.67
						c6.15-0.03,11.71,0.21,15.72,0.5c2.01,0.14,3.63,0.29,4.75,0.41C172.59,231.64,173.21,231.73,173.21,231.76z"/>
				</g>
			</g>
			<g>
				<g>
					<path class="st7" d="M175.17,212.84c-0.04,0.14-6.51-1.55-14.46-3.76c-7.95-2.22-14.36-4.13-14.32-4.27
						c0.04-0.14,6.51,1.55,14.46,3.76C168.8,210.79,175.21,212.7,175.17,212.84z"/>
				</g>
			</g>
			<g>
				<g>
					<path class="st7" d="M179.36,196.97c-0.01,0.02-0.17-0.02-0.47-0.11c-0.36-0.11-0.8-0.24-1.32-0.4
						c-1.15-0.35-2.79-0.91-4.81-1.65c-4.03-1.47-9.53-3.71-15.41-6.6c-5.88-2.9-11.01-5.89-14.63-8.2
						c-1.81-1.15-3.26-2.11-4.24-2.81c-0.45-0.32-0.82-0.58-1.12-0.8c-0.25-0.19-0.38-0.29-0.37-0.31c0.01-0.01,0.16,0.06,0.43,0.22
						c0.32,0.2,0.71,0.43,1.18,0.72c1.01,0.64,2.49,1.55,4.32,2.66c3.66,2.22,8.81,5.15,14.67,8.04c5.86,2.88,11.32,5.17,15.31,6.72
						c2,0.78,3.62,1.39,4.74,1.8c0.51,0.2,0.94,0.36,1.29,0.49C179.21,196.89,179.36,196.96,179.36,196.97z"/>
				</g>
			</g>
			<g>
				<g>
					<path class="st7" d="M188.77,181.03c-0.08,0.12-5.15-3.3-11.31-7.64c-6.16-4.34-11.09-7.95-11.01-8.07
						c0.08-0.12,5.14,3.3,11.31,7.64C183.93,177.29,188.85,180.91,188.77,181.03z"/>
				</g>
			</g>
			<g>
				<g>
					<path class="st7" d="M168.88,132.42c0.01-0.01,0.14,0.08,0.38,0.28c0.28,0.24,0.61,0.53,1.02,0.87
						c0.93,0.83,2.18,1.93,3.68,3.26c3.16,2.82,7.41,6.61,12.11,10.81c4.72,4.17,8.99,7.95,12.16,10.76
						c1.5,1.34,2.75,2.44,3.68,3.27c0.39,0.36,0.71,0.66,0.98,0.91c0.22,0.21,0.33,0.33,0.32,0.34c-0.01,0.01-0.15-0.08-0.39-0.26
						c-0.29-0.23-0.63-0.5-1.05-0.83c-0.9-0.73-2.2-1.81-3.79-3.15c-3.18-2.68-7.52-6.43-12.27-10.64
						c-4.74-4.21-8.98-8.09-12.02-10.92c-1.52-1.42-2.74-2.58-3.57-3.39c-0.38-0.37-0.69-0.68-0.95-0.94
						C168.97,132.55,168.86,132.43,168.88,132.42z"/>
				</g>
			</g>
			<g>
				<g>
					<path class="st7" d="M200.07,133.33c0.03-0.02,0.27,0.23,0.68,0.69c0.41,0.47,0.99,1.16,1.68,2.03
						c1.39,1.74,3.24,4.19,5.16,6.99c1.92,2.8,3.53,5.42,4.65,7.35c0.56,0.96,0.99,1.75,1.28,2.3c0.29,0.55,0.43,0.87,0.4,0.88
						c-0.07,0.04-0.8-1.12-1.99-3c-1.19-1.87-2.85-4.45-4.76-7.24c-1.91-2.79-3.71-5.27-5.02-7.06
						C200.83,134.48,200.01,133.37,200.07,133.33z"/>
				</g>
			</g>
			<g class="st13">
				<path d="M160.1,124.82l43.5,38.09l10.81-8.65l-25.24-38.68c0,0-1.93,1.42-6.96,2.86C177.35,119.83,163.01,120.2,160.1,124.82z"
					/>
			</g>
			<g class="st13">
				<path d="M208.53,92.6l21.24,53.17l13.57-4.25l-4.52-46.12c0,0-2.34,0.55-7.52-0.11C226.27,94.65,214.08,89.88,208.53,92.6z"/>
			</g>
			<g class="st10">
				<path d="M265.17,81.47l1.42,57.74l12.72,0.61L292.2,95.5c-0.25-0.02-3.57-0.6-7.49-3.1C280.31,89.58,271.33,81.01,265.17,81.47z
					"/>
			</g>
			<g class="st13">
				<path d="M320.65,92.38l-21.11,53.23l11.49,5.49l29.05-35.86c-0.22-0.12-2.97-2.41-5.52-6.49
					C331.8,104.32,327.08,94.15,320.65,92.38z"/>
			</g>
			<g class="st13">
				<path d="M370.23,125.59l-39.32,40.98l8.76,11.81l38.42-25.64c0,0-1.61-2.56-2.53-7.48C374.64,140.28,374.51,131.2,370.23,125.59
					z"/>
			</g>
			<g class="st13">
				<path d="M401.27,171.85l-52.95,21.79l4.39,13.53l46.07-5c0,0-0.29-1.42,0.32-6.62C399.68,190.53,404.97,179.29,401.27,171.85z"
					/>
			</g>
			<g class="st13">
				<path d="M412.99,229.54l-57.72,2.02l-0.48,12.73l44.04,12.88c0.02-0.25,0.41-2.73,1.75-5.26
					C403.81,245.78,412.99,237.14,412.99,229.54z"/>
			</g>
			<g class="st13">
				<path d="M402.35,284.12l-53.15-20.72l-5.38,11.55l36.16,28.68c0.11-0.22,2.22-2.18,6.28-4.76
					C390.67,296.06,401.13,291.51,402.35,284.12z"/>
			</g>
			<g class="st13">
				<g>
					<path d="M324.18,283.3l-13.15,11.04c1,1.04,18.53,30.84,29.33,49.26c0.15-0.11,0.29-0.24,0.44-0.34
						c7.12-4.76,19.77-2.85,26.91-7.57L324.18,283.3z"/>
				</g>
				<g>
					<path d="M300,304.18l-19.64,6.7l9.3,53.32c0.61-0.21,1.23-0.39,1.85-0.51c9.26-1.83,21.47,6.23,29.99,2.7
						c1.17-0.49,2.23-1.18,3.22-2.01L300,304.18z"/>
				</g>
				<g>
					<path d="M264.14,377.6l3.14-69.66l-16.98-4.3l-12.64,59.98c0.16,0.03,0.31,0.05,0.47,0.08
						C246.9,365.42,254.91,377.04,264.14,377.6z"/>
				</g>
				<g>
					<path d="M221.44,296.11c0,0-22.44,30.06-34.17,46.25c0.55,0.27,1.08,0.57,1.58,0.91c7.71,5.16,10.62,19.53,19.29,23.12
						c0.4,0.16,0.81,0.3,1.22,0.41l31.35-59.34L221.44,296.11z"/>
				</g>
				<g>
					<path d="M198.41,271.91l-47.86,32.9c0.18,0.24,0.38,0.47,0.55,0.71c5.2,7.77,2.43,22.15,9.01,28.73
						c0.61,0.61,1.3,1.11,2.02,1.57c16.91-19.06,47.27-53.28,48.37-54.47L198.41,271.91z"/>
				</g>
				<g>
					<path d="M187.44,248.42l-56.59,9.14c0.9,9.08-6.25,20.54-2.89,28.66c0.21,0.5,0.46,0.97,0.73,1.43
						c19.8-9.86,61.18-30.37,62.9-30.48L187.44,248.42z"/>
				</g>
				<g>
					<path d="M184.35,216.9l-53.49-15.44c-0.04,0.47-0.1,0.93-0.19,1.38c-1.78,8.99-13.94,17.18-13.94,26.69
						c0,0.64,0.06,1.27,0.16,1.9h65.29L184.35,216.9z"/>
				</g>
				<g>
					<path d="M128.19,172.43c19.99,10.71,59.08,32.38,59.08,32.38l9.62-18.27l-45.19-34.02c-0.19,0.35-0.38,0.71-0.6,1.04
						C146.02,161.13,132.07,164.09,128.19,172.43z"/>
				</g>
			</g>
			<g>
				<g>
					<path class="st7" d="M412.9,229.54c0,0-0.03-0.21-0.06-0.63c-0.05-0.42-0.04-1.06-0.26-1.86c-0.31-1.63-1.23-3.98-3-6.7
						c-1.72-2.76-4.32-5.85-7.03-9.76c-1.32-1.97-2.7-4.19-3.43-6.85c-0.73-2.67-0.59-5.68-0.02-8.71c0.55-3.05,1.46-6.19,2.26-9.52
						c0.73-3.31,1.53-6.93,0.79-10.61c-0.39-1.82-1.26-3.55-2.48-5.06c-1.24-1.5-2.8-2.76-4.45-3.95c-3.32-2.36-7.13-4.24-10.79-6.7
						c-1.82-1.23-3.62-2.61-5.1-4.36c-1.5-1.75-2.47-3.93-3.13-6.19c-1.29-4.55-1.57-9.41-2.55-14.28c-0.5-2.42-1.17-4.88-2.46-7.06
						c-1.26-2.2-3.31-3.9-5.7-4.93c-2.38-1.06-5-1.6-7.65-2.04c-2.65-0.44-5.37-0.75-8.09-1.23c-2.72-0.49-5.5-1.13-8.02-2.52
						c-2.53-1.38-4.51-3.6-6.16-5.97c-1.66-2.39-3.09-4.95-4.61-7.47c-1.52-2.52-3.12-5.05-5.2-7.21c-2.07-2.13-4.84-3.67-7.89-3.87
						c-3.04-0.23-6.11,0.35-9.14,1.07c-3.04,0.73-6.08,1.62-9.24,2.21c-3.13,0.61-6.49,0.83-9.66-0.18
						c-3.12-1.08-5.87-2.98-8.53-4.93c-2.66-1.96-5.26-4.05-8.12-5.78c-2.84-1.68-6.08-3.07-9.45-2.7l-0.63,0.05
						c-0.21,0.04-0.41,0.09-0.61,0.13c-0.41,0.1-0.82,0.17-1.23,0.29c-0.79,0.29-1.61,0.53-2.36,0.92c-1.55,0.69-3,1.62-4.43,2.57
						c-2.85,1.94-5.53,4.17-8.45,6.15c-1.44,1.01-2.99,1.9-4.6,2.66c-1.63,0.74-3.41,1.18-5.21,1.32
						c-3.62,0.18-7.18-0.64-10.67-1.52c-3.5-0.88-7-1.88-10.6-2.23c-1.8-0.15-3.62-0.07-5.37,0.36c-1.76,0.42-3.32,1.42-4.7,2.58
						c-2.76,2.41-4.69,5.65-6.6,8.83c-1.91,3.2-3.73,6.54-6.27,9.41c-1.28,1.41-2.76,2.7-4.5,3.57c-1.74,0.85-3.58,1.42-5.46,1.86
						c-3.76,0.82-7.6,1.18-11.38,1.86c-3.74,0.68-7.64,1.74-10.41,4.43c-1.34,1.37-2.27,3.09-2.96,4.89
						c-0.7,1.81-1.1,3.73-1.46,5.65c-0.7,3.86-1.02,7.82-1.96,11.71c-0.45,1.95-1.11,3.87-2.13,5.63c-1.02,1.76-2.42,3.28-4.01,4.53
						c-3.16,2.54-6.75,4.42-10.19,6.52c-1.71,1.06-3.4,2.16-4.96,3.43c-1.53,1.29-2.92,2.77-3.88,4.52
						c-0.97,1.74-1.41,3.75-1.39,5.76c-0.01,2.02,0.3,4.04,0.7,6.03c0.85,4,2.11,7.93,2.79,12.04c0.35,2.05,0.48,4.17,0.21,6.26
						c-0.27,2.1-1.08,4.09-2.09,5.93c-2.08,3.66-4.8,6.86-7.21,10.26c-1.22,1.69-2.34,3.46-3.23,5.34c-0.88,1.87-1.5,3.89-1.51,5.96
						c0.01,2.07,0.62,4.09,1.49,5.96c0.88,1.88,2,3.65,3.22,5.34c2.41,3.41,5.13,6.61,7.22,10.26c1.01,1.83,1.83,3.83,2.1,5.93
						c0.28,2.09,0.16,4.21-0.2,6.26c-0.67,4.11-1.94,8.05-2.79,12.05c-0.41,2-0.71,4.02-0.71,6.04c-0.02,2.02,0.42,4.02,1.38,5.77
						c0.95,1.75,2.34,3.24,3.87,4.53c1.56,1.27,3.25,2.38,4.96,3.44c3.43,2.1,7.03,3.98,10.19,6.52c1.58,1.25,3,2.77,4.01,4.53
						c1.02,1.76,1.69,3.69,2.13,5.63c0.94,3.9,1.26,7.86,1.96,11.72c0.35,1.93,0.76,3.85,1.46,5.65c0.69,1.8,1.62,3.52,2.95,4.89
						c2.77,2.69,6.67,3.76,10.41,4.44c3.79,0.69,7.63,1.04,11.39,1.86c1.87,0.44,3.72,1.01,5.46,1.86c1.74,0.87,3.22,2.16,4.5,3.57
						c2.54,2.87,4.36,6.21,6.27,9.42c1.92,3.18,3.85,6.42,6.6,8.83c1.38,1.16,2.94,2.16,4.7,2.58c1.75,0.44,3.57,0.51,5.37,0.36
						c3.61-0.35,7.11-1.35,10.6-2.23c3.49-0.88,7.05-1.7,10.67-1.52c1.8,0.14,3.58,0.58,5.21,1.32c1.61,0.76,3.16,1.65,4.6,2.66
						c2.92,1.98,5.6,4.21,8.45,6.15c1.43,0.95,2.88,1.88,4.43,2.57c0.76,0.4,1.57,0.63,2.36,0.92c0.4,0.11,0.82,0.19,1.23,0.29
						c0.21,0.04,0.41,0.1,0.61,0.13l0.63,0.05c3.37,0.38,6.61-1.02,9.45-2.7c2.85-1.73,5.45-3.82,8.12-5.78
						c2.66-1.95,5.41-3.84,8.53-4.92c3.17-1.01,6.53-0.79,9.66-0.18c3.15,0.59,6.2,1.48,9.24,2.21c3.03,0.72,6.11,1.3,9.14,1.07
						c3.05-0.21,5.81-1.74,7.88-3.88c2.07-2.15,3.67-4.69,5.2-7.21c1.52-2.53,2.95-5.09,4.61-7.47c1.66-2.37,3.64-4.59,6.17-5.97
						c2.52-1.39,5.3-2.03,8.02-2.52c2.73-0.48,5.44-0.79,8.09-1.23c2.65-0.44,5.26-0.99,7.65-2.05c2.39-1.03,4.43-2.73,5.69-4.93
						c1.29-2.18,1.96-4.64,2.46-7.06c0.98-4.86,1.26-9.73,2.55-14.27c0.65-2.26,1.63-4.44,3.13-6.18c1.48-1.75,3.29-3.13,5.1-4.36
						c3.65-2.46,7.47-4.34,10.78-6.7c1.65-1.18,3.2-2.45,4.45-3.95c1.23-1.51,2.09-3.24,2.48-5.06c0.43-1.82,0.32-3.68,0.15-5.45
						c-0.18-1.78-0.58-3.5-0.94-5.16c-0.8-3.33-1.7-6.47-2.26-9.52c-0.57-3.03-0.71-6.04,0.02-8.71c0.74-2.67,2.11-4.89,3.43-6.85
						c2.71-3.91,5.32-6.99,7.03-9.76c1.77-2.73,2.68-5.07,3-6.7c0.23-0.8,0.21-1.44,0.26-1.86
						C412.88,229.75,412.9,229.54,412.9,229.54s-0.01,0.21-0.04,0.63c-0.04,0.42-0.02,1.06-0.24,1.87c-0.3,1.64-1.2,4.01-2.96,6.75
						c-1.71,2.78-4.3,5.88-6.99,9.79c-1.31,1.97-2.67,4.18-3.39,6.81c-0.71,2.63-0.57,5.61,0.01,8.62c0.56,3.03,1.47,6.17,2.28,9.5
						c0.37,1.67,0.78,3.39,0.96,5.19c0.17,1.79,0.28,3.67-0.15,5.53c-0.39,1.86-1.28,3.64-2.52,5.18c-1.26,1.53-2.83,2.81-4.49,4
						c-3.34,2.38-7.15,4.27-10.78,6.72c-1.8,1.23-3.58,2.59-5.04,4.31c-1.46,1.71-2.42,3.84-3.06,6.08
						c-1.27,4.5-1.55,9.36-2.52,14.25c-0.5,2.44-1.17,4.93-2.49,7.17c-1.29,2.26-3.41,4.03-5.84,5.08
						c-2.43,1.08-5.07,1.64-7.73,2.08c-2.66,0.44-5.38,0.75-8.09,1.24c-2.7,0.49-5.45,1.13-7.9,2.49c-2.46,1.34-4.39,3.51-6.03,5.86
						c-1.64,2.36-3.06,4.92-4.59,7.45c-1.52,2.53-3.13,5.09-5.25,7.29c-2.1,2.18-5,3.79-8.13,4c-3.12,0.24-6.23-0.36-9.28-1.07
						c-3.05-0.73-6.09-1.62-9.22-2.2c-3.1-0.6-6.38-0.8-9.45,0.17c-3.04,1.05-5.76,2.92-8.41,4.87c-2.65,1.96-5.26,4.05-8.15,5.81
						c-0.74,0.4-1.45,0.87-2.24,1.2c-0.39,0.18-0.77,0.37-1.16,0.53l-1.21,0.43c-1.63,0.5-3.37,0.83-5.11,0.6l-0.65-0.05
						c-0.21-0.03-0.42-0.09-0.64-0.13c-0.42-0.1-0.85-0.18-1.27-0.3c-0.81-0.3-1.65-0.54-2.42-0.95c-1.59-0.71-3.05-1.65-4.5-2.61
						c-2.87-1.96-5.56-4.19-8.45-6.15c-1.43-1-2.95-1.87-4.53-2.62c-1.6-0.72-3.3-1.14-5.05-1.28c-3.52-0.17-7.04,0.63-10.52,1.51
						c-3.49,0.87-7,1.89-10.68,2.24c-1.84,0.15-3.72,0.08-5.54-0.37c-1.84-0.44-3.47-1.49-4.9-2.68c-2.84-2.48-4.78-5.76-6.71-8.95
						c-1.91-3.21-3.73-6.53-6.22-9.34c-1.26-1.38-2.68-2.61-4.36-3.46c-1.68-0.82-3.5-1.38-5.34-1.82
						c-3.72-0.81-7.55-1.17-11.37-1.86c-1.9-0.37-3.82-0.76-5.65-1.49c-1.83-0.71-3.59-1.69-5.02-3.09
						c-1.4-1.44-2.37-3.22-3.07-5.07c-0.72-1.85-1.12-3.8-1.48-5.74c-0.71-3.89-1.03-7.85-1.96-11.69c-0.44-1.92-1.1-3.8-2.08-5.5
						c-0.98-1.69-2.34-3.16-3.9-4.39c-3.1-2.49-6.68-4.37-10.14-6.48c-1.72-1.07-3.43-2.18-5.02-3.48c-1.56-1.32-3-2.85-4-4.68
						c-1-1.82-1.47-3.94-1.44-6.01c0-2.08,0.31-4.13,0.72-6.15c0.85-4.03,2.12-7.97,2.78-12.02c0.35-2.02,0.47-4.09,0.19-6.11
						c-0.27-2.02-1.05-3.94-2.04-5.74c-2.05-3.59-4.76-6.79-7.19-10.22c-1.22-1.71-2.37-3.49-3.27-5.42
						c-0.9-1.92-1.53-4.02-1.54-6.18c0.02-2.17,0.66-4.26,1.56-6.18c0.9-1.92,2.05-3.71,3.27-5.42c2.43-3.42,5.14-6.62,7.18-10.21
						c0.99-1.8,1.77-3.73,2.03-5.75c0.26-2.02,0.14-4.08-0.2-6.1c-0.67-4.05-1.93-7.99-2.79-12.02c-0.41-2.02-0.72-4.07-0.71-6.15
						c-0.02-2.07,0.44-4.18,1.46-6c1-1.83,2.44-3.36,4-4.67c1.59-1.3,3.3-2.41,5.02-3.48c3.45-2.11,7.03-3.99,10.13-6.48
						c1.56-1.23,2.91-2.7,3.89-4.39c0.98-1.7,1.63-3.58,2.07-5.5c0.92-3.84,1.25-7.8,1.96-11.68c0.36-1.94,0.77-3.89,1.48-5.74
						c0.7-1.85,1.67-3.63,3.07-5.07c1.43-1.4,3.2-2.38,5.03-3.09c1.83-0.72,3.75-1.12,5.65-1.48c3.82-0.69,7.65-1.04,11.36-1.86
						c1.85-0.43,3.66-1,5.34-1.82c1.68-0.84,3.1-2.08,4.36-3.46c2.49-2.81,4.3-6.13,6.21-9.33c1.93-3.19,3.86-6.46,6.71-8.95
						c1.43-1.2,3.06-2.24,4.9-2.68c1.82-0.45,3.7-0.53,5.54-0.37c3.68,0.36,7.19,1.37,10.68,2.24c3.48,0.88,7,1.68,10.52,1.51
						c1.75-0.13,3.45-0.56,5.05-1.27c1.58-0.75,3.1-1.62,4.53-2.62c2.89-1.96,5.58-4.19,8.45-6.15c1.45-0.96,2.91-1.9,4.5-2.61
						c0.77-0.4,1.61-0.65,2.42-0.95c0.42-0.12,0.85-0.2,1.27-0.3c0.21-0.04,0.42-0.1,0.64-0.14l0.65-0.05
						c1.73-0.23,3.48,0.11,5.11,0.6l1.21,0.43c0.4,0.16,0.77,0.36,1.16,0.53c0.79,0.33,1.5,0.8,2.24,1.2
						c2.89,1.76,5.49,3.85,8.15,5.81c2.65,1.95,5.37,3.81,8.41,4.87c3.06,0.97,6.34,0.78,9.44,0.17c3.12-0.58,6.16-1.47,9.22-2.2
						c3.05-0.72,6.16-1.31,9.28-1.08c3.14,0.2,6.03,1.81,8.14,3.99c2.12,2.2,3.72,4.76,5.25,7.28c1.52,2.53,2.94,5.09,4.58,7.45
						c1.64,2.35,3.57,4.52,6.03,5.86c2.45,1.36,5.2,2,7.9,2.49c2.71,0.48,5.42,0.8,8.09,1.24c2.66,0.44,5.3,1,7.73,2.08
						c2.43,1.05,4.56,2.82,5.85,5.07c1.32,2.24,2,4.73,2.49,7.17c0.98,4.89,1.25,9.75,2.52,14.25c0.65,2.23,1.59,4.37,3.06,6.08
						c1.45,1.72,3.23,3.09,5.03,4.31c3.63,2.45,7.44,4.34,10.78,6.72c1.66,1.19,3.23,2.47,4.49,4c1.25,1.54,2.13,3.32,2.53,5.17
						c0.43,1.86,0.31,3.74,0.15,5.53c-0.18,1.8-0.59,3.52-0.96,5.19c-0.8,3.34-1.72,6.47-2.28,9.5c-0.58,3.02-0.72,5.99-0.01,8.62
						c0.72,2.63,2.08,4.85,3.39,6.81c2.69,3.91,5.29,7.01,6.99,9.79c1.76,2.74,2.66,5.11,2.96,6.75c0.22,0.81,0.19,1.45,0.24,1.87
						C412.9,229.32,412.9,229.54,412.9,229.54z"/>
				</g>
			</g>
			<g>
				<g>
					<path class="st7" d="M237.04,366.96c0.14,0.04-3.55,15-8.24,33.42c-4.69,18.43-8.61,33.33-8.75,33.3
						c-0.14-0.04,3.55-15,8.24-33.42C232.99,381.83,236.9,366.92,237.04,366.96z"/>
				</g>
			</g>
		</g>
		<g>
			<g>
				<circle class="st11" cx="264.82" cy="229.54" r="90.78"/>
			</g>
			<g>
				<path class="st15" d="M208.92,198.08c-1.25,1.25-8.14,13.77-8.76,24.09c-0.63,10.33,0.86,68.32,0.86,68.32l0.27,3.84
					c16.34,19.11,75.74,47.55,129.24-0.1l0,0l3-35.67l-8.83-75.51l-30.67-7.51l-7.19-11.66l-47.93,11.22l-4.27,10.1L208.92,198.08z"
					/>
			</g>
			<g>
				<g>
					<g>
						<g>
							<g>
								<g>
									<g>
										<g>
											<g>
												<g>
													<g>
														<path class="st7" d="M283.52,133.54c2.11-7.84,4.19-15.75,4.92-23.84c0.73-8.09,0.05-16.45-3.16-23.91
															c-0.49-1.13-4.54-8.68-5.76-8.49c-0.87,0.13,1.75,7.23,1.35,8.01c-3.85,7.47-4.55,16.24-3.44,24.57
															C278.52,118.21,280.65,125.64,283.52,133.54"/>
													</g>
												</g>
											</g>
										</g>
									</g>
								</g>
							</g>
						</g>
						<g>
							<g>
								<g>
									<path class="st16" d="M282.72,102.54c-0.39-20.37-12.56-37.12-32.92-36.17l-1.88,0.2c-18.87,1.99-33.06,18.14-32.6,37.11
										c0.43,17.65,1.14,37.15,2.24,46.53c2.29,19.42,22.05,20.39,22.05,20.39c0.04,0,0.91,12.77,0.91,12.77l8.35,9.07
										l38.71-23.98L282.72,102.54z"/>
								</g>
							</g>
						</g>
						<g>
							<g>
								<g>
									<g>
										<g>
											<g>
												<g>
													<g>
														<g>
															<g>
																<path class="st17" d="M239.63,170.75c0,0,12.33-0.57,24.52-10.15c0,0-4.08,17.61-23.67,17.9L239.63,170.75z"/>
															</g>
														</g>
													</g>
												</g>
											</g>
										</g>
									</g>
								</g>
							</g>
						</g>
						<g>
							<g>
								<g>
									<g>
										<g>
											<g>
												<g>
													<g>
														<g>
															<g>
																<g>
																	<g>
																		<g>
																			<g>
																				<g>
																					<g>
																						<path class="st7" d="M226.52,119.51c0.1,1.47,1.43,2.6,2.97,2.52c1.54-0.08,2.7-1.33,2.6-2.81
																							c-0.1-1.47-1.43-2.6-2.97-2.52C227.58,116.78,226.41,118.04,226.52,119.51z"/>
																					</g>
																				</g>
																			</g>
																		</g>
																	</g>
																</g>
															</g>
														</g>
													</g>
												</g>
											</g>
										</g>
									</g>
								</g>
							</g>
						</g>
						<g>
							<g>
								<g>
									<g>
										<g>
											<g>
												<g>
													<g>
														<g>
															<g>
																<g>
																	<g>
																		<g>
																			<g>
																				<g>
																					<g>
																						<g>
																							<path class="st7" d="M220.34,111.31c0.38,0.33,2.32-1.45,5.31-1.76c2.98-0.35,5.34,0.96,5.62,0.56
																								c0.14-0.18-0.28-0.8-1.31-1.39c-1.01-0.59-2.69-1.1-4.55-0.89c-1.86,0.21-3.35,1.06-4.18,1.85
																								C220.39,110.48,220.15,111.16,220.34,111.31z"/>
																						</g>
																					</g>
																				</g>
																			</g>
																		</g>
																	</g>
																</g>
															</g>
														</g>
													</g>
												</g>
											</g>
										</g>
									</g>
								</g>
							</g>
						</g>
						<g>
							<g>
								<g>
									<g>
										<g>
											<g>
												<g>
													<g>
														<g>
															<g>
																<g>
																	<g>
																		<g>
																			<g>
																				<g>
																					<g>
																						<path class="st7" d="M252.91,117.27c0.1,1.47,1.43,2.6,2.97,2.52c1.54-0.08,2.7-1.33,2.6-2.81
																							c-0.1-1.47-1.43-2.6-2.97-2.52C253.97,114.54,252.81,115.8,252.91,117.27z"/>
																					</g>
																				</g>
																			</g>
																		</g>
																	</g>
																</g>
															</g>
														</g>
													</g>
												</g>
											</g>
										</g>
									</g>
								</g>
							</g>
						</g>
						<g>
							<g>
								<g>
									<g>
										<g>
											<g>
												<g>
													<g>
														<g>
															<g>
																<g>
																	<g>
																		<g>
																			<g>
																				<g>
																					<g>
																						<g>
																							<path class="st7" d="M249.73,109.43c0.38,0.33,2.32-1.45,5.31-1.76c2.98-0.35,5.33,0.96,5.62,0.56
																								c0.14-0.18-0.27-0.8-1.31-1.39c-1.01-0.59-2.69-1.1-4.55-0.89c-1.86,0.21-3.35,1.06-4.18,1.85
																								C249.79,108.6,249.55,109.29,249.73,109.43z"/>
																						</g>
																					</g>
																				</g>
																			</g>
																		</g>
																	</g>
																</g>
															</g>
														</g>
													</g>
												</g>
											</g>
										</g>
									</g>
								</g>
							</g>
						</g>
						<g>
							<g>
								<g>
									<g>
										<g>
											<g>
												<g>
													<g>
														<g>
															<g>
																<g>
																	<g>
																		<g>
																			<g>
																				<g>
																					<g>
																						<path class="st7" d="M241.43,133.52c0-0.17-1.89-0.3-4.94-0.36c-0.77,0-1.51-0.07-1.69-0.58
																							c-0.24-0.53-0.01-1.39,0.27-2.32c0.52-1.92,1.07-3.94,1.64-6.05c2.26-8.6,3.81-15.64,3.47-15.73
																							c-0.35-0.09-2.46,6.81-4.72,15.41c-0.54,2.12-1.06,4.14-1.54,6.07c-0.2,0.9-0.59,1.93-0.08,3.04
																							c0.27,0.55,0.87,0.9,1.37,0.98c0.5,0.1,0.93,0.06,1.31,0.04C239.56,133.87,241.44,133.69,241.43,133.52z"/>
																					</g>
																				</g>
																			</g>
																		</g>
																	</g>
																</g>
															</g>
														</g>
													</g>
												</g>
											</g>
										</g>
									</g>
								</g>
							</g>
						</g>
						<g>
							<g>
								<g>
									<g>
										<g>
											<g>
												<g>
													<g>
														<g>
															<g>
																<g>
																	<g>
																		<g>
																			<g>
																				<g>
																					<g>
																						<path class="st7" d="M250.44,134.66c-0.49,0.02-0.15,3.27-2.69,5.86c-2.53,2.6-6.02,2.6-6,3.06
																							c-0.02,0.21,0.84,0.55,2.3,0.43c1.44-0.1,3.48-0.78,5.03-2.37c1.54-1.59,2.07-3.55,2.04-4.89
																							C251.11,135.38,250.66,134.62,250.44,134.66z"/>
																					</g>
																				</g>
																			</g>
																		</g>
																	</g>
																</g>
															</g>
														</g>
													</g>
												</g>
											</g>
										</g>
									</g>
								</g>
							</g>
						</g>
						<g>
							<g>
								<g>
									<g>
										<g>
											<g>
												<g>
													<g>
														<g>
															<g>
																<g>
																	<g>
																		<path class="st7" d="M248.62,97.29c0.38,0.78,3.32,0.08,6.87,0.13c3.55-0.02,6.49,0.71,6.87-0.07
																			c0.17-0.37-0.4-1.08-1.63-1.75c-1.22-0.67-3.1-1.22-5.23-1.23c-2.13-0.01-4.02,0.53-5.24,1.18
																			C249.03,96.21,248.45,96.92,248.62,97.29z"/>
																	</g>
																</g>
															</g>
														</g>
													</g>
												</g>
											</g>
										</g>
									</g>
								</g>
							</g>
						</g>
						<g>
							<g>
								<g>
									<g>
										<g>
											<g>
												<g>
													<g>
														<g>
															<g>
																<g>
																	<g>
																		<path class="st7" d="M220.53,101.25c0.6,0.62,2.58-0.3,5.05-0.59c2.46-0.38,4.62-0.03,5.03-0.79
																			c0.17-0.37-0.23-1.01-1.21-1.56c-0.97-0.54-2.53-0.91-4.23-0.68c-1.7,0.23-3.1,1-3.89,1.79
																			C220.47,100.21,220.26,100.94,220.53,101.25z"/>
																	</g>
																</g>
															</g>
														</g>
													</g>
												</g>
											</g>
										</g>
									</g>
								</g>
							</g>
						</g>
						<g>
							<g>
								<g>
									<g>
										<g>
											<g>
												<g>
													<g>
														<path class="st16" d="M282.65,117.11c0.32-0.18,12.94-5.36,13.92,7.98c0.98,13.34-12.61,11.57-12.67,11.18
															C283.85,135.89,282.65,117.11,282.65,117.11z"/>
													</g>
												</g>
											</g>
										</g>
									</g>
								</g>
							</g>
						</g>
						<g>
							<g>
								<g>
									<g>
										<g>
											<g>
												<g>
													<g>
														<g>
															<path class="st17" d="M287.61,130.92c0.06-0.05,0.24,0.15,0.65,0.3c0.4,0.15,1.06,0.22,1.74-0.09
																c1.37-0.62,2.39-2.94,2.28-5.35c-0.06-1.22-0.39-2.35-0.89-3.28c-0.48-0.95-1.16-1.58-1.88-1.66
																c-0.72-0.11-1.19,0.35-1.32,0.74c-0.15,0.39-0.05,0.65-0.12,0.67c-0.03,0.04-0.3-0.2-0.24-0.76
																c0.04-0.27,0.17-0.6,0.46-0.87c0.3-0.28,0.76-0.45,1.26-0.43c1.03,0,2.03,0.87,2.58,1.89
																c0.61,1.02,1.02,2.29,1.08,3.66c0.11,2.69-1.08,5.31-2.97,6.01c-0.92,0.31-1.72,0.09-2.15-0.2
																C287.66,131.24,287.57,130.94,287.61,130.92z"/>
														</g>
													</g>
												</g>
											</g>
										</g>
									</g>
								</g>
							</g>
						</g>
						<g>
							<g>
								<g>
									<g>
										<g>
											<g>
												<g>
													<g>
														<path class="st7" d="M222.54,81.02c-2.24-1.05,3.79-8.46,8.95-11.21c7.79-4.16,19.89-7.18,27.42-5.56
															c9.07,1.95,16.75,5.91,21.74,13.72c4.99,7.82,7.28,17.15,7.62,26.42c0.1,2.83,0,5.79-1.35,8.27
															c-1.67,3.07-5.13,5.16-4.71,9.22c0.15,1.48-0.17,3.01-1.12,4.16c-2.27,2.75-5.42,0.51-6.95-1.85
															c-3.27-5.04-4-11.26-4.64-17.23c-0.46-4.24-0.91-8.58,0.03-12.75c0.51-2.27,1.42-4.44,1.81-6.73
															c0.38-2.29,0.15-4.85-1.37-6.6c-0.25-0.29-0.65-0.64-1.15-1.03c-3.99-3.07-9.35-3.72-13.98-1.74
															c-7.34,3.14-19.92,7.94-23.44,5.6c-5.06-3.36-6.37-5.68-6.37-5.68L222.54,81.02z"/>
													</g>
												</g>
											</g>
										</g>
									</g>
								</g>
							</g>
						</g>
					</g>
				</g>
			</g>
			<g>
				<path class="st15" d="M208.92,198.08c-0.77,1.07-11.7,4.7-15.85,11.61c-4.15,6.91-8.25,37.93-8.25,37.93l-2.64,20.42
					c5.2,8.23,12.17,19.12,19.58,26.8L208.92,198.08z"/>
			</g>
			<g class="st10">
				<g>
					<path d="M291.05,228.03c0.46,4.16,0.93,8.37,2.36,12.31c1.43,3.93,3.94,7.63,7.61,9.66c1.53,0.85,3.27,1.41,4.55,2.6
						c1.38,1.28,2.07,3.14,3.32,4.55c1.45,1.64,3.55,2.55,5.61,3.29c6.11,2.17,12.14,3.2,18.62,2.97c0.2-2.14,0.21-10,0.41-12.14
						L291.05,228.03z"/>
				</g>
			</g>
			<g>
				<g>
					<g>
						<path class="st15" d="M324.7,183.06c0,0,13.78,4.08,17.82,9.95c4.04,5.87,11.19,28.63,12.66,32.85
							c1.47,4.22,0.18,14.01-2.57,21.04c-2.75,7.03-7.53,13.09-15.78,14.01c-8.25,0.92-21.29-3.85-24.22-6.97
							c-2.93-3.12-4.16-10.12-4.16-10.12c3.67-0.64,7.28-1.55,10.82-2.71"/>
					</g>
					<g>
						<g>
							<path class="st7" d="M319.26,241.1c0,0.01-0.06,0.03-0.17,0.08c-0.14,0.05-0.31,0.11-0.52,0.19
								c-0.46,0.16-1.15,0.39-2.06,0.66c-1.82,0.54-4.52,1.28-8.04,1.93l0.11-0.16c0.31,1.56,0.75,3.27,1.41,5.06
								c0.33,0.89,0.71,1.81,1.19,2.7c0.49,0.89,1.06,1.79,1.85,2.51c0.79,0.72,1.77,1.3,2.79,1.84c1.02,0.55,2.11,1.03,3.24,1.49
								c2.27,0.91,4.72,1.7,7.32,2.32c2.6,0.6,5.36,1.05,8.22,1.06c0.72,0.03,1.43-0.06,2.15-0.1c0.71-0.12,1.44-0.18,2.15-0.38
								c1.43-0.32,2.83-0.86,4.14-1.61c2.64-1.46,4.87-3.74,6.57-6.41c1.72-2.67,2.98-5.7,3.9-8.86c0.72-2.43,1.25-4.89,1.59-7.33
								c0.35-2.44,0.52-4.88,0.36-7.25c-0.09-1.19-0.31-2.31-0.72-3.42c-0.37-1.12-0.74-2.23-1.1-3.33
								c-0.73-2.19-1.45-4.34-2.15-6.43c-1.42-4.18-2.82-8.13-4.22-11.8c-1.43-3.65-2.76-7.07-4.43-9.94
								c-0.82-1.44-1.93-2.57-3.11-3.48c-1.16-0.94-2.36-1.69-3.51-2.35c-2.3-1.31-4.39-2.23-6.11-2.95
								c-1.72-0.71-3.08-1.21-4.01-1.54c-0.44-0.16-0.79-0.28-1.05-0.37c-0.24-0.08-0.36-0.13-0.36-0.14c0-0.01,0.13,0.02,0.37,0.09
								c0.27,0.08,0.62,0.19,1.07,0.32c0.94,0.3,2.31,0.76,4.05,1.45c1.74,0.69,3.85,1.6,6.18,2.89c1.16,0.65,2.38,1.4,3.57,2.34
								c1.2,0.91,2.38,2.08,3.22,3.55c1.72,2.9,3.07,6.32,4.52,9.97c1.42,3.67,2.84,7.62,4.27,11.8c0.71,2.09,1.43,4.24,2.17,6.43
								c0.37,1.1,0.74,2.2,1.11,3.32c0.41,1.11,0.66,2.34,0.75,3.55c0.17,2.43,0,4.9-0.35,7.36c-0.35,2.47-0.88,4.95-1.61,7.41
								c-0.94,3.2-2.21,6.27-3.97,9c-1.73,2.73-4.03,5.07-6.76,6.57c-1.35,0.77-2.8,1.32-4.27,1.65c-0.73,0.2-1.48,0.27-2.21,0.39
								c-0.74,0.04-1.48,0.13-2.2,0.1c-2.92-0.02-5.71-0.48-8.33-1.1c-2.62-0.63-5.09-1.44-7.37-2.37
								c-1.14-0.47-2.24-0.96-3.27-1.53c-1.03-0.55-2.02-1.15-2.86-1.91c-0.83-0.77-1.41-1.71-1.9-2.62
								c-0.49-0.92-0.87-1.85-1.19-2.76c-0.64-1.82-1.07-3.54-1.37-5.12l-0.03-0.13l0.14-0.02c3.52-0.6,6.22-1.3,8.05-1.79
								c0.89-0.25,1.58-0.45,2.08-0.59c0.22-0.06,0.39-0.11,0.53-0.15C319.2,241.1,319.26,241.09,319.26,241.1z"/>
						</g>
					</g>
				</g>
				<g>
					<g>
						<path class="st7" d="M344.55,233.73c-0.1,0.02-0.42-1.7-1.57-4.24c-1.13-2.53-3.16-5.88-6.22-8.83
							c-1.52-1.48-3.21-2.6-4.83-3.44c-0.42-0.19-0.82-0.37-1.22-0.54c-0.39-0.18-0.81-0.26-1.19-0.39
							c-0.77-0.28-1.52-0.35-2.21-0.46c-0.17-0.03-0.34-0.05-0.5-0.08c-0.16,0-0.32,0-0.48,0c-0.31,0-0.6,0-0.88,0
							c-0.55-0.03-1.02,0.07-1.41,0.12c-0.77,0.11-1.2,0.16-1.21,0.12c-0.01-0.03,0.41-0.15,1.18-0.32
							c0.39-0.09,0.86-0.22,1.42-0.21c0.29-0.01,0.59-0.03,0.9-0.04c0.16-0.01,0.33-0.01,0.49-0.02c0.17,0.02,0.34,0.04,0.52,0.06
							c0.71,0.09,1.49,0.14,2.29,0.41c0.4,0.12,0.83,0.2,1.24,0.38c0.41,0.18,0.83,0.36,1.26,0.54c1.68,0.84,3.43,1.98,4.98,3.49
							c3.12,3.01,5.14,6.45,6.2,9.06c0.27,0.65,0.51,1.25,0.66,1.79c0.16,0.54,0.32,0.99,0.38,1.38
							C344.51,233.29,344.58,233.72,344.55,233.73z"/>
					</g>
				</g>
				<g>
					<g>
						<path class="st7" d="M352.07,221.36c-0.11,0.04-0.49-1.77-2.08-4.2c-1.56-2.39-4.54-5.38-8.78-6.65
							c-4.23-1.29-8.34-0.89-11.21-0.62c-1.37,0.16-2.51,0.3-3.43,0.41c-0.81,0.1-1.26,0.14-1.27,0.1c-0.01-0.04,0.43-0.14,1.23-0.3
							c0.8-0.16,1.96-0.37,3.41-0.58c2.87-0.37,7.04-0.84,11.4,0.48c2.17,0.66,4.07,1.77,5.56,3.04c1.51,1.26,2.6,2.66,3.38,3.91
							c0.78,1.26,1.22,2.37,1.47,3.16C352.02,220.91,352.09,221.36,352.07,221.36z"/>
					</g>
				</g>
				<g>
					<g>
						<path class="st7" d="M341.68,206.57c-0.04,0.17-3.63-0.99-8.19-0.78c-4.57,0.16-8.06,1.59-8.11,1.42
							c-0.02-0.06,0.81-0.49,2.26-0.95c1.44-0.46,3.51-0.9,5.83-1c2.32-0.09,4.41,0.19,5.89,0.54
							C340.83,206.15,341.69,206.51,341.68,206.57z"/>
					</g>
				</g>
				<g>
					<g>
						<path class="st7" d="M319.38,186.5c0.08,0.01-0.12,1.41-0.28,3.66c-0.16,2.26-0.24,5.39,0.07,8.83
							c0.28,3.3,0.88,6.27,1.41,8.42l-0.36,0.12c-0.41-1.16-0.73-2.09-0.94-2.75c-0.21-0.65-0.31-1.02-0.28-1.03
							c0.04-0.01,0.2,0.33,0.47,0.96s0.65,1.55,1.1,2.69l-0.36,0.12c-0.62-2.15-1.28-5.13-1.56-8.47c-0.31-3.47-0.18-6.64,0.08-8.91
							c0.13-1.13,0.27-2.04,0.4-2.67C319.26,186.84,319.34,186.5,319.38,186.5z"/>
					</g>
				</g>
				<g>
					<g>
						<path class="st16" d="M299.89,160.85c0,0-7.15,0-8.05,8.6c-0.69,6.6,0,13.01,0,15.9s-1.27,13.17-1.27,13.17
							s-4.88,4.33-4.8,9.53c0.08,5.23,3.8,6.82,3.8,6.82s-2.27,4.95,2.06,9.5c0,0-2.08,4.79-0.37,8.02c1.32,2.5,4.29,3.33,4.29,3.33
							s-2.11,4.72,2.96,6.71c3,1.17,7.43,0.91,7.43,0.91l5.34-0.1l4.7,2.6c0,0,8.05-3.51,8.26-8.26c0.21-4.75,0.21-4.75,0.21-4.75
							s-2.27-7.84-2.48-10.32c-0.21-2.48,1.86-8.46,0.62-11.15c-1.24-2.68-5.57-4.26-5.16-8.01c0.41-3.75-0.41-5.82-2.27-7.88
							c-1.86-2.06-10.07-6.19-10.07-6.19s-2.11-5.99-2.11-10.12C302.99,175.02,307.12,162.42,299.89,160.85z"/>
					</g>
					<g>
						<g>
							<path class="st17" d="M304.71,190.83c0.04,0.06-0.72,0.55-1.98,1.28c-1.26,0.74-3.01,1.72-4.96,2.78
								c-1.95,1.06-3.74,2-5.04,2.65s-2.13,1.03-2.16,0.96c-0.03-0.06,0.73-0.55,1.98-1.29c1.26-0.74,3.01-1.72,4.96-2.78
								c1.95-1.06,3.73-1.99,5.04-2.65C303.85,191.14,304.68,190.76,304.71,190.83z"/>
						</g>
					</g>
					<g>
						<g>
							<path class="st17" d="M309.41,206.99c0.02,0.03-0.2,0.23-0.62,0.56c-0.42,0.34-1.05,0.79-1.86,1.31
								c-1.61,1.05-3.96,2.33-6.7,3.38c-2.75,1.05-5.35,1.66-7.25,1.96c-0.95,0.15-1.72,0.24-2.26,0.27c-0.54,0.03-0.83,0.04-0.84,0
								c-0.01-0.08,1.16-0.24,3.03-0.63c1.87-0.39,4.42-1.05,7.13-2.08c2.71-1.04,5.05-2.25,6.7-3.21
								C308.38,207.59,309.36,206.92,309.41,206.99z"/>
						</g>
					</g>
					<g>
						<g>
							<path class="st17" d="M315.55,201.85c0.13,0.04-0.14,0.96-0.99,1.73c-0.84,0.77-1.78,0.95-1.81,0.82
								c-0.05-0.14,0.72-0.51,1.46-1.21C314.97,202.51,315.41,201.79,315.55,201.85z"/>
						</g>
					</g>
					<g>
						<g>
							<path class="st17" d="M312.6,221.15c0.02,0.06-1.11,0.52-2.99,1.1c-1.88,0.58-4.53,1.24-7.5,1.72
								c-2.97,0.48-5.69,0.68-7.66,0.72c-1.97,0.05-3.19-0.04-3.19-0.1c0-0.08,1.21-0.13,3.17-0.27c1.95-0.14,4.65-0.39,7.6-0.87
								c2.95-0.48,5.58-1.08,7.48-1.56C311.41,221.41,312.58,221.08,312.6,221.15z"/>
						</g>
					</g>
					<g>
						<g>
							<path class="st17" d="M319.14,219.96c-0.07-0.04,0.24-0.59,0.55-1.53c0.31-0.94,0.57-2.3,0.39-3.79
								c-0.18-1.49-0.75-2.76-1.27-3.59c-0.52-0.84-0.95-1.3-0.89-1.36c0.04-0.05,0.57,0.32,1.2,1.15c0.62,0.82,1.3,2.15,1.49,3.74
								c0.19,1.59-0.15,3.04-0.56,3.98C319.62,219.51,319.19,220,319.14,219.96z"/>
						</g>
					</g>
					<g>
						<g>
							<path class="st17" d="M312.97,235.63c0.01,0.06-0.95,0.33-2.54,0.6c-1.59,0.27-3.82,0.5-6.29,0.49
								c-2.47-0.01-4.69-0.25-6.28-0.53c-1.59-0.27-2.55-0.55-2.54-0.61c0.02-0.08,1,0.07,2.59,0.25c1.59,0.18,3.79,0.36,6.23,0.37
								c2.44,0,4.64-0.16,6.24-0.34C311.97,235.69,312.96,235.55,312.97,235.63z"/>
						</g>
					</g>
					<g>
						<g>
							<path class="st17" d="M300.28,179.26c0.03,0.06-0.32,0.32-0.99,0.56c-0.66,0.24-1.66,0.41-2.74,0.28
								c-1.08-0.13-2.01-0.53-2.6-0.92c-0.59-0.39-0.87-0.73-0.83-0.78c0.09-0.13,1.45,0.96,3.49,1.18
								C298.64,179.85,300.22,179.12,300.28,179.26z"/>
						</g>
					</g>
					<g>
						<g>
							<path class="st17" d="M320.62,220.57c0.03,0,0.09,0.27,0.11,0.77c0.02,0.5-0.05,1.23-0.25,2.11c-0.19,0.88-0.52,1.89-0.84,3
								c-0.3,1.11-0.59,2.37-0.37,3.64c0.17,1.26,1.12,2.29,1.27,3.58c0.17,1.26-0.33,2.33-0.79,3.09
								c-0.48,0.77-0.95,1.32-1.29,1.68c-0.34,0.36-0.55,0.55-0.57,0.52c-0.08-0.06,0.69-0.88,1.55-2.39
								c0.4-0.75,0.81-1.75,0.63-2.84c-0.12-1.09-1.08-2.11-1.31-3.56c-0.24-1.42,0.1-2.74,0.43-3.86c0.35-1.13,0.71-2.11,0.94-2.96
								C320.63,221.67,320.53,220.57,320.62,220.57z"/>
						</g>
					</g>
				</g>
				<g>
					<g>
						<path class="st7" d="M323.31,226.85c0.03-0.01,0.16,0.32,0.34,0.94c0.18,0.61,0.42,1.51,0.65,2.64
							c0.22,1.13,0.44,2.48,0.48,4.01c0.03,1.52-0.12,3.26-0.9,4.9c-0.8,1.61-1.96,2.88-3.07,3.92c-1.12,1.03-2.23,1.85-3.18,2.49
							c-0.95,0.64-1.74,1.12-2.3,1.44c-0.56,0.31-0.88,0.47-0.9,0.44c-0.04-0.07,1.15-0.82,2.99-2.17c0.91-0.68,1.98-1.51,3.06-2.54
							c1.07-1.04,2.18-2.27,2.93-3.79c0.73-1.52,0.9-3.18,0.89-4.67c-0.01-1.49-0.19-2.83-0.36-3.96
							C323.56,228.24,323.23,226.87,323.31,226.85z"/>
					</g>
				</g>
			</g>
			<g>
				<g>
					<path class="st7" d="M247.86,193.56c-0.02,0.03-0.43-0.28-1.16-0.87c-0.79-0.65-1.81-1.5-3.03-2.51
						c-0.64-0.54-1.34-1.13-2.08-1.75c-0.37-0.31-0.75-0.64-1.18-0.85c-0.43-0.21-0.91-0.27-1.34-0.05
						c-0.86,0.45-1.44,1.56-2.18,2.48c-0.71,0.96-1.45,1.95-2.2,2.97c-1.21,1.62-2.37,3.17-3.44,4.61l-0.65,0.86l0.21-1.06
						c0.7-3.62,1.68-6.64,2.49-8.72c0.4-1.04,0.76-1.86,1.02-2.41c0.26-0.55,0.42-0.84,0.44-0.83c0.03,0.01-0.08,0.32-0.29,0.89
						c-0.21,0.57-0.52,1.4-0.88,2.45c-0.72,2.11-1.63,5.12-2.29,8.71l-0.44-0.19c1.07-1.44,2.22-3,3.42-4.62
						c0.76-1.01,1.5-2,2.21-2.96c0.36-0.48,0.71-0.95,1.06-1.41c0.36-0.46,0.76-0.93,1.32-1.2c0.57-0.29,1.26-0.19,1.75,0.07
						c0.5,0.26,0.89,0.61,1.26,0.93c0.72,0.64,1.4,1.24,2.03,1.8c1.18,1.06,2.16,1.95,2.92,2.63
						C247.51,193.17,247.88,193.54,247.86,193.56z"/>
				</g>
			</g>
			<g>
				<g>
					<path class="st7" d="M290.08,185.11c0.01,0.01-0.12,0.13-0.39,0.35c-0.32,0.25-0.71,0.55-1.18,0.92
						c-1.1,0.83-2.59,1.95-4.41,3.32c-3.81,2.8-8.98,6.61-14.71,10.83l-0.22,0.16l-0.15-0.23c-0.12-0.18-0.24-0.38-0.36-0.57
						c-2.71-4.28-5.24-8.27-7.38-11.66l0.27,0.09c-3.53,1.4-6.31,2.94-8.2,4.09c-0.95,0.57-1.67,1.05-2.17,1.37
						c-0.5,0.32-0.76,0.49-0.78,0.47c-0.01-0.02,0.23-0.22,0.7-0.58c0.47-0.36,1.18-0.87,2.11-1.48c1.86-1.21,4.62-2.82,8.17-4.28
						l0.17-0.07l0.1,0.16c2.16,3.37,4.71,7.35,7.45,11.61c0.12,0.2,0.25,0.39,0.36,0.57l-0.37-0.07c5.77-4.17,10.97-7.93,14.81-10.7
						c1.86-1.31,3.38-2.39,4.5-3.18c0.5-0.34,0.91-0.62,1.24-0.84C289.92,185.18,290.07,185.09,290.08,185.11z"/>
				</g>
			</g>
			<g>
				<g>
					<path class="st7" d="M200.33,224.88c0.02,0,0.04,0.24,0.05,0.71c0.01,0.51,0.03,1.19,0.06,2.02c0.03,1.82,0.08,4.35,0.14,7.44
						c0.12,6.28,0.37,14.96,0.7,24.55c0.33,9.59,0.52,18.28,0.54,24.56c0.01,3.14,0,5.69-0.03,7.45c-0.02,0.84-0.03,1.51-0.04,2.02
						c-0.02,0.46-0.03,0.71-0.05,0.71c-0.02,0-0.04-0.24-0.05-0.71c-0.01-0.51-0.03-1.19-0.06-2.02c-0.03-1.82-0.08-4.34-0.14-7.44
						c-0.12-6.28-0.37-14.96-0.7-24.55c-0.33-9.59-0.52-18.27-0.54-24.56c-0.01-3.14,0-5.69,0.03-7.45
						c0.02-0.84,0.03-1.51,0.04-2.02C200.3,225.12,200.32,224.88,200.33,224.88z"/>
				</g>
			</g>
			<g>
				<g>
					<path class="st7" d="M248.19,315.2c-0.01,0-0.03-0.1-0.05-0.29c-0.02-0.22-0.06-0.5-0.1-0.85c-0.08-0.79-0.18-1.88-0.32-3.27
						c-0.28-2.84-0.6-6.96-0.92-12.05c-0.33-5.09-0.59-11.16-0.77-17.91c-0.15-6.75-0.18-14.17-0.02-21.95
						c0.18-7.79,0.54-15.2,0.98-21.94c0.47-6.73,1-12.79,1.54-17.86c0.54-5.07,1.04-9.17,1.44-12c0.2-1.38,0.35-2.47,0.46-3.25
						c0.05-0.35,0.1-0.62,0.13-0.84c0.03-0.19,0.05-0.29,0.06-0.29c0.01,0,0.01,0.1-0.01,0.29c-0.02,0.22-0.05,0.5-0.08,0.85
						c-0.09,0.78-0.21,1.88-0.37,3.26c-0.34,2.83-0.78,6.94-1.27,12.01c-0.5,5.07-0.99,11.13-1.43,17.86
						c-0.41,6.73-0.76,14.14-0.94,21.92c-0.16,7.78-0.14,15.19-0.02,21.93c0.15,6.74,0.37,12.81,0.65,17.9
						c0.27,5.09,0.54,9.21,0.75,12.06c0.09,1.39,0.17,2.49,0.22,3.28c0.02,0.35,0.03,0.63,0.04,0.85
						C248.2,315.1,248.19,315.2,248.19,315.2z"/>
				</g>
			</g>
			<g>
				<g>
					<path class="st7" d="M218.39,151.52c0,0-0.35,0.25-1.06,0.71c-0.71,0.46-1.76,1.14-3.13,2.03c-1.37,0.89-2.96,2.16-4.9,3.57
						c-0.96,0.72-1.91,1.59-2.98,2.46c-0.53,0.44-1.07,0.9-1.63,1.37c-0.55,0.48-1.08,1.02-1.65,1.55
						c-4.55,4.23-9.71,9.91-14.46,17.36c-0.58,0.94-1.18,1.89-1.78,2.86c-0.63,0.96-1.11,2.02-1.69,3.04
						c-0.54,1.05-1.15,2.08-1.67,3.18c-0.5,1.11-1.02,2.23-1.54,3.37c-0.25,0.57-0.54,1.14-0.77,1.73
						c-0.23,0.59-0.45,1.19-0.68,1.79c-0.45,1.21-0.94,2.42-1.38,3.66c-0.74,2.54-1.67,5.09-2.23,7.82
						c-1.39,5.38-2.15,11.18-2.46,17.23c-0.35,6.05,0.01,12.39,1.05,18.84c2.11,12.87,7.18,26.27,15.81,38.18
						c8.52,11.95,20.56,22.34,35.01,29.17c14.43,6.87,31.31,9.84,48.17,8.1c16.88-1.75,32.7-8.4,45.37-18.11
						c3.19-2.4,6.13-5.07,8.94-7.8c0.68-0.71,1.35-1.41,2.03-2.12c0.68-0.7,1.34-1.41,1.97-2.16c0.64-0.73,1.27-1.47,1.9-2.2
						c0.6-0.76,1.19-1.52,1.79-2.27c4.75-6.05,8.5-12.64,11.47-19.35c2.96-6.72,4.92-13.67,6.12-20.51
						c0.62-3.42,0.96-6.84,1.19-10.21c0.11-1.68,0.1-3.36,0.16-5.02c-0.03-1.66-0.12-3.3-0.18-4.94c-0.03-0.82-0.06-1.63-0.1-2.44
						c-0.05-0.81-0.18-1.6-0.27-2.4c-0.19-1.59-0.38-3.17-0.57-4.74c-0.25-1.55-0.61-3.08-0.9-4.59c-0.31-1.51-0.57-3.03-1.04-4.47
						c-0.42-1.46-0.83-2.9-1.25-4.33c-0.18-0.72-0.44-1.41-0.71-2.1c-0.26-0.69-0.52-1.37-0.77-2.05c-0.53-1.35-0.97-2.73-1.56-4.02
						c-0.6-1.29-1.2-2.56-1.79-3.82c-4.83-10.02-11.03-18.12-17.25-24.37c-6.25-6.27-12.53-10.66-17.83-13.89
						c-1.35-0.77-2.62-1.51-3.82-2.19c-0.59-0.36-1.19-0.64-1.78-0.92c-0.58-0.28-1.14-0.54-1.68-0.8
						c-1.08-0.52-2.08-0.99-2.99-1.43c-0.9-0.46-1.79-0.72-2.54-1.03c-1.52-0.59-2.68-1.04-3.48-1.35
						c-0.78-0.31-1.18-0.48-1.18-0.48s0.41,0.14,1.2,0.43c0.8,0.3,1.97,0.73,3.5,1.3c0.76,0.31,1.65,0.56,2.56,1.01
						c0.92,0.43,1.92,0.9,3.01,1.41c0.54,0.25,1.11,0.52,1.69,0.79c0.59,0.27,1.2,0.55,1.79,0.91c1.2,0.68,2.48,1.41,3.84,2.18
						c5.32,3.22,11.64,7.59,17.93,13.86c6.26,6.25,12.51,14.36,17.38,24.42c0.59,1.26,1.19,2.54,1.8,3.83
						c0.6,1.29,1.04,2.68,1.58,4.03c0.26,0.68,0.52,1.37,0.78,2.06c0.27,0.69,0.53,1.38,0.71,2.11c0.42,1.43,0.83,2.88,1.26,4.34
						c0.47,1.45,0.74,2.97,1.06,4.49c0.3,1.52,0.66,3.05,0.91,4.61c0.19,1.57,0.39,3.16,0.58,4.76c0.09,0.8,0.22,1.6,0.27,2.41
						c0.03,0.81,0.07,1.63,0.1,2.45c0.06,1.64,0.15,3.29,0.19,4.96c-0.05,1.67-0.05,3.35-0.16,5.04c-0.22,3.38-0.56,6.82-1.18,10.26
						c-1.2,6.88-3.17,13.86-6.13,20.63c-2.97,6.75-6.74,13.38-11.51,19.46c-0.6,0.76-1.2,1.52-1.8,2.28
						c-0.64,0.73-1.27,1.47-1.91,2.21c-0.63,0.75-1.29,1.47-1.98,2.17c-0.68,0.71-1.36,1.42-2.04,2.13
						c-2.83,2.74-5.78,5.43-8.99,7.85c-12.73,9.78-28.64,16.46-45.62,18.22c-16.95,1.76-33.93-1.23-48.44-8.15
						c-14.54-6.88-26.63-17.33-35.19-29.35c-8.66-11.98-13.75-25.46-15.85-38.39c-1.04-6.48-1.39-12.84-1.03-18.93
						c0.32-6.08,1.1-11.9,2.5-17.3c0.57-2.74,1.51-5.3,2.26-7.84c0.45-1.25,0.93-2.46,1.39-3.67c0.23-0.6,0.46-1.2,0.69-1.8
						c0.24-0.59,0.52-1.16,0.78-1.73c0.52-1.14,1.04-2.27,1.55-3.38c0.52-1.1,1.14-2.14,1.69-3.19c0.58-1.03,1.07-2.09,1.7-3.05
						c0.61-0.97,1.21-1.93,1.79-2.86c4.79-7.46,9.99-13.14,14.57-17.35c0.57-0.53,1.11-1.07,1.66-1.55
						c0.57-0.47,1.11-0.93,1.65-1.37c1.07-0.87,2.04-1.73,3-2.45c1.95-1.39,3.55-2.65,4.94-3.53c1.38-0.87,2.44-1.54,3.16-1.99
						C218.02,151.73,218.39,151.52,218.39,151.52z"/>
				</g>
			</g>
		</g>
	</g>
</g>
</svg>
