<svg xmlns="http://www.w3.org/2000/svg" viewBox="0 0 2684.6 1832.25"><defs><style>.cls-1{fill:#4785b9;opacity:0.26;}.cls-2{fill:#95a6db;}.cls-3{fill:#2c2858;}.cls-4{fill:#31548d;}.cls-5{fill:#020205;}.cls-6{fill:#201d40;}.cls-7{fill:#c4204a;}.cls-8{fill:#e62552;}.cls-9{fill:#f37a50;}.cls-10{fill:#de623c;}.cls-11{fill:#fff;}.cls-12{fill:#faba23;}.cls-13{fill:#fad332;}.cls-14{fill:#faee6c;}.cls-15{fill:#e3eaff;}.cls-16{fill:#4ead60;}.cls-17{fill:#0e6a41;}.cls-18{fill:#f9cd2d;}.cls-19{fill:#f9f93a;}.cls-20{fill:#d6224c;}.cls-21{fill:#fac832;}</style></defs><g id="Layer_2" data-name="Layer 2"><g id="Слой_1" data-name="Слой 1"><path class="cls-1" d="M2460.64,1832.25c116-185.06,235.55-333.1,223.06-595.43C2673,1012,2419.21,947.08,2351.83,851.42c-82.46-117.07,14.27-339-132-538.83-160.22-218.84-416.91-214-628.05-103.49-154.18,80.72-312.47,108.52-467.47,60.67-262-80.88-620.91-103.49-656.59,217.67-24.82,223.33-146.31,292.62-339,442.49-259.93,202.17-62.12,601.84,38.08,884.32Z"/><rect class="cls-2" x="23.77" y="1805.84" width="2448.92" height="26.41" rx="12.06"/><path class="cls-3" d="M977.16,1805.12l-393.49.25a112.37,112.37,0,0,1-112.44-112.31l-.61-962.9a112.37,112.37,0,0,1,112.3-112.45l393.49-.25a112.37,112.37,0,0,1,112.44,112.3l.61,962.91A112.37,112.37,0,0,1,977.16,1805.12Z"/><path class="cls-4" d="M981.21,1785.87l-401.62.25a79,79,0,0,1-79.07-79l-.62-984a79,79,0,0,1,79-79.07l401.62-.25a79,79,0,0,1,79.07,79l.62,984A79,79,0,0,1,981.21,1785.87Z"/><path class="cls-3" d="M467,932.55h0A17.54,17.54,0,0,1,449.44,915V824.1A17.53,17.53,0,0,1,467,806.57h0a17.53,17.53,0,0,1,17.53,17.53V915A17.53,17.53,0,0,1,467,932.55Z"/><path class="cls-3" d="M1092.22,932.55h0A17.53,17.53,0,0,1,1074.69,915V824.1a17.53,17.53,0,0,1,17.53-17.53h0a17.53,17.53,0,0,1,17.53,17.53V915A17.53,17.53,0,0,1,1092.22,932.55Z"/><path class="cls-3" d="M2042,1805.12l-393.48.25a112.38,112.38,0,0,1-112.45-112.31l-.61-962.9a112.38,112.38,0,0,1,112.31-112.45l393.48-.25a112.37,112.37,0,0,1,112.45,112.3l.61,962.91A112.37,112.37,0,0,1,2042,1805.12Z"/><path class="cls-4" d="M2046.07,1785.87l-401.62.25a79,79,0,0,1-79.07-79l-.62-984a79,79,0,0,1,79-79.07l401.62-.25a79,79,0,0,1,79.07,79l.62,984A79,79,0,0,1,2046.07,1785.87Z"/><path class="cls-3" d="M1531.83,932.55h0A17.53,17.53,0,0,1,1514.3,915V824.1a17.53,17.53,0,0,1,17.53-17.53h0a17.53,17.53,0,0,1,17.54,17.53V915A17.54,17.54,0,0,1,1531.83,932.55Z"/><path class="cls-3" d="M2157.08,932.55h0A17.54,17.54,0,0,1,2139.54,915V824.1a17.53,17.53,0,0,1,17.54-17.53h0a17.53,17.53,0,0,1,17.53,17.53V915A17.53,17.53,0,0,1,2157.08,932.55Z"/><path class="cls-3" d="M1531.83,1067h0a17.53,17.53,0,0,1-17.53-17.53V958.58A17.53,17.53,0,0,1,1531.83,941h0a17.54,17.54,0,0,1,17.54,17.54v90.91A17.53,17.53,0,0,1,1531.83,1067Z"/><path class="cls-5" d="M286.15,1743.92c-13.22,55.52-60.47,25-50.59,60.07a6.27,6.27,0,0,0,5.87,4.42l27.75,1.06a12.45,12.45,0,0,0,7.53-2.17c14.64-10,24.57-24.14,56.19-25.86-.24-13.5.37-32.77-4.09-39.66Z"/><path class="cls-6" d="M359.28,1354.34s-80.7,123.08-91.84,161.37,12.16,103.16,7.95,233.91c25.22,6.54,58.85.91,58.85.91s20.24-164-3.57-202.72C366.35,1493.38,456,1374.54,456,1374.54Z"/><path class="cls-5" d="M404,1761.82c-20.54,28-71.79,11.42-69.74,48.94,77.69-1.24,110-1.07,110-1.07-.18-8.62-1.92-29.07-3.79-37.06Z"/><path class="cls-3" d="M380,1329.45s-25.73,200.82-19.79,240.25,24.35,70.29,25,201.1c25.45,5.61,64.34,10.64,64.34,10.64s16.4-157.77-17.33-201.21c9.56-64.38,55.12-226.3,55.12-226.3Z"/><path class="cls-7" d="M248.13,1241.05l-31.37-35.18a3.72,3.72,0,0,0-2.68-1.22l-25.83-.15c-.74,0-3,4.07-2.52,4.62l22.13,19.66a.73.73,0,0,0,.38.24l37.95,14.08C247,1243.35,248.7,1241.68,248.13,1241.05Z"/><path class="cls-8" d="M245.73,1243.41l-29.89-33.17a3.68,3.68,0,0,0-2.67-1.22l-26.63-.47a.84.84,0,0,0-.64,1.4l21,23.2a.73.73,0,0,0,.38.24l37.53,11.39A.84.84,0,0,0,245.73,1243.41Z"/><path class="cls-9" d="M304.79,1273.66l-21.62-10.59s-21.32-21.58-24.49-26.4c-4.74-2.4-13.71-8.45-15.73-8.68a33.39,33.39,0,0,0-6.15.39l10,11.39s-4.76.94-10.82-2.91-16.78-14.18-22-12.18l-1.86,1.65s-3.32-3.54-6.44-2.23,3.09,16.9,20.71,33.41c1.17,4.4,7,12.13,7,12.13L269,1282.16Z"/><path class="cls-7" d="M211,1215.25c1.27,1.26,3.09,1.5,4.07.52s.75-2.8-.52-4.07-3.09-1.5-4.06-.52S209.71,1214,211,1215.25Z"/><path class="cls-9" d="M405.44,1114.71c-6.41,8.32,43.82,17.36,50.56.08s-4.83-64.79-4.83-64.79l-45.81,9.72S413.79,1103.9,405.44,1114.71Z"/><ellipse class="cls-9" cx="408.92" cy="1016.7" rx="52.55" ry="66.9" transform="translate(-103.87 48.23) rotate(-5.99)"/><path d="M373.72,1033a5.47,5.47,0,1,1-3.3-7A5.48,5.48,0,0,1,373.72,1033Z"/><path d="M409.59,1025.17a5.92,5.92,0,1,1-3.58-7.58A5.94,5.94,0,0,1,409.59,1025.17Z"/><path class="cls-10" d="M384.16,1031.86c-1.16,8.61-2.77,19.21-2.77,19.21s5.66,6,15.05,1.84c-4.7.16-9.81-.74-10.58-6.73S384.16,1031.86,384.16,1031.86Z"/><path class="cls-5" d="M372.11,1020.51a2.11,2.11,0,0,1-2.08,0,6,6,0,0,0-4.48-.38c-1.5.57-2.71,2.05-3.58,4.39a2.1,2.1,0,1,1-3.93-1.46c1.32-3.55,3.36-5.86,6.07-6.88a10.37,10.37,0,0,1,7.93.64,2.1,2.1,0,0,1,.83,2.85A2.14,2.14,0,0,1,372.11,1020.51Z"/><path class="cls-5" d="M399.4,1014.53a2.09,2.09,0,0,0,2-.64,6.11,6.11,0,0,1,4.1-1.83c1.61,0,3.24,1,4.83,3a2.1,2.1,0,1,0,3.23-2.68c-2.41-2.91-5.1-4.43-8-4.49a10.35,10.35,0,0,0-7.27,3.21,2.1,2.1,0,0,0,1.13,3.46Z"/><path class="cls-5" d="M450.45,1034.55c-19-15.91-13.76-40.23-13.76-40.23-9.22.6-11.8,4.54-11.8,4.54-7.42-8.51-5.61-16.53-5.61-16.53-20-2.18-25.84,12-41.09,20.3-20.89,11.42-50.88,9.94-60.81-16.64a4.82,4.82,0,0,1,6.1-6.25,21.31,21.31,0,0,0,13.13.28,22.74,22.74,0,0,1-8.31-11.26,4.82,4.82,0,0,1,6.71-5.7c5.69,2.62,15.29,4,29.88-3.07,9.71-4.67,28.71-27.35,44.15-28.08,12.63-.6,24.82,7,32.8,20.43,0,0,30.12-4.86,41.75,26.6,11.42,30.9-31.4,78.64-31.4,78.64S455.48,1039.45,450.45,1034.55Z"/><path class="cls-11" d="M386.49,1067a1.61,1.61,0,0,1,.48-2.92,113.89,113.89,0,0,0,28.36-10.63,1.61,1.61,0,0,1,2.28,1.88c-1.2,4.19-4.36,11-12.46,14.09S390.15,1069.34,386.49,1067Z"/><path class="cls-9" d="M436.92,1012.91c-6.19,6.1-7.15,15.15-2.16,20.21s14.06,4.22,20.24-1.88,7.15-15.16,2.16-20.22S443.1,1006.8,436.92,1012.91Z"/><path class="cls-10" d="M442.93,1030.52a2.05,2.05,0,0,1-.74-.48c-3-3.17-3.73-7-1.89-10.38a9.15,9.15,0,0,1,9.56-4.59,1.9,1.9,0,1,1-.76,3.72,5.41,5.41,0,0,0-5.47,2.71c-1,1.85-.56,4,1.31,5.92a1.9,1.9,0,0,1-2,3.1Z"/><path class="cls-4" d="M349.61,1369.08c35.83,7.31,100.25,19.93,134.32,6.65,12.89-18.51,16.16-123.18,16.16-123.18,3.73-107.74-9.19-123.73-38.33-159.83-12.23,5.62-42.83,10.41-56.29,10.52,0,0-30.49,42.32-36.44,73.06-6,31.17-6.71,86.58-7.27,118.33C361.14,1329.88,354.17,1346.87,349.61,1369.08Z"/><path class="cls-4" d="M466,1125.43c21,40.8,16.22,86-44.72,174.92-42.68-3.72-51-39.29-51-39.29s11.73-44.16,27-99.71S456.83,1107.57,466,1125.43Z"/><path class="cls-4" d="M279.69,1252.55l91.38,7.29s39.19-7.15,50.21,40.51c-19.62,15.27-70.24,21-153.29-9.83C276.78,1278.56,279.69,1252.55,279.69,1252.55Z"/><polygon class="cls-11" points="405.75 1100.21 404.88 1124.79 466.7 1098.87 459.21 1078.99 405.75 1100.21"/><path class="cls-12" d="M867.15,504.74a91.2,91.2,0,1,1-47-120.12A91.19,91.19,0,0,1,867.15,504.74Z"/><path class="cls-13" d="M852.23,498.21c-18,42.27-71.77,58.05-109.85,32.51a75.11,75.11,0,0,1-32.83-74c7.08-48.57,60.33-77,104.11-57.21C850.91,415.49,869.08,460.44,852.23,498.21Z"/><path class="cls-12" d="M1030.74,240.18a91.2,91.2,0,1,1-47-120.12A91.2,91.2,0,0,1,1030.74,240.18Z"/><path class="cls-13" d="M1015.83,233.64c-18,42.27-71.78,58.05-109.85,32.51a75.08,75.08,0,0,1-32.83-74c7.08-48.57,60.33-77,104.1-57.21C1014.51,150.92,1032.68,195.87,1015.83,233.64Z"/><circle class="cls-12" cx="1643.36" cy="203.6" r="91.2" transform="translate(-11.72 256.3) rotate(-8.89)"/><path class="cls-13" d="M1712,233.64c-18,42.27-71.78,58.05-109.85,32.51a75.08,75.08,0,0,1-32.83-74c7.08-48.57,60.33-77,104.1-57.21C1710.66,150.92,1728.83,195.87,1712,233.64Z"/><path class="cls-12" d="M1912.75,504.74a91.2,91.2,0,1,1-47-120.12A91.19,91.19,0,0,1,1912.75,504.74Z"/><path class="cls-13" d="M1897.84,498.21c-18,42.27-71.78,58.05-109.85,32.51a75.07,75.07,0,0,1-32.83-74c7.08-48.57,60.33-77,104.1-57.21C1896.52,415.49,1914.69,460.44,1897.84,498.21Z"/><path class="cls-12" d="M1405.76,127.8a91.2,91.2,0,1,1-47-120.12A91.2,91.2,0,0,1,1405.76,127.8Z"/><path class="cls-13" d="M1390.84,121.27c-18,42.26-71.77,58-109.84,32.51a75.07,75.07,0,0,1-32.83-74c7.08-48.57,60.33-77,104.1-57.21C1389.53,38.55,1407.7,83.5,1390.84,121.27Z"/><path class="cls-4" d="M1683.89,610.77a8,8,0,0,1-8-8c0-6.51-.16-13.1-.49-19.59a8,8,0,0,1,16-.81c.34,6.75.51,13.61.51,20.4A8,8,0,0,1,1683.89,610.77Z"/><path class="cls-4" d="M1679.22,550.51a8,8,0,0,1-7.9-6.76,379.28,379.28,0,0,0-8.18-38.77,8,8,0,1,1,15.46-4.12,392,392,0,0,1,8.53,40.41,8,8,0,0,1-6.67,9.15A8.73,8.73,0,0,1,1679.22,550.51Zm-763.59-.33a8.89,8.89,0,0,1-1.25-.1,8,8,0,0,1-6.66-9.15,396.35,396.35,0,0,1,8.56-40.41,8,8,0,1,1,15.46,4.14,377.55,377.55,0,0,0-8.22,38.76A8,8,0,0,1,915.63,550.18Zm742.76-77.77a8,8,0,0,1-7.47-5.14,378.66,378.66,0,0,0-16.12-36.21,8,8,0,0,1,14.25-7.27,393.69,393.69,0,0,1,16.81,37.75,8,8,0,0,1-7.47,10.87Zm-721.87-.3a8,8,0,0,1-7.47-10.87,394.27,394.27,0,0,1,16.82-37.7,8,8,0,1,1,14.25,7.27A379.24,379.24,0,0,0,944,467,8,8,0,0,1,936.52,472.11Zm685.16-71.72a8,8,0,0,1-6.71-3.64,382.54,382.54,0,0,0-23.32-32.06,8,8,0,0,1,12.44-10.07A396.77,396.77,0,0,1,1628.38,388a8,8,0,0,1-6.7,12.36Zm-648.42-.22a8,8,0,0,1-6.7-12.37,396.53,396.53,0,0,1,24.31-33.38,8,8,0,0,1,12.42,10.08,382.07,382.07,0,0,0-23.32,32A8,8,0,0,1,973.26,400.17Zm597.53-62.59a8,8,0,0,1-5.66-2.35,383.44,383.44,0,0,0-29.43-26.54,8,8,0,1,1,10.08-12.42,397.51,397.51,0,0,1,30.67,27.65,8,8,0,0,1-5.66,13.66Zm-546.62-.18a8,8,0,0,1-5.65-13.65,395.82,395.82,0,0,1,30.69-27.64,8,8,0,1,1,10.07,12.43,381.4,381.4,0,0,0-29.45,26.52A8,8,0,0,1,1024.17,337.4ZM1508,286.66a8,8,0,0,1-4.36-1.29,377.13,377.13,0,0,0-34.28-19.85,8,8,0,0,1,7.28-14.25A395.56,395.56,0,0,1,1512.4,272a8,8,0,0,1-4.37,14.7Zm-421-.14a8,8,0,0,1-4.37-14.71,397.41,397.41,0,0,1,35.77-20.67,8,8,0,0,1,7.27,14.25,377.53,377.53,0,0,0-34.31,19.84A8,8,0,0,1,1087,286.52Zm349.12-36.61a7.88,7.88,0,0,1-2.87-.54,378,378,0,0,0-37.68-12.25,8,8,0,1,1,4.14-15.45A390.32,390.32,0,0,1,1439,234.44a8,8,0,0,1-2.87,15.47ZM1159,249.79a8,8,0,0,1-2.87-15.47,395.84,395.84,0,0,1,39.31-12.74,8,8,0,1,1,4.13,15.46,374,374,0,0,0-37.7,12.22A8.08,8.08,0,0,1,1159,249.79ZM1358.05,229a7.73,7.73,0,0,1-1.26-.1,383.8,383.8,0,0,0-39.41-4.11,8,8,0,0,1,.83-16,399.36,399.36,0,0,1,41.07,4.29,8,8,0,0,1-1.23,15.9Zm-121-.05a8,8,0,0,1-1.23-15.9,399.31,399.31,0,0,1,41.07-4.26,8,8,0,1,1,.82,16,384.24,384.24,0,0,0-39.42,4.08A7.41,7.41,0,0,1,1237.08,229Z"/><path class="cls-4" d="M910.9,610.77a8,8,0,0,1-8-8c0-6.78.17-13.65.52-20.4a8,8,0,0,1,16,.81c-.33,6.49-.5,13.08-.5,19.59A8,8,0,0,1,910.9,610.77Z"/><path class="cls-4" d="M1019.19,610.77a8,8,0,0,1-8-8c0-6.84.24-13.75.73-20.55a8,8,0,0,1,16,1.13c-.46,6.42-.69,13-.69,19.42A8,8,0,0,1,1019.19,610.77Z"/><path class="cls-4" d="M1025.52,551.5a8.26,8.26,0,0,1-1.7-.18,8,8,0,0,1-6.12-9.52,284.27,284.27,0,0,1,11.51-39.19,8,8,0,0,1,15,5.6,269.87,269.87,0,0,0-10.86,37A8,8,0,0,1,1025.52,551.5Zm543.7-.21a8,8,0,0,1-7.8-6.3A268.47,268.47,0,0,0,1550.53,508a8,8,0,0,1,15-5.61,284.93,284.93,0,0,1,11.53,39.16,8,8,0,0,1-6.12,9.52A8.28,8.28,0,0,1,1569.22,551.29Zm-516-74a8,8,0,0,1-7-11.85,288,288,0,0,1,22.12-34.31,8,8,0,0,1,12.8,9.6,270.77,270.77,0,0,0-20.88,32.4A8,8,0,0,1,1053.21,477.33Zm488.3-.14a8,8,0,0,1-7-4.15,270.06,270.06,0,0,0-20.88-32.37,8,8,0,0,1,12.79-9.61,287.67,287.67,0,0,1,22.12,34.28,8,8,0,0,1-7,11.85ZM1100.72,414a8,8,0,0,1-5.65-13.66,289.12,289.12,0,0,1,30.83-26.73,8,8,0,1,1,9.6,12.8,273.07,273.07,0,0,0-29.12,25.25A8,8,0,0,1,1100.72,414Zm393.26-.09a8,8,0,0,1-5.65-2.34,273.09,273.09,0,0,0-29.14-25.23,8,8,0,0,1,9.59-12.81,288.11,288.11,0,0,1,30.85,26.72,8,8,0,0,1-5.65,13.66Zm-329.92-47.37a8,8,0,0,1-3.85-15,285.4,285.4,0,0,1,37.11-17,8,8,0,0,1,5.59,15,269.66,269.66,0,0,0-35,16A8,8,0,0,1,1164.06,366.54Zm266.54-.07a8.05,8.05,0,0,1-3.83-1,269.5,269.5,0,0,0-35.06-16,8,8,0,0,1,5.59-15,285.9,285.9,0,0,1,37.15,17,8,8,0,0,1-3.85,15Zm-192.42-27.59a8,8,0,0,1-1.69-15.82,286.9,286.9,0,0,1,40.4-5.77,8,8,0,1,1,1.13,16,269.68,269.68,0,0,0-38.14,5.45A8.26,8.26,0,0,1,1238.18,338.88Zm118.23-.05a8.26,8.26,0,0,1-1.7-.18,271.08,271.08,0,0,0-38.14-5.42,8,8,0,1,1,1.12-16,286.84,286.84,0,0,1,40.4,5.74,8,8,0,0,1-1.68,15.82Z"/><path class="cls-4" d="M1575.6,610.77a8,8,0,0,1-8-8c0-6.47-.23-13-.68-19.42a8,8,0,0,1,16-1.13c.48,6.79.72,13.71.72,20.55A8,8,0,0,1,1575.6,610.77Z"/><path class="cls-4" d="M1682.48,615.45h-.09a5,5,0,0,1-3.92-2l-51.06-68.67a5,5,0,0,1,8-6l47.21,63.5,47-58.37a5,5,0,0,1,7.78,6.27l-51.07,63.39A5,5,0,0,1,1682.48,615.45Z"/><path class="cls-4" d="M1019,615.45h-.09a5,5,0,0,1-3.92-2L964,544.77a5,5,0,0,1,8-6l47.21,63.5,47-58.37a5,5,0,0,1,7.78,6.27l-51.07,63.39A5,5,0,0,1,1019,615.45Z"/><path class="cls-13" d="M2034.25,1692.88v20.26a14.34,14.34,0,0,1-14.33,14.33H1772.65a14.34,14.34,0,0,1-14.34-14.33v-20.26a14.34,14.34,0,0,1,14.34-14.34h247.27a14.32,14.32,0,0,1,14.33,14.34Z"/><rect class="cls-12" x="1772.02" y="1678.54" width="7.18" height="48.93"/><rect class="cls-12" x="1802.14" y="1678.54" width="7.18" height="48.93"/><rect class="cls-12" x="1832.26" y="1678.54" width="7.18" height="48.93"/><rect class="cls-12" x="1862.38" y="1678.54" width="7.18" height="48.93"/><rect class="cls-12" x="1892.5" y="1678.54" width="7.18" height="48.93"/><rect class="cls-12" x="1922.61" y="1678.54" width="7.18" height="48.93"/><rect class="cls-12" x="1952.73" y="1678.54" width="7.18" height="48.93"/><rect class="cls-12" x="1982.85" y="1678.54" width="7.18" height="48.93"/><rect class="cls-12" x="2012.97" y="1678.54" width="7.18" height="48.93"/><path class="cls-12" d="M2030.87,1683.62H1761.7a14.33,14.33,0,0,1,11-5.08h247.27A14.35,14.35,0,0,1,2030.87,1683.62Z"/><path class="cls-12" d="M2030.87,1722.39H1761.7a14.3,14.3,0,0,0,11,5.08h247.27A14.32,14.32,0,0,0,2030.87,1722.39Z"/><path class="cls-13" d="M2051.55,1644v20.26a14.34,14.34,0,0,1-14.34,14.33H1789.94a14.34,14.34,0,0,1-14.33-14.33V1644a14.34,14.34,0,0,1,14.33-14.34h247.27a14.35,14.35,0,0,1,14.34,14.34Z"/><rect class="cls-12" x="1789.31" y="1629.62" width="7.18" height="48.92"/><rect class="cls-12" x="1819.43" y="1629.62" width="7.18" height="48.92"/><rect class="cls-12" x="1849.55" y="1629.62" width="7.18" height="48.92"/><rect class="cls-12" x="1879.67" y="1629.62" width="7.18" height="48.92"/><rect class="cls-12" x="1909.79" y="1629.62" width="7.18" height="48.92"/><rect class="cls-12" x="1939.91" y="1629.62" width="7.18" height="48.92"/><rect class="cls-12" x="1970.03" y="1629.62" width="7.18" height="48.92"/><rect class="cls-12" x="2000.15" y="1629.62" width="7.18" height="48.92"/><rect class="cls-12" x="2030.27" y="1629.62" width="7.18" height="48.92"/><path class="cls-12" d="M2048.16,1634.7H1779a14.32,14.32,0,0,1,11-5.09h247.27A14.31,14.31,0,0,1,2048.16,1634.7Z"/><path class="cls-12" d="M2048.16,1673.46H1779a14.32,14.32,0,0,0,11,5.08h247.27A14.3,14.3,0,0,0,2048.16,1673.46Z"/><path class="cls-13" d="M2038.14,1595.11v20.26a14.34,14.34,0,0,1-14.34,14.33H1776.53a14.34,14.34,0,0,1-14.33-14.33v-20.26a14.32,14.32,0,0,1,14.33-14.34H2023.8a14.34,14.34,0,0,1,14.34,14.34Z"/><rect class="cls-12" x="1775.9" y="1580.77" width="7.18" height="48.92"/><rect class="cls-12" x="1806.02" y="1580.77" width="7.18" height="48.92"/><rect class="cls-12" x="1836.14" y="1580.77" width="7.18" height="48.92"/><rect class="cls-12" x="1866.26" y="1580.77" width="7.18" height="48.92"/><rect class="cls-12" x="1896.38" y="1580.77" width="7.18" height="48.92"/><rect class="cls-12" x="1926.5" y="1580.77" width="7.18" height="48.92"/><rect class="cls-12" x="1956.62" y="1580.77" width="7.18" height="48.92"/><rect class="cls-12" x="1986.74" y="1580.77" width="7.18" height="48.92"/><rect class="cls-12" x="2016.86" y="1580.77" width="7.18" height="48.92"/><path class="cls-12" d="M2034.75,1585.85H1765.58a14.36,14.36,0,0,1,11-5.08H2023.8A14.33,14.33,0,0,1,2034.75,1585.85Z"/><path class="cls-12" d="M2034.75,1624.62H1765.58a14.33,14.33,0,0,0,11,5.08H2023.8A14.3,14.3,0,0,0,2034.75,1624.62Z"/><path class="cls-13" d="M2043.66,1547.15v20.26a14.34,14.34,0,0,1-14.34,14.34H1782.05a14.34,14.34,0,0,1-14.33-14.34v-20.26a14.32,14.32,0,0,1,14.33-14.33h247.27a14.34,14.34,0,0,1,14.34,14.33Z"/><rect class="cls-12" x="1781.42" y="1532.82" width="7.18" height="48.92"/><rect class="cls-12" x="1811.54" y="1532.82" width="7.18" height="48.92"/><rect class="cls-12" x="1841.66" y="1532.82" width="7.18" height="48.92"/><rect class="cls-12" x="1871.78" y="1532.82" width="7.18" height="48.92"/><rect class="cls-12" x="1901.9" y="1532.82" width="7.18" height="48.92"/><rect class="cls-12" x="1932.02" y="1532.82" width="7.18" height="48.92"/><rect class="cls-12" x="1962.14" y="1532.82" width="7.18" height="48.92"/><rect class="cls-12" x="1992.26" y="1532.82" width="7.18" height="48.92"/><rect class="cls-12" x="2022.38" y="1532.82" width="7.18" height="48.92"/><path class="cls-12" d="M2040.27,1537.9H1771.1a14.32,14.32,0,0,1,11-5.08h247.27A14.3,14.3,0,0,1,2040.27,1537.9Z"/><path class="cls-12" d="M2040.27,1576.66H1771.1a14.32,14.32,0,0,0,11,5.09h247.27A14.31,14.31,0,0,0,2040.27,1576.66Z"/><path class="cls-13" d="M2012.83,1497.49v20.26a14.33,14.33,0,0,1-14.33,14.33H1751.23a14.33,14.33,0,0,1-14.34-14.33v-20.26a14.34,14.34,0,0,1,14.34-14.33H1998.5a14.32,14.32,0,0,1,14.33,14.33Z"/><rect class="cls-12" x="1750.6" y="1483.16" width="7.18" height="48.93"/><rect class="cls-12" x="1780.72" y="1483.16" width="7.18" height="48.93"/><rect class="cls-12" x="1810.84" y="1483.16" width="7.18" height="48.93"/><rect class="cls-12" x="1840.96" y="1483.16" width="7.18" height="48.93"/><rect class="cls-12" x="1871.07" y="1483.16" width="7.18" height="48.93"/><rect class="cls-12" x="1901.19" y="1483.16" width="7.18" height="48.93"/><rect class="cls-12" x="1931.31" y="1483.16" width="7.18" height="48.93"/><rect class="cls-12" x="1961.43" y="1483.16" width="7.18" height="48.93"/><rect class="cls-12" x="1991.55" y="1483.16" width="7.18" height="48.93"/><path class="cls-12" d="M2009.45,1488.24H1740.28a14.3,14.3,0,0,1,11-5.08H1998.5A14.32,14.32,0,0,1,2009.45,1488.24Z"/><path class="cls-12" d="M2009.45,1527H1740.28a14.3,14.3,0,0,0,11,5.08H1998.5A14.32,14.32,0,0,0,2009.45,1527Z"/><path class="cls-13" d="M2043.16,1449.14v20.26a14.33,14.33,0,0,1-14.33,14.33H1781.56a14.34,14.34,0,0,1-14.33-14.33v-20.26a14.32,14.32,0,0,1,14.33-14.34h247.27a14.32,14.32,0,0,1,14.33,14.34Z"/><rect class="cls-12" x="1780.93" y="1434.8" width="7.18" height="48.92"/><rect class="cls-12" x="1811.05" y="1434.8" width="7.18" height="48.92"/><rect class="cls-12" x="1841.17" y="1434.8" width="7.18" height="48.92"/><rect class="cls-12" x="1871.29" y="1434.8" width="7.18" height="48.92"/><rect class="cls-12" x="1901.41" y="1434.8" width="7.18" height="48.92"/><rect class="cls-12" x="1931.53" y="1434.8" width="7.18" height="48.92"/><rect class="cls-12" x="1961.65" y="1434.8" width="7.18" height="48.92"/><rect class="cls-12" x="1991.76" y="1434.8" width="7.18" height="48.92"/><rect class="cls-12" x="2021.88" y="1434.8" width="7.18" height="48.92"/><path class="cls-12" d="M2039.78,1439.88H1770.61a14.3,14.3,0,0,1,11-5.08h247.27A14.3,14.3,0,0,1,2039.78,1439.88Z"/><path class="cls-12" d="M2039.78,1478.65H1770.61a14.3,14.3,0,0,0,11,5.08h247.27A14.3,14.3,0,0,0,2039.78,1478.65Z"/><path class="cls-13" d="M2032.41,1400.06v20.26a14.33,14.33,0,0,1-14.34,14.33H1770.8a14.33,14.33,0,0,1-14.33-14.33v-20.26a14.32,14.32,0,0,1,14.33-14.33h247.27a14.34,14.34,0,0,1,14.34,14.33Z"/><rect class="cls-12" x="1770.17" y="1385.73" width="7.18" height="48.93"/><rect class="cls-12" x="1800.29" y="1385.73" width="7.18" height="48.93"/><rect class="cls-12" x="1830.41" y="1385.73" width="7.18" height="48.93"/><rect class="cls-12" x="1860.53" y="1385.73" width="7.18" height="48.93"/><rect class="cls-12" x="1890.65" y="1385.73" width="7.18" height="48.93"/><rect class="cls-12" x="1920.77" y="1385.73" width="7.18" height="48.93"/><rect class="cls-12" x="1950.89" y="1385.73" width="7.18" height="48.93"/><rect class="cls-12" x="1981.01" y="1385.73" width="7.18" height="48.93"/><rect class="cls-12" x="2011.13" y="1385.73" width="7.18" height="48.93"/><path class="cls-12" d="M2029,1390.81H1759.85a14.32,14.32,0,0,1,11-5.08h247.27A14.3,14.3,0,0,1,2029,1390.81Z"/><path class="cls-12" d="M2029,1429.57H1759.85a14.32,14.32,0,0,0,11,5.08h247.27A14.3,14.3,0,0,0,2029,1429.57Z"/><path class="cls-13" d="M2047.18,1351.4v20.26a14.34,14.34,0,0,1-14.33,14.34H1785.58a14.33,14.33,0,0,1-14.33-14.34V1351.4a14.32,14.32,0,0,1,14.33-14.33h247.27a14.32,14.32,0,0,1,14.33,14.33Z"/><rect class="cls-12" x="1784.95" y="1337.07" width="7.18" height="48.93"/><rect class="cls-12" x="1815.07" y="1337.07" width="7.18" height="48.93"/><rect class="cls-12" x="1845.19" y="1337.07" width="7.18" height="48.93"/><rect class="cls-12" x="1875.31" y="1337.07" width="7.18" height="48.93"/><rect class="cls-12" x="1905.43" y="1337.07" width="7.18" height="48.93"/><rect class="cls-12" x="1935.55" y="1337.07" width="7.18" height="48.93"/><rect class="cls-12" x="1965.67" y="1337.07" width="7.18" height="48.93"/><rect class="cls-12" x="1995.78" y="1337.07" width="7.18" height="48.93"/><rect class="cls-12" x="2025.9" y="1337.07" width="7.18" height="48.93"/><path class="cls-12" d="M2043.8,1342.15H1774.63a14.3,14.3,0,0,1,10.95-5.08h247.27A14.3,14.3,0,0,1,2043.8,1342.15Z"/><path class="cls-12" d="M2043.8,1380.92H1774.63a14.33,14.33,0,0,0,10.95,5.08h247.27A14.33,14.33,0,0,0,2043.8,1380.92Z"/><circle class="cls-12" cx="1763.7" cy="1582.16" r="147.57" transform="translate(-406.77 631.94) rotate(-18.25)"/><path class="cls-13" d="M1879.05,1619.42a121.11,121.11,0,1,1-40.51-132.64A118.38,118.38,0,0,1,1848,1495a121.41,121.41,0,0,1,31,124.39Z"/><path class="cls-14" d="M1838.54,1486.78l-167,174.11a121.48,121.48,0,0,1-28.89-85.09l109.7-114.35a121.7,121.7,0,0,1,86.22,25.33Z"/><path class="cls-14" d="M1868.66,1521.54l-161.19,168a120.23,120.23,0,0,1-27.33-19.54L1848,1495A121,121,0,0,1,1868.66,1521.54Z"/><path class="cls-11" d="M1771.83,1467c-14.32-1.5-16.94-.09-23.37,12.61,1.6-14.15.19-16.76-12.61-23.37,14.32,1.51,16.94.09,23.37-12.61C1757.72,1457.9,1759.13,1460.52,1771.83,1467Z"/><path class="cls-11" d="M1721.15,1694.63c-12.09-1.27-14.29-.08-19.72,10.64,1.35-11.94.16-14.15-10.64-19.72,12.08,1.27,14.29.08,19.72-10.64C1709.24,1687,1710.43,1689.2,1721.15,1694.63Z"/><path class="cls-15" d="M1859.35,1092.26c-89.31,0-162-72.65-162-162s72.66-162,162-162,162,72.66,162,162S1948.65,1092.26,1859.35,1092.26Zm0-315.92c-84.9,0-154,69.07-154,154s69.07,154,154,154,154-69.06,154-154S1944.24,776.34,1859.35,776.34Z"/><path class="cls-15" d="M1859.35,1022.22a21.49,21.49,0,0,1-21.5-21.5V703.55a21.5,21.5,0,1,1,43,0v297.17A21.5,21.5,0,0,1,1859.35,1022.22Z"/><path class="cls-11" d="M1859.35,1092.26c-89.31,0-162-72.65-162-162s72.66-162,162-162,162,72.66,162,162S1948.65,1092.26,1859.35,1092.26Zm0-315.92c-84.9,0-154,69.07-154,154s69.07,154,154,154,154-69.06,154-154S1944.24,776.34,1859.35,776.34Z"/><path class="cls-11" d="M1859.35,1022.22a21.49,21.49,0,0,1-21.5-21.5V703.55a21.5,21.5,0,1,1,43,0v297.17A21.5,21.5,0,0,1,1859.35,1022.22Z"/><path class="cls-11" d="M1860.82,1039.87H1860a21.53,21.53,0,0,1-16.55-8.83l-89.28-114.4a21.5,21.5,0,0,1,34.76-25.31l73.25,92.38L1930.81,890a21.5,21.5,0,1,1,32.69,27.93l-86.33,114.4A21.49,21.49,0,0,1,1860.82,1039.87Z"/><path class="cls-11" d="M786,1075.8c-89.31,0-162-72.66-162-162s72.66-162,162-162,162,72.66,162,162S875.33,1075.8,786,1075.8Zm0-315.93c-84.9,0-154,69.07-154,154s69.07,154,154,154,154-69.07,154-154S870.92,759.87,786,759.87Z"/><circle class="cls-11" cx="786.03" cy="913.83" r="117.21" transform="translate(-415.96 823.46) rotate(-45)"/><path class="cls-2" d="M874.8,963a101.27,101.27,0,0,1-177.55,0,102.12,102.12,0,0,1,48.48-43.68,54.44,54.44,0,1,1,80.59,0A102.12,102.12,0,0,1,874.8,963Z"/><path class="cls-12" d="M2028.3,1191.55l-68-36.55-5.75,10.69h0c-2.77,5.17,10.27,17.58,29.14,27.73s36.42,14.19,39.2,9C2023.19,1202,2028.3,1191.55,2028.3,1191.55Z"/><path class="cls-13" d="M2028.37,1192.32c-2.78,5.17-20.33,1.13-39.2-9s-31.91-22.56-29.13-27.73,20.32-1.12,39.19,9S2031.15,1187.16,2028.37,1192.32Z"/><path class="cls-12" d="M1726.33,1328.88l-68.77,11.17q.87,5.42,1.76,10.82h0c.85,5.23,17,7,36.11,3.85s33.9-9.85,33-15.08C1728.4,1339.16,1726.33,1328.88,1726.33,1328.88Z"/><path class="cls-13" d="M1726.81,1329.4c.85,5.23-13.94,12-33,15.08s-35.27,1.38-36.12-3.85,13.95-12,33-15.08S1726,1324.17,1726.81,1329.4Z"/><path class="cls-12" d="M1808.5,1208.23l-62.5-30.79-4.85,9.84h0c-2.34,4.75,9.84,15.53,27.19,24.08s33.33,11.63,35.67,6.88C1804.22,1217.8,1808.5,1208.23,1808.5,1208.23Z"/><path class="cls-13" d="M1808.59,1208.93c-2.34,4.75-18.31,1.67-35.66-6.88s-29.53-19.33-27.19-24.08,18.3-1.67,35.66,6.88S1810.93,1204.18,1808.59,1208.93Z"/><path class="cls-12" d="M1715.33,1092.1l-72,11.69q.92,5.67,1.84,11.33h0c.89,5.47,17.81,7.27,37.8,4s35.48-10.32,34.59-15.79C1717.49,1102.86,1715.33,1092.1,1715.33,1092.1Z"/><path class="cls-13" d="M1715.83,1092.64c.89,5.48-14.6,12.54-34.59,15.79s-36.91,1.44-37.8-4,14.59-12.54,34.58-15.79S1714.94,1087.17,1715.83,1092.64Z"/><rect class="cls-15" x="528.84" y="1171.32" width="506.8" height="162.58" rx="35.12"/><path class="cls-12" d="M686.27,1229.74v45.74A22.32,22.32,0,0,1,664,1297.8h-86.5a22.32,22.32,0,0,1-22.31-22.32v-45.74a22.31,22.31,0,0,1,22.31-22.32H664a22.34,22.34,0,0,1,22.32,22.32Z"/><path class="cls-2" d="M862.58,1271.22H719.05a18.61,18.61,0,0,1-18.61-18.61h0A18.61,18.61,0,0,1,719.05,1234H862.58a18.61,18.61,0,0,1,18.61,18.61h0A18.61,18.61,0,0,1,862.58,1271.22Z"/><path class="cls-16" d="M990.74,1271.22H918.81a18.61,18.61,0,0,1-18.6-18.61h0a18.61,18.61,0,0,1,18.6-18.61h71.93a18.61,18.61,0,0,1,18.6,18.61h0A18.61,18.61,0,0,1,990.74,1271.22Z"/><path class="cls-13" d="M677.36,1211.91,565.15,1294.1a22.29,22.29,0,0,1-10-18.62v-45.74a22.31,22.31,0,0,1,22.31-22.32H664A22.17,22.17,0,0,1,677.36,1211.91Z"/><path class="cls-8" d="M657.25,1272.08a15,15,0,1,1-15-15A15,15,0,0,1,657.25,1272.08Z"/><path class="cls-2" d="M675.07,1272.08a15,15,0,1,1-15-15A15,15,0,0,1,675.07,1272.08Z"/><path class="cls-5" d="M2264.67,1067.25c8.72-27.31,6.59-53.81-12.58-71.65-19.43-18.08-50.57-12.41-50.57-12.41h0s-21.79-14.2-49.1,4.39-16,43.46-29,58.69c-7.7,9-34.82,4.74-36,39.86-.34,10.13,9.7,19.41,19.38,22.42,17,5.29,35.84,1.84,40.09,10.83,14.63,30.93,70.84,31.88,82.83,13.47,3.72-5.71,46.81,17.43,52.44-26.19C2285,1084.56,2256.87,1091.66,2264.67,1067.25Z"/><path class="cls-9" d="M2153.37,1056.51c-3.54,33.63,15,63.14,41.41,65.92s50.69-22.23,54.22-55.86-15-63.13-41.41-65.91S2156.91,1022.89,2153.37,1056.51Z"/><path d="M2234.71,1070.68a4.62,4.62,0,1,0,4-5.14A4.63,4.63,0,0,0,2234.71,1070.68Z"/><path d="M2197.53,1067a5,5,0,1,0,4.36-5.57A5,5,0,0,0,2197.53,1067Z"/><path class="cls-5" d="M2193.7,1061.28a1.64,1.64,0,0,0,1-.51c4.17-4.26,10.9-3,11-3a1.74,1.74,0,0,0,.68-3.41c-.35-.07-8.63-1.67-14.13,4a1.75,1.75,0,0,0,0,2.46A1.71,1.71,0,0,0,2193.7,1061.28Z"/><path class="cls-5" d="M2246.44,1067.73a1.82,1.82,0,0,0,.55-.16,1.75,1.75,0,0,0,.8-2.33,12.24,12.24,0,0,0-10.43-6.84,1.74,1.74,0,0,0,0,3.48,8.73,8.73,0,0,1,7.34,4.88A1.72,1.72,0,0,0,2246.44,1067.73Z"/><path class="cls-10" d="M2228.57,1079.16c1.52,3.3,2.72,6.58,4.49,8.82a1.83,1.83,0,0,1-.24,2.5c-3,2.62-9.33,3.4-13.13,3.64a.49.49,0,0,1-.21-.94,23.65,23.65,0,0,0,7.57-4.36,2.19,2.19,0,0,0,.66-1.86c-.21-1.59-.6-4.82-.71-7.43A.82.82,0,0,1,2228.57,1079.16Z"/><path class="cls-11" d="M2192.91,1094.36a1.38,1.38,0,0,1,1.94-1.65,98.17,98.17,0,0,0,24.61,8.7,1.38,1.38,0,0,1,.46,2.5,17.3,17.3,0,0,1-27-9.55Z"/><path class="cls-5" d="M2153.74,1053.56c30.44,6.38,81.57-8.85,90.27-22.87.83-20.24-25.87-40-45.77-37.52S2149.55,1026.24,2153.74,1053.56Z"/><path class="cls-10" d="M2243.33,1144.45c31.32,7.82,84.87,81,89.88,135.89-17.19,3.56-36.83-10.14-36.83-10.14L2253.83,1209Z"/><path class="cls-9" d="M2273.62,1772.35l16.78-66.09-41.63-5.73c-1.43,31.26-3.76,62-3.56,70.36Z"/><path class="cls-9" d="M2174.29,1700.16h-43.46c1.43,10.41,7.13,66.81,7.13,66.81,3.67,8.33,36.06,6.43,36.06,1.74C2171.57,1758.56,2174.09,1701.46,2174.29,1700.16Z"/><path class="cls-7" d="M2245.36,1726l42.86,6.33L2318,1554.57c-6.13-67.45-65.51-211-65.51-211l-66.93,23.44-1.63,63.28,80.6,136.47C2254,1593.2,2246.79,1678.53,2245.36,1726Z"/><path class="cls-8" d="M2212.23,1348.37c-.61-4.16-.82-5.47-4.29-7.55l-64.27-18.23-15.31,15.11c-14.48,52.6-5.51,125.79,5.92,183.86-16.73,50.27-10.19,153.89-3.45,202.59h45.71c2.65-32.56,1.82-92.94,2-122.11h0c5.92-23.44,11.63-48.44,16.73-74.75,6.53-33.59,14.7-66.15,16.94-96.62C2214.27,1401.76,2214.88,1370.77,2212.23,1348.37Z"/><path class="cls-9" d="M2131.15,1136.43c-15.11,9.92-78.8,92.78-43.7,161,1.62.9,29.73-46.73,29.73-46.73l33.19-65.69Z"/><path class="cls-9" d="M2163.13,1093.32,2203,1116s3.55,16.15,5.31,21.39c3.65,10.82-10.33,15.55-22.14,8.82a80.52,80.52,0,0,1-19.46-15.75Z"/><path class="cls-4" d="M2262.38,1354.12s-16.47,19.49-19.25,21l-14.75-16.1-.1.28-3.5,9.21-4.09,10.76c-3.42,0-106.25-23-106.25-23,.21-9.27,8.92-39.3,23-71.26-3.42-27.08-.13-55.22-1.21-70.83,8.31-41.87,2.38-57.94-5.11-77.67l26.09-7.7,47,16.56,3.49-11.32s29.45,7.06,35.64,10.48l11.12,46.43-2.4,98.63S2255.74,1329.23,2262.38,1354.12Z"/><path class="cls-17" d="M2166.31,1123.51l-18.4,7.81c1.94,22.09,51.38,35.3,51.38,35.3l4.91-21.33Z"/><path class="cls-17" d="M2204.2,1145.29l14.56,16.18s12.59-13,8-21.07-21.24-13.47-21.24-13.47Z"/><path class="cls-5" d="M2263.49,1771.28c4.36-11.43,13.66-12.7,13.66-12.7,18.09,24.12,62.52,9.32,61,42-67.55-.41-95.62,0-95.62,0,.09-7.49,1.42-25.28,3-32.25l3.52.63Z"/><path class="cls-5" d="M2242.57,1799.64h95.66a0,0,0,0,1,0,0v5.67a3.94,3.94,0,0,1-3.94,3.94h-87.77a3.95,3.95,0,0,1-3.95-3.95v-5.66A0,0,0,0,1,2242.57,1799.64Z"/><path class="cls-17" d="M2228.28,1359.25l-3.5,9.21c-3.17-21.2-15-109.9-8.32-134.4,6.26-23-1.57-47.25-9.15-70.71-1.84-5.73-3.77-11.66-5.41-17.4l2.3-.66,2.3-.66c1.62,5.67,3.52,11.56,5.36,17.25,7.79,24.12,15.83,49.07,9.2,73.45C2215.31,1256.47,2224.13,1329.29,2228.28,1359.25Z"/><path class="cls-5" d="M2181.76,1800.85s-5.42-20.23-5.9-22.83c-.54-3-2.14-9.94-2.46-13.53-.08-.88-9.39-6.57-16.5-6.56-9.64,0-18.41,5.59-18.59,6.65-1.14,6.75-1.17,14.69-3,21.26-1.37,4.89-5.09,16.29-5.09,16.29Z"/><path class="cls-5" d="M2181.76,1799.28c-1.26,4-16.86-.62-28.24-.62-9.55,0-21.91,3.71-23.31,2.27-2.39,4.22-.43,13-.43,13s10,.52,21.9,0,25.74.25,30.94-1.3C2185.9,1807.11,2181.76,1799.28,2181.76,1799.28Z"/><path class="cls-9" d="M2201.72,1229.3s-82.29,82.49-114.27,68.16c-10.54-14.25,11.84-42.85,32.81-52.43s55.93-24.59,55.93-24.59Z"/><path class="cls-18" d="M2217.31,1201.27l34.19-26.38a3.39,3.39,0,0,1,2.61-.65l23.29,4.23c.67.11,2,4.17,1.49,4.58l-23.25,14a.76.76,0,0,1-.38.16l-36.55,6.27C2217.93,1203.53,2216.69,1201.75,2217.31,1201.27Z"/><path class="cls-19" d="M2219.06,1203.8l32.52-24.82a3.41,3.41,0,0,1,2.62-.65l24.06,4.07a.77.77,0,0,1,.34,1.37l-22.87,17.34a.83.83,0,0,1-.39.16l-35.72,3.91A.77.77,0,0,1,2219.06,1203.8Z"/><path class="cls-9" d="M2175.3,1220.89l19.21-9.62s12.18-13.26,16-17.22c4.87-1.42,14.34-5.5,16.27-5.37A27.18,27.18,0,0,1,2232,1190l-11.12,8.71s4.53,2.09,10.89-.45,18.21-10.34,22.78-7.55l1.45,1.87s4-3.1,6.42-1c7.46,6.65-40.63,35.31-40.63,35.31l-20,2.4Z"/><path class="cls-18" d="M2255.12,1184.31c-1.35.92-3,.83-3.75-.22s-.19-2.65,1.16-3.57,3-.83,3.75.21S2256.48,1183.38,2255.12,1184.31Z"/><path class="cls-10" d="M2333.21,1280.34s-42.66,48.78-72.36,55.68c-1.76-9.78-3.39-17.27-3.39-17.27l40.48-53.29Z"/><path id="c" class="cls-10" d="M2255.46,1338.7a4.31,4.31,0,0,1,.61-1.14l-.21-.06c-4.22-1.4-6.82-5-5.81-8a4.18,4.18,0,0,1,.74-1.34c-2.23-1.73-3.36-4.18-2.64-6.33a4.56,4.56,0,0,1,1.57-2.14c-2.35-1.58-3.55-4.23-2.75-6.64,1-3,4.74-4.51,8.34-3.31s5.7,4.61,4.69,7.63a4.86,4.86,0,0,1-1.24,2c3.51,1.62,5.56,4.81,4.65,7.54a4,4,0,0,1-.75,1.34c2.24,1.73,3.36,4.18,2.65,6.33a4.45,4.45,0,0,1-1.41,2c2.14,1.32,3.27,3.66,2.56,5.78-.85,2.55-4,3.81-7,2.8S2254.61,1341.25,2255.46,1338.7Z"/><path class="cls-9" d="M2163.34,1058.56c4.95,7.73,3.84,17.28-2.49,21.34s-15.46,1.07-20.42-6.66-3.83-17.28,2.49-21.34S2158.39,1050.83,2163.34,1058.56Z"/><path class="cls-10" d="M2153.05,1075.31a2,2,0,0,0,.86-.32c3.86-2.56,5.49-6.4,4.37-10.26a9.67,9.67,0,0,0-8.78-7,2,2,0,0,0-.08,4,5.72,5.72,0,0,1,5,4.06c.63,2.15-.34,4.21-2.73,5.8a2,2,0,0,0-.56,2.78A2,2,0,0,0,2153.05,1075.31Z"/><rect class="cls-15" x="528.84" y="1368.3" width="506.8" height="162.58" rx="35.12"/><path class="cls-20" d="M686.27,1426.72v45.74A22.32,22.32,0,0,1,664,1494.78h-86.5a22.32,22.32,0,0,1-22.31-22.32v-45.74a22.31,22.31,0,0,1,22.31-22.32H664a22.34,22.34,0,0,1,22.32,22.32Z"/><path class="cls-2" d="M862.58,1468.2H719.05a18.61,18.61,0,0,1-18.61-18.61h0a18.61,18.61,0,0,1,18.61-18.6H862.58a18.61,18.61,0,0,1,18.61,18.6h0A18.61,18.61,0,0,1,862.58,1468.2Z"/><path class="cls-16" d="M990.74,1468.2H918.81a18.61,18.61,0,0,1-18.6-18.61h0a18.6,18.6,0,0,1,18.6-18.6h71.93a18.6,18.6,0,0,1,18.6,18.6h0A18.61,18.61,0,0,1,990.74,1468.2Z"/><path class="cls-8" d="M677.36,1408.89l-112.21,82.19a22.29,22.29,0,0,1-10-18.62v-45.74a22.31,22.31,0,0,1,22.31-22.32H664A22.17,22.17,0,0,1,677.36,1408.89Z"/><circle class="cls-21" cx="642.24" cy="1469.06" r="15.01" transform="translate(-42.88 19.5) rotate(-1.68)"/><path class="cls-2" d="M675.07,1469.06a15,15,0,1,1-15-15A15,15,0,0,1,675.07,1469.06Z"/><rect class="cls-15" x="528.84" y="1565.29" width="506.8" height="162.58" rx="35.12"/><path class="cls-12" d="M686.27,1623.71v45.74A22.32,22.32,0,0,1,664,1691.77h-86.5a22.32,22.32,0,0,1-22.31-22.32v-45.74a22.31,22.31,0,0,1,22.31-22.32H664a22.34,22.34,0,0,1,22.32,22.32Z"/><path class="cls-2" d="M862.58,1665.18H719.05a18.61,18.61,0,0,1-18.61-18.6h0A18.61,18.61,0,0,1,719.05,1628H862.58a18.61,18.61,0,0,1,18.61,18.61h0A18.61,18.61,0,0,1,862.58,1665.18Z"/><path class="cls-16" d="M990.74,1665.18H918.81a18.6,18.6,0,0,1-18.6-18.6h0a18.61,18.61,0,0,1,18.6-18.61h71.93a18.61,18.61,0,0,1,18.6,18.61h0A18.6,18.6,0,0,1,990.74,1665.18Z"/><path class="cls-13" d="M677.36,1605.88l-112.21,82.19a22.29,22.29,0,0,1-10-18.62v-45.74a22.31,22.31,0,0,1,22.31-22.32H664A22.17,22.17,0,0,1,677.36,1605.88Z"/><path class="cls-8" d="M657.25,1666.05a15,15,0,1,1-15-15A15,15,0,0,1,657.25,1666.05Z"/><path class="cls-2" d="M675.07,1666.05a15,15,0,1,1-15-15A15,15,0,0,1,675.07,1666.05Z"/><path class="cls-12" d="M1841.16,440.49a20.56,20.56,0,0,1,3.62,8c.14.61.58.44.93.44,2.92,0,5.83,0,8.75,0,1.76,0,2.36.6,2.37,2.35v4.83c0,2.08-.53,2.61-2.58,2.61-2.76,0-5.53,0-8.29,0-.64,0-.92.13-1.07.85-2,9.75-8.31,15.37-17.54,18.17a36.25,36.25,0,0,1-5.07,1.07c-.26,0-.63-.07-.74.21s.23.45.41.64c5.51,6,10.79,12.11,16,18.33,3.39,4,6.73,8.15,10.1,12.22a1.89,1.89,0,0,1,.43,2.24,2,2,0,0,1-2,1c-3.31,0-6.62-.08-9.93,0a3.91,3.91,0,0,1-3.48-1.63c-8.14-9.82-16.43-19.52-25-28.95q-1.59-1.76-3.22-3.47a2.56,2.56,0,0,1-.78-1.87c0-2.31,0-4.62,0-6.93a1.9,1.9,0,0,1,2.1-2.09c3.34,0,6.68.13,10-.17a21.93,21.93,0,0,0,9.61-2.81,11.35,11.35,0,0,0,4.94-5.89c.37-1,.37-1-.67-1h-23.43c-2,0-2.58-.56-2.58-2.61,0-1.64,0-3.28,0-4.92s.64-2.26,2.28-2.26h22.88c.27,0,.66.05.77-.09s-.13-.55-.28-.79c-1.85-2.82-4.65-4.17-7.8-5a29,29,0,0,0-7.14-.77h-8.29c-1.72,0-2.43-.71-2.43-2.44,0-2.31,0-4.62,0-6.93,0-1.6.68-2.25,2.3-2.25h48c1.76,0,2.34.59,2.35,2.36s0,3.41,0,5.11-.61,2.32-2.29,2.32h-13.24Z"/><path class="cls-12" d="M1654.92,177.19a20.45,20.45,0,0,1,3.62,8c.14.61.57.44.93.44,2.92,0,5.83,0,8.75,0,1.76,0,2.36.6,2.37,2.35v4.83c0,2.08-.53,2.61-2.58,2.61-2.76,0-5.53,0-8.3,0-.64,0-.91.13-1.06.85-2,9.76-8.31,15.37-17.54,18.17a38.1,38.1,0,0,1-5.07,1.08c-.26,0-.63-.08-.75.2s.24.46.41.64c5.52,5.95,10.8,12.11,16,18.33,3.39,4.05,6.73,8.15,10.1,12.22a1.89,1.89,0,0,1,.43,2.24,2,2,0,0,1-2,1.05c-3.31,0-6.62-.08-9.93,0a3.91,3.91,0,0,1-3.48-1.63c-8.14-9.82-16.43-19.52-25-29-1.06-1.17-2.13-2.33-3.23-3.47a2.54,2.54,0,0,1-.77-1.87c0-2.31,0-4.62,0-6.93a1.9,1.9,0,0,1,2.1-2.09c3.34,0,6.68.13,10-.17a21.8,21.8,0,0,0,9.61-2.81,11.35,11.35,0,0,0,4.94-5.89c.37-1,.37-1-.67-1h-23.43c-2,0-2.58-.56-2.58-2.61,0-1.64,0-3.28,0-4.92s.64-2.26,2.28-2.26h22.88c.27,0,.66,0,.77-.1s-.13-.55-.28-.78c-1.85-2.83-4.65-4.18-7.8-5a29,29,0,0,0-7.14-.77h-8.29c-1.73,0-2.43-.71-2.43-2.44,0-2.31,0-4.62,0-6.93,0-1.6.68-2.25,2.3-2.25h48c1.76,0,2.34.59,2.34,2.36s0,3.41,0,5.11-.6,2.32-2.28,2.32h-13.24Z"/><path class="cls-12" d="M1333,59.55a20.66,20.66,0,0,1,3.63,8c.13.61.57.44.92.44h8.75c1.76,0,2.37.6,2.37,2.35v4.84c0,2.07-.53,2.6-2.57,2.6-2.77,0-5.54,0-8.3,0-.64,0-.92.13-1.06.85-2,9.76-8.32,15.38-17.54,18.17a37.91,37.91,0,0,1-5.08,1.08c-.26,0-.62-.07-.74.21s.24.45.41.63c5.52,6,10.8,12.11,16,18.33,3.39,4,6.73,8.15,10.11,12.22a1.88,1.88,0,0,1,.42,2.24,2,2,0,0,1-2,1c-3.32,0-6.63-.07-9.94,0a3.92,3.92,0,0,1-3.48-1.62c-8.14-9.83-16.43-19.53-25-29-1.07-1.16-2.13-2.33-3.23-3.46a2.54,2.54,0,0,1-.77-1.88c0-2.31,0-4.62,0-6.93a1.9,1.9,0,0,1,2.1-2.08c3.34,0,6.69.13,10-.17a22,22,0,0,0,9.62-2.82,11.39,11.39,0,0,0,4.94-5.89c.36-1,.37-1-.68-1h-23.43c-2,0-2.57-.56-2.58-2.61,0-1.64,0-3.28,0-4.92s.63-2.25,2.27-2.26H1321c.26,0,.66,0,.76-.1s-.12-.54-.28-.78c-1.85-2.83-4.65-4.18-7.79-5a29.65,29.65,0,0,0-7.14-.77h-8.3c-1.72,0-2.43-.71-2.42-2.44,0-2.31,0-4.62,0-6.93,0-1.6.67-2.25,2.29-2.25h48.05c1.75,0,2.34.6,2.34,2.37v5.1c0,1.7-.61,2.32-2.28,2.33H1333Z"/><path class="cls-12" d="M955.5,177.17a20.66,20.66,0,0,1,3.63,8c.13.61.57.44.93.44,2.91,0,5.83,0,8.75,0,1.76,0,2.36.6,2.36,2.35s0,3.23,0,4.84c0,2.07-.52,2.6-2.57,2.6-2.77,0-5.53,0-8.3,0-.64,0-.91.13-1.06.85-2,9.76-8.32,15.38-17.54,18.17a38.1,38.1,0,0,1-5.07,1.08c-.26,0-.63-.07-.75.21s.24.45.41.63c5.52,6,10.8,12.11,16,18.33,3.39,4,6.72,8.15,10.1,12.22a1.88,1.88,0,0,1,.42,2.24,2,2,0,0,1-2,1c-3.31,0-6.63-.07-9.94,0a3.93,3.93,0,0,1-3.48-1.62c-8.14-9.83-16.42-19.53-25-29-1.06-1.16-2.13-2.33-3.23-3.46a2.57,2.57,0,0,1-.77-1.88c0-2.31,0-4.62,0-6.93a1.9,1.9,0,0,1,2.1-2.08c3.34,0,6.69.13,10-.17a22,22,0,0,0,9.61-2.82,11.35,11.35,0,0,0,4.94-5.89c.37-1,.37-1-.67-1H920.93c-2,0-2.58-.56-2.58-2.61q0-2.46,0-4.92c0-1.65.64-2.25,2.28-2.26h22.88c.26,0,.66.05.77-.1s-.13-.54-.29-.78c-1.84-2.83-4.64-4.18-7.79-5a29.54,29.54,0,0,0-7.14-.77h-8.3c-1.72,0-2.42-.71-2.42-2.44,0-2.31,0-4.62,0-6.93,0-1.6.67-2.25,2.3-2.25h48c1.75,0,2.34.6,2.34,2.36v5.11c0,1.7-.6,2.32-2.28,2.33H955.5Z"/><path class="cls-12" d="M794.35,440.8a20.62,20.62,0,0,1,3.63,8c.13.61.57.44.93.44,2.91,0,5.83,0,8.75,0,1.76,0,2.36.6,2.36,2.35s0,3.22,0,4.83c0,2.08-.52,2.61-2.57,2.61-2.77,0-5.53,0-8.3,0-.64,0-.91.13-1.06.85-2,9.76-8.31,15.37-17.54,18.17a38.1,38.1,0,0,1-5.07,1.08c-.26,0-.63-.08-.75.2s.24.46.41.64c5.52,5.95,10.8,12.11,16,18.33,3.39,4.05,6.72,8.15,10.1,12.22a1.87,1.87,0,0,1,.42,2.24,2,2,0,0,1-2,1c-3.31,0-6.63-.08-9.94,0a3.92,3.92,0,0,1-3.48-1.63c-8.13-9.82-16.42-19.52-25-29-1.06-1.17-2.13-2.33-3.23-3.47a2.54,2.54,0,0,1-.77-1.87c0-2.31,0-4.62,0-6.93a1.91,1.91,0,0,1,2.1-2.09c3.35,0,6.69.13,10-.17a21.88,21.88,0,0,0,9.61-2.81,11.35,11.35,0,0,0,4.94-5.89c.37-1,.37-1-.67-1H759.78c-2,0-2.58-.56-2.58-2.61q0-2.46,0-4.92c0-1.65.64-2.26,2.28-2.26h22.88c.27,0,.66,0,.77-.1s-.13-.55-.28-.79c-1.85-2.82-4.65-4.17-7.8-4.95a29,29,0,0,0-7.14-.77h-8.3c-1.72,0-2.42-.71-2.42-2.44,0-2.31,0-4.62,0-6.93,0-1.6.67-2.25,2.3-2.25h48c1.76,0,2.34.59,2.34,2.36v5.11c0,1.7-.6,2.32-2.28,2.32H794.35Z"/><path class="cls-12" d="M1784.19,1520.88a42.46,42.46,0,0,1,7.45,16.42c.28,1.25,1.18.9,1.9.9,6,0,12,0,18,0,3.61,0,4.86,1.23,4.86,4.83q0,5,0,9.93c0,4.27-1.08,5.36-5.29,5.36-5.69,0-11.37,0-17,0-1.32,0-1.88.28-2.18,1.74-4.11,20.06-17.09,31.61-36,37.35a77.23,77.23,0,0,1-10.42,2.21c-.54.09-1.3-.14-1.54.43s.49.93.85,1.31c11.33,12.23,22.19,24.88,32.88,37.66,7,8.33,13.83,16.76,20.77,25.12,1.17,1.41,1.76,2.8.87,4.6s-2.35,2.18-4.18,2.17c-6.81-.05-13.62-.16-20.42,0a8.06,8.06,0,0,1-7.15-3.34c-16.73-20.19-33.76-40.13-51.45-59.5-2.19-2.4-4.38-4.79-6.63-7.13a5.19,5.19,0,0,1-1.59-3.85c0-4.74,0-9.49,0-14.24,0-2.78,1.54-4.24,4.32-4.28,6.86-.1,13.74.26,20.59-.36s13.69-2.11,19.76-5.78a23.35,23.35,0,0,0,10.15-12.1c.76-2,.76-2-1.38-2h-48.15c-4.16,0-5.3-1.14-5.31-5.36,0-3.37,0-6.75,0-10.12s1.31-4.63,4.68-4.63h47c.54,0,1.36.1,1.58-.2.43-.58-.26-1.12-.58-1.61-3.8-5.81-9.56-8.59-16-10.19a60.3,60.3,0,0,0-14.67-1.58c-5.68,0-11.36,0-17,0-3.54,0-5-1.46-5-5,0-4.75,0-9.5,0-14.24,0-3.3,1.39-4.62,4.72-4.63h98.73c3.61,0,4.81,1.22,4.82,4.86v10.49c0,3.49-1.24,4.77-4.69,4.78h-27.22Z"/></g></g></svg>